<svg width="375" height="197" viewBox="0 0 375 197" fill="none" xmlns="http://www.w3.org/2000/svg">
<path d="M73.2879 117.877C0.227274 126.069 -26.9416 107.664 -31.3934 97.4369L-9.11914 -73.2832L497.092 3.1628L480.118 196.278C461.546 168.233 409.852 115.127 351.651 127.067C278.9 141.991 283.622 154.815 222.378 144.564C161.133 134.312 164.614 107.637 73.2879 117.877Z" fill="#4096FF"/>
<path d="M332.246 87.7375C406.479 103.148 436.09 86.6786 441.616 76.5177L434.708 -102.268L-92.0807 -71.1901L-92.7077 130.268C-71.0215 103.007 -12.9919 52.9559 45.6375 70.834C118.924 93.1817 112.878 106.005 176.706 101.207C240.533 96.41 239.454 68.4748 332.246 87.7375Z" fill="#1677FF"/>
<path d="M60.079 35.8197C-19.868 50.0352 -51.0467 31.4464 -56.6427 20.3751L-43.6328 -171.184L519.289 -121.426L513.633 94.6878C491.275 64.7708 430.73 9.27399 367.409 26.6232C288.257 48.3098 294.326 62.2531 226.153 55.1172C157.98 47.9814 160.013 18.0504 60.079 35.8197Z" fill="#0958D9"/>
</svg>
