<svg width="80" height="80" viewBox="0 0 80 80" fill="none" xmlns="http://www.w3.org/2000/svg">
<path d="M39.9999 47.4876C37.9999 47.4876 36.1249 46.7126 34.7124 45.3001C33.2999 43.8876 32.5249 42.0126 32.5249 40.0126C32.5249 38.0126 33.2999 36.1376 34.7124 34.7251C36.1249 33.3126 37.9999 32.5376 39.9999 32.5376C41.9999 32.5376 43.8749 33.3126 45.2874 34.7251C46.6999 36.1376 47.4749 38.0126 47.4749 40.0126C47.4749 42.0126 46.6999 43.8876 45.2874 45.3001C43.8749 46.7126 41.9999 47.4876 39.9999 47.4876ZM39.9999 35.0126C38.6624 35.0126 37.4124 35.5376 36.4749 36.4751C35.5374 37.4126 35.0124 38.6626 35.0124 40.0001C35.0124 41.3376 35.5374 42.5876 36.4749 43.5251C37.4124 44.4626 38.6624 44.9876 39.9999 44.9876C41.3374 44.9876 42.5874 44.4626 43.5249 43.5251C44.4624 42.5876 44.9874 41.3376 44.9874 40.0001C44.9874 38.6626 44.4624 37.4126 43.5249 36.4751C42.5874 35.5376 41.3374 35.0126 39.9999 35.0126Z" fill="#65798D"/>
<path d="M46.9375 39.3876L45.175 37.6251C51.575 31.2251 57.825 33.2626 62.85 34.9001C66.775 36.1751 69.275 36.8626 71.2625 34.8751C78.5 27.6376 67.425 16.1501 66.1375 14.8626C63.575 12.3001 60.5875 10.6751 57.7125 10.2626C54.1625 9.76258 50.825 11.0626 47.75 14.1251C40.825 21.0501 40.625 33.6251 40.625 33.7501L38.125 33.7251C38.125 33.1626 38.3375 20.0126 45.9875 12.3626C49.5875 8.76258 53.775 7.17508 58.0625 7.78758C61.475 8.27508 64.9625 10.1501 67.9 13.0876C74.5125 19.7001 79.825 29.8376 73.025 36.6376C69.8625 39.8001 65.9 38.5126 62.075 37.2626C57.25 35.6876 52.25 34.0626 46.9375 39.3751V39.3876Z" fill="#65798D"/>
<path d="M33.725 41.8875C33.1625 41.8875 20.0125 41.675 12.3625 34.025C4.54995 26.2125 7.61245 17.575 13.0875 12.1125C19.7 5.48751 29.8375 0.175007 36.6375 6.97501C39.7999 10.1375 38.5125 14.1 37.2625 17.925C35.6875 22.75 34.0625 27.75 39.375 33.0625L37.6125 34.825C31.2125 28.425 33.25 22.175 34.8875 17.15C36.1625 13.225 36.85 10.725 34.8624 8.73751C27.625 1.50001 16.1375 12.575 14.85 13.8625C12.6125 16.1 5.93745 24.05 14.125 32.25C21.0625 39.1875 33.625 39.375 33.75 39.375L33.725 41.875V41.8875Z" fill="#65798D"/>
<path d="M23.7749 72.3498C19.3499 72.3498 15.2249 70.0123 12.1124 66.8998C5.49991 60.2873 0.187414 50.1498 6.98741 43.3498C10.1499 40.1873 14.1124 41.4748 17.9374 42.7248C22.7749 44.2998 27.7624 45.9248 33.0749 40.6123L34.8374 42.3748C28.4374 48.7748 22.1874 46.7373 17.1624 45.0998C13.2374 43.8248 10.7374 43.1373 8.74991 45.1248C6.11241 47.7623 5.59991 51.2248 7.21241 55.4248C8.92491 59.8873 12.4499 63.6998 13.8749 65.1373C16.1124 67.3748 24.0624 74.0498 32.2624 65.8623C39.1874 58.9373 39.3874 46.3623 39.3874 46.2373L41.8874 46.2623C41.8874 46.8248 41.6749 59.9748 34.0249 67.6248C30.6499 70.9998 27.1249 72.3373 23.7749 72.3373V72.3498Z" fill="#65798D"/>
<path d="M50.9625 76.2125C48.05 76.2125 45.4875 75.1375 43.3625 73.025C40.2 69.8625 41.4875 65.9 42.7375 62.075C44.3125 57.25 45.9375 52.25 40.625 46.9375L42.3875 45.175C48.7875 51.575 46.75 57.825 45.1125 62.85C43.8375 66.775 43.15 69.275 45.1375 71.2625C47.775 73.9 51.2375 74.4125 55.4375 72.8C59.9 71.0875 63.7125 67.5625 65.15 66.1375C67.3875 63.9 74.0625 55.95 65.875 47.75C58.9375 40.8125 46.375 40.625 46.25 40.625L46.275 38.125C46.8375 38.125 59.9875 38.3375 67.6375 45.9875C75.45 53.8 72.3875 62.4375 66.9125 67.9C65.3625 69.45 61.2375 73.25 56.325 75.125C54.4375 75.85 52.6375 76.2125 50.9625 76.2125Z" fill="#65798D"/>
</svg>
