<svg width="120" height="32" viewBox="0 0 120 32" fill="none" xmlns="http://www.w3.org/2000/svg">
<path d="M6.21729 16.9979V0.232014H11.9771L15.2127 11.3165L18.4827 0.232014H24.2081V16.9979H20.2841V4.51043L16.6699 16.9979H13.7555L10.1413 4.54522V16.9979H6.21729Z" fill="#1677FF"/>
<path d="M42.3416 16.9979V0.232014H48.6636C50.9125 0.232014 52.5647 0.610773 53.6203 1.36829C54.6759 2.12581 55.2037 3.21957 55.2037 4.64957C55.2037 5.44573 55.001 6.14914 54.5956 6.75979C54.1978 7.36271 53.475 7.90766 52.427 8.39464C53.1307 8.58788 53.693 8.84296 54.1137 9.15988C54.542 9.4768 54.8595 9.82078 55.066 10.1918C55.2802 10.5628 55.4217 10.9416 55.4905 11.3281C55.5594 11.7146 55.5938 12.0856 55.5938 12.4412C55.5938 13.9948 55.0775 15.1427 54.0448 15.8848C53.0122 16.6268 51.3256 16.9979 48.9849 16.9979H42.3416ZM46.2542 13.9948H49.1111C49.9372 13.9948 50.5606 13.8055 50.9813 13.4267C51.4097 13.0402 51.6239 12.5648 51.6239 12.0006C51.6239 11.5986 51.5206 11.2546 51.3141 10.9686C51.1152 10.6749 50.836 10.4508 50.4765 10.2962C50.1246 10.1338 49.7154 10.0527 49.2488 10.0527H46.2542V13.9948ZM46.2542 6.9685H49.2488C49.5624 6.9685 49.8493 6.92985 50.1093 6.85255C50.3694 6.77525 50.5989 6.65931 50.7978 6.50471C50.9966 6.35012 51.1534 6.16074 51.2682 5.93657C51.3829 5.70468 51.4403 5.44187 51.4403 5.14814C51.4403 4.53749 51.2146 4.06597 50.7633 3.73359C50.312 3.40121 49.746 3.23502 49.0652 3.23502H46.2542V6.9685Z" fill="#1677FF"/>
<path d="M58.5886 16.9979V0.232014H62.5011V16.9979H58.5886Z" fill="#1677FF"/>
<path d="M73.0882 17.2297C71.4818 17.2297 70.0897 16.8819 68.9117 16.1862C67.7414 15.4828 66.835 14.4895 66.1925 13.2064C65.5499 11.9233 65.2287 10.4044 65.2287 8.64972C65.2287 6.8796 65.5538 5.34911 66.2039 4.05824C66.8541 2.76737 67.7682 1.77024 68.9462 1.06683C70.1318 0.355691 71.5124 0.00012207 73.0882 0.00012207C74.6639 0.00012207 76.0331 0.355691 77.1958 1.06683C78.3661 1.77024 79.2725 2.76737 79.915 4.05824C80.5652 5.34911 80.8903 6.8796 80.8903 8.64972C80.8903 10.4044 80.5729 11.9233 79.938 13.2064C79.3031 14.4895 78.4005 15.4828 77.2302 16.1862C76.0599 16.8819 74.6792 17.2297 73.0882 17.2297ZM73.0882 14.0296C73.7995 14.0296 74.423 13.8557 74.9584 13.5079C75.4938 13.1523 75.9069 12.5842 76.1976 11.8035C76.4959 11.0228 76.645 9.99083 76.645 8.70769C76.645 7.3859 76.4959 6.32306 76.1976 5.51917C75.8992 4.70754 75.4824 4.12008 74.9469 3.75678C74.4115 3.38575 73.7919 3.20024 73.0882 3.20024C72.3768 3.20024 71.7534 3.38575 71.218 3.75678C70.6825 4.12781 70.2618 4.71914 69.9558 5.53076C69.6575 6.33466 69.5084 7.39363 69.5084 8.70769C69.5084 9.99083 69.6575 11.0228 69.9558 11.8035C70.2618 12.5842 70.6825 13.1523 71.218 13.5079C71.7534 13.8557 72.3768 14.0296 73.0882 14.0296Z" fill="#FF7A45"/>
<path d="M83.6426 16.9979V0.232014H87.5551L94.577 10.4585V0.232014H98.4781V16.9979H94.9557L87.5551 6.23803V16.9979H83.6426Z" fill="#FF7A45"/>
<path d="M101.884 16.9979V0.232014H113.713L113.69 3.52489H105.82V6.94531H112.532V10.1686H105.797V13.6702L113.782 13.6818V16.9979H101.884Z" fill="#FF7A45"/>
<path d="M39.5167 13.6818L27.6185 13.6702V16.9979H39.5167V13.6818Z" fill="#1677FF"/>
<path d="M39.4184 6.9453H27.6185V10.1686H39.4184V6.9453Z" fill="#1677FF"/>
<path d="M27.6185 0.232005H39.4479V3.52488H39.425H27.6185V0.232005Z" fill="#1677FF"/>
<path d="M0 31.8854V26.2968H0.791687L3.60658 30.4631V26.2968H4.42886V31.8854H3.69454L0.81846 27.6301V31.8854H0Z" fill="#1677FF"/>
<path d="M5.8265 31.8854V26.2968H9.39866L9.39484 27.0156H6.64879V28.7123H9.10034V29.4196H6.64496V31.1549L9.46368 31.1588V31.8854H5.8265ZM6.36577 25.8291L7.33721 24.9247H7.91855L8.87087 25.8291H8.14802L7.62023 25.3151L7.04654 25.8291H6.36577ZM8.73318 24.9518L7.9109 23.9933H8.6261L9.2342 24.9518H8.73318Z" fill="#1677FF"/>
<path d="M10.6446 31.8854V26.2968H11.4363L14.2512 30.4631V26.2968H15.0734V31.8854H14.3391L11.463 27.6301V31.8854H10.6446Z" fill="#1677FF"/>
<path d="M19.5138 31.8854V27.0504H17.7621V26.2968H22.0112V27.0504H20.3399V31.8854H19.5138Z" fill="#1677FF"/>
<path d="M21.7949 31.8854L23.7913 26.2968H24.6939L26.6865 31.8854H25.8604L25.3403 30.4206H23.1488L22.6248 31.8854H21.7949ZM23.3515 29.6708H25.1261L24.2388 27.1006L23.3515 29.6708ZM24.495 25.8407L24.2694 25.4929C24.3765 25.4233 24.4504 25.3421 24.4912 25.2494C24.5346 25.1566 24.5295 25.0677 24.4759 24.9827C24.4275 24.9002 24.3497 24.859 24.2426 24.859C24.1381 24.859 24.0361 24.8925 23.9367 24.9595L23.7148 24.6117C23.9341 24.4674 24.1496 24.4107 24.3612 24.4416C24.5728 24.47 24.7322 24.5692 24.8393 24.7392C24.9693 24.9402 25.0024 25.1386 24.9387 25.3344C24.8775 25.5276 24.7296 25.6964 24.495 25.8407Z" fill="#1677FF"/>
<path d="M27.6759 31.8854V26.2968H28.4676L31.2825 30.4631V26.2968H32.1048V31.8854H31.3704L28.4944 27.6301V31.8854H27.6759Z" fill="#1677FF"/>
<path d="M35.5906 31.9627C35.0985 31.9627 34.674 31.8493 34.317 31.6226C33.9601 31.3958 33.6847 31.0699 33.4909 30.6447C33.2997 30.217 33.2041 29.7043 33.2041 29.1065C33.2041 28.5036 33.3022 27.987 33.4986 27.5567C33.6975 27.1238 33.9792 26.7927 34.3438 26.5634C34.7084 26.3341 35.1368 26.2195 35.6289 26.2195C35.9221 26.2195 36.1936 26.2697 36.4435 26.3702C36.6959 26.4707 36.9177 26.6072 37.109 26.7799C37.3028 26.9525 37.4557 27.1483 37.5679 27.3673C37.6801 27.5863 37.7439 27.8156 37.7592 28.0553H36.8872C36.8515 27.8569 36.775 27.6739 36.6577 27.5065C36.5429 27.3364 36.3963 27.1998 36.2178 27.0968C36.0394 26.9937 35.8379 26.9422 35.6136 26.9422C35.3153 26.9422 35.0514 27.0169 34.8219 27.1664C34.5924 27.3158 34.4127 27.549 34.2826 27.8659C34.1551 28.1802 34.0914 28.5873 34.0914 29.0872C34.0914 29.4763 34.1309 29.8074 34.2099 30.0805C34.2915 30.3536 34.4025 30.5739 34.5427 30.7414C34.6829 30.9088 34.8474 31.0312 35.0361 31.1085C35.2247 31.1832 35.4262 31.2206 35.6403 31.2206C35.852 31.2206 36.0381 31.1832 36.1987 31.1085C36.3594 31.0338 36.4932 30.9372 36.6003 30.8187C36.7099 30.7001 36.7941 30.5726 36.8527 30.436C36.9139 30.2969 36.9496 30.1629 36.9598 30.0341L36.9866 29.5819H35.6939V28.9867L37.8395 28.9944V31.8854H37.2467V31.066C37.1498 31.218 37.0287 31.3623 36.8833 31.4989C36.738 31.6354 36.5595 31.7475 36.3479 31.8351C36.1363 31.9202 35.8838 31.9627 35.5906 31.9627Z" fill="#1677FF"/>
<path d="M40.9872 31.8854V26.2968H41.7789L44.5938 30.4631V26.2968H45.4161V31.8854H44.6818L41.8057 27.6301V31.8854H40.9872Z" fill="#1677FF"/>
<path d="M48.8344 31.9627C48.3397 31.9627 47.9394 31.8802 47.6334 31.7153C47.33 31.5504 47.1082 31.3095 46.968 30.9926C46.8303 30.6757 46.7614 30.2892 46.7614 29.8331V26.2968H47.6067V29.9375C47.6067 30.3806 47.7138 30.7104 47.9279 30.9269C48.1447 31.1407 48.4468 31.2477 48.8344 31.2477C49.0919 31.2477 49.3137 31.2013 49.4998 31.1085C49.6885 31.0132 49.8326 30.8689 49.932 30.6757C50.0314 30.4798 50.0812 30.2338 50.0812 29.9375V26.2968H50.9111V29.8988C50.9111 30.3343 50.8397 30.7066 50.6969 31.0158C50.5541 31.3224 50.3298 31.5569 50.0238 31.7192C49.7204 31.8815 49.3239 31.9627 48.8344 31.9627Z" fill="#1677FF"/>
<path d="M54.3152 31.9627C53.8129 31.9627 53.3782 31.8506 53.011 31.6264C52.6464 31.3997 52.3647 31.0737 52.1658 30.6486C51.9695 30.2209 51.8713 29.7056 51.8713 29.1027C51.8713 28.4946 51.9707 27.9767 52.1696 27.549C52.3711 27.1187 52.6541 26.7902 53.0187 26.5634C53.3858 26.3341 53.818 26.2195 54.3152 26.2195C54.8099 26.2195 55.2382 26.3341 55.6003 26.5634C55.9649 26.7902 56.2453 27.1187 56.4417 27.549C56.6406 27.9767 56.74 28.4946 56.74 29.1027C56.74 29.7056 56.6418 30.2196 56.4455 30.6447C56.2492 31.0699 55.9687 31.3958 55.6041 31.6226C55.242 31.8493 54.8124 31.9627 54.3152 31.9627ZM54.3152 31.2554C54.6365 31.2554 54.9106 31.1807 55.1375 31.0312C55.367 30.8818 55.5416 30.6486 55.6615 30.3317C55.7813 30.0148 55.8412 29.609 55.8412 29.1142C55.8412 28.6067 55.78 28.1918 55.6576 27.8698C55.5378 27.5477 55.3631 27.3106 55.1337 27.1586C54.9067 27.004 54.6339 26.9267 54.3152 26.9267C53.9965 26.9267 53.7211 27.004 53.4891 27.1586C53.2596 27.3132 53.0824 27.5515 52.9575 27.8736C52.8326 28.1957 52.7701 28.6092 52.7701 29.1142C52.7701 29.6115 52.8326 30.0186 52.9575 30.3356C53.0824 30.6499 53.2596 30.8818 53.4891 31.0312C53.7211 31.1807 53.9965 31.2554 54.3152 31.2554ZM53.0569 25.8291L54.0284 24.9247H54.6097L55.562 25.8291H54.8392L54.3114 25.3151L53.7377 25.8291H53.0569Z" fill="#1677FF"/>
<path d="M57.8393 31.8854V26.2968H58.6577V31.8854H57.8393Z" fill="#1677FF"/>
<path d="M63.1005 31.8854V27.0504H61.3489V26.2968H65.598V27.0504H63.9266V31.8854H63.1005Z" fill="#1677FF"/>
<path d="M68.5677 31.9627C68.0654 31.9627 67.6307 31.8506 67.2636 31.6264C66.8989 31.3997 66.6172 31.0737 66.4183 30.6486C66.222 30.2209 66.1238 29.7056 66.1238 29.1027C66.1238 28.4946 66.2233 27.9767 66.4221 27.549C66.6236 27.1187 66.9066 26.7902 67.2712 26.5634C67.6384 26.3341 68.0705 26.2195 68.5677 26.2195C69.0624 26.2195 69.4907 26.3341 69.8528 26.5634C70.2174 26.7902 70.4979 27.1187 70.6942 27.549C70.8931 27.9767 70.9925 28.4946 70.9925 29.1027C70.9925 29.7056 70.8944 30.2196 70.698 30.6447C70.5017 31.0699 70.2212 31.3958 69.8566 31.6226C69.4946 31.8493 69.0649 31.9627 68.5677 31.9627ZM68.5677 31.2554C68.889 31.2554 69.1631 31.1807 69.39 31.0312C69.6195 30.8818 69.7942 30.6486 69.914 30.3317C70.0338 30.0148 70.0937 29.609 70.0937 29.1142C70.0937 28.6067 70.0326 28.1918 69.9102 27.8698C69.7903 27.5477 69.6157 27.3106 69.3862 27.1586C69.1593 27.004 68.8865 26.9267 68.5677 26.9267C68.249 26.9267 67.9737 27.004 67.7416 27.1586C67.5122 27.3132 67.3349 27.5515 67.21 27.8736C67.0851 28.1957 67.0226 28.6092 67.0226 29.1142C67.0226 29.6115 67.0851 30.0186 67.21 30.3356C67.3349 30.6499 67.5122 30.8818 67.7416 31.0312C67.9737 31.1807 68.249 31.2554 68.5677 31.2554ZM67.3095 25.8291L68.2809 24.9247H68.8622L69.8145 25.8291H69.0917L68.5639 25.3151L67.9902 25.8291H67.3095Z" fill="#1677FF"/>
<path d="M72.0918 31.8854V26.2968H73.2468L74.8034 30.7414L76.383 26.2968H77.5303V31.8854H76.6927V27.433L75.1629 31.8854H74.4477L72.9255 27.4678V31.8854H72.0918Z" fill="#1677FF"/>
<path d="M80.7494 31.8854V26.2968H81.5678V28.6389H84.398V26.2968H85.2165V31.8854H84.398V29.3577H81.5678V31.8854H80.7494Z" fill="#1677FF"/>
<path d="M86.2002 31.8854L88.1966 26.2968H89.0992L91.0918 31.8854H90.2657L89.7456 30.4206H87.5541L87.0301 31.8854H86.2002ZM87.7568 29.6708H89.5314L88.6441 27.1006L87.7568 29.6708ZM88.3496 25.8291L87.2787 24.7044H88.1813L88.9692 25.8291H88.3496Z" fill="#1677FF"/>
<path d="M92.0812 31.8854V26.2968H92.8729L95.6878 30.4631V26.2968H96.51V31.8854H95.7757L92.8996 27.6301V31.8854H92.0812Z" fill="#1677FF"/>
<path d="M99.9959 31.9627C99.5038 31.9627 99.0793 31.8493 98.7223 31.6226C98.3654 31.3958 98.09 31.0699 97.8962 30.6447C97.705 30.217 97.6094 29.7043 97.6094 29.1065C97.6094 28.5036 97.7075 27.987 97.9039 27.5567C98.1027 27.1238 98.3845 26.7927 98.7491 26.5634C99.1137 26.3341 99.5421 26.2195 100.034 26.2195C100.327 26.2195 100.599 26.2697 100.849 26.3702C101.101 26.4707 101.323 26.6072 101.514 26.7799C101.708 26.9525 101.861 27.1483 101.973 27.3673C102.085 27.5863 102.149 27.8156 102.164 28.0553H101.292C101.257 27.8569 101.18 27.6739 101.063 27.5065C100.948 27.3364 100.802 27.1998 100.623 27.0968C100.445 26.9937 100.243 26.9422 100.019 26.9422C99.7205 26.9422 99.4566 27.0169 99.2272 27.1664C98.9977 27.3158 98.8179 27.549 98.6879 27.8659C98.5604 28.1802 98.4967 28.5873 98.4967 29.0872C98.4967 29.4763 98.5362 29.8074 98.6152 30.0805C98.6968 30.3536 98.8077 30.5739 98.948 30.7414C99.0882 30.9088 99.2527 31.0312 99.4413 31.1085C99.63 31.1832 99.8315 31.2206 100.046 31.2206C100.257 31.2206 100.443 31.1832 100.604 31.1085C100.765 31.0338 100.899 30.9372 101.006 30.8187C101.115 30.7001 101.199 30.5726 101.258 30.436C101.319 30.2969 101.355 30.1629 101.365 30.0341L101.392 29.5819H100.099V28.9867L102.245 28.9944V31.8854H101.652V31.066C101.555 31.218 101.434 31.3623 101.289 31.4989C101.143 31.6354 100.965 31.7475 100.753 31.8351C100.542 31.9202 100.289 31.9627 99.9959 31.9627Z" fill="#1677FF"/>
<path d="M104.96 29.4157V28.7741H107.58V29.4157H104.96ZM105.526 31.8854V26.2968C105.547 26.2968 105.607 26.298 105.706 26.3006C105.808 26.3006 105.93 26.3006 106.073 26.3006C106.216 26.298 106.363 26.298 106.513 26.3006C106.664 26.3006 106.797 26.3019 106.915 26.3045C107.59 26.3148 108.139 26.4282 108.559 26.6446C108.983 26.861 109.292 27.1728 109.489 27.5799C109.688 27.9844 109.787 28.4778 109.787 29.0601C109.787 29.6656 109.681 30.1797 109.47 30.6022C109.258 31.0222 108.935 31.3417 108.502 31.5607C108.068 31.7772 107.518 31.8854 106.85 31.8854H105.526ZM106.364 31.1897H106.857C107.275 31.1897 107.639 31.1214 107.947 30.9848C108.258 30.8457 108.499 30.6216 108.67 30.3124C108.841 30.0006 108.926 29.5845 108.926 29.064C108.926 28.5538 108.845 28.148 108.682 27.8466C108.521 27.5425 108.288 27.3248 107.982 27.1934C107.676 27.0594 107.31 26.9924 106.884 26.9924H106.364V31.1897Z" fill="#1677FF"/>
<path d="M110.253 31.8854L112.25 26.2968H113.152L115.145 31.8854H114.319L113.799 30.4206H111.607L111.083 31.8854H110.253ZM111.81 29.6708H113.584L112.697 27.1006L111.81 29.6708ZM111.443 25.8291L112.414 24.9247H112.995L113.948 25.8291H113.225L112.697 25.3151L112.123 25.8291H111.443ZM113.81 24.9518L112.988 23.9933H113.703L114.311 24.9518H113.81Z" fill="#1677FF"/>
<path d="M117.923 31.9627C117.429 31.9627 117.028 31.8802 116.722 31.7153C116.419 31.5504 116.197 31.3095 116.057 30.9926C115.919 30.6757 115.85 30.2892 115.85 29.8331V26.2968H116.696V29.9375C116.696 30.3806 116.803 30.7104 117.017 30.9269C117.234 31.1407 117.536 31.2477 117.923 31.2477C118.181 31.2477 118.403 31.2013 118.589 31.1085C118.777 31.0132 118.921 30.8689 119.021 30.6757C119.12 30.4798 119.17 30.2338 119.17 29.9375V26.2968H120V29.8988C120 30.3343 119.929 30.7066 119.786 31.0158C119.643 31.3224 119.419 31.5569 119.113 31.7192C118.809 31.8815 118.413 31.9627 117.923 31.9627Z" fill="#1677FF"/>
</svg>
