<svg width="80" height="80" viewBox="0 0 80 80" fill="none" xmlns="http://www.w3.org/2000/svg">
<path d="M61.6001 31.9995H44.0001C42.6401 31.9995 41.6001 33.0395 41.6001 34.3995C41.6001 35.7595 42.6401 36.7995 44.0001 36.7995H61.6001C62.9601 36.7995 64.0001 35.7595 64.0001 34.3995C64.0001 33.0395 62.9601 31.9995 61.6001 31.9995ZM61.6001 35.1995H44.0001C43.5201 35.1995 43.2001 34.8795 43.2001 34.3995C43.2001 33.9195 43.5201 33.5995 44.0001 33.5995H61.6001C62.0801 33.5995 62.4001 33.9195 62.4001 34.3995C62.4001 34.8795 62.0801 35.1995 61.6001 35.1995Z" fill="#65798D"/>
<path d="M61.6001 41.5996H44.0001C42.6401 41.5996 41.6001 42.6396 41.6001 43.9996C41.6001 45.3596 42.6401 46.3996 44.0001 46.3996H61.6001C62.9601 46.3996 64.0001 45.3596 64.0001 43.9996C64.0001 42.6396 62.9601 41.5996 61.6001 41.5996ZM61.6001 44.7996H44.0001C43.5201 44.7996 43.2001 44.4796 43.2001 43.9996C43.2001 43.5196 43.5201 43.1996 44.0001 43.1996H61.6001C62.0801 43.1996 62.4001 43.5196 62.4001 43.9996C62.4001 44.4796 62.0801 44.7996 61.6001 44.7996Z" fill="#65798D"/>
<path d="M61.6001 51.1997H44.0001C42.6401 51.1997 41.6001 52.2397 41.6001 53.5997C41.6001 54.9597 42.6401 55.9997 44.0001 55.9997H61.6001C62.9601 55.9997 64.0001 54.9597 64.0001 53.5997C64.0001 52.2397 62.9601 51.1997 61.6001 51.1997ZM61.6001 54.3997H44.0001C43.5201 54.3997 43.2001 54.0797 43.2001 53.5997C43.2001 53.1197 43.5201 52.7997 44.0001 52.7997H61.6001C62.0801 52.7997 62.4001 53.1197 62.4001 53.5997C62.4001 54.0797 62.0801 54.3997 61.6001 54.3997Z" fill="#65798D"/>
<path d="M72.0002 25.5997H68.8002C67.9202 25.5997 67.2002 26.3197 67.2002 27.1997H38.4002C38.4002 26.3197 37.6802 25.5997 36.8002 25.5997C34.1602 25.5997 32.0002 27.7597 32.0002 30.3997C29.3602 30.3997 27.2002 32.5597 27.2002 35.1997V39.9997H24.8002V32.7997C24.8002 32.3197 24.4802 31.9997 24.0002 31.9997H21.6002V27.1997H22.4002C22.6402 27.1997 22.8002 27.1197 22.9602 26.9597L24.5602 25.3597C24.7202 25.1997 24.8002 25.0397 24.8002 24.7997V19.9997C24.8002 19.5197 24.4802 19.1997 24.0002 19.1997H11.2002C10.7202 19.1997 10.4002 19.5197 10.4002 19.9997V24.7997C10.4002 25.0397 10.4802 25.1997 10.6402 25.3597L12.2402 26.9597C12.4002 27.1197 12.5602 27.1997 12.8002 27.1997H13.6002V31.9997H12.0002C11.7602 31.9997 11.6002 32.0797 11.4402 32.2397L9.0402 34.6397C8.8802 34.7997 8.8002 34.9597 8.8002 35.1997V39.9997H4.0002C3.5202 39.9997 3.2002 40.3197 3.2002 40.7997V47.1997C3.2002 47.6797 3.5202 47.9997 4.0002 47.9997H8.8002V52.7997C8.8002 53.0397 8.8802 53.1997 9.0402 53.3597L11.4402 55.7597C11.6002 55.9197 11.7602 55.9997 12.0002 55.9997H24.0002C24.4802 55.9997 24.8002 55.6797 24.8002 55.1997V47.9997H27.2002V52.7997C27.2002 55.4397 29.3602 57.5997 32.0002 57.5997C32.0002 60.2397 34.1602 62.3997 36.8002 62.3997C37.6802 62.3997 38.4002 61.6797 38.4002 60.7997H44.0002V63.9997H12.8002C12.4802 63.9997 12.1602 64.2397 12.0802 64.4797L9.6802 70.8797C9.6002 71.1197 9.6002 71.4397 9.7602 71.5997C9.9202 71.8397 10.1602 71.9197 10.4002 71.9197H69.6002C69.8402 71.9197 70.0802 71.7597 70.2402 71.5997C70.4002 71.3597 70.4002 71.1197 70.3202 70.8797L67.9202 64.4797C67.8402 64.2397 67.5202 63.9997 67.2002 63.9997H61.6002V60.7997H67.2002C67.2002 61.6797 67.9202 62.3997 68.8002 62.3997H72.0002C74.6402 62.3997 76.8002 60.2397 76.8002 57.5997V30.3997C76.8002 27.7597 74.6402 25.5997 72.0002 25.5997ZM12.0002 24.4797V20.7997H23.2002V24.4797L22.0802 25.5997H20.8002H14.4002H13.1202L12.0002 24.4797ZM15.2002 27.1997H20.0002V31.9997H15.2002V27.1997ZM4.8002 46.3997V41.5997H8.8002V46.3997H4.8002ZM23.2002 54.3997H12.3202L10.4002 52.4797V47.1997V40.7997V35.5197L12.3202 33.5997H14.4002H20.8002H23.2002V40.7997V47.1997V54.3997ZM24.8002 46.3997V41.5997H27.2002V46.3997H24.8002ZM28.8002 52.7997V47.1997V40.7997V35.1997C28.8002 33.4397 30.2402 31.9997 32.0002 31.9997V55.9997C30.2402 55.9997 28.8002 54.5597 28.8002 52.7997ZM36.8002 60.7997C35.0402 60.7997 33.6002 59.3597 33.6002 57.5997V56.7997V31.1997V30.3997C33.6002 28.6397 35.0402 27.1997 36.8002 27.1997V27.9997V59.9997V60.7997ZM68.4802 70.3997H11.5202L13.3602 65.5997H44.8002H60.8002H66.6402L68.4802 70.3997ZM60.0002 63.9997H45.6002V60.7997H60.0002V63.9997ZM60.8002 59.1997H44.8002H38.4002V28.7997H67.2002V59.1997H60.8002ZM75.2002 57.5997C75.2002 59.3597 73.7602 60.7997 72.0002 60.7997H68.8002V59.9997V27.9997V27.1997H72.0002C73.7602 27.1997 75.2002 28.6397 75.2002 30.3997V57.5997Z" fill="#65798D"/>
<path d="M16.2402 37.8396C16.0802 37.9996 12.0002 42.0796 12.0002 45.5996C12.0002 48.2396 14.1602 50.3996 16.8002 50.3996C19.4402 50.3996 21.6002 48.2396 21.6002 45.5996C21.6002 42.0796 17.5202 37.9996 17.3602 37.8396C17.0402 37.5196 16.5602 37.5196 16.2402 37.8396ZM16.8002 48.7996C15.0402 48.7996 13.6002 47.3596 13.6002 45.5996C13.6002 43.5996 15.6002 40.9596 16.8002 39.5996C18.0002 40.9596 20.0002 43.5996 20.0002 45.5996C20.0002 47.3596 18.5602 48.7996 16.8002 48.7996Z" fill="#65798D"/>
<path d="M20.8472 11.9058C21.263 11.9058 21.6001 11.5687 21.6001 11.1528C21.6001 10.737 21.263 10.3999 20.8472 10.3999C20.4313 10.3999 20.0942 10.737 20.0942 11.1528C20.0942 11.5687 20.4313 11.9058 20.8472 11.9058Z" fill="#65798D"/>
<path d="M15.5139 16.1724C15.9298 16.1724 16.2669 15.8353 16.2669 15.4194C16.2669 15.0036 15.9298 14.6665 15.5139 14.6665C15.0981 14.6665 14.761 15.0036 14.761 15.4194C14.761 15.8353 15.0981 16.1724 15.5139 16.1724Z" fill="#65798D"/>
<path d="M19.624 16.0532C19.7763 16.0535 19.8994 16.1773 19.8994 16.3296C19.8992 16.4817 19.7761 16.6047 19.624 16.605C19.4717 16.605 19.3479 16.4818 19.3477 16.3296C19.3477 16.1771 19.4716 16.0532 19.624 16.0532Z" stroke="#65798D" stroke-width="1.70667"/>
<path d="M15.8589 8.7998C14.6134 8.7998 13.6001 9.81308 13.6001 11.0586C13.6001 12.3042 14.6134 13.3174 15.8589 13.3174C17.1045 13.3174 18.1177 12.3042 18.1177 11.0586C18.1177 9.81308 17.1045 8.7998 15.8589 8.7998ZM15.8589 11.8116C15.4439 11.8116 15.106 11.4737 15.106 11.0586C15.106 10.6436 15.4439 10.3057 15.8589 10.3057C16.274 10.3057 16.6119 10.6436 16.6119 11.0586C16.6119 11.4737 16.274 11.8116 15.8589 11.8116Z" fill="#65798D"/>
</svg>
