<svg width="15" height="15" viewBox="0 0 15 15" fill="none" xmlns="http://www.w3.org/2000/svg">
<path d="M13.5 1.26562H10.5469V0.140625C10.5469 0.0632812 10.4836 0 10.4062 0H9.42188C9.34453 0 9.28125 0.0632812 9.28125 0.140625V1.26562H4.78125V0.140625C4.78125 0.0632812 4.71797 0 4.64062 0H3.65625C3.57891 0 3.51562 0.0632812 3.51562 0.140625V1.26562H0.5625C0.251367 1.26562 0 1.51699 0 1.82812V13.5C0 13.8111 0.251367 14.0625 0.5625 14.0625H13.5C13.8111 14.0625 14.0625 13.8111 14.0625 13.5V1.82812C14.0625 1.51699 13.8111 1.26562 13.5 1.26562ZM12.7969 12.7969H1.26562V6.11719H12.7969V12.7969ZM1.26562 4.92188V2.53125H3.51562V3.375C3.51562 3.45234 3.57891 3.51562 3.65625 3.51562H4.64062C4.71797 3.51562 4.78125 3.45234 4.78125 3.375V2.53125H9.28125V3.375C9.28125 3.45234 9.34453 3.51562 9.42188 3.51562H10.4062C10.4836 3.51562 10.5469 3.45234 10.5469 3.375V2.53125H12.7969V4.92188H1.26562Z" fill="black" fill-opacity="0.25"/>
</svg>
