<svg width="100" height="64" viewBox="0 0 100 64" fill="none" xmlns="http://www.w3.org/2000/svg">
<g clip-path="url(#clip0_8074_46985)">
<path d="M14.0625 45.4004C5.357 47.3667 0 50.0454 0 52.9975C0 59.0322 22.3858 63.9243 50 63.9243C77.6142 63.9243 100 59.0322 100 52.9975C100 50.0454 94.643 47.3667 85.9375 45.4004V50.1638C85.9375 53.4777 83.875 56.1938 81.3281 56.1938H18.6719C16.125 56.1938 14.0625 53.4762 14.0625 50.1638V45.4004Z" fill="black" fill-opacity="0.06"/>
<path d="M65.0203 26.4287C65.0203 23.9234 66.5734 21.8551 68.5 21.8535H85.9375V50.1649C85.9375 53.4789 83.875 56.195 81.3281 56.195H18.6719C16.125 56.195 14.0625 53.4773 14.0625 50.1649V21.8535H31.5C33.4266 21.8535 34.9797 23.9187 34.9797 26.4241V26.4584C34.9797 28.9638 36.55 30.9868 38.475 30.9868H61.525C63.45 30.9868 65.0203 28.945 65.0203 26.4397V26.4287Z" fill="black" fill-opacity="0.04" stroke="#DEE4ED"/>
<path d="M85.9375 22.0255L70.0844 4.07113C69.3234 2.84732 68.2125 2.10742 67.0422 2.10742H32.9578C31.7875 2.10742 30.6766 2.84732 29.9156 4.06957L14.0625 22.027" stroke="#DEE4ED"/>
</g>
<defs>
<clipPath id="clip0_8074_46985">
<rect width="100" height="64" fill="white"/>
</clipPath>
</defs>
</svg>
