<svg width="24" height="24" viewBox="0 0 24 24" fill="none" xmlns="http://www.w3.org/2000/svg">
<g clip-path="url(#clip0_6778_16216)">
<path d="M4 15C4.28333 15 4.52122 15.0964 4.71289 15.2881C4.90443 15.4797 4.99992 15.7169 5 16C5 16.2833 4.90456 16.5212 4.71289 16.7129C4.52124 16.9045 4.2833 17 4 17C3.71692 16.9999 3.47963 16.9044 3.28809 16.7129C3.09642 16.5212 3 16.2833 3 16C3.00008 15.7169 3.09654 15.4797 3.28809 15.2881C3.47964 15.0965 3.71688 15.0001 4 15ZM20 15C20.2833 15 20.5212 15.0964 20.7129 15.2881C20.9044 15.4797 20.9999 15.7169 21 16C21 16.2833 20.9046 16.5212 20.7129 16.7129C20.5212 16.9045 20.2833 17 20 17H8C7.71692 16.9999 7.47963 16.9044 7.28809 16.7129C7.09642 16.5212 7 16.2833 7 16C7.00008 15.7169 7.09654 15.4797 7.28809 15.2881C7.47964 15.0965 7.71688 15.0001 8 15H20ZM4 11C4.28333 11 4.52122 11.0964 4.71289 11.2881C4.90443 11.4797 4.99992 11.7169 5 12C5 12.2833 4.90456 12.5212 4.71289 12.7129C4.52124 12.9045 4.2833 13 4 13C3.71692 12.9999 3.47963 12.9044 3.28809 12.7129C3.09642 12.5212 3 12.2833 3 12C3.00008 11.7169 3.09654 11.4797 3.28809 11.2881C3.47964 11.0965 3.71688 11.0001 4 11ZM20 11C20.2833 11 20.5212 11.0964 20.7129 11.2881C20.9044 11.4797 20.9999 11.7169 21 12C21 12.2833 20.9046 12.5212 20.7129 12.7129C20.5212 12.9045 20.2833 13 20 13H8C7.71692 12.9999 7.47963 12.9044 7.28809 12.7129C7.09642 12.5212 7 12.2833 7 12C7.00008 11.7169 7.09654 11.4797 7.28809 11.2881C7.47964 11.0965 7.71688 11.0001 8 11H20ZM4 7C4.28333 7 4.52122 7.09642 4.71289 7.28809C4.90443 7.47966 4.99992 7.71685 5 8C5 8.28333 4.90456 8.52122 4.71289 8.71289C4.52124 8.90451 4.2833 9 4 9C3.71692 8.99989 3.47963 8.9044 3.28809 8.71289C3.09642 8.52122 3 8.28333 3 8C3.00008 7.71685 3.09654 7.47966 3.28809 7.28809C3.47964 7.09653 3.71688 7.00011 4 7ZM20 7C20.2833 7 20.5212 7.09642 20.7129 7.28809C20.9044 7.47966 20.9999 7.71685 21 8C21 8.28333 20.9046 8.52122 20.7129 8.71289C20.5212 8.90451 20.2833 9 20 9H8C7.71692 8.99989 7.47963 8.9044 7.28809 8.71289C7.09642 8.52122 7 8.28333 7 8C7.00008 7.71685 7.09654 7.47966 7.28809 7.28809C7.47964 7.09653 7.71688 7.00011 8 7H20Z" fill="black" fill-opacity="0.65"/>
</g>
<defs>
<clipPath id="clip0_6778_16216">
<rect width="24" height="24" fill="white"/>
</clipPath>
</defs>
</svg>
