<svg width="24" height="24" viewBox="0 0 24 24" fill="none" xmlns="http://www.w3.org/2000/svg">
<g clip-path="url(#clip0_6778_16164)">
<path d="M20.75 19C20.9625 19 21.1415 19.072 21.2852 19.2158C21.4289 19.3596 21.5 19.5385 21.5 19.751C21.4999 19.9634 21.4289 20.1418 21.2852 20.2852C21.1415 20.4288 20.9625 20.5 20.75 20.5H3.25C3.03772 20.4999 2.85938 20.4279 2.71582 20.2842C2.57226 20.1404 2.5 19.9623 2.5 19.75C2.50002 19.5375 2.57214 19.3593 2.71582 19.2158C2.85938 19.0723 3.03772 19.0001 3.25 19H20.75ZM4.74902 11.5C5.09586 11.5 5.39127 11.6222 5.63477 11.8652C5.8783 12.1083 5.99992 12.403 6 12.75V16.3652C6 16.7124 5.87935 17.008 5.63672 17.251C5.39394 17.4939 5.09869 17.6152 4.75195 17.6152C4.40498 17.6152 4.1097 17.4939 3.86621 17.251C3.62254 17.008 3.5 16.7126 3.5 16.3652V12.75C3.50008 12.4032 3.62179 12.1082 3.86426 11.8652C4.10698 11.6223 4.40222 11.5001 4.74902 11.5ZM9.57617 6.5C9.92317 6.5 10.2184 6.62223 10.4619 6.86523C10.7054 7.10829 10.8271 7.40306 10.8271 7.75V16.3652C10.8271 16.7126 10.7057 17.008 10.4629 17.251C10.2201 17.4939 9.92507 17.6152 9.57812 17.6152C9.23145 17.6151 8.93596 17.4939 8.69238 17.251C8.44904 17.008 8.32715 16.7125 8.32715 16.3652V7.75C8.32723 7.40315 8.44889 7.10825 8.69141 6.86523C8.93422 6.62225 9.22937 6.50002 9.57617 6.5ZM14.4131 9.5C14.7599 9.50008 15.0554 9.62232 15.2988 9.86523C15.5422 10.1083 15.664 10.4032 15.6641 10.75V16.3652C15.6641 16.7125 15.5426 17.008 15.2998 17.251C15.057 17.494 14.762 17.6152 14.415 17.6152C14.0682 17.6152 13.773 17.494 13.5293 17.251C13.2858 17.008 13.1641 16.7126 13.1641 16.3652V10.75C13.1641 10.4031 13.2857 10.1083 13.5283 9.86523C13.7712 9.62223 14.0663 9.5 14.4131 9.5ZM19.249 3.5C19.596 3.5 19.8913 3.62223 20.1348 3.86523C20.3783 4.1083 20.4999 4.40302 20.5 4.75V16.3652C20.5 16.7124 20.3794 17.008 20.1367 17.251C19.894 17.4939 19.5988 17.6151 19.252 17.6152C18.9051 17.6152 18.6097 17.4939 18.3662 17.251C18.1225 17.008 18 16.7126 18 16.3652V4.75C18.0001 4.40319 18.1218 4.10824 18.3643 3.86523C18.607 3.62228 18.9023 3.50005 19.249 3.5Z" fill="black" fill-opacity="0.65"/>
</g>
<defs>
<clipPath id="clip0_6778_16164">
<rect width="24" height="24" fill="white"/>
</clipPath>
</defs>
</svg>
