<svg width="24" height="24" viewBox="0 0 24 24" fill="none" xmlns="http://www.w3.org/2000/svg">
<g clip-path="url(#clip0_6778_16203)">
<path d="M19.7988 16.2988H22.7988V17.7988H19.7988V20.7988H18.2988V17.7988H15.2988V16.2988H18.2988V13.2988H19.7988V16.2988ZM17.2686 3.5C17.5437 3.50004 17.8053 3.55748 18.0537 3.6709C18.3024 3.78423 18.5101 3.94654 18.6758 4.1582L20.0889 5.875C20.226 6.04178 20.329 6.22397 20.3975 6.4209C20.4661 6.6179 20.5 6.82282 20.5 7.03516V11.3672C20.2732 11.2891 20.0382 11.2294 19.7949 11.1885C19.5514 11.1475 19.3058 11.127 19.0586 11.127H19V7.9043H15.5V12.3926C15.1155 12.6234 14.7692 12.9158 14.4609 13.2695C14.1526 13.6234 13.9147 14.0065 13.748 14.418L12 13.5488L8.5 15.2988V7.9043H5V18.6924C5 18.7822 5.02925 18.8564 5.08691 18.9141C5.14457 18.9717 5.2188 19 5.30859 19H13.4365C13.533 19.285 13.6542 19.552 13.7988 19.7998C13.9435 20.0475 14.1078 20.2807 14.291 20.5H5.30859C4.81146 20.5 4.38524 20.3237 4.03125 19.9697C3.67725 19.6157 3.5 19.1895 3.5 18.6924V7.00586C3.50003 6.79523 3.53495 6.59214 3.60352 6.39648C3.672 6.20071 3.775 6.02057 3.91211 5.85645L5.31641 4.1582C5.48039 3.9466 5.68553 3.78421 5.93164 3.6709C6.17774 3.55747 6.43861 3.5 6.71387 3.5H17.2686ZM10 12.8564L12 11.8564L14 12.8564V7.9043H10V12.8564ZM6.72168 5C6.67687 5.00001 6.63361 5.01014 6.5918 5.0293C6.55014 5.04863 6.51344 5.07445 6.48145 5.10645L5.39062 6.4043H18.6006L17.5098 5.10645C17.4778 5.07445 17.4411 5.04863 17.3994 5.0293C17.3577 5.01013 17.3144 5 17.2695 5H6.72168Z" fill="black" fill-opacity="0.65"/>
</g>
<defs>
<clipPath id="clip0_6778_16203">
<rect width="24" height="24" fill="white"/>
</clipPath>
</defs>
</svg>
