<svg width="24" height="24" viewBox="0 0 24 24" fill="none" xmlns="http://www.w3.org/2000/svg">
<g clip-path="url(#clip0_3643_6367)">
<path d="M11.999 0.25C12.7627 0.25 13.4121 0.518068 13.9473 1.05273C14.4825 1.58747 14.7499 2.23636 14.75 3C14.75 3.63583 14.5498 4.20379 14.1484 4.70312C13.7473 5.20259 13.23 5.52755 12.5967 5.67871V8.74902C13.2195 8.85283 13.77 9.08698 14.248 9.45215C14.7261 9.81741 15.1065 10.2554 15.3887 10.7656L18.2598 9.76758C18.2533 9.72144 18.25 9.68003 18.25 9.64355V9.5C18.2501 8.73652 18.5176 8.0874 19.0518 7.55273C19.5862 7.01812 20.2356 6.75005 20.999 6.75C21.7626 6.75 22.4122 7.01744 22.9473 7.55176C23.4826 8.08624 23.75 8.73555 23.75 9.49902C23.75 10.2627 23.4829 10.9121 22.9482 11.4473C22.4134 11.9825 21.7638 12.25 21 12.25C20.4982 12.2499 20.0396 12.1284 19.624 11.8848C19.2084 11.6413 18.8797 11.3179 18.6387 10.9141L15.7578 11.8672C15.8513 12.4339 15.8198 12.9956 15.6621 13.5508C15.5044 14.1057 15.2179 14.6112 14.8027 15.0674L16.7852 17.5195C16.9684 17.4362 17.1637 17.3703 17.3701 17.3223C17.5762 17.2742 17.7862 17.25 18 17.25C18.7639 17.25 19.4136 17.5174 19.9482 18.0518C20.4831 18.5862 20.75 19.2356 20.75 19.999C20.75 20.7626 20.4835 21.4122 19.9492 21.9473C19.4148 22.4825 18.7654 22.75 18.002 22.75C17.2383 22.75 16.5889 22.4829 16.0537 21.9482C15.5184 21.4134 15.25 20.7638 15.25 20C15.25 19.6848 15.3014 19.3814 15.4033 19.0898C15.5051 18.7982 15.6577 18.5307 15.8604 18.2871L13.8779 15.8008C13.3099 16.1393 12.6824 16.3076 11.9971 16.3076C11.3122 16.3075 10.6825 16.1391 10.1084 15.8008L8.14062 18.2871C8.33675 18.5307 8.48762 18.7982 8.59277 19.0898C8.6979 19.3814 8.74996 19.6848 8.75 20C8.75 20.7637 8.48352 21.4135 7.94922 21.9482C7.41477 22.4829 6.76536 22.75 6.00195 22.75C5.23829 22.75 4.58888 22.4827 4.05371 21.9482C3.5185 21.4138 3.25008 20.7653 3.25 20.002C3.25 19.2384 3.51802 18.5888 4.05273 18.0537C4.5874 17.5184 5.23698 17.25 6.00098 17.25C6.21477 17.25 6.42472 17.277 6.63086 17.3301C6.83736 17.3834 7.03249 17.4553 7.21582 17.5449L9.19824 15.0771C8.78302 14.6245 8.49651 14.1177 8.33887 13.5576C8.18132 12.9974 8.14969 12.4337 8.24316 11.8672L5.3623 10.9141C5.11103 11.3178 4.78045 11.6413 4.37109 11.8848C3.96159 12.1284 3.504 12.25 3 12.25C2.23638 12.2499 1.58745 11.9826 1.05273 11.4482C0.518186 10.9138 0.250084 10.2653 0.25 9.50195C0.25 8.73849 0.51754 8.0888 1.05176 7.55371C1.58621 7.01843 2.23562 6.75005 2.99902 6.75C3.76269 6.75 4.4121 7.01807 4.94727 7.55273C5.48246 8.08747 5.74992 8.73636 5.75 9.5C5.75 9.559 5.74926 9.60877 5.74609 9.64844C5.74276 9.68824 5.74121 9.72794 5.74121 9.76758L8.6123 10.7656C8.88796 10.2554 9.26664 9.81741 9.74805 9.45215C10.2293 9.08694 10.7814 8.85284 11.4043 8.74902V5.67871C10.7608 5.52754 10.2409 5.20261 9.84473 4.70312C9.44856 4.20379 9.25 3.63459 9.25 2.99609C9.25006 2.23624 9.5176 1.58874 10.0518 1.05371C10.5862 0.518428 11.2356 0.25005 11.999 0.25ZM6 18.75C5.65271 18.7501 5.35795 18.8723 5.11523 19.1152C4.87236 19.358 4.75008 19.6527 4.75 20C4.75 20.3475 4.87223 20.6429 5.11523 20.8857C5.35794 21.1286 5.65275 21.2499 6 21.25C6.34747 21.25 6.64292 21.1287 6.88574 20.8857C7.12874 20.6429 7.25 20.3475 7.25 20C7.24992 19.6527 7.12861 19.358 6.88574 19.1152C6.64291 18.8722 6.3475 18.75 6 18.75ZM18 18.75C17.6527 18.7501 17.358 18.8723 17.1152 19.1152C16.8724 19.358 16.7501 19.6527 16.75 20C16.75 20.3475 16.8722 20.6429 17.1152 20.8857C17.3579 21.1286 17.6527 21.2499 18 21.25C18.3475 21.25 18.6429 21.1287 18.8857 20.8857C19.1287 20.6429 19.25 20.3475 19.25 20C19.2499 19.6527 19.1286 19.358 18.8857 19.1152C18.6429 18.8722 18.3475 18.75 18 18.75ZM12 10.1924C11.3579 10.1925 10.8131 10.4172 10.3652 10.8652C9.9172 11.3131 9.69246 11.8579 9.69238 12.5C9.69238 13.1423 9.91707 13.6877 10.3652 14.1357C10.8131 14.5837 11.3579 14.8075 12 14.8076C12.6423 14.8076 13.1878 14.5839 13.6357 14.1357C14.0839 13.6877 14.3086 13.1423 14.3086 12.5C14.3085 11.8579 14.0838 11.3131 13.6357 10.8652C13.1877 10.4171 12.6423 10.1924 12 10.1924ZM3 8.25C2.65271 8.25011 2.35795 8.37235 2.11523 8.61523C1.87236 8.85797 1.75008 9.15268 1.75 9.5C1.75 9.8475 1.87223 10.1429 2.11523 10.3857C2.35794 10.6286 2.65275 10.7499 3 10.75C3.34747 10.75 3.64292 10.6287 3.88574 10.3857C4.12874 10.1429 4.25 9.8475 4.25 9.5C4.24992 9.15268 4.12861 8.85797 3.88574 8.61523C3.64291 8.37223 3.3475 8.25 3 8.25ZM21 8.25C20.6527 8.25011 20.358 8.37235 20.1152 8.61523C19.8724 8.85797 19.7501 9.15268 19.75 9.5C19.75 9.8475 19.8722 10.1429 20.1152 10.3857C20.3579 10.6286 20.6527 10.7499 21 10.75C21.3475 10.75 21.6429 10.6287 21.8857 10.3857C22.1287 10.1429 22.25 9.8475 22.25 9.5C22.2499 9.15268 22.1286 8.85797 21.8857 8.61523C21.6429 8.37223 21.3475 8.25 21 8.25ZM12 1.75C11.6527 1.75011 11.358 1.87235 11.1152 2.11523C10.8724 2.35797 10.7501 2.65268 10.75 3C10.75 3.3475 10.8722 3.64291 11.1152 3.88574C11.3579 4.12858 11.6527 4.24989 12 4.25C12.3475 4.25 12.6429 4.12869 12.8857 3.88574C13.1287 3.64291 13.25 3.3475 13.25 3C13.2499 2.65268 13.1286 2.35797 12.8857 2.11523C12.6429 1.87223 12.3475 1.75 12 1.75Z" fill="black" fill-opacity="0.65"/>
</g>
<defs>
<clipPath id="clip0_3643_6367">
<rect width="24" height="24" fill="white"/>
</clipPath>
</defs>
</svg>
