<svg width="24" height="24" viewBox="0 0 24 24" fill="none" xmlns="http://www.w3.org/2000/svg">
<path d="M5.30775 20.5C4.81058 20.5 4.385 20.323 4.031 19.969C3.677 19.615 3.5 19.1894 3.5 18.6923V7.00575C3.5 6.79492 3.53433 6.59158 3.603 6.39575C3.6715 6.19992 3.77433 6.01992 3.9115 5.85575L5.3155 4.15775C5.4795 3.94608 5.68458 3.78358 5.93075 3.67025C6.17692 3.55675 6.43767 3.5 6.713 3.5H17.2678C17.5431 3.5 17.805 3.55675 18.0535 3.67025C18.3022 3.78358 18.5093 3.94608 18.675 4.15775L20.0885 5.875C20.2257 6.04183 20.3285 6.22375 20.397 6.42075C20.4657 6.61775 20.5 6.82242 20.5 7.03475V11.3672C20.273 11.2891 20.0378 11.2269 19.7943 11.1807C19.5506 11.1346 19.3051 11.1115 19.0577 11.1115C18.3859 11.1115 17.7462 11.2189 17.1385 11.4338C16.5308 11.6484 15.9847 11.9628 15.5 12.377V7.90375H8.5V15.298L12 13.548L13.748 14.4173C13.5507 14.8121 13.3943 15.2294 13.2788 15.6692C13.1634 16.1091 13.1058 16.5636 13.1058 17.0328C13.1058 17.6672 13.207 18.2807 13.4095 18.873C13.6122 19.4653 13.9058 20.0077 14.2902 20.5H5.30775ZM18.298 20.798V17.798H15.298V16.298H18.298V13.298H19.798V16.298H22.798V17.798H19.798V20.798H18.298ZM5.3905 6.404H18.6L17.5095 5.10575C17.4775 5.07375 17.4407 5.04808 17.399 5.02875C17.3573 5.00958 17.3141 5 17.2693 5H6.72125C6.67642 5 6.63308 5.00958 6.59125 5.02875C6.54958 5.04808 6.51275 5.07375 6.48075 5.10575L5.3905 6.404Z" fill="#1677FF"/>
</svg>
