<svg width="98" height="138" viewBox="0 0 98 138" fill="none" xmlns="http://www.w3.org/2000/svg">
<g filter="url(#filter0_dd_2109_920)">
<mask id="path-1-inside-1_2109_920" fill="white">
<path d="M20 8C20 3.58172 23.5817 0 28 0H70C74.4183 0 78 3.58172 78 8V90C78 94.4183 74.4183 98 70 98H28C23.5817 98 20 94.4183 20 90V8Z"/>
</mask>
<path d="M20 8C20 3.58172 23.5817 0 28 0H70C74.4183 0 78 3.58172 78 8V90C78 94.4183 74.4183 98 70 98H28C23.5817 98 20 94.4183 20 90V8Z" fill="#F8FBFF"/>
<path d="M28 0V2H70V0V-2H28V0ZM78 8H76V90H78H80V8H78ZM70 98V96H28V98V100H70V98ZM20 90H22V8H20H18V90H20ZM28 98V96C24.6863 96 22 93.3137 22 90H20H18C18 95.5229 22.4772 100 28 100V98ZM78 90H76C76 93.3137 73.3137 96 70 96V98V100C75.5228 100 80 95.5228 80 90H78ZM70 0V2C73.3137 2 76 4.68629 76 8H78H80C80 2.47715 75.5228 -2 70 -2V0ZM28 0V-2C22.4772 -2 18 2.47716 18 8H20H22C22 4.68629 24.6863 2 28 2V0Z" fill="#0076F7" mask="url(#path-1-inside-1_2109_920)"/>
<path d="M22 8C22 3.58172 25.5817 0 30 0H69C73.4183 0 77 3.58172 77 8V24H22V8Z" fill="#EBF3FF"/>
<path d="M50.0078 10.5005C50.2262 10.5005 50.4292 10.5383 50.6168 10.6139C50.8072 10.6895 50.9724 10.7959 51.1124 10.9331C51.2552 11.0703 51.3658 11.2299 51.4442 11.4119C51.5254 11.5911 51.566 11.7857 51.566 11.9957C51.566 12.2057 51.5254 12.4031 51.4442 12.5879C51.3658 12.7699 51.2552 12.9295 51.1124 13.0667C50.9724 13.2039 50.8072 13.3117 50.6168 13.3901C50.4292 13.4657 50.2262 13.5035 50.0078 13.5035C49.7894 13.5035 49.585 13.4657 49.3946 13.3901C49.207 13.3117 49.0418 13.2039 48.899 13.0667C48.759 12.9295 48.6484 12.7699 48.5672 12.5879C48.4888 12.4031 48.4496 12.2057 48.4496 11.9957C48.4496 11.7857 48.4888 11.5897 48.5672 11.4077C48.6484 11.2257 48.759 11.0675 48.899 10.9331C49.0418 10.7959 49.207 10.6895 49.3946 10.6139C49.585 10.5383 49.7894 10.5005 50.0078 10.5005ZM50.012 10.9205C49.8664 10.9205 49.7292 10.9485 49.6004 11.0045C49.4744 11.0577 49.3624 11.1333 49.2644 11.2313C49.1664 11.3293 49.0894 11.4441 49.0334 11.5757C48.9802 11.7045 48.9536 11.8445 48.9536 11.9957C48.9536 12.1469 48.9816 12.2883 49.0376 12.4199C49.0936 12.5515 49.1706 12.6677 49.2686 12.7685C49.3666 12.8665 49.4786 12.9435 49.6046 12.9995C49.7334 13.0555 49.8692 13.0835 50.012 13.0835C50.1548 13.0835 50.2892 13.0555 50.4152 12.9995C50.544 12.9435 50.656 12.8665 50.7512 12.7685C50.8464 12.6677 50.9206 12.5515 50.9738 12.4199C51.0298 12.2883 51.0578 12.1469 51.0578 11.9957C51.0578 11.8445 51.0298 11.7045 50.9738 11.5757C50.9206 11.4441 50.8464 11.3293 50.7512 11.2313C50.656 11.1333 50.544 11.0577 50.4152 11.0045C50.2892 10.9485 50.1548 10.9205 50.012 10.9205Z" fill="#006AFF"/>
<path d="M47.9556 11.2943C47.8492 11.1767 47.7232 11.0843 47.5776 11.0171C47.432 10.9499 47.285 10.9163 47.1366 10.9163C46.991 10.9163 46.8538 10.9443 46.725 11.0003C46.599 11.0535 46.487 11.1291 46.389 11.2271C46.2938 11.3251 46.2196 11.4399 46.1664 11.5715C46.1132 11.7003 46.0866 11.8403 46.0866 11.9915C46.0866 12.1399 46.1132 12.2799 46.1664 12.4115C46.2196 12.5403 46.2938 12.6537 46.389 12.7517C46.487 12.8497 46.599 12.9267 46.725 12.9827C46.8538 13.0387 46.991 13.0667 47.1366 13.0667C47.285 13.0667 47.4306 13.0359 47.5734 12.9743C47.7162 12.9099 47.8436 12.8231 47.9556 12.7139L48.2496 13.0205C48.1516 13.1185 48.0396 13.2039 47.9136 13.2767C47.7904 13.3495 47.6602 13.4055 47.523 13.4447C47.3886 13.4839 47.2514 13.5035 47.1114 13.5035C46.8958 13.5035 46.6956 13.4657 46.5108 13.3901C46.326 13.3117 46.1636 13.2039 46.0236 13.0667C45.8864 12.9295 45.7786 12.7699 45.7002 12.5879C45.6218 12.4031 45.5826 12.2057 45.5826 11.9957C45.5826 11.7857 45.6218 11.5911 45.7002 11.4119C45.7786 11.2299 45.8878 11.0703 46.0278 10.9331C46.1706 10.7959 46.3344 10.6895 46.5192 10.6139C46.7068 10.5383 46.9098 10.5005 47.1282 10.5005C47.2682 10.5005 47.4054 10.5187 47.5398 10.5551C47.6742 10.5915 47.8016 10.6433 47.922 10.7105C48.0424 10.7777 48.1502 10.8589 48.2454 10.9541L47.9556 11.2943Z" fill="#006AFF"/>
<path d="M43.07 10.5298H45.17V10.954H43.5656V11.7814H45.002V12.2014H43.5656V13.0456H45.2204V13.4698H43.07V10.5298Z" fill="#006AFF"/>
<path d="M52.8675 5.91016H53.3631V8.85016H52.8675V5.91016Z" fill="#FD6900"/>
<path d="M51.1368 5.91016C51.3412 5.91016 51.5162 5.93956 51.6618 5.99836C51.8102 6.05716 51.9236 6.14116 52.002 6.25036C52.0832 6.35956 52.1238 6.49116 52.1238 6.64516C52.1238 6.81036 52.0776 6.95176 51.9852 7.06936C51.8928 7.18696 51.7668 7.26396 51.6072 7.30036C51.8032 7.33396 51.9572 7.41656 52.0692 7.54816C52.1812 7.67976 52.2372 7.84496 52.2372 8.04376C52.2372 8.21176 52.1938 8.35596 52.107 8.47636C52.0202 8.59676 51.897 8.68916 51.7374 8.75356C51.5778 8.81796 51.3874 8.85016 51.1662 8.85016H49.86V5.91016H51.1368ZM51.1116 7.13236C51.2684 7.13236 51.3916 7.09736 51.4812 7.02736C51.5708 6.95456 51.6156 6.85376 51.6156 6.72496C51.6156 6.59896 51.5708 6.50236 51.4812 6.43516C51.3916 6.36516 51.2684 6.33156 51.1116 6.33436H50.3556V7.13236H51.1116ZM51.1116 8.42596C51.3048 8.42876 51.456 8.39236 51.5652 8.31676C51.6744 8.23836 51.729 8.12776 51.729 7.98496C51.729 7.85056 51.6744 7.74556 51.5652 7.66996C51.456 7.59156 51.3048 7.55376 51.1116 7.55656H50.3556V8.42596H51.1116Z" fill="#FD6900"/>
<path d="M47.0618 5.91016H49.1618V6.33436H47.5574V7.16176H48.9938V7.58176H47.5574V8.42596H49.2122V8.85016H47.0618V5.91016Z" fill="#FD6900"/>
<path d="M43.07 5.91016H43.6454L44.6618 7.90516L45.6698 5.91016H46.2452V8.85016H45.7874L45.7832 6.60316L44.8172 8.54356H44.5022L43.5278 6.60316V8.85016H43.07V5.91016Z" fill="#FD6900"/>
<path d="M54.6904 6.46973C54.8835 6.46996 55.04 6.62716 55.04 6.82031C55.04 6.84371 55.0376 6.86656 55.0332 6.88867C55.6946 7.53993 56.2256 8.31328 56.5928 9.16797C57.002 10.1207 57.1999 11.1509 57.1729 12.1875C57.1457 13.2243 56.8943 14.2436 56.4355 15.1738C55.9768 16.1039 55.3216 16.9235 54.5156 17.5762C53.7097 18.2288 52.7717 18.6988 51.7666 18.9541C50.7614 19.2094 49.7122 19.2437 48.6924 19.0547C47.6727 18.8657 46.7063 18.4579 45.8594 17.8594C45.039 17.2796 44.3506 16.5334 43.8369 15.6709C43.6617 15.6518 43.5255 15.5055 43.5254 15.3252C43.5254 15.1319 43.6817 14.9746 43.875 14.9746C44.0683 14.9746 44.2246 15.1319 44.2246 15.3252C44.2246 15.4005 44.1997 15.4693 44.1592 15.5264C44.6455 16.3318 45.2915 17.0296 46.0605 17.5732C46.8661 18.1426 47.7859 18.5311 48.7559 18.7109C49.7258 18.8907 50.7236 18.858 51.6797 18.6152C52.6359 18.3724 53.5282 17.9246 54.2949 17.3037C55.0616 16.6828 55.6848 15.9034 56.1211 15.0186C56.5574 14.1338 56.7964 13.1649 56.8223 12.1787C56.8481 11.1925 56.6599 10.2121 56.2705 9.30566C55.9236 8.49831 55.4238 7.76718 54.8008 7.15039C54.7659 7.16207 54.7292 7.16988 54.6904 7.16992C54.4972 7.16992 54.34 7.01347 54.3398 6.82031C54.3398 6.62701 54.4971 6.46973 54.6904 6.46973ZM54.3398 8.6748C54.5331 8.6748 54.6904 8.83209 54.6904 9.02539C54.6904 9.08764 54.6711 9.14469 54.6426 9.19531C55.3144 10.3073 55.5677 11.6267 55.3477 12.9141C55.1102 14.3032 54.3413 15.5456 53.2041 16.3779C52.0669 17.2102 50.6498 17.5667 49.2539 17.373C48.0011 17.1991 46.8542 16.5931 46.0049 15.668C45.9839 15.6719 45.9625 15.6748 45.9404 15.6748C45.7472 15.6748 45.59 15.5184 45.5898 15.3252C45.5898 15.1319 45.7471 14.9746 45.9404 14.9746C46.1335 14.9748 46.29 15.132 46.29 15.3252C46.29 15.365 46.2818 15.4028 46.2695 15.4385C47.0635 16.2999 48.1339 16.8642 49.3027 17.0264C50.6084 17.2075 51.9333 16.8741 52.9971 16.0957C54.0609 15.3171 54.7807 14.1549 55.0029 12.8555C55.2089 11.6503 54.9713 10.4147 54.3418 9.37402L54.3398 9.375C54.1467 9.37492 53.9904 9.21846 53.9902 9.02539C53.9902 8.83214 54.1466 8.67489 54.3398 8.6748ZM53.29 10.46C53.4832 10.46 53.6394 10.6165 53.6396 10.8096C53.6396 10.9001 53.6043 10.9818 53.5479 11.0439C53.7033 11.621 53.717 12.2289 53.584 12.8145C53.4295 13.4943 53.0845 14.1161 52.5898 14.6074C52.095 15.0988 51.4702 15.4391 50.7891 15.5889C50.2491 15.7076 49.6918 15.7012 49.1572 15.5752C49.0942 15.6362 49.0096 15.6748 48.915 15.6748C48.7218 15.6748 48.5655 15.5184 48.5654 15.3252C48.5654 15.1319 48.7217 14.9746 48.915 14.9746C49.0782 14.9746 49.2132 15.0872 49.252 15.2383C49.7311 15.349 50.2303 15.3534 50.7139 15.2471C51.3301 15.1116 51.8951 14.8039 52.3428 14.3594C52.7905 13.9148 53.1024 13.3516 53.2422 12.7363C53.3613 12.2117 53.3497 11.6679 53.2129 11.1504C53.0568 11.1152 52.9404 10.9763 52.9404 10.8096C52.9407 10.6165 53.0969 10.46 53.29 10.46Z" fill="url(#paint0_linear_2109_920)"/>
<rect x="28.5" y="30.5" width="41" height="17" rx="3.5" fill="#FFD9D9"/>
<rect x="28.5" y="30.5" width="41" height="17" rx="3.5" stroke="#FF0005"/>
<path d="M36.3777 35.4882L32.8844 41.5383C32.8213 41.6476 32.788 41.7715 32.788 41.8977C32.788 42.0239 32.8212 42.1478 32.8843 42.2571C32.9474 42.3664 33.0381 42.4571 33.1474 42.5202C33.2567 42.5833 33.3806 42.6165 33.5068 42.6165H40.4928C40.619 42.6165 40.743 42.5833 40.8522 42.5202C40.9615 42.4571 41.0522 42.3664 41.1153 42.2571C41.1784 42.1478 41.2116 42.0239 41.2116 41.8977C41.2116 41.7715 41.1783 41.6476 41.1152 41.5383L37.6223 35.4882C37.5592 35.379 37.4685 35.2882 37.3593 35.2252C37.25 35.1621 37.1261 35.1289 37 35.1289C36.8739 35.1289 36.7499 35.1621 36.6407 35.2252C36.5315 35.2882 36.4407 35.379 36.3777 35.4882Z" fill="#EE404C"/>
<path d="M37.0456 37.354H36.9544C36.7301 37.354 36.5482 37.5359 36.5482 37.7602V39.7019C36.5482 39.9262 36.7301 40.1081 36.9544 40.1081H37.0456C37.2699 40.1081 37.4518 39.9262 37.4518 39.7019V37.7602C37.4518 37.5359 37.2699 37.354 37.0456 37.354Z" fill="#FFF7ED"/>
<path d="M37 41.6482C37.2495 41.6482 37.4518 41.4459 37.4518 41.1964C37.4518 40.9469 37.2495 40.7446 37 40.7446C36.7505 40.7446 36.5482 40.9469 36.5482 41.1964C36.5482 41.4459 36.7505 41.6482 37 41.6482Z" fill="#FFF7ED"/>
<path d="M44.6513 43H43.245L45.8054 35.7273H47.4318L49.9957 43H48.5895L46.647 37.2188H46.5902L44.6513 43ZM44.6974 40.1484H48.5327V41.2067H44.6974V40.1484ZM52.1824 35.7273V43H50.8968V35.7273H52.1824ZM55.919 43.1065C55.3722 43.1065 54.8999 42.9929 54.5021 42.7656C54.1068 42.536 53.8026 42.2116 53.5895 41.7926C53.3764 41.3712 53.2699 40.8752 53.2699 40.3047C53.2699 39.7436 53.3764 39.2512 53.5895 38.8274C53.8049 38.4013 54.1056 38.0698 54.4915 37.8331C54.8774 37.594 55.3307 37.4744 55.8516 37.4744C56.1877 37.4744 56.505 37.5289 56.8033 37.6378C57.1039 37.7443 57.3691 37.91 57.5987 38.1349C57.8307 38.3598 58.013 38.6463 58.1456 38.9943C58.2782 39.34 58.3445 39.7519 58.3445 40.2301V40.6243H53.8736V39.7578H57.1122C57.1098 39.5116 57.0566 39.2926 56.9524 39.1009C56.8482 38.9067 56.7027 38.754 56.5156 38.6428C56.331 38.5315 56.1155 38.4759 55.8693 38.4759C55.6065 38.4759 55.3757 38.5398 55.1768 38.6676C54.978 38.7931 54.8229 38.9588 54.7116 39.1648C54.6027 39.3684 54.5471 39.5921 54.5447 39.8359V40.5923C54.5447 40.9096 54.6027 41.1818 54.7188 41.4091C54.8348 41.634 54.9969 41.8068 55.2053 41.9276C55.4136 42.0459 55.6574 42.1051 55.9368 42.1051C56.1238 42.1051 56.2931 42.0791 56.4446 42.027C56.5961 41.9725 56.7275 41.8932 56.8388 41.7891C56.95 41.6849 57.0341 41.5559 57.0909 41.402L58.2912 41.5369C58.2154 41.8542 58.071 42.1312 57.858 42.3679C57.6473 42.6023 57.3774 42.7846 57.0483 42.9148C56.7192 43.0426 56.3428 43.1065 55.919 43.1065ZM59.432 43V37.5455H60.6784V38.4545H60.7353C60.8347 38.1397 61.0051 37.897 61.2466 37.7266C61.4905 37.5537 61.7686 37.4673 62.0811 37.4673C62.1522 37.4673 62.2315 37.4709 62.3191 37.478C62.409 37.4827 62.4836 37.491 62.5428 37.5028V38.6854C62.4883 38.6664 62.4019 38.6499 62.2836 38.6357C62.1676 38.6191 62.0551 38.6108 61.9462 38.6108C61.7118 38.6108 61.5011 38.6617 61.3141 38.7635C61.1294 38.8629 60.9838 39.0014 60.8773 39.179C60.7708 39.3565 60.7175 39.5613 60.7175 39.7933V43H59.432ZM66.4135 37.5455V38.5398H63.2779V37.5455H66.4135ZM64.052 36.2386H65.3375V41.3594C65.3375 41.5322 65.3636 41.6648 65.4157 41.7571C65.4701 41.8471 65.5411 41.9086 65.6287 41.9418C65.7163 41.9749 65.8134 41.9915 65.9199 41.9915C66.0004 41.9915 66.0738 41.9856 66.1401 41.9737C66.2087 41.9619 66.2608 41.9512 66.2963 41.9418L66.513 42.9467C66.4443 42.9704 66.3461 42.9964 66.2182 43.0249C66.0927 43.0533 65.9389 43.0698 65.7566 43.0746C65.4346 43.084 65.1446 43.0355 64.8865 42.929C64.6285 42.8201 64.4237 42.652 64.2722 42.4247C64.123 42.1974 64.0497 41.9134 64.052 41.5724V36.2386Z" fill="#EE404C"/>
<path d="M30 58C30 56.8954 30.8954 56 32 56H68C69.1046 56 70 56.8954 70 58C70 59.1046 69.1046 60 68 60H32C30.8954 60 30 59.1046 30 58Z" fill="#EBEBEB"/>
<rect width="28.5938" height="4" transform="translate(30 56)" fill="#FFC552"/>
<path d="M30 66C30 64.8954 30.8954 64 32 64H68C69.1046 64 70 64.8954 70 66C70 67.1046 69.1046 68 68 68H32C30.8954 68 30 67.1046 30 66Z" fill="#EBEBEB"/>
<rect width="28.5938" height="4" transform="translate(30 64)" fill="#FFC552"/>
<path d="M30 74C30 72.8954 30.8954 72 32 72H68C69.1046 72 70 72.8954 70 74C70 75.1046 69.1046 76 68 76H32C30.8954 76 30 75.1046 30 74Z" fill="#EBEBEB"/>
<rect width="17.1953" height="4" transform="translate(30 72)" fill="#FFC552"/>
<path d="M30 82C30 80.8954 30.8954 80 32 80H68C69.1046 80 70 80.8954 70 82C70 83.1046 69.1046 84 68 84H32C30.8954 84 30 83.1046 30 82Z" fill="#EBEBEB"/>
<rect width="5.79688" height="4" transform="translate(30 80)" fill="#FFC552"/>
</g>
<defs>
<filter id="filter0_dd_2109_920" x="0" y="0" width="98" height="138" filterUnits="userSpaceOnUse" color-interpolation-filters="sRGB">
<feFlood flood-opacity="0" result="BackgroundImageFix"/>
<feColorMatrix in="SourceAlpha" type="matrix" values="0 0 0 0 0 0 0 0 0 0 0 0 0 0 0 0 0 0 127 0" result="hardAlpha"/>
<feMorphology radius="6" operator="erode" in="SourceAlpha" result="effect1_dropShadow_2109_920"/>
<feOffset dy="8"/>
<feGaussianBlur stdDeviation="5"/>
<feComposite in2="hardAlpha" operator="out"/>
<feColorMatrix type="matrix" values="0 0 0 0 0 0 0 0 0 0 0 0 0 0 0 0 0 0 0.1 0"/>
<feBlend mode="normal" in2="BackgroundImageFix" result="effect1_dropShadow_2109_920"/>
<feColorMatrix in="SourceAlpha" type="matrix" values="0 0 0 0 0 0 0 0 0 0 0 0 0 0 0 0 0 0 127 0" result="hardAlpha"/>
<feMorphology radius="5" operator="erode" in="SourceAlpha" result="effect2_dropShadow_2109_920"/>
<feOffset dy="20"/>
<feGaussianBlur stdDeviation="12.5"/>
<feComposite in2="hardAlpha" operator="out"/>
<feColorMatrix type="matrix" values="0 0 0 0 0 0 0 0 0 0 0 0 0 0 0 0 0 0 0.1 0"/>
<feBlend mode="normal" in2="effect1_dropShadow_2109_920" result="effect2_dropShadow_2109_920"/>
<feBlend mode="normal" in="SourceGraphic" in2="effect2_dropShadow_2109_920" result="shape"/>
</filter>
<linearGradient id="paint0_linear_2109_920" x1="54.4559" y1="9.03181" x2="49.3078" y2="15.6272" gradientUnits="userSpaceOnUse">
<stop stop-color="#FD6900"/>
<stop offset="0.5" stop-color="#FF647E"/>
<stop offset="1" stop-color="#006AFF"/>
</linearGradient>
</defs>
</svg>
