<svg width="296" height="476" viewBox="0 0 296 476" fill="none" xmlns="http://www.w3.org/2000/svg">
<g filter="url(#filter0_d_2118_2091)">
<path d="M38 37C38 23.7452 48.7452 13 62 13H234C247.255 13 258 23.7452 258 37V389C258 402.255 247.255 413 234 413H62C48.7452 413 38 402.255 38 389V37Z" fill="white" fill-opacity="0.3" shape-rendering="crispEdges"/>
<g clip-path="url(#clip0_2118_2091)">
<rect x="50" y="25" width="196" height="376" rx="16" fill="white"/>
<rect width="196" height="29" transform="translate(50 25)" fill="#2B7FFF"/>
<path d="M68.4545 36.7702C68.6932 36.7721 68.9318 36.8176 69.1705 36.9066C69.4091 36.9956 69.6269 37.1433 69.8239 37.3498C70.0208 37.5543 70.179 37.8337 70.2983 38.1879C70.4176 38.542 70.4773 38.9862 70.4773 39.5202C70.4773 40.0373 70.428 40.4966 70.3295 40.8981C70.233 41.2977 70.0928 41.6348 69.9091 41.9094C69.7273 42.1841 69.5057 42.3924 69.2443 42.5344C68.9848 42.6765 68.6913 42.7475 68.3636 42.7475C68.0379 42.7475 67.7472 42.6831 67.4915 42.5543C67.2377 42.4237 67.0294 42.2428 66.8665 42.0117C66.7055 41.7788 66.6023 41.5089 66.5568 41.2021H67.25C67.3125 41.4691 67.4366 41.6897 67.6222 41.864C67.8097 42.0363 68.0568 42.1225 68.3636 42.1225C68.8125 42.1225 69.1667 41.9265 69.4261 41.5344C69.6875 41.1424 69.8182 40.5884 69.8182 39.8725H69.7727C69.6667 40.0316 69.5407 40.1689 69.3949 40.2844C69.2491 40.4 69.0871 40.489 68.9091 40.5515C68.7311 40.614 68.5417 40.6452 68.3409 40.6452C68.0076 40.6452 67.7017 40.5629 67.4233 40.3981C67.1468 40.2314 66.9252 40.0032 66.7585 39.7134C66.5938 39.4218 66.5114 39.0884 66.5114 38.7134C66.5114 38.3574 66.5909 38.0316 66.75 37.7362C66.911 37.4388 67.1364 37.2021 67.4261 37.0259C67.7178 36.8498 68.0606 36.7646 68.4545 36.7702ZM68.4545 37.3952C68.2159 37.3952 68.0009 37.4549 67.8097 37.5742C67.6203 37.6916 67.4697 37.8507 67.358 38.0515C67.2481 38.2504 67.1932 38.471 67.1932 38.7134C67.1932 38.9558 67.2462 39.1765 67.3523 39.3754C67.4602 39.5723 67.607 39.7295 67.7926 39.8469C67.9801 39.9625 68.1932 40.0202 68.4318 40.0202C68.6117 40.0202 68.7794 39.9852 68.9347 39.9151C69.09 39.8432 69.2254 39.7456 69.3409 39.6225C69.4583 39.4975 69.5502 39.3564 69.6165 39.1992C69.6828 39.0401 69.7159 38.8744 69.7159 38.7021C69.7159 38.4748 69.661 38.2617 69.5511 38.0629C69.4432 37.864 69.2936 37.703 69.1023 37.5799C68.9129 37.4568 68.697 37.3952 68.4545 37.3952ZM72.3002 41.9237C72.16 41.9237 72.0398 41.8735 71.9394 41.7731C71.839 41.6727 71.7888 41.5524 71.7888 41.4123C71.7888 41.2721 71.839 41.1519 71.9394 41.0515C72.0398 40.9511 72.16 40.9009 72.3002 40.9009C72.4403 40.9009 72.5606 40.9511 72.661 41.0515C72.7614 41.1519 72.8116 41.2721 72.8116 41.4123C72.8116 41.5051 72.7879 41.5903 72.7405 41.668C72.6951 41.7456 72.6335 41.8081 72.5559 41.8555C72.4801 41.9009 72.3949 41.9237 72.3002 41.9237ZM72.3002 38.9805C72.16 38.9805 72.0398 38.9303 71.9394 38.8299C71.839 38.7295 71.7888 38.6093 71.7888 38.4691C71.7888 38.329 71.839 38.2087 71.9394 38.1083C72.0398 38.0079 72.16 37.9577 72.3002 37.9577C72.4403 37.9577 72.5606 38.0079 72.661 38.1083C72.7614 38.2087 72.8116 38.329 72.8116 38.4691C72.8116 38.5619 72.7879 38.6471 72.7405 38.7248C72.6951 38.8024 72.6335 38.8649 72.5559 38.9123C72.4801 38.9577 72.3949 38.9805 72.3002 38.9805ZM74.0727 41.4748V40.8952L76.6295 36.8498H77.05V37.7475H76.7659L74.834 40.8043V40.8498H78.2772V41.4748H74.0727ZM76.8113 42.668V41.2987V41.0288V36.8498H77.4818V42.668H76.8113ZM81.5149 36.8498V42.668H80.8104V37.5884H80.7763L79.3558 38.5316V37.8157L80.8104 36.8498H81.5149Z" fill="white"/>
<mask id="path-4-inside-1_2118_2091" fill="white">
<path d="M212 39.5C212 37.2909 213.791 35.5 216 35.5H220C222.209 35.5 224 37.2909 224 39.5C224 41.7091 222.209 43.5 220 43.5H216C213.791 43.5 212 41.7091 212 39.5Z"/>
</mask>
<path d="M216 35.5V36.5H220V35.5V34.5H216V35.5ZM220 43.5V42.5H216V43.5V44.5H220V43.5ZM216 43.5V42.5C214.343 42.5 213 41.1569 213 39.5H212H211C211 42.2614 213.239 44.5 216 44.5V43.5ZM224 39.5H223C223 41.1569 221.657 42.5 220 42.5V43.5V44.5C222.761 44.5 225 42.2614 225 39.5H224ZM220 35.5V36.5C221.657 36.5 223 37.8431 223 39.5H224H225C225 36.7386 222.761 34.5 220 34.5V35.5ZM216 35.5V34.5C213.239 34.5 211 36.7386 211 39.5H212H213C213 37.8431 214.343 36.5 216 36.5V35.5Z" fill="white" mask="url(#path-4-inside-1_2118_2091)"/>
<path d="M226 37.5C226 36.3954 226.895 35.5 228 35.5C229.105 35.5 230 36.3954 230 37.5V41.5C230 42.6046 229.105 43.5 228 43.5C226.895 43.5 226 42.6046 226 41.5V37.5Z" fill="white"/>
<rect width="216" height="48" transform="translate(50 54)" fill="#EDF4FF"/>
<g filter="url(#filter1_dd_2118_2091)">
<mask id="path-7-inside-2_2118_2091" fill="white">
<path d="M66 78C66 69.1634 73.1634 62 82 62C90.8366 62 98 69.1634 98 78C98 86.8366 90.8366 94 82 94C73.1634 94 66 86.8366 66 78Z"/>
</mask>
<path d="M66 78C66 69.1634 73.1634 62 82 62C90.8366 62 98 69.1634 98 78C98 86.8366 90.8366 94 82 94C73.1634 94 66 86.8366 66 78Z" fill="url(#paint0_linear_2118_2091)" shape-rendering="crispEdges"/>
<path d="M82 94V92C74.268 92 68 85.732 68 78H66H64C64 87.9411 72.0589 96 82 96V94ZM98 78H96C96 85.732 89.732 92 82 92V94V96C91.9411 96 100 87.9411 100 78H98ZM82 62V64C89.732 64 96 70.268 96 78H98H100C100 68.0589 91.9411 60 82 60V62ZM82 62V60C72.0589 60 64 68.0589 64 78H66H68C68 70.268 74.268 64 82 64V62Z" fill="white" mask="url(#path-7-inside-2_2118_2091)"/>
<g clip-path="url(#clip1_2118_2091)">
<path d="M90.6667 82.3333V86C90.6667 86.7363 90.0697 87.3333 89.3333 87.3333H85V86H89C89.184 86 89.3333 85.8507 89.3333 85.6667V82.3333H90.6667Z" fill="#BCC7CE"/>
<path d="M74.6667 78V75C74.6667 72.0593 77.0594 69.6667 80 69.6667H84C86.9407 69.6667 89.3334 72.0593 89.3334 75V78H90.6667V75C90.6667 71.318 87.682 68.3333 84 68.3333H80C76.318 68.3333 73.3334 71.318 73.3334 75V78H74.6667Z" fill="#BCC7CE"/>
<path d="M76 76.2267V74C76 73.6333 76.3 73.3333 76.6667 73.3333C76.85 73.3333 77.0167 73.4067 77.1367 73.53C77.26 73.65 77.3333 73.8167 77.3333 74V75.3333L76 76.2267Z" fill="#BCC7CE"/>
<path d="M86.6667 75.6667V74C86.6667 73.8167 86.7401 73.65 86.8634 73.53C86.9834 73.4067 87.1501 73.3333 87.3334 73.3333C87.7001 73.3333 88.0001 73.6333 88.0001 74V76.2267L86.6667 75.6667Z" fill="#BCC7CE"/>
<path d="M86.3333 84.3333H77.6666C76.378 84.3333 75.3333 83.2887 75.3333 82H74.6666V78.3333H75.3333C75.3333 76.3083 76.975 74.6667 79 74.6667H85C87.025 74.6667 88.6666 76.3083 88.6666 78.3333H89.3333V82H88.6666C88.6666 83.2887 87.622 84.3333 86.3333 84.3333Z" fill="#DCE4EA"/>
<path d="M87.3333 79.2223V81.6667C87.3333 82.403 86.7363 83 86 83H78C77.2636 83 76.6666 82.403 76.6666 81.6667V79.2223C76.6666 77.8773 77.5176 76.7333 78.711 76.2983C79.2066 76.1177 79.7556 76.2307 80.1886 76.5327C80.5176 76.7623 81.0806 77 82 77C82.9193 77 83.4823 76.7623 83.8113 76.5327C84.244 76.2307 84.793 76.1177 85.289 76.2983C86.4826 76.733 87.3333 77.877 87.3333 79.2223Z" fill="#0A365E"/>
<path d="M79.1667 80.6667C79.6269 80.6667 80 80.219 80 79.6667C80 79.1144 79.6269 78.6667 79.1667 78.6667C78.7065 78.6667 78.3334 79.1144 78.3334 79.6667C78.3334 80.219 78.7065 80.6667 79.1667 80.6667Z" fill="#10DDFF"/>
<path d="M84.8333 80.6667C85.2936 80.6667 85.6667 80.219 85.6667 79.6667C85.6667 79.1144 85.2936 78.6667 84.8333 78.6667C84.3731 78.6667 84 79.1144 84 79.6667C84 80.219 84.3731 80.6667 84.8333 80.6667Z" fill="#10DDFF"/>
<path d="M73.3334 77.3333H74.6667C75.0347 77.3333 75.3334 77.632 75.3334 78V82.3333C75.3334 82.7013 75.0347 83 74.6667 83H73.3334C72.7814 83 72.3334 82.552 72.3334 82V78.3333C72.3334 77.7813 72.7814 77.3333 73.3334 77.3333Z" fill="#2473FE"/>
<path d="M90.6666 83H89.3333C88.9653 83 88.6666 82.7013 88.6666 82.3333V78C88.6666 77.632 88.9653 77.3333 89.3333 77.3333H90.6666C91.2186 77.3333 91.6666 77.7813 91.6666 78.3333V82C91.6666 82.552 91.2186 83 90.6666 83Z" fill="#2473FE"/>
<path d="M82.6666 85.6667H85.3333C85.5173 85.6667 85.6666 85.816 85.6666 86V87.3333C85.6666 87.5173 85.5173 87.6667 85.3333 87.6667H82.6666C82.1146 87.6667 81.6666 87.2187 81.6666 86.6667C81.6666 86.1147 82.1146 85.6667 82.6666 85.6667Z" fill="#0A365E"/>
<path d="M81.9999 81.6667C81.5083 81.6667 81.1753 81.364 81.0559 81.185C80.9536 81.032 80.9949 80.825 81.1483 80.7227C81.3006 80.6203 81.5086 80.6617 81.6106 80.815C81.6129 80.818 81.7469 81 81.9999 81C82.2546 81 82.3879 80.8167 82.3893 80.815C82.4913 80.6617 82.6986 80.6203 82.8516 80.7227C83.0049 80.825 83.0463 81.032 82.9439 81.185C82.8246 81.364 82.4916 81.6667 81.9999 81.6667Z" fill="#10DDFF"/>
</g>
</g>
<path d="M110.861 68.7727H112.795L115.386 75.0966H115.489L118.08 68.7727H120.014V77.5H118.497V71.5043H118.416L116.004 77.4744H114.871L112.459 71.4915H112.378V77.5H110.861V68.7727ZM124.253 77.6278C123.597 77.6278 123.03 77.4915 122.553 77.2188C122.078 76.9432 121.713 76.554 121.457 76.0511C121.202 75.5455 121.074 74.9503 121.074 74.2656C121.074 73.5923 121.202 73.0014 121.457 72.4929C121.716 71.9815 122.077 71.5838 122.54 71.2997C123.003 71.0128 123.547 70.8693 124.172 70.8693C124.575 70.8693 124.956 70.9347 125.314 71.0653C125.675 71.1932 125.993 71.392 126.268 71.6619C126.547 71.9318 126.766 72.2756 126.925 72.6932C127.084 73.108 127.163 73.6023 127.163 74.1761V74.6491H121.798V73.6094H125.685C125.682 73.3139 125.618 73.0511 125.493 72.821C125.368 72.5881 125.193 72.4048 124.969 72.2713C124.747 72.1378 124.489 72.071 124.193 72.071C123.878 72.071 123.601 72.1477 123.362 72.3011C123.124 72.4517 122.938 72.6506 122.804 72.8977C122.673 73.142 122.607 73.4105 122.604 73.7031V74.6108C122.604 74.9915 122.673 75.3182 122.812 75.5909C122.952 75.8608 123.146 76.0682 123.396 76.2131C123.646 76.3551 123.939 76.4261 124.274 76.4261C124.499 76.4261 124.702 76.3949 124.884 76.3324C125.065 76.267 125.223 76.1719 125.357 76.0469C125.49 75.9219 125.591 75.767 125.659 75.5824L127.099 75.7443C127.009 76.125 126.835 76.4574 126.58 76.7415C126.327 77.0227 126.003 77.2415 125.608 77.3977C125.213 77.5511 124.761 77.6278 124.253 77.6278ZM128.224 77.5V68.7727H129.767V72.0369H129.831C129.91 71.8778 130.022 71.7088 130.167 71.5298C130.312 71.348 130.508 71.1932 130.755 71.0653C131.002 70.9347 131.318 70.8693 131.701 70.8693C132.207 70.8693 132.663 70.9986 133.069 71.2571C133.478 71.5128 133.802 71.892 134.041 72.3949C134.282 72.8949 134.403 73.5085 134.403 74.2358C134.403 74.9545 134.285 75.5653 134.049 76.0682C133.814 76.571 133.493 76.9545 133.086 77.2188C132.68 77.483 132.22 77.6151 131.706 77.6151C131.331 77.6151 131.02 77.5526 130.772 77.4276C130.525 77.3026 130.326 77.152 130.176 76.9759C130.028 76.7969 129.913 76.6278 129.831 76.4688H129.741V77.5H128.224ZM129.737 74.2273C129.737 74.6506 129.797 75.0213 129.916 75.3395C130.038 75.6577 130.213 75.9062 130.44 76.0852C130.67 76.2614 130.949 76.3494 131.275 76.3494C131.616 76.3494 131.902 76.2585 132.132 76.0767C132.362 75.892 132.535 75.6406 132.652 75.3224C132.771 75.0014 132.831 74.6364 132.831 74.2273C132.831 73.821 132.772 73.4602 132.656 73.1449C132.539 72.8295 132.366 72.5824 132.136 72.4034C131.906 72.2244 131.619 72.1349 131.275 72.1349C130.946 72.1349 130.666 72.2216 130.436 72.3949C130.206 72.5682 130.031 72.8111 129.912 73.1236C129.795 73.4361 129.737 73.804 129.737 74.2273ZM135.402 77.5V70.9545H136.945V77.5H135.402ZM136.178 70.0256C135.933 70.0256 135.723 69.9446 135.547 69.7827C135.371 69.6179 135.283 69.4205 135.283 69.1903C135.283 68.9574 135.371 68.7599 135.547 68.598C135.723 68.4332 135.933 68.3509 136.178 68.3509C136.425 68.3509 136.635 68.4332 136.808 68.598C136.984 68.7599 137.072 68.9574 137.072 69.1903C137.072 69.4205 136.984 69.6179 136.808 69.7827C136.635 69.9446 136.425 70.0256 136.178 70.0256ZM162.474 77.5H160.786L163.859 68.7727H165.81L168.887 77.5H167.2L164.869 70.5625H164.8L162.474 77.5ZM162.529 74.0781H167.131V75.348H162.529V74.0781ZM171.305 68.7727V77.5H169.724V68.7727H171.305Z" fill="#0076F7"/>
<path d="M141.116 77.6278C140.46 77.6278 139.893 77.4915 139.416 77.2188C138.941 76.9432 138.576 76.554 138.321 76.0511C138.065 75.5455 137.937 74.9503 137.937 74.2656C137.937 73.5923 138.065 73.0014 138.321 72.4929C138.579 71.9815 138.94 71.5838 139.403 71.2997C139.866 71.0128 140.41 70.8693 141.035 70.8693C141.439 70.8693 141.819 70.9347 142.177 71.0653C142.538 71.1932 142.856 71.392 143.132 71.6619C143.41 71.9318 143.629 72.2756 143.788 72.6932C143.947 73.108 144.027 73.6023 144.027 74.1761V74.6491H138.662V73.6094H142.548C142.545 73.3139 142.481 73.0511 142.356 72.821C142.231 72.5881 142.056 72.4048 141.832 72.2713C141.61 72.1378 141.352 72.071 141.056 72.071C140.741 72.071 140.464 72.1477 140.225 72.3011C139.987 72.4517 139.801 72.6506 139.667 72.8977C139.537 73.142 139.47 73.4105 139.467 73.7031V74.6108C139.467 74.9915 139.537 75.3182 139.676 75.5909C139.815 75.8608 140.01 76.0682 140.26 76.2131C140.51 76.3551 140.802 76.4261 141.137 76.4261C141.362 76.4261 141.565 76.3949 141.747 76.3324C141.929 76.267 142.086 76.1719 142.22 76.0469C142.353 75.9219 142.454 75.767 142.522 75.5824L143.963 75.7443C143.872 76.125 143.699 76.4574 143.443 76.7415C143.19 77.0227 142.866 77.2415 142.471 77.3977C142.076 77.5511 141.625 77.6278 141.116 77.6278ZM147.874 77.6278C147.221 77.6278 146.66 77.4844 146.191 77.1974C145.725 76.9105 145.366 76.5142 145.113 76.0085C144.863 75.5 144.738 74.9148 144.738 74.2528C144.738 73.5881 144.866 73.0014 145.121 72.4929C145.377 71.9815 145.738 71.5838 146.204 71.2997C146.673 71.0128 147.227 70.8693 147.866 70.8693C148.397 70.8693 148.867 70.9673 149.276 71.1634C149.688 71.3565 150.016 71.6307 150.261 71.9858C150.505 72.3381 150.644 72.75 150.678 73.2216H149.204C149.144 72.9062 149.002 72.6435 148.778 72.4332C148.556 72.2202 148.259 72.1136 147.887 72.1136C147.572 72.1136 147.295 72.1989 147.056 72.3693C146.817 72.5369 146.631 72.7784 146.498 73.0938C146.367 73.4091 146.302 73.7869 146.302 74.2273C146.302 74.6733 146.367 75.0568 146.498 75.3778C146.629 75.696 146.812 75.9418 147.048 76.1151C147.286 76.2855 147.566 76.3707 147.887 76.3707C148.114 76.3707 148.317 76.3281 148.496 76.2429C148.678 76.1548 148.83 76.0284 148.952 75.8636C149.075 75.6989 149.158 75.4986 149.204 75.2628H150.678C150.641 75.7259 150.505 76.1364 150.269 76.4943C150.033 76.8494 149.712 77.1278 149.306 77.3295C148.9 77.5284 148.423 77.6278 147.874 77.6278ZM154.488 77.6278C153.848 77.6278 153.294 77.4872 152.826 77.206C152.357 76.9247 151.993 76.5312 151.735 76.0256C151.479 75.5199 151.351 74.929 151.351 74.2528C151.351 73.5767 151.479 72.9844 151.735 72.4759C151.993 71.9673 152.357 71.5724 152.826 71.2912C153.294 71.0099 153.848 70.8693 154.488 70.8693C155.127 70.8693 155.681 71.0099 156.15 71.2912C156.618 71.5724 156.98 71.9673 157.236 72.4759C157.495 72.9844 157.624 73.5767 157.624 74.2528C157.624 74.929 157.495 75.5199 157.236 76.0256C156.98 76.5312 156.618 76.9247 156.15 77.206C155.681 77.4872 155.127 77.6278 154.488 77.6278ZM154.496 76.392C154.843 76.392 155.132 76.2969 155.365 76.1065C155.598 75.9134 155.772 75.6548 155.885 75.331C156.002 75.0071 156.06 74.6463 156.06 74.2486C156.06 73.848 156.002 73.4858 155.885 73.1619C155.772 72.8352 155.598 72.5753 155.365 72.3821C155.132 72.1889 154.843 72.0923 154.496 72.0923C154.141 72.0923 153.846 72.1889 153.61 72.3821C153.377 72.5753 153.202 72.8352 153.086 73.1619C152.972 73.4858 152.915 73.848 152.915 74.2486C152.915 74.6463 152.972 75.0071 153.086 75.331C153.202 75.6548 153.377 75.9134 153.61 76.1065C153.846 76.2969 154.141 76.392 154.496 76.392Z" fill="#FF6900"/>
<path d="M110 85.5C110 82.8958 112.111 80.7847 114.715 80.7847C117.32 80.7847 119.431 82.8958 119.431 85.5C119.431 88.1042 117.32 90.2153 114.715 90.2153C112.111 90.2153 110 88.1042 110 85.5Z" fill="#2AE700"/>
<path d="M129.044 85.5909C129.044 86.2045 128.934 86.7348 128.712 87.1818C128.49 87.6288 128.186 87.9735 127.8 88.2159C127.414 88.4583 126.972 88.5795 126.476 88.5795C125.98 88.5795 125.539 88.4583 125.152 88.2159C124.766 87.9735 124.462 87.6288 124.24 87.1818C124.019 86.7348 123.908 86.2045 123.908 85.5909C123.908 84.9773 124.019 84.447 124.24 84C124.462 83.553 124.766 83.2083 125.152 82.9659C125.539 82.7235 125.98 82.6023 126.476 82.6023C126.972 82.6023 127.414 82.7235 127.8 82.9659C128.186 83.2083 128.49 83.553 128.712 84C128.934 84.447 129.044 84.9773 129.044 85.5909ZM128.362 85.5909C128.362 85.0871 128.278 84.6619 128.11 84.3153C127.943 83.9688 127.717 83.7064 127.431 83.5284C127.147 83.3504 126.828 83.2614 126.476 83.2614C126.124 83.2614 125.805 83.3504 125.519 83.5284C125.235 83.7064 125.008 83.9688 124.84 84.3153C124.673 84.6619 124.59 85.0871 124.59 85.5909C124.59 86.0947 124.673 86.5199 124.84 86.8665C125.008 87.2131 125.235 87.4754 125.519 87.6534C125.805 87.8314 126.124 87.9205 126.476 87.9205C126.828 87.9205 127.147 87.8314 127.431 87.6534C127.717 87.4754 127.943 87.2131 128.11 86.8665C128.278 86.5199 128.362 86.0947 128.362 85.5909ZM130.809 85.875V88.5H130.138V84.1364H130.786V84.8182H130.843C130.945 84.5966 131.1 84.4186 131.309 84.2841C131.517 84.1477 131.786 84.0795 132.115 84.0795C132.411 84.0795 132.669 84.1402 132.891 84.2614C133.112 84.3807 133.285 84.5625 133.408 84.8068C133.531 85.0492 133.593 85.3561 133.593 85.7273V88.5H132.922V85.7727C132.922 85.4299 132.833 85.1629 132.655 84.9716C132.477 84.7784 132.233 84.6818 131.922 84.6818C131.708 84.6818 131.517 84.7282 131.348 84.821C131.182 84.9138 131.05 85.0492 130.953 85.2273C130.857 85.4053 130.809 85.6212 130.809 85.875ZM135.488 82.6818V88.5H134.818V82.6818H135.488ZM136.716 88.5V84.1364H137.387V88.5H136.716ZM137.057 83.4091C136.926 83.4091 136.814 83.3646 136.719 83.2756C136.626 83.1866 136.58 83.0795 136.58 82.9545C136.58 82.8295 136.626 82.7225 136.719 82.6335C136.814 82.5445 136.926 82.5 137.057 82.5C137.188 82.5 137.3 82.5445 137.392 82.6335C137.487 82.7225 137.534 82.8295 137.534 82.9545C137.534 83.0795 137.487 83.1866 137.392 83.2756C137.3 83.3646 137.188 83.4091 137.057 83.4091ZM139.285 85.875V88.5H138.615V84.1364H139.262V84.8182H139.319C139.421 84.5966 139.577 84.4186 139.785 84.2841C139.993 84.1477 140.262 84.0795 140.592 84.0795C140.887 84.0795 141.146 84.1402 141.367 84.2614C141.589 84.3807 141.761 84.5625 141.884 84.8068C142.008 85.0492 142.069 85.3561 142.069 85.7273V88.5H141.399V85.7727C141.399 85.4299 141.31 85.1629 141.132 84.9716C140.954 84.7784 140.709 84.6818 140.399 84.6818C140.185 84.6818 139.993 84.7282 139.825 84.821C139.658 84.9138 139.527 85.0492 139.43 85.2273C139.333 85.4053 139.285 85.6212 139.285 85.875ZM145.124 88.5909C144.703 88.5909 144.341 88.4981 144.036 88.3125C143.733 88.125 143.499 87.8636 143.334 87.5284C143.171 87.1913 143.09 86.7992 143.09 86.3523C143.09 85.9053 143.171 85.5114 143.334 85.1705C143.499 84.8277 143.728 84.5606 144.022 84.3693C144.317 84.1761 144.662 84.0795 145.056 84.0795C145.283 84.0795 145.507 84.1174 145.729 84.1932C145.951 84.2689 146.152 84.392 146.334 84.5625C146.516 84.7311 146.661 84.9545 146.769 85.233C146.877 85.5114 146.931 85.8542 146.931 86.2614V86.5455H143.567V85.9659H146.249C146.249 85.7197 146.2 85.5 146.101 85.3068C146.005 85.1136 145.866 84.9612 145.686 84.8494C145.508 84.7377 145.298 84.6818 145.056 84.6818C144.789 84.6818 144.558 84.7481 144.362 84.8807C144.169 85.0114 144.021 85.1818 143.916 85.392C143.812 85.6023 143.76 85.8277 143.76 86.0682V86.4545C143.76 86.7841 143.817 87.0634 143.931 87.2926C144.046 87.5199 144.206 87.6932 144.411 87.8125C144.615 87.9299 144.853 87.9886 145.124 87.9886C145.3 87.9886 145.459 87.964 145.601 87.9148C145.745 87.8636 145.869 87.7879 145.973 87.6875C146.077 87.5852 146.158 87.4583 146.215 87.3068L146.862 87.4886C146.794 87.7083 146.68 87.9015 146.519 88.0682C146.358 88.233 146.159 88.3617 145.922 88.4545C145.685 88.5455 145.419 88.5909 145.124 88.5909Z" fill="#22B10B"/>
</g>
<rect x="50" y="25" width="196" height="376" rx="16" stroke="#003B94" stroke-width="8"/>
</g>
<defs>
<filter id="filter0_d_2118_2091" x="0" y="0" width="296" height="476" filterUnits="userSpaceOnUse" color-interpolation-filters="sRGB">
<feFlood flood-opacity="0" result="BackgroundImageFix"/>
<feColorMatrix in="SourceAlpha" type="matrix" values="0 0 0 0 0 0 0 0 0 0 0 0 0 0 0 0 0 0 127 0" result="hardAlpha"/>
<feMorphology radius="12" operator="erode" in="SourceAlpha" result="effect1_dropShadow_2118_2091"/>
<feOffset dy="25"/>
<feGaussianBlur stdDeviation="25"/>
<feComposite in2="hardAlpha" operator="out"/>
<feColorMatrix type="matrix" values="0 0 0 0 0 0 0 0 0 0 0 0 0 0 0 0 0 0 0.25 0"/>
<feBlend mode="normal" in2="BackgroundImageFix" result="effect1_dropShadow_2118_2091"/>
<feBlend mode="normal" in="SourceGraphic" in2="effect1_dropShadow_2118_2091" result="shape"/>
</filter>
<filter id="filter1_dd_2118_2091" x="54" y="60" width="56" height="56" filterUnits="userSpaceOnUse" color-interpolation-filters="sRGB">
<feFlood flood-opacity="0" result="BackgroundImageFix"/>
<feColorMatrix in="SourceAlpha" type="matrix" values="0 0 0 0 0 0 0 0 0 0 0 0 0 0 0 0 0 0 127 0" result="hardAlpha"/>
<feMorphology radius="4" operator="erode" in="SourceAlpha" result="effect1_dropShadow_2118_2091"/>
<feOffset dy="4"/>
<feGaussianBlur stdDeviation="3"/>
<feComposite in2="hardAlpha" operator="out"/>
<feColorMatrix type="matrix" values="0 0 0 0 0 0 0 0 0 0 0 0 0 0 0 0 0 0 0.1 0"/>
<feBlend mode="normal" in2="BackgroundImageFix" result="effect1_dropShadow_2118_2091"/>
<feColorMatrix in="SourceAlpha" type="matrix" values="0 0 0 0 0 0 0 0 0 0 0 0 0 0 0 0 0 0 127 0" result="hardAlpha"/>
<feMorphology radius="3" operator="erode" in="SourceAlpha" result="effect2_dropShadow_2118_2091"/>
<feOffset dy="10"/>
<feGaussianBlur stdDeviation="7.5"/>
<feComposite in2="hardAlpha" operator="out"/>
<feColorMatrix type="matrix" values="0 0 0 0 0 0 0 0 0 0 0 0 0 0 0 0 0 0 0.1 0"/>
<feBlend mode="normal" in2="effect1_dropShadow_2118_2091" result="effect2_dropShadow_2118_2091"/>
<feBlend mode="normal" in="SourceGraphic" in2="effect2_dropShadow_2118_2091" result="shape"/>
</filter>
<linearGradient id="paint0_linear_2118_2091" x1="66" y1="62" x2="98" y2="94" gradientUnits="userSpaceOnUse">
<stop stop-color="white"/>
<stop offset="1" stop-color="#EFF6FF"/>
</linearGradient>
<clipPath id="clip0_2118_2091">
<rect x="50" y="25" width="196" height="376" rx="16" fill="white"/>
</clipPath>
<clipPath id="clip1_2118_2091">
<rect width="20" height="20" fill="white" transform="translate(72 68)"/>
</clipPath>
</defs>
</svg>
