<svg width="14" height="14" viewBox="0 0 14 14" fill="none" xmlns="http://www.w3.org/2000/svg">
<path d="M13.75 1.25V5.9375C13.75 6.02038 13.7171 6.09987 13.6585 6.15847C13.5999 6.21708 13.5204 6.25 13.4375 6.25H7.5V0.3125C7.5 0.22962 7.53292 0.150134 7.59153 0.0915292C7.65013 0.0329241 7.72962 0 7.8125 0H12.5C12.8315 0 13.1495 0.131696 13.3839 0.366116C13.6183 0.600537 13.75 0.918479 13.75 1.25ZM5.9375 0H1.25C0.918479 0 0.600537 0.131696 0.366116 0.366116C0.131696 0.600537 0 0.918479 0 1.25V5.9375C0 6.02038 0.0329241 6.09987 0.0915292 6.15847C0.150134 6.21708 0.22962 6.25 0.3125 6.25H6.25V0.3125C6.25 0.22962 6.21708 0.150134 6.15847 0.0915292C6.09987 0.0329241 6.02038 0 5.9375 0ZM13.4375 7.5H7.5V13.4375C7.5 13.5204 7.53292 13.5999 7.59153 13.6585C7.65013 13.7171 7.72962 13.75 7.8125 13.75H12.5C12.8315 13.75 13.1495 13.6183 13.3839 13.3839C13.6183 13.1495 13.75 12.8315 13.75 12.5V7.8125C13.75 7.72962 13.7171 7.65013 13.6585 7.59153C13.5999 7.53292 13.5204 7.5 13.4375 7.5ZM0 7.8125V12.5C0 12.8315 0.131696 13.1495 0.366116 13.3839C0.600537 13.6183 0.918479 13.75 1.25 13.75H5.9375C6.02038 13.75 6.09987 13.7171 6.15847 13.6585C6.21708 13.5999 6.25 13.5204 6.25 13.4375V7.5H0.3125C0.22962 7.5 0.150134 7.53292 0.0915292 7.59153C0.0329241 7.65013 0 7.72962 0 7.8125Z" fill="#0B1117"/>
</svg>
