<svg width="19" height="12" viewBox="0 0 19 12" fill="none" xmlns="http://www.w3.org/2000/svg">
<path d="M12.5 5.625C12.5 6.24307 12.3167 6.84725 11.9733 7.36116C11.63 7.87506 11.1419 8.2756 10.5709 8.51212C9.99987 8.74865 9.37153 8.81053 8.76534 8.68995C8.15915 8.56938 7.60233 8.27175 7.16529 7.83471C6.72825 7.39767 6.43062 6.84085 6.31005 6.23466C6.18947 5.62847 6.25135 5.00013 6.48788 4.42911C6.7244 3.8581 7.12494 3.37004 7.63884 3.02666C8.15275 2.68328 8.75693 2.5 9.375 2.5C10.2038 2.5 10.9987 2.82924 11.5847 3.41529C12.1708 4.00134 12.5 4.7962 12.5 5.625ZM18.75 0.625V10.625C18.75 10.7908 18.6842 10.9497 18.5669 11.0669C18.4497 11.1842 18.2908 11.25 18.125 11.25H0.625C0.45924 11.25 0.300268 11.1842 0.183058 11.0669C0.065848 10.9497 0 10.7908 0 10.625V0.625C0 0.45924 0.065848 0.300269 0.183058 0.183058C0.300268 0.0658481 0.45924 0 0.625 0H18.125C18.2908 0 18.4497 0.0658481 18.5669 0.183058C18.6842 0.300269 18.75 0.45924 18.75 0.625ZM17.5 4.24609C16.7903 4.03625 16.1444 3.65219 15.6211 3.12889C15.0978 2.60559 14.7137 1.95969 14.5039 1.25H4.24609C4.03625 1.95969 3.65219 2.60559 3.12889 3.12889C2.60559 3.65219 1.95969 4.03625 1.25 4.24609V7.00391C1.95969 7.21375 2.60559 7.59781 3.12889 8.12111C3.65219 8.64441 4.03625 9.29031 4.24609 10H14.5039C14.7137 9.29031 15.0978 8.64441 15.6211 8.12111C16.1444 7.59781 16.7903 7.21375 17.5 7.00391V4.24609Z" fill="#0B1117"/>
</svg>
