<svg width="64" height="6" viewBox="0 0 64 6" fill="none" xmlns="http://www.w3.org/2000/svg">
<path d="M5 2.38672L0 -3.26633e-05L0 5.77347L5 3.38672V2.38672ZM6 2.88672V3.38672H10V2.88672V2.38672H6V2.88672ZM14 2.88672V3.38672H18V2.88672V2.38672H14V2.88672ZM22 2.88672V3.38672H26V2.88672V2.38672H22V2.88672ZM30 2.88672V3.38672H34V2.88672V2.38672H30V2.88672ZM38 2.88672V3.38672H42V2.88672V2.38672H38V2.88672ZM46 2.88672V3.38672H50V2.88672V2.38672H46V2.88672ZM54 2.88672V3.38672H58V2.88672V2.38672H54V2.88672ZM62 2.88672V3.38672H64V2.88672V2.38672H62V2.88672Z" fill="currentColor"/>
</svg>
