<svg width="10" height="6" viewBox="0 0 10 6" fill="none" xmlns="http://www.w3.org/2000/svg">
<path d="M9.59199 4.98019C9.55889 5.06014 9.50283 5.12848 9.43089 5.17656C9.35895 5.22465 9.27437 5.25033 9.18784 5.25034H0.437845C0.351265 5.25041 0.266612 5.22479 0.194602 5.17672C0.122593 5.12865 0.0664639 5.0603 0.0333222 4.98031C0.000180466 4.90033 -0.00848406 4.81231 0.00842549 4.7274C0.025335 4.64249 0.0670583 4.5645 0.128313 4.50331L4.50331 0.128313C4.54395 0.0876356 4.5922 0.0553663 4.64531 0.0333494C4.69842 0.0113325 4.75535 0 4.81284 0C4.87034 0 4.92727 0.0113325 4.98038 0.0333494C5.03349 0.0553663 5.08174 0.0876356 5.12238 0.128313L9.49738 4.50331C9.55854 4.56453 9.60018 4.64251 9.61702 4.7274C9.63386 4.81228 9.62515 4.90026 9.59199 4.98019Z" fill="currentColor"/>
</svg>
