<svg width="17" height="14" viewBox="0 0 17 14" fill="none" xmlns="http://www.w3.org/2000/svg">
<path d="M16.6922 10.8083C16.7503 10.8664 16.7964 10.9353 16.8279 11.0112C16.8593 11.087 16.8755 11.1684 16.8755 11.2505C16.8755 11.3326 16.8593 11.414 16.8279 11.4898C16.7964 11.5657 16.7503 11.6346 16.6922 11.6927L14.8172 13.5677C14.7298 13.6552 14.6184 13.7148 14.4971 13.7389C14.3758 13.7631 14.25 13.7507 14.1358 13.7034C14.0215 13.656 13.9238 13.5759 13.8552 13.473C13.7865 13.3701 13.7499 13.2492 13.75 13.1255V11.8755C12.8673 11.8631 11.9999 11.6436 11.2176 11.2346C10.4353 10.8256 9.76 10.2386 9.2461 9.5208L5.98672 4.9583C5.58157 4.39195 5.04731 3.93029 4.42819 3.61156C3.80907 3.29282 3.12291 3.1262 2.42656 3.12549H0.625C0.45924 3.12549 0.300268 3.05964 0.183058 2.94243C0.065848 2.82522 0 2.66625 0 2.50049C0 2.33473 0.065848 2.17576 0.183058 2.05855C0.300268 1.94134 0.45924 1.87549 0.625 1.87549H2.42656C3.32179 1.87624 4.20395 2.09029 4.99997 2.49991C5.79598 2.90953 6.48293 3.50294 7.00391 4.23096L10.2633 8.79346C10.6611 9.34979 11.1837 9.80525 11.7892 10.1234C12.3946 10.4415 13.0662 10.6135 13.75 10.6255V9.37549C13.7499 9.25181 13.7865 9.13087 13.8552 9.028C13.9238 8.92513 14.0215 8.84495 14.1358 8.7976C14.25 8.75026 14.3758 8.73788 14.4971 8.76204C14.6184 8.78619 14.7298 8.8458 14.8172 8.9333L16.6922 10.8083ZM9.29688 5.23487C9.36366 5.28258 9.4392 5.31666 9.51916 5.33518C9.59912 5.3537 9.68195 5.35628 9.76291 5.34279C9.84387 5.32929 9.92138 5.29999 9.99102 5.25654C10.0607 5.21309 10.121 5.15635 10.1688 5.08955L10.2625 4.95909C10.6603 4.40236 11.1829 3.94654 11.7885 3.62813C12.3941 3.30972 13.0659 3.13757 13.75 3.12549V4.37549C13.7499 4.49918 13.7865 4.62011 13.8552 4.72298C13.9238 4.82585 14.0215 4.90604 14.1358 4.95338C14.25 5.00073 14.3758 5.0131 14.4971 4.98895C14.6184 4.96479 14.7298 4.90519 14.8172 4.81768L16.6922 2.94268C16.7503 2.88463 16.7964 2.8157 16.8279 2.73983C16.8593 2.66396 16.8755 2.58263 16.8755 2.50049C16.8755 2.41836 16.8593 2.33703 16.8279 2.26115C16.7964 2.18528 16.7503 2.11635 16.6922 2.0583L14.8172 0.183305C14.7298 0.0957976 14.6184 0.0361929 14.4971 0.0120364C14.3758 -0.0121201 14.25 0.000257809 14.1358 0.0476031C14.0215 0.0949484 13.9238 0.175132 13.8552 0.278003C13.7865 0.380875 13.7499 0.501807 13.75 0.625492V1.87549C12.8673 1.88789 11.9999 2.10743 11.2176 2.51642C10.4353 2.92542 9.76 3.51243 9.2461 4.23018L9.15234 4.36065C9.10423 4.42747 9.0698 4.50314 9.05102 4.5833C9.03224 4.66347 9.02948 4.74656 9.04291 4.8278C9.05635 4.90903 9.08569 4.98681 9.12928 5.05667C9.17286 5.12653 9.22982 5.18709 9.29688 5.23487ZM6.95313 8.51612C6.88634 8.46841 6.8108 8.43432 6.73084 8.41581C6.65088 8.39729 6.56805 8.3947 6.48709 8.4082C6.40613 8.42169 6.32862 8.451 6.25898 8.49445C6.18935 8.5379 6.12896 8.59464 6.08125 8.66143L5.9875 8.7919C5.58236 9.3585 5.04801 9.82039 4.42874 10.1393C3.80947 10.4581 3.12311 10.6248 2.42656 10.6255H0.625C0.45924 10.6255 0.300268 10.6913 0.183058 10.8086C0.065848 10.9258 0 11.0847 0 11.2505C0 11.4163 0.065848 11.5752 0.183058 11.6924C0.300268 11.8096 0.45924 11.8755 0.625 11.8755H2.42656C3.32179 11.8747 4.20395 11.6607 4.99997 11.2511C5.79598 10.8415 6.48293 10.248 7.00391 9.52002L7.09766 9.38955C7.14565 9.32276 7.17998 9.24715 7.1987 9.16706C7.21741 9.08697 7.22013 9.00398 7.2067 8.92283C7.19327 8.84169 7.16396 8.764 7.12045 8.6942C7.07694 8.62441 7.02007 8.56389 6.95313 8.51612Z" fill="#0B1117"/>
</svg>
