<svg width="18" height="13" viewBox="0 0 18 13" fill="none" xmlns="http://www.w3.org/2000/svg">
<path d="M16.0851 3.97432C16.0595 3.93561 16.0257 3.90308 15.986 3.87909C15.9463 3.8551 15.9017 3.84025 15.8556 3.83561C15.8094 3.83097 15.7628 3.83667 15.7192 3.85228C15.6755 3.86789 15.6358 3.89303 15.6031 3.92588L9.71088 9.81807C9.59163 9.92405 9.43636 9.98042 9.27689 9.97562C9.11742 9.97082 8.96582 9.90522 8.85316 9.79226C8.7405 9.67929 8.6753 9.52752 8.67092 9.36804C8.66655 9.20856 8.72333 9.05344 8.82963 8.93447L16.0718 1.69307C16.1299 1.635 16.176 1.56606 16.2074 1.49019C16.2388 1.41432 16.255 1.333 16.255 1.25088C16.255 1.16876 16.2388 1.08744 16.2074 1.01157C16.176 0.935697 16.1299 0.866759 16.0718 0.80869C16.0138 0.750621 15.9448 0.704559 15.8689 0.673132C15.7931 0.641705 15.7118 0.62553 15.6296 0.62553C15.5475 0.62553 15.4662 0.641705 15.3903 0.673132C15.3145 0.704559 15.2455 0.750621 15.1874 0.80869L14.1421 1.85478C12.6503 0.689686 10.8211 0.0395164 8.92859 0.00174406C7.03611 -0.0360283 5.18237 0.540632 3.64526 1.64528C2.10816 2.74992 0.97052 4.32303 0.402886 6.12877C-0.164748 7.93452 -0.13179 9.8756 0.496819 11.661C0.582943 11.9058 0.742718 12.118 0.954216 12.2683C1.16571 12.4187 1.41857 12.4999 1.67807 12.5009H15.8242C16.0834 12.501 16.3363 12.4206 16.5478 12.2707C16.7593 12.1208 16.9189 11.9088 17.0046 11.6642C17.4501 10.3975 17.5989 9.04548 17.4395 7.71226C17.2801 6.37904 16.8167 5.10022 16.0851 3.97432ZM3.23901 9.87666C3.27194 10.0391 3.239 10.208 3.14743 10.3461C3.05587 10.4843 2.91317 10.5804 2.75073 10.6134C2.70959 10.6218 2.66771 10.626 2.62573 10.6259C2.48167 10.6257 2.3421 10.5757 2.23063 10.4845C2.11916 10.3932 2.04264 10.2663 2.01401 10.1251C1.79051 9.02491 1.83965 7.88674 2.15715 6.80991C2.47464 5.73308 3.05083 4.75031 3.83545 3.94735C4.62007 3.14439 5.58927 2.54565 6.65848 2.20337C7.72769 1.86109 8.86442 1.78567 9.96947 1.98369C10.1326 2.01291 10.2775 2.10574 10.3722 2.24178C10.467 2.37782 10.5038 2.54591 10.4746 2.70908C10.4453 2.87225 10.3525 3.01713 10.2165 3.11185C10.0804 3.20657 9.91233 3.24337 9.74916 3.21416C8.84488 3.05227 7.91471 3.1141 7.03981 3.39426C6.16491 3.67443 5.37185 4.16441 4.72981 4.82147C4.08777 5.47854 3.61626 6.28272 3.3564 7.16387C3.09655 8.04501 3.05624 8.97636 3.23901 9.87666Z" fill="#0B1117"/>
</svg>
