<svg width="20" height="20" viewBox="0 0 20 20" fill="none" xmlns="http://www.w3.org/2000/svg">
<path d="M17.3336 7.09843C17.3081 7.05973 17.2742 7.0272 17.2345 7.00321C17.1948 6.97922 17.1503 6.96436 17.1041 6.95972C17.058 6.95509 17.0114 6.96078 16.9677 6.97639C16.924 6.99201 16.8844 7.01715 16.8516 7.04999L10.9594 12.9422C10.8402 13.0482 10.6849 13.1045 10.5254 13.0997C10.366 13.0949 10.2144 13.0293 10.1017 12.9164C9.98903 12.8034 9.92383 12.6516 9.91946 12.4922C9.91508 12.3327 9.97186 12.1776 10.0782 12.0586L17.3204 4.81718C17.3784 4.75911 17.4245 4.69017 17.4559 4.6143C17.4873 4.53843 17.5035 4.45711 17.5035 4.37499C17.5035 4.29287 17.4873 4.21155 17.4559 4.13568C17.4245 4.05981 17.3784 3.99087 17.3204 3.93281C17.2623 3.87474 17.1933 3.82867 17.1175 3.79725C17.0416 3.76582 16.9603 3.74965 16.8782 3.74965C16.796 3.74965 16.7147 3.76582 16.6389 3.79725C16.563 3.82867 16.494 3.87474 16.436 3.93281L15.3907 4.9789C13.8989 3.8138 12.0696 3.16363 10.1771 3.12586C8.28464 3.08809 6.4309 3.66475 4.8938 4.76939C3.3567 5.87403 2.21906 7.44714 1.65142 9.25289C1.08379 11.0586 1.11675 12.9997 1.74535 14.7851C1.83148 15.0299 1.99125 15.2421 2.20275 15.3925C2.41425 15.5428 2.6671 15.6241 2.9266 15.625H17.0727C17.3319 15.6252 17.5848 15.5447 17.7963 15.3948C18.0078 15.2449 18.1675 15.0329 18.2532 14.7883C18.6987 13.5216 18.8474 12.1696 18.688 10.8364C18.5286 9.50316 18.0652 8.22433 17.3336 7.09843ZM4.48754 13.0008C4.52048 13.1632 4.48754 13.3321 4.39597 13.4703C4.3044 13.6084 4.1617 13.7045 3.99926 13.7375C3.95813 13.7459 3.91624 13.7501 3.87426 13.75C3.7302 13.7498 3.59063 13.6999 3.47917 13.6086C3.3677 13.5174 3.29117 13.3904 3.26254 13.2492C3.03905 12.149 3.08819 11.0109 3.40568 9.93402C3.72317 8.85719 4.29937 7.87442 5.08399 7.07147C5.86861 6.26851 6.83781 5.66977 7.90701 5.32748C8.97622 4.9852 10.113 4.90978 11.218 5.10781C11.3812 5.13702 11.5261 5.22986 11.6208 5.3659C11.7155 5.50193 11.7523 5.67003 11.7231 5.8332C11.6939 5.99637 11.601 6.14125 11.465 6.23597C11.329 6.33069 11.1609 6.36749 10.9977 6.33827C10.0934 6.17638 9.16325 6.23821 8.28834 6.51838C7.41344 6.79854 6.62038 7.28853 5.97834 7.94559C5.33631 8.60265 4.86479 9.40683 4.60494 10.288C4.34508 11.1691 4.30478 12.1005 4.48754 13.0008Z" fill="currentColor"/>
</svg>
