<svg width="17" height="15" viewBox="0 0 17 15" fill="none" xmlns="http://www.w3.org/2000/svg">
<path d="M16.25 13.75C16.25 13.9158 16.1842 14.0747 16.0669 14.1919C15.9497 14.3092 15.7908 14.375 15.625 14.375H0.625C0.45924 14.375 0.300268 14.3092 0.183058 14.1919C0.065848 14.0747 0 13.9158 0 13.75C0 13.5842 0.065848 13.4253 0.183058 13.3081C0.300268 13.1908 0.45924 13.125 0.625 13.125H1.25V8.125C1.25 7.95924 1.31585 7.80027 1.43306 7.68306C1.55027 7.56585 1.70924 7.5 1.875 7.5H3.75C3.91576 7.5 4.07473 7.56585 4.19194 7.68306C4.30915 7.80027 4.375 7.95924 4.375 8.125V13.125H5.625V4.375C5.625 4.20924 5.69085 4.05027 5.80806 3.93306C5.92527 3.81585 6.08424 3.75 6.25 3.75H8.75C8.91576 3.75 9.07473 3.81585 9.19194 3.93306C9.30915 4.05027 9.375 4.20924 9.375 4.375V13.125H10.625V0.625C10.625 0.45924 10.6908 0.300269 10.8081 0.183058C10.9253 0.0658481 11.0842 0 11.25 0H14.375C14.5408 0 14.6997 0.0658481 14.8169 0.183058C14.9342 0.300269 15 0.45924 15 0.625V13.125H15.625C15.7908 13.125 15.9497 13.1908 16.0669 13.3081C16.1842 13.4253 16.25 13.5842 16.25 13.75Z" fill="#0B1117"/>
</svg>
