<svg width="18" height="13" viewBox="0 0 18 13" fill="none" xmlns="http://www.w3.org/2000/svg">
<path d="M14.9672 1.2375C13.3477 0.428125 11.1977 0 8.75 0C6.30234 0 4.15234 0.428125 2.53281 1.2375C0.913281 2.04687 0 3.18594 0 4.375V8.125C0 9.31406 0.923437 10.457 2.53281 11.2625C4.14219 12.068 6.30234 12.5 8.75 12.5C11.1977 12.5 13.3477 12.0719 14.9672 11.2625C16.5867 10.4531 17.5 9.31406 17.5 8.125V4.375C17.5 3.18594 16.5766 2.04297 14.9672 1.2375ZM8.125 8.7375V11.2375C6.64062 11.1891 5.39062 10.9703 4.375 10.6523V8.20703C5.59932 8.53322 6.85826 8.71183 8.125 8.73906V8.7375ZM9.375 8.7375C10.6417 8.71027 11.9007 8.53166 13.125 8.20547V10.6516C12.1094 10.9695 10.8594 11.1883 9.375 11.2367V8.7375ZM1.25 8.125V6.68203C1.64332 7.00852 2.07393 7.28728 2.53281 7.5125C2.72266 7.60703 2.92344 7.69609 3.125 7.78047V10.1562C1.88828 9.54375 1.25 8.77266 1.25 8.125ZM14.375 10.1562V7.78047C14.5789 7.69609 14.7773 7.60703 14.9672 7.5125C15.4261 7.28728 15.8567 7.00852 16.25 6.68203V8.125C16.25 8.77266 15.6117 9.54375 14.375 10.1562Z" fill="#0B1117"/>
</svg>
