<svg width="18" height="13" viewBox="0 0 18 13" fill="none" xmlns="http://www.w3.org/2000/svg">
<path d="M16.25 0H1.25C0.918479 0 0.600537 0.131696 0.366116 0.366116C0.131696 0.600537 0 0.918479 0 1.25V3.125C0 3.45652 0.131696 3.77446 0.366116 4.00888C0.600537 4.2433 0.918479 4.375 1.25 4.375V11.25C1.25 11.5815 1.3817 11.8995 1.61612 12.1339C1.85054 12.3683 2.16848 12.5 2.5 12.5H15C15.3315 12.5 15.6495 12.3683 15.8839 12.1339C16.1183 11.8995 16.25 11.5815 16.25 11.25V4.375C16.5815 4.375 16.8995 4.2433 17.1339 4.00888C17.3683 3.77446 17.5 3.45652 17.5 3.125V1.25C17.5 0.918479 17.3683 0.600537 17.1339 0.366116C16.8995 0.131696 16.5815 0 16.25 0ZM10.625 7.5H6.875C6.70924 7.5 6.55027 7.43415 6.43306 7.31694C6.31585 7.19973 6.25 7.04076 6.25 6.875C6.25 6.70924 6.31585 6.55027 6.43306 6.43306C6.55027 6.31585 6.70924 6.25 6.875 6.25H10.625C10.7908 6.25 10.9497 6.31585 11.0669 6.43306C11.1842 6.55027 11.25 6.70924 11.25 6.875C11.25 7.04076 11.1842 7.19973 11.0669 7.31694C10.9497 7.43415 10.7908 7.5 10.625 7.5ZM16.25 3.125H1.25V1.25H16.25V3.125Z" fill="#0B1117"/>
</svg>
