<svg width="20" height="20" viewBox="0 0 20 20" fill="none" xmlns="http://www.w3.org/2000/svg">
<path d="M0 4C0 1.79086 1.79086 0 4 0H16C18.2091 0 20 1.79086 20 4V16C20 18.2091 18.2091 20 16 20H4C1.79086 20 0 18.2091 0 16V4Z" fill="#FD6900"/>
<path d="M14.501 6.51172C14.7299 6.51172 14.9494 6.60282 15.1113 6.76465C15.2732 6.92653 15.3642 7.14606 15.3643 7.375C15.3643 7.604 15.2732 7.82342 15.1113 7.98535L14.8994 8.19824L14.8984 8.19727L9.11133 13.9844C9.03128 14.0647 8.93575 14.1284 8.83105 14.1719C8.72622 14.2154 8.61352 14.2383 8.5 14.2383C8.38665 14.2383 8.27461 14.2153 8.16992 14.1719C8.06522 14.1284 7.96972 14.0646 7.88965 13.9844L5.26465 11.3594C5.18462 11.2793 5.1205 11.1847 5.07715 11.0801C5.03375 10.9753 5.01172 10.8624 5.01172 10.749C5.01175 10.6358 5.03384 10.5236 5.07715 10.4189C5.12054 10.3142 5.18447 10.2189 5.26465 10.1387C5.34483 10.0585 5.44017 9.99456 5.54492 9.95117C5.64955 9.90787 5.76177 9.88577 5.875 9.88574C5.98839 9.88574 6.10129 9.90778 6.20605 9.95117C6.31063 9.99452 6.40528 10.0587 6.48535 10.1387L8.50098 12.1533L13.8906 6.76465C14.0525 6.60276 14.272 6.51176 14.501 6.51172Z" fill="white"/>
</svg>
