<svg width="16" height="16" viewBox="0 0 16 16" fill="none" xmlns="http://www.w3.org/2000/svg">
<path d="M13.5306 10.5331C13.4609 10.603 13.3781 10.6585 13.287 10.6963C13.1958 10.7342 13.0981 10.7537 12.9993 10.7537C12.9006 10.7537 12.8029 10.7342 12.7117 10.6963C12.6206 10.6585 12.5378 10.603 12.4681 10.5331L7.99997 6.06497L3.5306 10.5331C3.3897 10.674 3.19861 10.7531 2.99935 10.7531C2.80009 10.7531 2.60899 10.674 2.4681 10.5331C2.3272 10.3922 2.24805 10.2011 2.24805 10.0018C2.24805 9.80258 2.3272 9.61149 2.4681 9.47059L7.4681 4.47059C7.53778 4.40067 7.62057 4.34519 7.71173 4.30734C7.8029 4.26949 7.90064 4.25 7.99935 4.25C8.09806 4.25 8.1958 4.26949 8.28696 4.30734C8.37813 4.34519 8.46092 4.40067 8.5306 4.47059L13.5306 9.47059C13.6005 9.54027 13.656 9.62306 13.6938 9.71423C13.7317 9.80539 13.7512 9.90313 13.7512 10.0018C13.7512 10.1006 13.7317 10.1983 13.6938 10.2895C13.656 10.3806 13.6005 10.4634 13.5306 10.5331Z" fill="#0B1117"/>
</svg>
