<svg width="16" height="16" viewBox="0 0 16 16" fill="none" xmlns="http://www.w3.org/2000/svg">
<path d="M13.5306 6.53318L8.5306 11.5332C8.46092 11.6031 8.37813 11.6586 8.28696 11.6964C8.1958 11.7343 8.09806 11.7538 7.99935 11.7538C7.90064 11.7538 7.8029 11.7343 7.71173 11.6964C7.62057 11.6586 7.53778 11.6031 7.4681 11.5332L2.4681 6.53318C2.3272 6.39228 2.24805 6.20118 2.24805 6.00193C2.24805 5.80267 2.3272 5.61157 2.4681 5.47068C2.60899 5.32978 2.80009 5.25063 2.99935 5.25063C3.19861 5.25063 3.3897 5.32978 3.5306 5.47068L7.99997 9.94005L12.4693 5.47005C12.6102 5.32916 12.8013 5.25 13.0006 5.25C13.1999 5.25 13.391 5.32916 13.5318 5.47005C13.6727 5.61095 13.7519 5.80204 13.7519 6.0013C13.7519 6.20056 13.6727 6.39165 13.5318 6.53255L13.5306 6.53318Z" fill="currentColor"/>
</svg>
