<svg width="120" height="120" viewBox="0 0 120 120" fill="none" xmlns="http://www.w3.org/2000/svg">
<path d="M108 78.0429V89.8598C108 91.2643 106.863 92.4009 105.459 92.4009H14.508C13.1036 92.4009 11.9668 91.2641 11.9668 89.8598V78.0429C11.9668 77.7733 12.0087 77.5055 12.0948 77.2498L24.9624 38.1631C25.3039 37.1201 26.277 36.417 27.3758 36.417H92.5915C93.6903 36.417 94.6632 37.1201 95.0049 38.1631L107.873 77.2496C107.958 77.5055 108 77.7733 108 78.0429Z" fill="#FDFDFD"/>
<path d="M107.999 78.0429V89.8598C107.999 91.2643 106.862 92.4009 105.457 92.4009H90.1783C90.1263 74.387 90.4041 44.6558 90.486 36.417H92.5897C93.6886 36.417 94.6614 37.1201 95.0031 38.1631L107.871 77.2496C107.957 77.5055 107.999 77.7733 107.999 78.0429Z" fill="#F3F4F6"/>
<path d="M11.9648 78.0429V89.8598C11.9648 91.2643 13.1017 92.4009 14.506 92.4009H29.7851C29.837 74.387 29.5593 44.6558 29.4774 36.417H27.3738C26.275 36.417 25.3022 37.1201 24.9604 38.1631L12.0928 77.2498C12.007 77.5055 11.9648 77.7733 11.9648 78.0429Z" fill="#F3F4F6"/>
<path d="M98.3438 77.2492L90.5081 53.4484C90.165 52.4063 89.192 51.7021 88.0947 51.7021H31.8685C30.7714 51.7021 29.7982 52.4063 29.4551 53.4484L21.6196 77.2492C21.5351 77.5057 21.4922 77.7738 21.4922 78.0437V89.8608C21.4922 91.2639 22.6298 92.4015 24.033 92.4015H95.9306C97.3338 92.4015 98.4714 91.2639 98.4714 89.8608V78.0437C98.4712 77.7738 98.4283 77.5055 98.3438 77.2492Z" fill="#E6E8EC"/>
<path d="M108 80.4959V102.544C108 103.947 106.862 105.085 105.459 105.085H14.5056C13.1025 105.085 11.9648 103.947 11.9648 102.544V80.4959C11.9648 79.0927 13.1025 77.9551 14.5056 77.9551H33.265C34.2359 77.9551 35.1219 78.5084 35.5481 79.3809L39.2344 86.9286C39.6604 87.801 40.5464 88.3544 41.5175 88.3544H78.4469C79.4178 88.3544 80.3038 87.801 80.73 86.9286L84.4163 79.3809C84.8422 78.5084 85.7283 77.9551 86.6993 77.9551H105.459C106.862 77.9551 108 79.0927 108 80.4959Z" fill="#D0D5DD"/>
<path d="M25.0907 99.6693H19.6076C18.7801 99.6693 18.1094 98.9985 18.1094 98.1711C18.1094 97.3437 18.7802 96.6729 19.6076 96.6729H25.0907C25.9183 96.6729 26.589 97.3437 26.589 98.1711C26.589 98.9985 25.9183 99.6693 25.0907 99.6693Z" fill="#F3F4F6"/>
<path d="M25.0907 94.9889H19.6076C18.7801 94.9889 18.1094 94.318 18.1094 93.4904C18.1094 92.6629 18.7802 91.9922 19.6076 91.9922H25.0907C25.9183 91.9922 26.589 92.6631 26.589 93.4904C26.5892 94.318 25.9183 94.9889 25.0907 94.9889Z" fill="#F3F4F6"/>
<path d="M59.8915 24.4798C59.8896 24.4798 59.888 24.4798 59.8861 24.4798C58.9008 24.477 58.1046 23.6757 58.1074 22.6906L58.1231 17.3783C58.1259 16.3948 58.9242 15.5996 59.907 15.5996H59.9124C60.8977 15.6024 61.6938 16.4038 61.691 17.3888L61.6753 22.7012C61.6725 23.6846 60.8742 24.4798 59.8915 24.4798Z" fill="#E6E8EC"/>
<path d="M51.97 26.7441C51.3634 26.7441 50.7721 26.4347 50.4379 25.8767L47.6776 21.2684C47.1714 20.423 47.4461 19.3276 48.2912 18.8213C49.1366 18.3148 50.2319 18.5897 50.7383 19.4349L53.4986 24.0432C54.0048 24.8886 53.7301 25.984 52.885 26.4903C52.5979 26.6621 52.2819 26.7441 51.97 26.7441Z" fill="#E6E8EC"/>
<path d="M67.798 26.8167C67.4828 26.8167 67.1633 26.733 66.8741 26.5575C66.032 26.0463 65.7636 24.9489 66.2748 24.1068L69.0624 19.5138C69.5736 18.6714 70.6707 18.4033 71.5131 18.9145C72.3552 19.4257 72.6235 20.523 72.1124 21.3651L69.3247 25.9582C68.9891 26.5111 68.4008 26.8167 67.798 26.8167Z" fill="#E6E8EC"/>
</svg>
