<svg width="100" height="64" viewBox="0 0 100 64" fill="none" xmlns="http://www.w3.org/2000/svg">
<g clip-path="url(#clip0_3666_13491)">
<path d="M14.0625 45.4019C5.357 47.3682 0 50.0468 0 52.999C0 59.0337 22.3858 63.9258 50 63.9258C77.6142 63.9258 100 59.0337 100 52.999C100 50.0468 94.643 47.3682 85.9375 45.4019V50.1652C85.9375 53.4792 83.875 56.1953 81.3281 56.1953H18.6719C16.125 56.1953 14.0625 53.4776 14.0625 50.1652V45.4019Z" fill="black" fill-opacity="0.06"/>
<path d="M65.0203 26.4287C65.0203 23.9234 66.5734 21.8551 68.5 21.8535H85.9375V50.1649C85.9375 53.4789 83.875 56.195 81.3281 56.195H18.6719C16.125 56.195 14.0625 53.4773 14.0625 50.1649V21.8535H31.5C33.4266 21.8535 34.9797 23.9187 34.9797 26.4241V26.4584C34.9797 28.9638 36.55 30.9868 38.475 30.9868H61.525C63.45 30.9868 65.0203 28.945 65.0203 26.4397V26.4287Z" fill="black" fill-opacity="0.04" stroke="#DEE4ED"/>
<path d="M85.9375 22.026L70.0844 4.07162C69.3234 2.84781 68.2125 2.10791 67.0422 2.10791H32.9578C31.7875 2.10791 30.6766 2.84781 29.9156 4.07006L14.0625 22.0275" stroke="#DEE4ED"/>
</g>
<defs>
<clipPath id="clip0_3666_13491">
<rect width="100" height="64" fill="white"/>
</clipPath>
</defs>
</svg>
