<svg width="512" height="512" viewBox="0 0 512 512" fill="none" xmlns="http://www.w3.org/2000/svg">
<path fill-rule="evenodd" clip-rule="evenodd" d="M58.3529 194.235C51.5341 194.235 46 188.701 46 181.882V132.471C46 84.7882 84.7882 46 132.471 46H181.882C188.701 46 194.235 51.5341 194.235 58.3529C194.235 65.1718 188.701 70.7059 181.882 70.7059H132.471C98.4259 70.7059 70.7059 98.4012 70.7059 132.471V181.882C70.7059 188.701 65.1718 194.235 58.3529 194.235ZM453.647 194.235C446.828 194.235 441.294 188.701 441.294 181.882V132.471C441.294 98.4012 413.574 70.7059 379.529 70.7059H330.118C323.299 70.7059 317.765 65.1718 317.765 58.3529C317.765 51.5341 323.299 46 330.118 46H379.529C427.212 46 466 84.7882 466 132.471V181.882C466 188.701 460.466 194.235 453.647 194.235ZM181.882 243.647C175.064 243.647 169.529 238.113 169.529 231.294V181.882C169.529 175.064 175.064 169.529 181.882 169.529C188.701 169.529 194.235 175.064 194.235 181.882V231.294C194.235 238.113 188.701 243.647 181.882 243.647ZM330.118 243.647C323.299 243.647 317.765 238.113 317.765 231.294V181.882C317.765 175.064 323.299 169.529 330.118 169.529C336.936 169.529 342.471 175.064 342.471 181.882V231.294C342.471 238.113 336.936 243.647 330.118 243.647ZM231.294 293.059C224.475 293.059 218.941 287.525 218.941 280.706C218.941 273.887 224.475 268.353 231.294 268.353C238.113 268.353 243.647 262.794 243.647 256V181.882C243.647 175.064 249.181 169.529 256 169.529C262.819 169.529 268.353 175.064 268.353 181.882V256C268.353 276.432 251.726 293.059 231.294 293.059ZM256 367.176C228.033 367.176 204.315 357.64 185.489 338.864C180.672 334.021 180.672 326.214 185.489 321.372C190.332 316.554 198.139 316.554 202.981 321.372C217.162 335.578 234.506 342.471 256 342.471C277.494 342.471 294.838 335.578 309.019 321.372C313.861 316.554 321.668 316.554 326.511 321.372C331.328 326.214 331.328 334.021 326.511 338.864C307.685 357.64 283.967 367.176 256 367.176ZM181.882 466H132.471C84.7882 466 46 427.212 46 379.529V330.118C46 323.299 51.5341 317.765 58.3529 317.765C65.1718 317.765 70.7059 323.299 70.7059 330.118V379.529C70.7059 413.599 98.4259 441.294 132.471 441.294H181.882C188.701 441.294 194.235 446.828 194.235 453.647C194.235 460.466 188.701 466 181.882 466ZM379.529 466H330.118C323.299 466 317.765 460.466 317.765 453.647C317.765 446.828 323.299 441.294 330.118 441.294H379.529C413.574 441.294 441.294 413.599 441.294 379.529V330.118C441.294 323.299 446.828 317.765 453.647 317.765C460.466 317.765 466 323.299 466 330.118V379.529C466 427.212 427.212 466 379.529 466Z" fill="#0B1117"/>
</svg>
