<svg width="20" height="20" viewBox="0 0 20 20" fill="none" xmlns="http://www.w3.org/2000/svg">
<path d="M17.7991 5.21563L17.7929 5.22266L12.5014 10.8727V15.2078C12.5018 15.414 12.4511 15.617 12.3539 15.7989C12.2567 15.9807 12.116 16.1357 11.9444 16.25L9.44441 17.9172C9.25602 18.0427 9.03708 18.1147 8.81097 18.1254C8.58486 18.1362 8.36007 18.0854 8.16059 17.9784C7.96111 17.8714 7.79443 17.7122 7.67834 17.5179C7.56225 17.3236 7.50111 17.1014 7.50144 16.875V10.8727L2.21004 5.22266L2.20379 5.21563C2.04109 5.03657 1.93385 4.81416 1.89507 4.57536C1.85629 4.33656 1.88764 4.09163 1.98532 3.8703C2.08301 3.64897 2.24282 3.46074 2.44537 3.32844C2.64792 3.19615 2.88452 3.12548 3.12644 3.125H16.8764C17.1186 3.12502 17.3555 3.19537 17.5584 3.32749C17.7613 3.4596 17.9215 3.64781 18.0194 3.86923C18.1174 4.09065 18.149 4.33576 18.1103 4.57478C18.0716 4.81379 17.9643 5.03643 17.8014 5.21563H17.7991Z" fill="#0B1117"/>
</svg>
