<svg width="512" height="512" viewBox="0 0 512 512" fill="none" xmlns="http://www.w3.org/2000/svg">
<path d="M425.784 452.751C423.074 452.751 420.408 452.063 418.036 450.75C415.665 449.438 413.665 447.545 412.226 445.248C410.786 442.951 409.954 440.327 409.807 437.62C409.66 434.914 410.202 432.214 411.384 429.775C440.903 369.006 456.163 302.302 456 234.743C456.039 206.996 449.604 179.622 437.208 154.797C424.812 129.972 406.796 108.381 384.592 91.74C362.389 75.0989 336.609 63.8665 309.303 58.9355C281.997 54.0045 253.918 55.511 227.296 63.3351C225.265 63.9881 223.124 64.2284 220.999 64.0418C218.874 63.8553 216.808 63.2457 214.922 62.2488C213.036 61.252 211.368 59.8881 210.017 58.2373C208.666 56.5865 207.658 54.6822 207.054 52.6364C206.45 50.5906 206.26 48.4445 206.498 46.3245C206.735 44.2045 207.393 42.1533 208.435 40.2916C209.476 38.4299 210.88 36.7952 212.562 35.4838C214.245 34.1723 216.172 33.2106 218.232 32.6551C249.626 23.4215 282.741 21.638 314.945 27.4463C347.15 33.2547 377.555 46.4947 403.745 66.1142C429.935 85.7337 451.188 111.192 465.814 140.465C480.44 169.738 488.037 202.019 488 234.743C488.174 307.133 471.819 378.607 440.184 443.719C438.875 446.425 436.83 448.708 434.283 450.306C431.736 451.903 428.79 452.751 425.784 452.751Z" fill="#0B1117"/>
<path d="M31.9999 322.44C28.2097 322.441 24.5421 321.096 21.6506 318.646C18.7591 316.195 16.8314 312.798 16.211 309.059C15.5905 305.32 16.3176 301.482 18.2627 298.229C20.2077 294.976 23.2445 292.519 26.8319 291.296C38.6341 287.271 48.8809 279.654 56.136 269.513C63.3911 259.371 67.2906 247.213 67.2879 234.744C67.183 198.732 76.3579 163.302 93.9282 131.867C111.498 100.433 136.871 74.0563 167.6 55.2797C169.386 54.0664 171.4 53.2273 173.519 52.8129C175.639 52.3986 177.82 52.4175 179.932 52.8686C182.044 53.3197 184.042 54.1937 185.807 55.4378C187.572 56.6819 189.067 58.2705 190.202 60.1077C191.337 61.945 192.088 63.993 192.41 66.1283C192.732 68.2636 192.619 70.442 192.077 72.5324C191.535 74.6227 190.575 76.5816 189.256 78.2912C187.936 80.0007 186.285 81.4255 184.4 82.4797C158.327 98.4089 136.798 120.788 121.89 147.458C106.982 174.128 99.1976 204.19 99.2879 234.744C99.2946 253.894 93.3082 272.566 82.168 288.142C71.0278 303.718 55.2924 315.417 37.1679 321.6C35.503 322.162 33.757 322.445 31.9999 322.44Z" fill="#0B1117"/>
<path d="M323.744 495.239C320.754 495.237 317.826 494.398 315.289 492.817C312.752 491.235 310.709 488.974 309.392 486.291C308.074 483.608 307.535 480.609 307.835 477.635C308.134 474.661 309.261 471.83 311.088 469.463C352.349 416.071 378.819 352.752 387.832 285.879C388.073 283.766 388.734 281.723 389.775 279.868C390.815 278.013 392.215 276.384 393.893 275.077C395.571 273.77 397.492 272.81 399.545 272.254C401.597 271.698 403.741 271.557 405.849 271.838C407.957 272.12 409.987 272.82 411.822 273.895C413.657 274.971 415.258 276.402 416.533 278.104C417.809 279.806 418.732 281.746 419.248 283.809C419.765 285.872 419.866 288.017 419.544 290.119C409.792 362.57 381.12 431.172 336.416 489.015C334.92 490.953 333 492.522 330.803 493.601C328.607 494.68 326.191 495.24 323.744 495.239Z" fill="#FD6900"/>
<path d="M60.2962 381.056C56.5798 381.061 52.9777 379.771 50.1084 377.409C47.2391 375.047 45.2816 371.76 44.5718 368.112C43.8621 364.464 44.4444 360.682 46.2189 357.417C47.9933 354.151 50.8492 351.606 54.2962 350.216C77.3319 340.969 97.0607 325.019 110.928 304.431C124.795 283.843 132.161 259.566 132.072 234.744C131.666 215.371 135.131 196.112 142.264 178.095C149.397 160.078 160.054 143.667 173.612 129.822C187.169 115.977 203.354 104.978 221.217 97.4688C239.08 89.9597 258.263 86.0918 277.64 86.0918C297.018 86.0918 316.2 89.9597 334.063 97.4688C351.926 104.978 368.111 115.977 381.669 129.822C395.226 143.667 405.884 160.078 413.017 178.095C420.15 196.112 423.614 215.371 423.208 234.744C423.208 238.988 421.522 243.057 418.522 246.058C415.521 249.059 411.452 250.744 407.208 250.744C402.965 250.744 398.895 249.059 395.895 246.058C392.894 243.057 391.208 238.988 391.208 234.744C391.568 219.603 388.896 204.544 383.35 190.45C377.804 176.357 369.497 163.515 358.915 152.68C348.334 141.844 335.693 133.234 321.735 127.355C307.777 121.476 292.785 118.448 277.64 118.448C262.495 118.448 247.503 121.476 233.545 127.355C219.588 133.234 206.947 141.844 196.365 152.68C185.784 163.515 177.476 176.357 171.93 190.45C166.385 204.544 163.713 219.603 164.072 234.744C164.18 265.948 154.917 296.466 137.481 322.344C120.045 348.223 95.2405 368.269 66.2802 379.888C64.3789 380.658 62.3473 381.054 60.2962 381.056Z" fill="#FD6900"/>
<path d="M235.64 495.999C232.427 496 229.289 495.033 226.633 493.225C223.978 491.417 221.928 488.852 220.75 485.863C219.573 482.874 219.323 479.6 220.032 476.466C220.742 473.333 222.378 470.486 224.728 468.295C256.741 438.384 282.28 402.227 299.768 362.056C317.255 321.885 326.319 278.555 326.4 234.743C326.4 221.801 321.258 209.388 312.107 200.237C302.955 191.085 290.542 185.943 277.6 185.943C264.657 185.943 252.245 191.085 243.093 200.237C233.941 209.388 228.8 221.801 228.8 234.743C228.8 238.987 227.114 243.056 224.114 246.057C221.113 249.058 217.043 250.743 212.8 250.743C208.556 250.743 204.487 249.058 201.486 246.057C198.486 243.056 196.8 238.987 196.8 234.743C196.8 224.133 198.89 213.626 202.95 203.823C207.011 194.019 212.963 185.112 220.466 177.609C227.969 170.106 236.876 164.154 246.679 160.094C256.482 156.033 266.989 153.943 277.6 153.943C288.211 153.943 298.718 156.033 308.521 160.094C318.324 164.154 327.231 170.106 334.734 177.609C342.237 185.112 348.189 194.019 352.249 203.823C356.31 213.626 358.4 224.133 358.4 234.743C358.308 282.948 348.332 330.621 329.088 374.817C309.845 419.014 281.744 458.795 246.52 491.703C243.568 494.461 239.68 495.997 235.64 495.999Z" fill="#0B1117"/>
<path d="M103.712 432.2C100.141 432.204 96.6704 431.013 93.8541 428.816C91.0378 426.62 89.0374 423.544 88.1716 420.079C87.3058 416.614 87.6242 412.958 89.0763 409.695C90.5284 406.432 93.0306 403.749 96.1844 402.072C119.133 389.851 139.333 373.056 155.538 352.724C171.742 332.391 183.607 308.953 190.4 283.856C190.918 281.798 191.84 279.863 193.112 278.165C194.385 276.466 195.982 275.038 197.812 273.963C199.642 272.888 201.667 272.187 203.77 271.903C205.873 271.618 208.012 271.754 210.062 272.304C212.112 272.854 214.032 273.806 215.71 275.105C217.388 276.404 218.792 278.023 219.838 279.87C220.884 281.716 221.553 283.752 221.804 285.86C222.056 287.967 221.886 290.103 221.304 292.144C213.372 321.48 199.509 348.878 180.572 372.646C161.634 396.413 138.024 416.045 111.2 430.328C108.896 431.559 106.324 432.201 103.712 432.2Z" fill="#0B1117"/>
<path d="M169.808 467.024C166.449 467.024 163.177 465.968 160.452 464.004C157.728 462.04 155.691 459.27 154.629 456.084C153.567 452.898 153.534 449.459 154.535 446.253C155.537 443.048 157.521 440.239 160.208 438.224C191.844 414.598 217.501 383.882 235.116 348.544C252.732 313.206 261.816 274.229 261.64 234.744C261.64 230.501 263.325 226.431 266.326 223.43C269.326 220.43 273.396 218.744 277.64 218.744C281.883 218.744 285.953 220.43 288.953 223.43C291.954 226.431 293.64 230.501 293.64 234.744C293.835 279.198 283.602 323.078 263.763 362.86C243.924 402.642 215.032 437.217 179.408 463.808C176.643 465.896 173.272 467.025 169.808 467.024Z" fill="#0B1117"/>
</svg>
