<svg width="38" height="28" viewBox="0 0 38 28" fill="none" xmlns="http://www.w3.org/2000/svg">
<path d="M37.4919 16.2562C37.4919 16.5878 37.3602 16.9057 37.1258 17.1401C36.8914 17.3746 36.5734 17.5062 36.2419 17.5062H33.7419V20.0062C33.7419 20.3378 33.6102 20.6557 33.3758 20.8901C33.1414 21.1246 32.8234 21.2562 32.4919 21.2562C32.1604 21.2562 31.8425 21.1246 31.608 20.8901C31.3736 20.6557 31.2419 20.3378 31.2419 20.0062V17.5062H28.7419C28.4104 17.5062 28.0925 17.3746 27.858 17.1401C27.6236 16.9057 27.4919 16.5878 27.4919 16.2562C27.4919 15.9247 27.6236 15.6068 27.858 15.3724C28.0925 15.1379 28.4104 15.0062 28.7419 15.0062H31.2419V12.5062C31.2419 12.1747 31.3736 11.8568 31.608 11.6224C31.8425 11.3879 32.1604 11.2562 32.4919 11.2562C32.8234 11.2562 33.1414 11.3879 33.3758 11.6224C33.6102 11.8568 33.7419 12.1747 33.7419 12.5062V15.0062H36.2419C36.5734 15.0062 36.8914 15.1379 37.1258 15.3724C37.3602 15.6068 37.4919 15.9247 37.4919 16.2562ZM19.9919 19.6437C21.9514 18.4233 23.4602 16.5978 24.2898 14.4436C25.1195 12.2893 25.225 9.92339 24.5903 7.70383C23.9556 5.48428 22.6153 3.53182 20.7721 2.14184C18.929 0.751863 16.6832 0 14.3747 0C12.0662 0 9.82049 0.751863 7.97734 2.14184C6.13418 3.53182 4.79387 5.48428 4.15918 7.70383C3.52449 9.92339 3.62996 12.2893 4.45963 14.4436C5.28929 16.5978 6.79801 18.4233 8.75754 19.6437C5.53098 20.7 2.62785 22.6734 0.293478 25.4516C0.140651 25.6332 0.0427129 25.8546 0.0111198 26.0899C-0.0204734 26.3252 0.015585 26.5646 0.115077 26.7802C0.214569 26.9957 0.37338 27.1784 0.572932 27.307C0.772485 27.4356 1.00453 27.5047 1.24192 27.5062H27.4919C27.7301 27.5065 27.9634 27.4387 28.1643 27.3108C28.3653 27.1829 28.5255 27.0003 28.6261 26.7844C28.7268 26.5685 28.7636 26.3284 28.7324 26.0922C28.7011 25.8561 28.6031 25.6338 28.4497 25.4516C26.1138 22.6734 23.2107 20.7 19.9919 19.6437Z" fill="#252B37"/>
</svg>
