<svg width="15" height="17" viewBox="0 0 15 17" fill="none" xmlns="http://www.w3.org/2000/svg">
<path d="M13.0045 1.51787C10.9807 -0.505957 7.68498 -0.505957 5.6633 1.51787L0.0558794 7.121C0.0193559 7.15752 1.98621e-05 7.20693 1.98621e-05 7.2585C1.98621e-05 7.31006 0.0193559 7.35947 0.0558794 7.396L0.848653 8.18877C0.88489 8.22485 0.933943 8.2451 0.985079 8.2451C1.03621 8.2451 1.08527 8.22485 1.1215 8.18877L6.72893 2.58564C7.42502 1.88955 8.351 1.50713 9.33498 1.50713C10.319 1.50713 11.2449 1.88955 11.9389 2.58564C12.635 3.28174 13.0174 4.20771 13.0174 5.18955C13.0174 6.17353 12.635 7.09736 11.9389 7.79346L6.22404 13.5062L5.29807 14.4321C4.43225 15.2979 3.02502 15.2979 2.1592 14.4321C1.74025 14.0132 1.51037 13.4567 1.51037 12.8638C1.51037 12.2708 1.74025 11.7144 2.1592 11.2954L7.82893 5.62783C7.97287 5.48603 8.16193 5.40654 8.36389 5.40654H8.36604C8.56799 5.40654 8.7549 5.48603 8.8967 5.62783C9.04064 5.77178 9.11799 5.96084 9.11799 6.16279C9.11799 6.3626 9.0385 6.55166 8.8967 6.69346L4.26252 11.3233C4.226 11.3599 4.20666 11.4093 4.20666 11.4608C4.20666 11.5124 4.226 11.5618 4.26252 11.5983L5.05529 12.3911C5.09153 12.4272 5.14058 12.4474 5.19172 12.4474C5.24285 12.4474 5.29191 12.4272 5.32815 12.3911L9.96018 7.75908C10.3877 7.33154 10.6219 6.76436 10.6219 6.16064C10.6219 5.55693 10.3856 4.9876 9.96018 4.56221C9.07717 3.6792 7.64201 3.68135 6.759 4.56221L6.209 5.11436L1.09143 10.2298C0.74409 10.5751 0.468763 10.9859 0.281412 11.4384C0.0940614 11.8909 -0.00158484 12.3762 1.98621e-05 12.8659C1.98621e-05 13.8606 0.388887 14.7952 1.09143 15.4978C1.81975 16.2239 2.77365 16.587 3.72756 16.587C4.68147 16.587 5.63537 16.2239 6.36154 15.4978L13.0045 8.85908C13.9821 7.87939 14.5235 6.57529 14.5235 5.18955C14.5256 3.80166 13.9842 2.49756 13.0045 1.51787Z" fill="currentColor" fill-opacity="0.45"/>
</svg>
