<svg width="49" height="35" viewBox="0 0 49 35" fill="none" xmlns="http://www.w3.org/2000/svg">
<path d="M45.5 0H3.5C2.57174 0 1.6815 0.368749 1.02513 1.02513C0.368749 1.6815 0 2.57174 0 3.5V31.5C0 32.4283 0.368749 33.3185 1.02513 33.9749C1.6815 34.6312 2.57174 35 3.5 35H45.5C46.4283 35 47.3185 34.6312 47.9749 33.9749C48.6312 33.3185 49 32.4283 49 31.5V3.5C49 2.57174 48.6312 1.6815 47.9749 1.02513C47.3185 0.368749 46.4283 0 45.5 0ZM41.2519 20.7178C41.387 20.9045 41.4841 21.1161 41.5375 21.3403C41.5909 21.5645 41.5996 21.7971 41.5632 22.0247C41.5267 22.2523 41.4458 22.4705 41.325 22.6668C41.2042 22.8631 41.0459 23.0337 40.8592 23.1689C40.6725 23.3041 40.461 23.4011 40.2367 23.4545C40.0125 23.508 39.78 23.5167 39.5523 23.4802C39.3247 23.4438 39.1065 23.3628 38.9102 23.242C38.7139 23.1212 38.5433 22.963 38.4081 22.7762L36.75 20.4772L35.0809 22.7762C34.808 23.1534 34.3964 23.4066 33.9367 23.4802C33.477 23.5539 33.0069 23.4419 32.6298 23.1689C32.2527 22.8959 31.9995 22.4843 31.9259 22.0247C31.8522 21.565 31.9642 21.0949 32.2372 20.7178L33.9084 18.4209L31.2047 17.5459C30.9862 17.4741 30.784 17.36 30.6097 17.21C30.4353 17.0601 30.2922 16.8772 30.1885 16.672C29.9791 16.2574 29.9429 15.7767 30.088 15.3355C30.1598 15.117 30.2739 14.9148 30.4239 14.7405C30.5738 14.5661 30.7567 14.423 30.9619 14.3193C31.3765 14.1099 31.8572 14.0737 32.2984 14.2188L35 15.0938V12.25C35 11.7859 35.1844 11.3408 35.5126 11.0126C35.8408 10.6844 36.2859 10.5 36.75 10.5C37.2141 10.5 37.6592 10.6844 37.9874 11.0126C38.3156 11.3408 38.5 11.7859 38.5 12.25V15.0938L41.2016 14.2188C41.42 14.1469 41.6505 14.1188 41.8798 14.1361C42.1091 14.1534 42.3328 14.2156 42.5381 14.3193C42.7433 14.423 42.9262 14.5661 43.0761 14.7405C43.2261 14.9148 43.3402 15.117 43.412 15.3355C43.4838 15.5539 43.5119 15.7844 43.4947 16.0137C43.4774 16.243 43.4152 16.4667 43.3115 16.672C43.2078 16.8772 43.0647 17.0601 42.8903 17.21C42.716 17.36 42.5138 17.4741 42.2953 17.5459L39.5916 18.4209L41.2519 20.7178ZM25.5019 20.7178C25.637 20.9045 25.7341 21.1161 25.7875 21.3403C25.8409 21.5645 25.8496 21.7971 25.8132 22.0247C25.7767 22.2523 25.6958 22.4705 25.575 22.6668C25.4542 22.8631 25.2959 23.0337 25.1092 23.1689C24.9225 23.3041 24.711 23.4011 24.4867 23.4545C24.2625 23.508 24.03 23.5167 23.8024 23.4802C23.5747 23.4438 23.3566 23.3628 23.1602 23.242C22.9639 23.1212 22.7933 22.963 22.6581 22.7762L21 20.4772L19.3309 22.7762C19.058 23.1534 18.6464 23.4066 18.1867 23.4802C17.727 23.5539 17.2569 23.4419 16.8798 23.1689C16.5027 22.8959 16.2495 22.4843 16.1759 22.0247C16.1022 21.565 16.2142 21.0949 16.4872 20.7178L18.1584 18.4209L15.4547 17.5459C15.2362 17.4741 15.034 17.36 14.8597 17.21C14.6853 17.0601 14.5422 16.8772 14.4385 16.672C14.2291 16.2574 14.1929 15.7767 14.338 15.3355C14.4098 15.117 14.5239 14.9148 14.6739 14.7405C14.8238 14.5661 15.0067 14.423 15.2119 14.3193C15.6265 14.1099 16.1072 14.0737 16.5484 14.2188L19.25 15.0938V12.25C19.25 11.7859 19.4344 11.3408 19.7626 11.0126C20.0908 10.6844 20.5359 10.5 21 10.5C21.4641 10.5 21.9092 10.6844 22.2374 11.0126C22.5656 11.3408 22.75 11.7859 22.75 12.25V15.0938L25.4516 14.2188C25.67 14.1469 25.9005 14.1188 26.1298 14.1361C26.3591 14.1534 26.5828 14.2156 26.7881 14.3193C26.9933 14.423 27.1762 14.5661 27.3261 14.7405C27.4761 14.9148 27.5902 15.117 27.662 15.3355C27.7338 15.5539 27.7619 15.7844 27.7447 16.0137C27.7274 16.243 27.6652 16.4667 27.5615 16.672C27.4578 16.8772 27.3147 17.0601 27.1403 17.21C26.966 17.36 26.7638 17.4741 26.5453 17.5459L23.8416 18.4209L25.5019 20.7178ZM10.5 8.75V26.25C10.5 26.7141 10.3156 27.1593 9.98744 27.4874C9.65925 27.8156 9.21413 28 8.75 28C8.28587 28 7.84075 27.8156 7.51256 27.4874C7.18437 27.1593 7 26.7141 7 26.25V8.75C7 8.28587 7.18437 7.84075 7.51256 7.51256C7.84075 7.18437 8.28587 7 8.75 7C9.21413 7 9.65925 7.18437 9.98744 7.51256C10.3156 7.84075 10.5 8.28587 10.5 8.75Z" fill="currentColor"/>
</svg>
