<svg width="10" height="10" viewBox="0 0 10 10" fill="none" xmlns="http://www.w3.org/2000/svg">
<path d="M5.50594 5L8.06941 1.94434C8.11238 1.89355 8.07625 1.81641 8.00984 1.81641H7.23055C7.18465 1.81641 7.1407 1.83691 7.11043 1.87207L4.99617 4.39258L2.88191 1.87207C2.85262 1.83691 2.80867 1.81641 2.7618 1.81641H1.9825C1.91609 1.81641 1.87996 1.89355 1.92293 1.94434L4.48641 5L1.92293 8.05566C1.9133 8.06698 1.90713 8.08083 1.90514 8.09555C1.90315 8.11027 1.90542 8.12526 1.91169 8.13873C1.91796 8.1522 1.92797 8.16359 1.94052 8.17154C1.95307 8.17949 1.96764 8.18368 1.9825 8.18359H2.7618C2.8077 8.18359 2.85164 8.16309 2.88191 8.12793L4.99617 5.60742L7.11043 8.12793C7.13973 8.16309 7.18367 8.18359 7.23055 8.18359H8.00984C8.07625 8.18359 8.11238 8.10645 8.06941 8.05566L5.50594 5Z" fill="black" fill-opacity="0.88"/>
</svg>
