<svg width="14" height="14" viewBox="0 0 14 14" fill="none" xmlns="http://www.w3.org/2000/svg">
<g clip-path="url(#clip0_9348_53363)">
<path d="M13.0661 11.7031L7.37857 1.85938C7.2938 1.71309 7.14751 1.64062 6.99986 1.64062C6.8522 1.64062 6.70455 1.71309 6.62115 1.85938L0.933647 11.7031C0.765483 11.9957 0.97603 12.3594 1.31236 12.3594H12.6874C13.0237 12.3594 13.2342 11.9957 13.0661 11.7031ZM2.35415 11.3217L6.99986 3.27988L11.6456 11.3217H2.35415Z" fill="#FF7875"/>
<path opacity="0.1" d="M2.354 11.3211H11.6454L6.99971 3.2793L2.354 11.3211ZM7.65596 9.84316C7.65245 10.0149 7.58177 10.1784 7.45908 10.2986C7.33639 10.4188 7.17147 10.4862 6.99971 10.4862C6.82794 10.4862 6.66302 10.4188 6.54033 10.2986C6.41764 10.1784 6.34696 10.0149 6.34346 9.84316C6.34696 9.67143 6.41764 9.50792 6.54033 9.38771C6.66302 9.2675 6.82794 9.20017 6.99971 9.20017C7.17147 9.20017 7.33639 9.2675 7.45908 9.38771C7.58177 9.50792 7.65245 9.67143 7.65596 9.84316ZM7.43721 5.68691V8.20254C7.43721 8.26269 7.38799 8.31191 7.32783 8.31191H6.67158C6.61143 8.31191 6.56221 8.26269 6.56221 8.20254V5.68691C6.56221 5.62676 6.61143 5.57754 6.67158 5.57754H7.32783C7.38799 5.57754 7.43721 5.62676 7.43721 5.68691Z" fill="#CF1322"/>
<path d="M6.34375 9.84375C6.34375 10.0178 6.41289 10.1847 6.53596 10.3078C6.65903 10.4309 6.82595 10.5 7 10.5C7.17405 10.5 7.34097 10.4309 7.46404 10.3078C7.58711 10.1847 7.65625 10.0178 7.65625 9.84375C7.65625 9.6697 7.58711 9.50278 7.46404 9.37971C7.34097 9.25664 7.17405 9.1875 7 9.1875C6.82595 9.1875 6.65903 9.25664 6.53596 9.37971C6.41289 9.50278 6.34375 9.6697 6.34375 9.84375ZM6.5625 5.6875V8.20312C6.5625 8.26328 6.61172 8.3125 6.67188 8.3125H7.32812C7.38828 8.3125 7.4375 8.26328 7.4375 8.20312V5.6875C7.4375 5.62734 7.38828 5.57812 7.32812 5.57812H6.67188C6.61172 5.57812 6.5625 5.62734 6.5625 5.6875Z" fill="#CF1322"/>
</g>
<defs>
<clipPath id="clip0_9348_53363">
<rect width="14" height="14" fill="white"/>
</clipPath>
</defs>
</svg>
