<svg width="14" height="14" viewBox="0 0 14 14" fill="none" xmlns="http://www.w3.org/2000/svg">
<g clip-path="url(#clip0_9348_53358)">
<path d="M9.64679 1.70762C9.63006 1.69918 9.61144 1.69519 9.59272 1.69602C9.574 1.69685 9.55581 1.70248 9.53989 1.71236C9.52397 1.72224 9.51086 1.73605 9.50181 1.75245C9.49275 1.76886 9.48807 1.78732 9.4882 1.80605V2.68379C9.4882 2.75898 9.52785 2.82871 9.59074 2.86973C9.89904 3.06378 10.1843 3.2922 10.4411 3.55059C10.8882 3.99902 11.2396 4.51992 11.4843 5.09961C11.7374 5.69971 11.8671 6.34461 11.8657 6.9959C11.8657 7.65352 11.7372 8.29199 11.4843 8.89219C11.2398 9.47104 10.8856 9.99706 10.4411 10.4412C9.99814 10.8868 9.47242 11.2416 8.89347 11.4857C8.29464 11.74 7.65617 11.8686 6.99992 11.8686C6.34367 11.8686 5.70519 11.74 5.10636 11.4857C4.52741 11.2416 4.00169 10.8868 3.55871 10.4412C3.11424 9.99706 2.75999 9.47104 2.51554 8.89219C2.26245 8.29209 2.13273 7.64719 2.1341 6.9959C2.1341 6.33828 2.26261 5.6998 2.51554 5.09961C2.76027 4.51992 3.11164 3.99902 3.55871 3.55059C3.81847 3.29082 4.10285 3.06387 4.4091 2.86973C4.47336 2.83008 4.51164 2.75898 4.51164 2.68379V1.80469C4.51164 1.72266 4.4255 1.6707 4.35304 1.70625C2.44035 2.66875 1.12101 4.63887 1.09367 6.92207C1.05539 10.1869 3.7255 12.8994 6.98898 12.9062C10.2566 12.9131 12.9062 10.2635 12.9062 6.99453C12.9062 4.68125 11.58 2.67832 9.64679 1.70762ZM6.56242 7.65625H7.43742C7.49757 7.65625 7.54679 7.60703 7.54679 7.54688V1.20312C7.54679 1.14297 7.49757 1.09375 7.43742 1.09375H6.56242C6.50226 1.09375 6.45304 1.14297 6.45304 1.20312V7.54688C6.45304 7.60703 6.50226 7.65625 6.56242 7.65625Z" fill="#2F54EB"/>
</g>
<defs>
<clipPath id="clip0_9348_53358">
<rect width="14" height="14" fill="white"/>
</clipPath>
</defs>
</svg>
