<svg width="40" height="40" viewBox="0 0 40 40" fill="none" xmlns="http://www.w3.org/2000/svg">
<path d="M20 1.5C22.2553 1.5 24.3205 1.85826 25.8398 2.45508C26.5976 2.75279 27.2447 3.11987 27.7109 3.55273C28.178 3.98642 28.4999 4.52346 28.5 5.14258V5.1543L28.499 5.16602L27.9072 17.582C27.8844 18.0595 27.635 18.498 27.2363 18.7617L24.4844 20.582C24.3563 20.6668 24.274 20.8059 24.2617 20.959L24.0879 23.1201C24.0251 23.8986 23.3755 24.4997 22.5938 24.5H17.4062C16.6245 24.4997 15.9749 23.8986 15.9121 23.1201L15.7373 20.96C15.7249 20.8069 15.6427 20.6678 15.5146 20.583L12.7617 18.7617C12.3632 18.4979 12.1146 18.0594 12.0918 17.582L11.501 5.16602L11.5 5.1543V5.14258C11.5001 4.52346 11.822 3.98642 12.2891 3.55273C12.7554 3.11979 13.4032 2.75282 14.1611 2.45508C15.6804 1.85836 17.7449 1.50001 20 1.5ZM20 2.5C17.8375 2.50001 15.9025 2.8452 14.5264 3.38574C13.8368 3.65662 13.3121 3.96726 12.9688 4.28613C12.6264 4.6042 12.5001 4.89401 12.5 5.14258L13.0908 17.5342C13.0984 17.6934 13.1816 17.8398 13.3145 17.9277L16.0664 19.749C16.4505 20.0032 16.6962 20.4199 16.7334 20.8789L16.9082 23.04C16.9292 23.2999 17.1463 23.4998 17.4062 23.5H22.5938L22.6885 23.4912C22.9046 23.4494 23.0734 23.2676 23.0918 23.04L23.2656 20.8789C23.3026 20.4195 23.5483 20.0024 23.9326 19.748L26.6846 17.9277C26.8175 17.8398 26.9006 17.6933 26.9082 17.5342L27.5 5.14258C27.4999 4.89401 27.3736 4.60419 27.0312 4.28613C26.6879 3.96726 26.1632 3.65662 25.4736 3.38574C24.0975 2.8452 22.1625 2.5 20 2.5Z" fill="currentColor"/>
<path d="M12.0591 11.2227H27.9401V12.3077H12.0591V11.2227Z" fill="currentColor"/>
<path d="M26.7587 17.7343C27.0708 17.7094 27.3447 17.9311 27.3707 18.2297C27.3967 18.5283 27.165 18.7902 26.8528 18.8151L24.7569 18.9825C21.5909 19.2349 18.4083 19.2349 15.2423 18.9825L13.1463 18.8151C12.8342 18.7902 12.6024 18.5283 12.6285 18.2297C12.6545 17.9311 12.9283 17.7094 13.2405 17.7343L15.3364 17.9012C18.4397 18.1486 21.5594 18.1486 24.6628 17.9012L26.7587 17.7343Z" fill="currentColor"/>
<path d="M27.3292 5.79623C27.6415 5.8192 27.9144 5.59578 27.9385 5.29717C27.9625 4.99851 27.729 4.7375 27.4168 4.7144L24.3931 4.49189C21.4685 4.27671 18.5308 4.27671 15.6062 4.49189L12.5825 4.7144C12.2703 4.7375 12.0368 4.99851 12.0608 5.29717C12.0849 5.59578 12.3578 5.8192 12.6701 5.79623L15.6932 5.57372C18.5599 5.3628 21.4394 5.3628 24.3061 5.57372L27.3292 5.79623Z" fill="currentColor"/>
<path d="M21.5 27C21.5 26.7239 21.2761 26.5 21 26.5H19C18.7239 26.5 18.5 26.7239 18.5 27V33C18.5 33.2761 18.7239 33.5 19 33.5H21C21.2761 33.5 21.5 33.2761 21.5 33V27ZM22.5 33C22.5 33.8284 21.8284 34.5 21 34.5H19C18.1716 34.5 17.5 33.8284 17.5 33V27C17.5 26.1716 18.1716 25.5 19 25.5H21C21.8284 25.5 22.5 26.1716 22.5 27V33Z" fill="currentColor"/>
<path d="M9.75782 33.1826C9.09254 35.6967 11.3049 38.0323 13.8516 37.5049L19.4932 36.3369C19.8275 36.2677 20.1725 36.2677 20.5068 36.3369L26.1484 37.5049C28.6951 38.0323 30.9075 35.6967 30.2422 33.1826L26.4385 18.8125L25.4717 19.0684L29.2754 33.4385C29.7506 35.2343 28.1706 36.9031 26.3516 36.5264L20.71 35.3574C20.2418 35.2605 19.7583 35.2605 19.29 35.3574L13.6484 36.5264C11.8294 36.9031 10.2494 35.2343 10.7246 33.4385L14.5283 19.0684L13.5615 18.8125L9.75782 33.1826Z" fill="currentColor"/></svg>
