<svg width="12" height="11" viewBox="0 0 12 11" fill="none" xmlns="http://www.w3.org/2000/svg">
<path d="M11.875 9.875H1.125V0.125C1.125 0.05625 1.06875 0 1 0H0.125C0.05625 0 0 0.05625 0 0.125V10.875C0 10.9438 0.05625 11 0.125 11H11.875C11.9438 11 12 10.9438 12 10.875V10C12 9.93125 11.9438 9.875 11.875 9.875ZM2.77812 7.46406C2.82656 7.5125 2.90469 7.5125 2.95469 7.46406L5.11562 5.31406L7.10938 7.32031C7.15781 7.36875 7.2375 7.36875 7.28594 7.32031L11.5891 3.01875C11.6375 2.97031 11.6375 2.89062 11.5891 2.84219L10.9703 2.22344C10.9468 2.20017 10.9151 2.18712 10.882 2.18712C10.849 2.18712 10.8172 2.20017 10.7937 2.22344L7.2 5.81563L5.20937 3.8125C5.18588 3.78924 5.15416 3.77619 5.12109 3.77619C5.08803 3.77619 5.05631 3.78924 5.03281 3.8125L2.16094 6.66719C2.13767 6.69068 2.12462 6.72241 2.12462 6.75547C2.12462 6.78853 2.13767 6.82026 2.16094 6.84375L2.77812 7.46406Z" fill="black" fill-opacity="0.88"/>
</svg>
