<svg width="40" height="40" viewBox="0 0 40 40" fill="none" xmlns="http://www.w3.org/2000/svg">
<path d="M32.0161 18.8154H23.4804C22.8208 18.8154 22.3164 19.3143 22.3164 19.9666C22.3164 20.6189 22.8208 21.1177 23.4804 21.1177H32.0161C32.6757 21.1177 33.1801 20.6189 33.1801 19.9666C33.1801 19.3143 32.6757 18.8154 32.0161 18.8154ZM32.0161 20.3503H23.4804C23.2476 20.3503 23.0924 20.1968 23.0924 19.9666C23.0924 19.7363 23.2476 19.5829 23.4804 19.5829H32.0161C32.2489 19.5829 32.4041 19.7363 32.4041 19.9666C32.4041 20.1968 32.2489 20.3503 32.0161 20.3503Z" fill="currentColor"/>
<path d="M32.0161 23.4199H23.4804C22.8208 23.4199 22.3164 23.9187 22.3164 24.5711C22.3164 25.2234 22.8208 25.7222 23.4804 25.7222H32.0161C32.6757 25.7222 33.1801 25.2234 33.1801 24.5711C33.1801 23.9187 32.6757 23.4199 32.0161 23.4199ZM32.0161 24.9548H23.4804C23.2476 24.9548 23.0924 24.8013 23.0924 24.5711C23.0924 24.3408 23.2476 24.1873 23.4804 24.1873H32.0161C32.2489 24.1873 32.4041 24.3408 32.4041 24.5711C32.4041 24.8013 32.2489 24.9548 32.0161 24.9548Z" fill="currentColor"/>
<path d="M32.0161 28.0234H23.4804C22.8208 28.0234 22.3164 28.5223 22.3164 29.1746C22.3164 29.8269 22.8208 30.3257 23.4804 30.3257H32.0161C32.6757 30.3257 33.1801 29.8269 33.1801 29.1746C33.1801 28.5223 32.6757 28.0234 32.0161 28.0234ZM32.0161 29.5583H23.4804C23.2476 29.5583 23.0924 29.4048 23.0924 29.1746C23.0924 28.9443 23.2476 28.7909 23.4804 28.7909H32.0161C32.2489 28.7909 32.4041 28.9443 32.4041 29.1746C32.4041 29.4048 32.2489 29.5583 32.0161 29.5583Z" fill="currentColor"/>
<path fill-rule="evenodd" clip-rule="evenodd" d="M36.7227 16.0869H35.2044C34.7869 16.0869 34.4453 16.4275 34.4453 16.8439H20.7814C20.7814 16.4275 20.4398 16.0869 20.0223 16.0869C18.7698 16.0869 17.745 17.1088 17.745 18.3577C16.4925 18.3577 15.4677 19.3796 15.4677 20.6286V22.8994H14.329V19.4932C14.329 19.2661 14.1772 19.1147 13.9494 19.1147H12.8108H12.0517H9.77436H9.01525H8.25614C8.14228 19.1147 8.06637 19.1525 7.99046 19.2282L6.85179 20.3636C6.77588 20.4393 6.73793 20.515 6.73793 20.6286V22.8994H4.46061C4.23288 22.8994 4.08105 23.0508 4.08105 23.2779V26.3057C4.08105 26.5327 4.23288 26.6841 4.46061 26.6841H6.73793V28.955C6.73793 29.0685 6.77588 29.1442 6.85179 29.2199L7.99046 30.3553C8.06637 30.431 8.14228 30.4688 8.25614 30.4688H13.9494C14.1772 30.4688 14.329 30.3175 14.329 30.0904V26.6841H15.4677V28.955C15.4677 30.2039 16.4925 31.2258 17.745 31.2258C17.745 32.4747 18.7698 33.4966 20.0223 33.4966C20.4398 33.4966 20.7814 33.156 20.7814 32.7397H23.4383V34.2536H8.6357C8.48387 34.2536 8.33205 34.3671 8.2941 34.4806L7.15544 37.5084C7.11748 37.622 7.11748 37.7733 7.19339 37.849C7.2693 37.9626 7.38317 38.0004 7.49704 38.0004H35.584C35.6979 38.0004 35.8117 37.9247 35.8876 37.849C35.9635 37.7355 35.9635 37.622 35.9256 37.5084L34.7869 34.4806C34.749 34.3671 34.5972 34.2536 34.4453 34.2536H31.7885V32.7397H34.4453C34.4453 33.156 34.7869 33.4966 35.2044 33.4966H36.7227C37.9752 33.4966 39 32.4747 39 31.2258V18.3577C39 17.1088 37.9752 16.0869 36.7227 16.0869ZM4.84016 23.6564V25.9272H6.73793V23.6564H4.84016ZM8.40796 29.7119H13.5699V26.3057V23.2779V19.8716H12.4312H9.3948H8.40796L7.49704 20.78V23.2779V26.3057V28.8036L8.40796 29.7119ZM14.329 23.6564V25.9272H15.4677V23.6564H14.329ZM16.2268 26.3057V28.955C16.2268 29.7876 16.91 30.4688 17.745 30.4688V19.1147C16.91 19.1147 16.2268 19.7959 16.2268 20.6286V23.2779V26.3057ZM18.5041 31.2258C18.5041 32.0584 19.1873 32.7397 20.0223 32.7397V32.3612V17.2223V16.8439C19.1873 16.8439 18.5041 17.5251 18.5041 18.3577V18.7362V30.8473V31.2258ZM8.02841 37.2813H35.0526L34.1796 35.0105H31.4089H23.8178H8.90138L8.02841 37.2813ZM24.1974 34.2536H31.0294V32.7397H24.1974V34.2536ZM23.8178 31.9827H31.4089H34.4453V17.6008H20.7814V31.9827H23.8178ZM36.7227 32.7397C37.5577 32.7397 38.2409 32.0584 38.2409 31.2258V18.3577C38.2409 17.5251 37.5577 16.8439 36.7227 16.8439H35.2044V17.2223V32.3612V32.7397H36.7227Z" fill="currentColor"/>
<path d="M25.999 13.3887C25.9988 13.6369 25.798 13.8377 25.5498 13.8379H23.1494C23.0666 13.8379 22.999 13.9054 22.999 13.9883V15.1387H32.2998V13.9883C32.2998 13.9262 32.2618 13.8724 32.208 13.8496L32.1494 13.8379H29.749C29.5008 13.8377 29.3 13.6369 29.2998 13.3887V12.4883C29.2998 12.4054 29.2323 12.3379 29.1494 12.3379H26.1494C26.0666 12.3379 25.999 12.4054 25.999 12.4883V13.3887ZM29.999 13.1387H32.1494C32.6189 13.1387 32.999 13.5188 32.999 13.9883V15.3887C32.9988 15.6369 32.798 15.8377 32.5498 15.8379H22.749C22.5008 15.8377 22.3 15.6369 22.2998 15.3887V13.9883C22.2998 13.5188 22.68 13.1387 23.1494 13.1387H25.2998V12.4883C25.2998 12.0188 25.68 11.6387 26.1494 11.6387H29.1494C29.6189 11.6387 29.999 12.0188 29.999 12.4883V13.1387Z" fill="currentColor"/>
<path d="M23.3015 2.96566C25.9865 2.31093 28.7627 2.31092 31.4476 2.96566L32.5126 3.22491C33.4659 3.45746 34.1201 4.45755 34.0427 5.56354L33.8168 8.7847L33.7931 8.99642C33.6413 9.97184 32.9339 10.7163 32.0674 10.8112L31.8795 10.8209V10.0464C32.5383 10.0463 33.0866 9.47047 33.1391 8.72313L33.365 5.50197C33.4152 4.78323 32.9897 4.13339 32.3702 3.98213L31.3052 3.7218C28.7142 3.08998 26.0349 3.08998 23.4439 3.7218L22.3789 3.98213C21.7594 4.13339 21.3339 4.78323 21.3841 5.50197L21.61 8.72313C21.6625 9.47047 22.2108 10.0463 22.8696 10.0464V10.8209C21.9192 10.8208 21.1187 10.0415 20.956 8.99642L20.9323 8.7847L20.7064 5.56354C20.6338 4.52644 21.2044 3.58209 22.0619 3.27676L22.2365 3.22491L23.3015 2.96566ZM31.8795 10.0464V10.8209H22.8696V10.0464H31.8795Z" fill="currentColor"/>
<path d="M1 23.13C1 22.9859 1.11495 22.8691 1.25676 22.8691C1.39856 22.8691 1.51351 22.9859 1.51351 23.13V26.2605C1.51351 26.4045 1.39856 26.5213 1.25676 26.5213C1.11495 26.5213 1 26.4045 1 26.2605V23.13Z" fill="currentColor"/>
<path d="M2.02734 23.13C2.02734 22.9859 2.1423 22.8691 2.2841 22.8691C2.4259 22.8691 2.54086 22.9859 2.54086 23.13V26.2605C2.54086 26.4045 2.4259 26.5213 2.2841 26.5213C2.1423 26.5213 2.02734 26.4045 2.02734 26.2605V23.13Z" fill="currentColor"/>
<path d="M3.05371 23.13C3.05371 22.9859 3.16866 22.8691 3.31047 22.8691C3.45227 22.8691 3.56722 22.9859 3.56722 23.13V26.2605C3.56722 26.4045 3.45227 26.5213 3.31047 26.5213C3.16866 26.5213 3.05371 26.4045 3.05371 26.2605V23.13Z" fill="currentColor"/>
<path d="M33.3517 4.71289V5.5485H21.0273V4.71289H33.3517Z" fill="currentColor"/>
<path d="M15.3779 8.92484V5.8875L15.5272 6.40202L13.1621 3.07422H13.9754L15.8011 5.63853H15.6932L17.5189 3.07422H18.3156L15.9505 6.40202L16.0915 5.8875V8.92484H15.3779Z" fill="currentColor"/>
<path d="M7.88184 8.92484L10.1225 5.79621L10.1308 6.06177L7.98972 3.07422H8.81959L10.5623 5.53895H10.4295L12.1723 3.07422H13.0021L10.8528 6.06177V5.79621L13.1017 8.92484H12.2635L10.4046 6.30243H10.5706L8.72 8.92484H7.88184Z" fill="currentColor"/>
<path d="M4.69708 9C4.28214 9 3.9087 8.93084 3.57675 8.79253C3.2448 8.65422 2.95988 8.45505 2.72199 8.19502C2.48962 7.92946 2.30982 7.61411 2.18257 7.24896C2.06086 6.87828 2 6.46058 2 5.99585C2 5.53112 2.06086 5.11618 2.18257 4.75104C2.30982 4.38036 2.48962 4.06501 2.72199 3.80498C2.95988 3.54495 3.2448 3.34578 3.57675 3.20747C3.9087 3.06916 4.28214 3 4.69708 3C5.11201 3 5.48545 3.06916 5.8174 3.20747C6.14935 3.34578 6.43427 3.54495 6.67216 3.80498C6.91006 4.06501 7.08987 4.38036 7.21158 4.75104C7.33883 5.11618 7.40245 5.52835 7.40245 5.98755C7.40245 6.45228 7.33883 6.86999 7.21158 7.24066C7.08433 7.61134 6.90176 7.92946 6.66387 8.19502C6.4315 8.45505 6.14935 8.65422 5.8174 8.79253C5.48545 8.93084 5.11201 9 4.69708 9ZM4.69708 8.361C5.11201 8.361 5.46332 8.26971 5.75101 8.08714C6.04423 7.90456 6.26829 7.63624 6.4232 7.28216C6.57811 6.92808 6.65557 6.49931 6.65557 5.99585C6.65557 5.48686 6.57811 5.05809 6.4232 4.70954C6.27383 4.361 6.05253 4.09544 5.75931 3.91286C5.46609 3.73029 5.11201 3.639 4.69708 3.639C4.28767 3.639 3.93636 3.73029 3.64314 3.91286C3.35545 4.09544 3.13415 4.36376 2.97925 4.71784C2.82434 5.06639 2.74688 5.49239 2.74688 5.99585C2.74688 6.49931 2.82434 6.92808 2.97925 7.28216C3.13415 7.6307 3.35545 7.89903 3.64314 8.08714C3.93636 8.26971 4.28767 8.361 4.69708 8.361Z" fill="currentColor"/></svg>
