<svg width="16" height="16" viewBox="0 0 16 16" fill="none" xmlns="http://www.w3.org/2000/svg">
<path d="M7.75 10.9385C7.82556 10.9817 7.91109 11.0044 7.99813 11.0044C8.08516 11.0044 8.17069 10.9817 8.24625 10.9385C8.39938 10.8504 11.9963 8.75099 11.9963 5.00411C11.9648 3.96492 11.53 2.9788 10.784 2.2547C10.038 1.53059 9.0393 1.12541 7.99964 1.125C6.95998 1.12459 5.961 1.529 5.2144 2.25252C4.4678 2.97604 4.03223 3.96182 4 5.00099C4 8.75099 7.59875 10.8472 7.75 10.9385ZM8 3.50099C8.29667 3.50099 8.58668 3.58896 8.83335 3.75378C9.08003 3.91861 9.27229 4.15287 9.38582 4.42696C9.49935 4.70105 9.52906 5.00265 9.47118 5.29362C9.4133 5.58459 9.27044 5.85187 9.06066 6.06165C8.85088 6.27143 8.58361 6.41429 8.29264 6.47217C8.00166 6.53004 7.70006 6.50034 7.42597 6.38681C7.15189 6.27328 6.91762 6.08102 6.7528 5.83434C6.58797 5.58767 6.5 5.29766 6.5 5.00099C6.5 4.60316 6.65804 4.22163 6.93934 3.94033C7.22064 3.65902 7.60218 3.50099 8 3.50099ZM15 11.501C15 13.4497 11.3931 14.501 8 14.501C4.60687 14.501 1 13.4497 1 11.501C1 10.5891 1.82625 9.78161 3.32687 9.22786C3.44994 9.18721 3.58398 9.19592 3.70074 9.25218C3.8175 9.30843 3.90785 9.40782 3.95275 9.5294C3.99766 9.65097 3.9936 9.78523 3.94143 9.90388C3.88926 10.0225 3.79307 10.1163 3.67313 10.1654C2.64125 10.5472 2 11.0585 2 11.501C2 12.336 4.2825 13.501 8 13.501C11.7175 13.501 14 12.336 14 11.501C14 11.0585 13.3587 10.5472 12.3269 10.166C12.2069 10.1169 12.1107 10.0231 12.0586 9.9045C12.0064 9.78586 12.0023 9.6516 12.0472 9.53002C12.0921 9.40844 12.1825 9.30905 12.2993 9.2528C12.416 9.19655 12.5501 9.18783 12.6731 9.22849C14.1738 9.78161 15 10.5891 15 11.501Z" fill="white"/>
</svg>
