<svg width="16" height="16" viewBox="0 0 16 16" fill="none" xmlns="http://www.w3.org/2000/svg">
<path opacity="0.2" d="M13.9993 5.75046C13.9993 6.87763 13.5515 7.95863 12.7545 8.75566C11.9575 9.55269 10.8765 10.0005 9.74931 10.0005H4.74931C4.35035 10.0001 3.95625 9.91289 3.59435 9.74494C3.23246 9.577 2.91144 9.33232 2.65357 9.02789C2.3957 8.72347 2.20716 8.36657 2.10103 7.98198C1.99491 7.59739 1.97373 7.19432 2.03898 6.80072C2.10422 6.40713 2.25433 6.03245 2.47888 5.70267C2.70343 5.3729 2.99704 5.09593 3.33935 4.891C3.68166 4.68606 4.06445 4.55806 4.46118 4.51587C4.85791 4.47369 5.25907 4.51833 5.63681 4.64671V4.65358C5.90386 3.65714 6.52392 2.79169 7.38155 2.21838C8.23918 1.64506 9.27593 1.40295 10.2988 1.53711C11.3216 1.67128 12.2609 2.17257 12.9416 2.94767C13.6224 3.72277 13.9983 4.71885 13.9993 5.75046Z" fill="#2E90FA"/>
<path d="M9.91625 12.2776L7.91625 15.2776C7.87981 15.3323 7.83296 15.3792 7.77837 15.4158C7.72378 15.4523 7.66253 15.4778 7.59811 15.4907C7.46801 15.5167 7.3329 15.4899 7.2225 15.4163C7.1121 15.3428 7.03547 15.2283 7.00944 15.0982C6.98342 14.9681 7.01015 14.833 7.08375 14.7226L9.08375 11.7226C9.15735 11.6122 9.27179 11.5356 9.40189 11.5095C9.53199 11.4835 9.6671 11.5103 9.7775 11.5838C9.8879 11.6574 9.96453 11.7719 9.99056 11.902C10.0166 12.0321 9.98985 12.1672 9.91625 12.2776ZM14.5 5.7501C14.4987 7.00947 13.9978 8.21688 13.1073 9.10739C12.2168 9.9979 11.0094 10.4988 9.75 10.5001H8.2675L6.41625 13.2776C6.37981 13.3323 6.33296 13.3792 6.27837 13.4158C6.22378 13.4523 6.16253 13.4778 6.09811 13.4907C6.03369 13.5035 5.96736 13.5036 5.90292 13.4909C5.83847 13.4781 5.77716 13.4528 5.7225 13.4163C5.66784 13.3799 5.62089 13.3331 5.58433 13.2785C5.54778 13.2239 5.52233 13.1626 5.50944 13.0982C5.49656 13.0338 5.49649 12.9675 5.50924 12.903C5.52199 12.8386 5.54731 12.7773 5.58375 12.7226L7.06563 10.5001H4.75C3.88805 10.5001 3.0614 10.1577 2.4519 9.54819C1.84241 8.9387 1.5 8.11205 1.5 7.2501C1.5 6.38814 1.84241 5.56149 2.4519 4.952C3.0614 4.34251 3.88805 4.0001 4.75 4.0001C4.93684 4.00026 5.12333 4.01615 5.3075 4.0476C5.70626 3.01183 6.45478 2.14818 7.42337 1.60628C8.39197 1.06438 9.51961 0.878378 10.6109 1.0805C11.7022 1.28261 12.6885 1.86012 13.3988 2.71295C14.109 3.56579 14.4986 4.64022 14.5 5.7501ZM13.5 5.7501C13.496 4.77638 13.1138 3.84233 12.4341 3.14512C11.7543 2.44791 10.8303 2.04211 9.85697 2.0134C8.88367 1.98469 7.9373 2.33531 7.21765 2.99123C6.498 3.64716 6.06139 4.55706 6 5.52885C5.99622 5.59451 5.97955 5.65878 5.95094 5.718C5.92232 5.77722 5.88232 5.83022 5.83322 5.87398C5.73406 5.96236 5.60386 6.00772 5.47125 6.0001C5.33864 5.99247 5.21449 5.93248 5.12612 5.83332C5.03774 5.73416 4.99238 5.60396 5 5.47135C5.00875 5.31885 5.02479 5.16822 5.04812 5.01947C4.94925 5.00678 4.84968 5.00031 4.75 5.0001C4.15326 5.0001 3.58097 5.23715 3.15901 5.65911C2.73705 6.08107 2.5 6.65336 2.5 7.2501C2.5 7.84684 2.73705 8.41913 3.15901 8.84109C3.58097 9.26305 4.15326 9.5001 4.75 9.5001H9.75C10.7442 9.49894 11.6974 9.10348 12.4004 8.40047C13.1034 7.69746 13.4988 6.7443 13.5 5.7501Z" fill="#2E90FA"/>
</svg>
