<svg width="16" height="16" viewBox="0 0 16 16" fill="none" xmlns="http://www.w3.org/2000/svg">
<path opacity="0.2" d="M8.73927 5.27549C8.10898 5.51478 7.54441 5.90012 7.0919 6.39988C6.63939 6.89965 6.31185 7.4996 6.13615 8.15049V8.14362C5.73746 8.00817 5.31304 7.96591 4.89548 8.02008C4.47791 8.07426 4.07832 8.22342 3.7274 8.45612C3.44674 8.12977 3.23959 7.74685 3.12002 7.33335C3.00045 6.91986 2.97127 6.48548 3.03444 6.0597C3.09761 5.63393 3.25167 5.22674 3.48614 4.86577C3.72062 4.50481 4.03002 4.19853 4.39335 3.96773C4.75668 3.73693 5.16541 3.58702 5.5918 3.52817C6.0182 3.46932 6.45226 3.50292 6.86452 3.62668C7.27678 3.75044 7.65758 3.96146 7.98106 4.24542C8.30454 4.52938 8.56313 4.87962 8.73927 5.27237V5.27549Z" fill="#F79009"/>
<path d="M10.2502 4.50013C9.82238 4.49987 9.39646 4.55726 8.98396 4.67075C8.82112 4.40507 8.62331 4.16248 8.39583 3.9495L8.99021 3.10138C9.02788 3.04758 9.05459 2.98688 9.0688 2.92276C9.08302 2.85864 9.08447 2.79234 9.07306 2.72766C9.06166 2.66298 9.03763 2.60118 9.00234 2.54578C8.96705 2.49039 8.9212 2.44249 8.8674 2.40482C8.81359 2.36714 8.7529 2.34044 8.68878 2.32622C8.62466 2.312 8.55836 2.31056 8.49368 2.32196C8.429 2.33336 8.3672 2.3574 8.3118 2.39269C8.25641 2.42797 8.20851 2.47383 8.17083 2.52763L7.57646 3.37513C7.08769 3.12834 6.54775 2.99989 6.00021 3.00013C5.96396 3.00013 5.92771 3.00013 5.89146 3.00013L5.71083 1.982C5.70135 1.91566 5.67863 1.85191 5.64403 1.79452C5.60942 1.73713 5.56363 1.68729 5.50938 1.64795C5.45512 1.60861 5.39352 1.58058 5.32822 1.56552C5.26292 1.55046 5.19526 1.54868 5.12925 1.56029C5.06325 1.5719 5.00026 1.59666 4.94401 1.63309C4.88777 1.66953 4.83943 1.7169 4.80185 1.77239C4.76428 1.82787 4.73824 1.89035 4.72529 1.9561C4.71234 2.02185 4.71273 2.08953 4.72646 2.15513L4.90646 3.17638C4.35193 3.35979 3.852 3.67882 3.45208 4.1045L2.60083 3.50888C2.54708 3.47028 2.48619 3.44274 2.42171 3.42785C2.35722 3.41296 2.29042 3.41102 2.22518 3.42214C2.15995 3.43326 2.09756 3.45723 2.04166 3.49264C1.98575 3.52805 1.93743 3.57421 1.8995 3.62844C1.86156 3.68268 1.83477 3.7439 1.82068 3.80856C1.80659 3.87322 1.80547 3.94004 1.8174 4.00514C1.82933 4.07023 1.85406 4.13231 1.89016 4.18778C1.92626 4.24325 1.97301 4.29099 2.02771 4.32825L2.87521 4.92325C2.62755 5.41193 2.49904 5.95228 2.50021 6.50013C2.50021 6.53575 2.50021 6.572 2.50021 6.60763L1.48208 6.78763C1.35885 6.80922 1.24819 6.87622 1.17194 6.97541C1.0957 7.0746 1.05941 7.19878 1.07024 7.32342C1.08107 7.44806 1.13823 7.56411 1.23045 7.64866C1.32266 7.73321 1.44322 7.78012 1.56833 7.78013C1.59745 7.78009 1.62651 7.77758 1.65521 7.77263L2.67521 7.59263C2.76483 7.86549 2.88784 8.12621 3.04146 8.36888C2.5632 8.8131 2.22979 9.39105 2.08465 10.0274C1.9395 10.6638 1.98934 11.3292 2.22769 11.9369C2.46604 12.5445 2.88183 13.0663 3.42094 13.4344C3.96004 13.8024 4.59747 13.9995 5.25021 14.0001H10.2502C11.51 14.0001 12.7182 13.4997 13.609 12.6089C14.4998 11.7181 15.0002 10.5099 15.0002 9.25013C15.0002 7.99035 14.4998 6.78217 13.609 5.89137C12.7182 5.00057 11.51 4.50013 10.2502 4.50013ZM3.50021 6.50013C3.50051 5.97066 3.6689 5.45496 3.98111 5.02735C4.29332 4.59973 4.73324 4.28228 5.23746 4.12074C5.74168 3.9592 6.28417 3.96191 6.78675 4.12849C7.28932 4.29507 7.72604 4.61691 8.03396 5.04763C7.01401 5.58438 6.22311 6.47253 5.80771 7.54763C5.15042 7.43417 4.47415 7.52514 3.87021 7.80825C3.62841 7.41476 3.50034 6.96198 3.50021 6.50013ZM10.2502 13.0001H5.25021C4.94247 12.9996 4.63813 12.9359 4.35598 12.813C4.07384 12.6901 3.81991 12.5107 3.60987 12.2858C3.39984 12.0609 3.23818 11.7952 3.13489 11.5054C3.03159 11.2155 2.98886 10.9075 3.00933 10.6004C3.02981 10.2934 3.11305 9.9938 3.25391 9.7202C3.39478 9.4466 3.59027 9.2048 3.82831 9.00976C4.06634 8.81472 4.34185 8.67058 4.63781 8.58625C4.93376 8.50193 5.24387 8.47921 5.54896 8.5195C5.52583 8.66763 5.50958 8.81888 5.50083 8.97138C5.49321 9.10399 5.53857 9.23419 5.62695 9.33335C5.71533 9.43251 5.83948 9.4925 5.97208 9.50013C6.10469 9.50775 6.2349 9.46239 6.33406 9.37401C6.43322 9.28563 6.49321 9.16149 6.50083 9.02888C6.51486 8.77949 6.55423 8.53217 6.61833 8.29075C6.61833 8.28075 6.62396 8.27075 6.62583 8.26075C6.80961 7.58541 7.17854 6.97489 7.69096 6.49814C8.20338 6.02139 8.83888 5.6974 9.52571 5.56275C10.2125 5.4281 10.9233 5.48816 11.5778 5.73613C12.2323 5.98411 12.8045 6.41014 13.2296 6.96611C13.6548 7.52207 13.9161 8.18583 13.9839 8.88244C14.0518 9.57905 13.9235 10.2808 13.6137 10.9083C13.3038 11.5359 12.8246 12.0643 12.2303 12.434C11.636 12.8036 10.9501 12.9997 10.2502 13.0001Z" fill="#F79009"/>
</svg>
