<svg width="16" height="16" viewBox="0 0 16 16" fill="none" xmlns="http://www.w3.org/2000/svg">
<path opacity="0.2" d="M6.39906 1.10156C6.55067 1.76255 6.5319 2.45122 6.34451 3.10297C6.15712 3.75473 5.80726 4.3482 5.32773 4.82773C4.8482 5.30726 4.25473 5.65712 3.60297 5.84451C2.95122 6.0319 2.26255 6.05067 1.60156 5.89906C1.74399 6.51445 2.02986 7.08745 2.43587 7.57134C2.84188 8.05523 3.35652 8.43628 3.93781 8.68344C4.30238 8.36414 4.74473 8.14666 5.22021 8.05295C5.69569 7.95923 6.18748 7.9926 6.64594 8.14969C6.83232 7.45732 7.19052 6.82323 7.68732 6.30622C8.18412 5.78921 8.80343 5.40602 9.48781 5.19219H9.49719C9.49719 5.12969 9.50156 5.06719 9.50156 5.00469C9.50272 4.09895 9.19645 3.21963 8.63285 2.51059C8.06926 1.80156 7.28171 1.30479 6.39906 1.10156Z" fill="#9E77ED"/>
<path d="M10.7505 4.49988C10.4918 4.49976 10.2334 4.52067 9.97804 4.56238C9.88721 3.62386 9.50358 2.73765 8.88142 2.02913C8.25926 1.32061 7.43008 0.825642 6.51117 0.614257C6.42864 0.595298 6.34265 0.597607 6.26126 0.62097C6.17987 0.644332 6.10575 0.687981 6.04585 0.747825C5.98594 0.807668 5.94221 0.881746 5.91877 0.96311C5.89532 1.04447 5.89292 1.13046 5.91179 1.21301C6.02956 1.72605 6.0302 2.25903 5.91365 2.77235C5.79711 3.28567 5.56639 3.76613 5.23863 4.17802C4.91087 4.58991 4.4945 4.92264 4.02047 5.15149C3.54644 5.38034 3.02693 5.49942 2.50054 5.49988C2.23575 5.49992 1.9718 5.47015 1.71367 5.41113C1.63108 5.39213 1.54502 5.39443 1.46356 5.41782C1.38211 5.44121 1.30793 5.48492 1.24801 5.54485C1.18808 5.60477 1.14437 5.67895 1.12098 5.7604C1.09759 5.84186 1.09529 5.92792 1.11429 6.01051C1.24861 6.58972 1.49605 7.13668 1.84238 7.61998C2.18871 8.10328 2.62712 8.51339 3.13242 8.82676C2.77704 9.31089 2.56277 9.88404 2.51337 10.4826C2.46397 11.0811 2.58139 11.6816 2.85258 12.2175C3.12377 12.7533 3.53814 13.2035 4.04969 13.5182C4.56125 13.8328 5.14998 13.9995 5.75054 13.9999H10.7505C12.0103 13.9999 13.2185 13.4994 14.1093 12.6086C15.0001 11.7178 15.5005 10.5097 15.5005 9.24988C15.5005 7.9901 15.0001 6.78192 14.1093 5.89113C13.2185 5.00033 12.0103 4.49988 10.7505 4.49988ZM2.33617 6.49988C2.39054 6.49988 2.44554 6.49988 2.50054 6.49988C3.69361 6.49856 4.83743 6.02403 5.68106 5.1804C6.52469 4.33677 6.99922 3.19295 7.00054 1.99988C7.00054 1.94426 7.00054 1.88863 7.00054 1.83301C7.57631 2.10244 8.06718 2.52458 8.4198 3.0535C8.77242 3.58243 8.97328 4.1979 9.00054 4.83301C8.38983 5.07552 7.83585 5.44166 7.37337 5.90845C6.91089 6.37523 6.54989 6.93258 6.31304 7.54551C5.89031 7.47236 5.45728 7.48363 5.03893 7.57867C4.62057 7.67371 4.22518 7.85064 3.87554 8.09926C3.20307 7.74648 2.66298 7.18534 2.33617 6.49988ZM10.7505 12.9999H5.75054C5.44281 12.9993 5.13846 12.9356 4.85632 12.8128C4.57418 12.6899 4.32024 12.5104 4.11021 12.2855C3.90018 12.0606 3.73851 11.795 3.63522 11.5051C3.53193 11.2152 3.48919 10.9073 3.50967 10.6002C3.53014 10.2931 3.61338 9.99355 3.75425 9.71995C3.89511 9.44635 4.09061 9.20455 4.32864 9.00951C4.56667 8.81447 4.84218 8.67033 5.13814 8.58601C5.4341 8.50168 5.74421 8.47896 6.04929 8.51926C6.02617 8.66738 6.00992 8.81863 6.00117 8.97113C5.99739 9.03679 6.00659 9.10255 6.02823 9.16466C6.04986 9.22677 6.08352 9.28401 6.12728 9.33311C6.17104 9.38221 6.22405 9.4222 6.28326 9.45082C6.34248 9.47943 6.40676 9.49611 6.47242 9.49988C6.53808 9.50366 6.60384 9.49446 6.66595 9.47282C6.72806 9.45119 6.78529 9.41752 6.83439 9.37376C6.88349 9.33 6.92349 9.277 6.9521 9.21778C6.98072 9.15857 6.99739 9.09429 7.00117 9.02863C7.01519 8.77924 7.05456 8.53193 7.11867 8.29051C7.11867 8.28051 7.12429 8.27051 7.12617 8.26051C7.30994 7.58516 7.67887 6.97464 8.19129 6.49789C8.70371 6.02114 9.33922 5.69715 10.026 5.5625C10.7129 5.42785 11.4237 5.48791 12.0782 5.73589C12.7327 5.98387 13.3048 6.40989 13.73 6.96586C14.1552 7.52183 14.4164 8.18559 14.4843 8.88219C14.5521 9.5788 14.4239 10.2805 14.114 10.9081C13.8041 11.5356 13.325 12.0641 12.7306 12.4337C12.1363 12.8033 11.4504 12.9994 10.7505 12.9999Z" fill="#9E77ED"/>
</svg>
