<svg width="16" height="16" viewBox="0 0 16 16" fill="none" xmlns="http://www.w3.org/2000/svg">
<path opacity="0.2" d="M13.9993 5.75046C13.9993 6.87763 13.5515 7.95863 12.7545 8.75566C11.9575 9.55269 10.8765 10.0005 9.74931 10.0005H4.74931C4.35035 10.0001 3.95625 9.91289 3.59435 9.74494C3.23246 9.577 2.91144 9.33232 2.65357 9.02789C2.3957 8.72347 2.20716 8.36657 2.10103 7.98198C1.99491 7.59739 1.97373 7.19432 2.03898 6.80072C2.10422 6.40713 2.25433 6.03245 2.47888 5.70267C2.70343 5.3729 2.99704 5.09593 3.33935 4.891C3.68166 4.68606 4.06445 4.55806 4.46118 4.51587C4.85791 4.47369 5.25907 4.51833 5.63681 4.64671V4.65358C5.90386 3.65714 6.52392 2.79169 7.38155 2.21838C8.23918 1.64506 9.27593 1.40295 10.2988 1.53711C11.3216 1.67128 12.2609 2.17257 12.9416 2.94767C13.6224 3.72277 13.9983 4.71885 13.9993 5.75046Z" fill="#2E90FA"/>
<path d="M9.75 1C8.78841 1.0001 7.84938 1.29128 7.05643 1.83523C6.26349 2.37918 5.65377 3.15042 5.3075 4.0475C5.12333 4.01605 4.93684 4.00016 4.75 4C3.88805 4 3.0614 4.34241 2.4519 4.9519C1.84241 5.5614 1.5 6.38805 1.5 7.25C1.5 8.11195 1.84241 8.9386 2.4519 9.5481C3.0614 10.1576 3.88805 10.5 4.75 10.5H7.11688L6.07125 12.2425C6.02566 12.3184 6.00104 12.405 5.99989 12.4935C5.99874 12.582 6.02111 12.6693 6.06471 12.7463C6.10831 12.8233 6.17159 12.8874 6.24806 12.932C6.32454 12.9766 6.41148 13 6.5 13H8.11687L7.07125 14.7425C7.03743 14.7988 7.01504 14.8612 7.00535 14.9262C6.99565 14.9911 6.99885 15.0574 7.01475 15.1211C7.03065 15.1848 7.05895 15.2448 7.09803 15.2976C7.1371 15.3504 7.1862 15.3949 7.2425 15.4288C7.35621 15.497 7.49239 15.5174 7.62109 15.4853C7.68482 15.4694 7.74478 15.4411 7.79757 15.402C7.85036 15.3629 7.89493 15.3138 7.92875 15.2575L9.42875 12.7575C9.47434 12.6816 9.49896 12.595 9.50011 12.5065C9.50126 12.418 9.47889 12.3307 9.43529 12.2537C9.39169 12.1767 9.32841 12.1126 9.25194 12.068C9.17546 12.0234 9.08852 12 9 12H7.38312L8.28312 10.5H9.75C11.0098 10.5 12.218 9.99955 13.1088 9.10876C13.9996 8.21796 14.5 7.00978 14.5 5.75C14.5 4.49022 13.9996 3.28204 13.1088 2.39124C12.218 1.50044 11.0098 1 9.75 1ZM9.75 9.5H4.75C4.15326 9.5 3.58097 9.26295 3.15901 8.84099C2.73705 8.41903 2.5 7.84674 2.5 7.25C2.5 6.65326 2.73705 6.08097 3.15901 5.65901C3.58097 5.23705 4.15326 5 4.75 5C4.84989 5.00019 4.94967 5.00666 5.04875 5.01937C5.02542 5.16812 5.00938 5.31875 5.00063 5.47125C4.993 5.60386 5.03837 5.73406 5.12674 5.83322C5.21512 5.93238 5.33927 5.99237 5.47188 6C5.60448 6.00763 5.73469 5.96226 5.83385 5.87388C5.93301 5.78551 5.993 5.66136 6.00063 5.52875C6.0431 4.79691 6.29894 4.09352 6.73656 3.50539C7.17418 2.91727 7.77443 2.47016 8.46322 2.21924C9.15201 1.96832 9.89921 1.92458 10.6126 2.09341C11.3259 2.26224 11.9743 2.63625 12.4775 3.16929C12.9808 3.70233 13.3169 4.37106 13.4445 5.09295C13.5721 5.81484 13.4855 6.55828 13.1955 7.23153C12.9054 7.90478 12.4246 8.47836 11.8123 8.88148C11.2 9.2846 10.4831 9.49962 9.75 9.5Z" fill="#2E90FA"/>
</svg>
