<svg width="14" height="14" viewBox="0 0 14 14" fill="none" xmlns="http://www.w3.org/2000/svg">
<path opacity="0.2" d="M7 1.3125C5.83968 1.3125 4.72688 1.77344 3.90641 2.59391C3.08594 3.41438 2.625 4.52718 2.625 5.6875C2.625 9.625 7 12.6875 7 12.6875C7 12.6875 11.375 9.625 11.375 5.6875C11.375 4.52718 10.9141 3.41438 10.0936 2.59391C9.27312 1.77344 8.16032 1.3125 7 1.3125ZM7 7.4375C6.65388 7.4375 6.31554 7.33486 6.02775 7.14257C5.73997 6.95028 5.51566 6.67697 5.38321 6.3572C5.25076 6.03743 5.2161 5.68556 5.28363 5.34609C5.35115 5.00663 5.51782 4.6948 5.76256 4.45006C6.0073 4.20532 6.31913 4.03865 6.65859 3.97113C6.99806 3.9036 7.34993 3.93826 7.6697 4.07071C7.98947 4.20316 8.26278 4.42747 8.45507 4.71525C8.64736 5.00304 8.75 5.34138 8.75 5.6875C8.75 6.15163 8.56563 6.59675 8.23744 6.92494C7.90925 7.25313 7.46413 7.4375 7 7.4375Z" fill="#9AA0AA"/>
<path d="M7 3.5C6.56735 3.5 6.14442 3.62829 5.78469 3.86866C5.42496 4.10903 5.14458 4.45067 4.97901 4.85038C4.81345 5.25009 4.77013 5.68993 4.85453 6.11426C4.93894 6.53859 5.14728 6.92837 5.4532 7.2343C5.75913 7.54022 6.14891 7.74856 6.57324 7.83297C6.99757 7.91737 7.43741 7.87405 7.83712 7.70849C8.23683 7.54292 8.57847 7.26254 8.81884 6.90281C9.05921 6.54308 9.1875 6.12015 9.1875 5.6875C9.1875 5.10734 8.95703 4.55094 8.5468 4.1407C8.13656 3.73047 7.58016 3.5 7 3.5ZM7 7C6.74041 7 6.48665 6.92302 6.27081 6.7788C6.05497 6.63458 5.88675 6.4296 5.78741 6.18977C5.68807 5.94994 5.66208 5.68604 5.71272 5.43144C5.76336 5.17684 5.88837 4.94298 6.07192 4.75942C6.25548 4.57587 6.48934 4.45086 6.74394 4.40022C6.99854 4.34958 7.26244 4.37557 7.50227 4.47491C7.7421 4.57425 7.94708 4.74247 8.0913 4.95831C8.23552 5.17415 8.3125 5.42791 8.3125 5.6875C8.3125 6.0356 8.17422 6.36944 7.92808 6.61558C7.68194 6.86172 7.3481 7 7 7ZM7 0.875C5.72409 0.876447 4.50085 1.38394 3.59865 2.28615C2.69644 3.18835 2.18895 4.41159 2.1875 5.6875C2.1875 7.40469 2.98102 9.22469 4.48438 10.9512C5.15989 11.7313 5.92017 12.4338 6.75117 13.0457C6.82473 13.0972 6.91237 13.1249 7.00219 13.1249C7.092 13.1249 7.17964 13.0972 7.2532 13.0457C8.08268 12.4336 8.84148 11.7311 9.51562 10.9512C11.0168 9.22469 11.8125 7.40469 11.8125 5.6875C11.8111 4.41159 11.3036 3.18835 10.4014 2.28615C9.49915 1.38394 8.27591 0.876447 7 0.875ZM7 12.1406C6.09602 11.4297 3.0625 8.81836 3.0625 5.6875C3.0625 4.64321 3.47734 3.64169 4.21577 2.90327C4.95419 2.16484 5.95571 1.75 7 1.75C8.04429 1.75 9.04581 2.16484 9.78423 2.90327C10.5227 3.64169 10.9375 4.64321 10.9375 5.6875C10.9375 8.81727 7.90398 11.4297 7 12.1406Z" fill="#9AA0AA"/>
</svg>
