<svg width="5" height="5" viewBox="0 0 5 5" fill="none" xmlns="http://www.w3.org/2000/svg">
<path d="M2.15167 4.34377C1.54101 4.34377 1.02901 4.13177 0.615672 3.70777C0.205005 3.2811 -0.000328109 2.7691 -0.000328109 2.17177C-0.000328109 1.57443 0.205005 1.06377 0.615672 0.639766C1.02901 0.213099 1.54101 -0.000234604 2.15167 -0.000234604C2.75967 -0.000234604 3.27034 0.213099 3.68367 0.639766C4.09967 1.06377 4.30767 1.57443 4.30767 2.17177C4.30767 2.7691 4.09967 3.2811 3.68367 3.70777C3.27034 4.13177 2.75967 4.34377 2.15167 4.34377ZM2.15167 3.76777C2.57567 3.76777 2.93967 3.61577 3.24367 3.31177C3.55034 3.00777 3.70367 2.62777 3.70367 2.17177C3.70367 1.7131 3.55034 1.3331 3.24367 1.03177C2.93701 0.727765 2.57301 0.575765 2.15167 0.575765C1.72767 0.575765 1.36367 0.727765 1.05967 1.03177C0.755672 1.3331 0.603672 1.7131 0.603672 2.17177C0.603672 2.62777 0.755672 3.00777 1.05967 3.31177C1.36367 3.61577 1.72767 3.76777 2.15167 3.76777Z" fill="#D0D5DD"/>
</svg>
