<svg width="16" height="16" viewBox="0 0 16 16" fill="none" xmlns="http://www.w3.org/2000/svg">
<path opacity="0.2" d="M13.5 2.5V13.5C13.5 13.7652 13.3946 14.0196 13.2071 14.2071C13.0196 14.3946 12.7652 14.5 12.5 14.5H3.5C3.23478 14.5 2.98043 14.3946 2.79289 14.2071C2.60536 14.0196 2.5 13.7652 2.5 13.5V2.5C2.5 2.23478 2.60536 1.98043 2.79289 1.79289C2.98043 1.60536 3.23478 1.5 3.5 1.5H12.5C12.7652 1.5 13.0196 1.60536 13.2071 1.79289C13.3946 1.98043 13.5 2.23478 13.5 2.5Z" fill="#2E90FA"/>
<path d="M14.5 2.5C14.5 2.63261 14.4473 2.75979 14.3536 2.85355C14.2598 2.94732 14.1326 3 14 3H3.5C3.36739 3 3.24021 2.94732 3.14645 2.85355C3.05268 2.75979 3 2.63261 3 2.5C3 2.36739 3.05268 2.24021 3.14645 2.14645C3.24021 2.05268 3.36739 2 3.5 2H14C14.1326 2 14.2598 2.05268 14.3536 2.14645C14.4473 2.24021 14.5 2.36739 14.5 2.5ZM11.5 4.5C11.5 4.36739 11.4473 4.24021 11.3536 4.14645C11.2598 4.05268 11.1326 4 11 4H2C1.86739 4 1.74021 4.05268 1.64645 4.14645C1.55268 4.24021 1.5 4.36739 1.5 4.5C1.5 4.63261 1.55268 4.75979 1.64645 4.85355C1.74021 4.94732 1.86739 5 2 5H11C11.1326 5 11.2598 4.94732 11.3536 4.85355C11.4473 4.75979 11.5 4.63261 11.5 4.5ZM10.5 6.5C10.5 6.36739 10.4473 6.24021 10.3536 6.14645C10.2598 6.05268 10.1326 6 10 6H3.5C3.36739 6 3.24021 6.05268 3.14645 6.14645C3.05268 6.24021 3 6.36739 3 6.5C3 6.63261 3.05268 6.75979 3.14645 6.85355C3.24021 6.94732 3.36739 7 3.5 7H10C10.1326 7 10.2598 6.94732 10.3536 6.85355C10.4473 6.75979 10.5 6.63261 10.5 6.5ZM11.5 8.5C11.5 8.36739 11.4473 8.24021 11.3536 8.14645C11.2598 8.05268 11.1326 8 11 8H5.5C5.36739 8 5.24021 8.05268 5.14645 8.14645C5.05268 8.24021 5 8.36739 5 8.5C5 8.63261 5.05268 8.75979 5.14645 8.85355C5.24021 8.94732 5.36739 9 5.5 9H11C11.1326 9 11.2598 8.94732 11.3536 8.85355C11.4473 8.75979 11.5 8.63261 11.5 8.5ZM11.5 10H7.5C7.36739 10 7.24021 10.0527 7.14645 10.1464C7.05268 10.2402 7 10.3674 7 10.5C7 10.6326 7.05268 10.7598 7.14645 10.8536C7.24021 10.9473 7.36739 11 7.5 11H11.5C11.6326 11 11.7598 10.9473 11.8536 10.8536C11.9473 10.7598 12 10.6326 12 10.5C12 10.3674 11.9473 10.2402 11.8536 10.1464C11.7598 10.0527 11.6326 10 11.5 10ZM10 12H8C7.86739 12 7.74021 12.0527 7.64645 12.1464C7.55268 12.2402 7.5 12.3674 7.5 12.5C7.5 12.6326 7.55268 12.7598 7.64645 12.8536C7.74021 12.9473 7.86739 13 8 13H10C10.1326 13 10.2598 12.9473 10.3536 12.8536C10.4473 12.7598 10.5 12.6326 10.5 12.5C10.5 12.3674 10.4473 12.2402 10.3536 12.1464C10.2598 12.0527 10.1326 12 10 12ZM8 14H7C6.86739 14 6.74021 14.0527 6.64645 14.1464C6.55268 14.2402 6.5 14.3674 6.5 14.5C6.5 14.6326 6.55268 14.7598 6.64645 14.8536C6.74021 14.9473 6.86739 15 7 15H8C8.13261 15 8.25979 14.9473 8.35355 14.8536C8.44732 14.7598 8.5 14.6326 8.5 14.5C8.5 14.3674 8.44732 14.2402 8.35355 14.1464C8.25979 14.0527 8.13261 14 8 14Z" fill="#2E90FA"/>
</svg>
