<svg width="32" height="32" viewBox="0 0 32 32" fill="none" xmlns="http://www.w3.org/2000/svg">
<rect width="32" height="32" rx="16" fill="#FFFBE6"/>
<path d="M15.2499 19.25C15.2499 19.4489 15.3289 19.6397 15.4696 19.7803C15.6102 19.921 15.801 20 15.9999 20C16.1988 20 16.3896 19.921 16.5302 19.7803C16.6709 19.6397 16.7499 19.4489 16.7499 19.25C16.7499 19.0511 16.6709 18.8603 16.5302 18.7197C16.3896 18.579 16.1988 18.5 15.9999 18.5C15.801 18.5 15.6102 18.579 15.4696 18.7197C15.3289 18.8603 15.2499 19.0511 15.2499 19.25ZM15.4999 14.5V17.375C15.4999 17.4437 15.5562 17.5 15.6249 17.5H16.3749C16.4437 17.5 16.4999 17.4437 16.4999 17.375V14.5C16.4999 14.4313 16.4437 14.375 16.3749 14.375H15.6249C15.5562 14.375 15.4999 14.4313 15.4999 14.5ZM22.9327 21.375L16.4327 10.125C16.3358 9.95781 16.1687 9.875 15.9999 9.875C15.8312 9.875 15.6624 9.95781 15.5671 10.125L9.0671 21.375C8.87491 21.7094 9.11553 22.125 9.49991 22.125H22.4999C22.8843 22.125 23.1249 21.7094 22.9327 21.375ZM10.6905 20.9391L15.9999 11.7484L21.3093 20.9391H10.6905Z" fill="#FAAD14"/>
</svg>
