<svg width="14" height="14" viewBox="0 0 14 14" fill="none" xmlns="http://www.w3.org/2000/svg">
<path d="M11.779 8.91769C11.7459 8.99764 11.6898 9.06598 11.6179 9.11406C11.546 9.16215 11.4614 9.18783 11.3749 9.18784H2.62486C2.53828 9.18791 2.45362 9.16229 2.38161 9.11422C2.3096 9.06615 2.25348 8.9978 2.22033 8.91781C2.18719 8.83783 2.17853 8.74981 2.19544 8.6649C2.21235 8.57999 2.25407 8.502 2.31533 8.44081L6.69032 4.06581C6.73096 4.02514 6.77921 3.99287 6.83232 3.97085C6.88543 3.94883 6.94236 3.9375 6.99986 3.9375C7.05735 3.9375 7.11428 3.94883 7.16739 3.97085C7.2205 3.99287 7.26876 4.02514 7.30939 4.06581L11.6844 8.44081C11.7456 8.50203 11.7872 8.58001 11.804 8.6649C11.8209 8.74978 11.8122 8.83776 11.779 8.91769Z" fill="#0B1117"/>
</svg>
