<svg width="20" height="20" viewBox="0 0 20 20" fill="none" xmlns="http://www.w3.org/2000/svg">
<path opacity="0.2" d="M18.5673 6.66045L8.53604 16.6917C8.47799 16.7498 8.40906 16.7959 8.33319 16.8274C8.25731 16.8588 8.17599 16.875 8.09385 16.875C8.01172 16.875 7.93039 16.8588 7.85451 16.8274C7.77864 16.7959 7.70971 16.7498 7.65166 16.6917L2.05791 11.0667C1.94079 10.9495 1.875 10.7906 1.875 10.6249C1.875 10.4592 1.94079 10.3003 2.05791 10.1831L3.93291 8.30811C3.99096 8.25 4.05989 8.2039 4.13576 8.17245C4.21164 8.14099 4.29297 8.1248 4.3751 8.1248C4.45724 8.1248 4.53856 8.14099 4.61444 8.17245C4.69031 8.2039 4.75924 8.25 4.81729 8.30811L8.1251 11.5175L15.8079 3.93233C15.866 3.87422 15.9349 3.82812 16.0108 3.79667C16.0866 3.76521 16.168 3.74902 16.2501 3.74902C16.3322 3.74902 16.4136 3.76521 16.4894 3.79667C16.5653 3.82812 16.6342 3.87422 16.6923 3.93233L18.5673 5.77608C18.6254 5.83412 18.6715 5.90305 18.703 5.97893C18.7344 6.0548 18.7506 6.13613 18.7506 6.21827C18.7506 6.3004 18.7344 6.38173 18.703 6.4576C18.6715 6.53348 18.6254 6.60241 18.5673 6.66045Z" fill="currentColor"/>
<path d="M19.0061 5.33126L17.1311 3.49063C16.8968 3.25711 16.5794 3.12598 16.2486 3.12598C15.9178 3.12598 15.6005 3.25711 15.3662 3.49063L8.12481 10.643L5.2584 7.86173C5.02362 7.62896 4.70618 7.49868 4.37557 7.49941C4.04495 7.50014 3.72809 7.63182 3.49434 7.86563L1.61934 9.74063C1.38534 9.975 1.25391 10.2926 1.25391 10.6238C1.25391 10.955 1.38534 11.2727 1.61934 11.507L7.21465 17.132C7.33073 17.2481 7.46854 17.3402 7.62022 17.4031C7.77189 17.4659 7.93446 17.4983 8.09864 17.4983C8.26282 17.4983 8.42538 17.4659 8.57706 17.4031C8.72874 17.3402 8.86655 17.2481 8.98262 17.132L19.01 7.10235C19.1263 6.98596 19.2185 6.84775 19.2813 6.69565C19.344 6.54354 19.3762 6.38054 19.3758 6.21599C19.3754 6.05145 19.3426 5.88859 19.2791 5.73676C19.2157 5.58494 19.1229 5.44714 19.0061 5.33126ZM8.09512 16.25L2.49981 10.625L4.37481 8.75001C4.37709 8.75189 4.37918 8.75398 4.38106 8.75626L7.68966 11.9664C7.80645 12.0807 7.96336 12.1447 8.12676 12.1447C8.29017 12.1447 8.44708 12.0807 8.56387 11.9664L16.2545 4.37501L18.1248 6.21876L8.09512 16.25Z" fill="currentColor"/>
</svg>
