<svg width="18" height="18" viewBox="0 0 18 18" fill="none" xmlns="http://www.w3.org/2000/svg">
<path d="M15.1875 2.95312H2.8125C2.55143 2.95313 2.30105 3.05684 2.11644 3.24144C1.93184 3.42605 1.82813 3.67643 1.82812 3.9375V14.0625C1.82812 14.3236 1.93184 14.574 2.11644 14.7586C2.30105 14.9432 2.55143 15.0469 2.8125 15.0469H15.1875C15.4486 15.0469 15.699 14.9432 15.8836 14.7586C16.0682 14.574 16.1719 14.3236 16.1719 14.0625V3.9375C16.1719 3.67643 16.0682 3.42605 15.8836 3.24144C15.699 3.05684 15.4486 2.95313 15.1875 2.95312ZM15.3281 14.0625C15.3281 14.0998 15.3133 14.1356 15.2869 14.1619C15.2606 14.1883 15.2248 14.2031 15.1875 14.2031H2.8125C2.7752 14.2031 2.73944 14.1883 2.71306 14.1619C2.68669 14.1356 2.67188 14.0998 2.67188 14.0625V3.9375C2.67188 3.9002 2.68669 3.86444 2.71306 3.83806C2.73944 3.81169 2.7752 3.79688 2.8125 3.79688H15.1875C15.2248 3.79688 15.2606 3.81169 15.2869 3.83806C15.3133 3.86444 15.3281 3.9002 15.3281 3.9375V14.0625ZM12.7969 6.75C12.7969 6.86189 12.7524 6.96919 12.6733 7.04831C12.5942 7.12743 12.4869 7.17188 12.375 7.17188H5.625C5.51311 7.17188 5.40581 7.12743 5.32669 7.04831C5.24757 6.96919 5.20312 6.86189 5.20312 6.75C5.20312 6.63811 5.24757 6.53081 5.32669 6.45169C5.40581 6.37257 5.51311 6.32812 5.625 6.32812H12.375C12.4869 6.32812 12.5942 6.37257 12.6733 6.45169C12.7524 6.53081 12.7969 6.63811 12.7969 6.75ZM12.7969 9C12.7969 9.11189 12.7524 9.21919 12.6733 9.29831C12.5942 9.37743 12.4869 9.42188 12.375 9.42188H5.625C5.51311 9.42188 5.40581 9.37743 5.32669 9.29831C5.24757 9.21919 5.20312 9.11189 5.20312 9C5.20312 8.88811 5.24757 8.78081 5.32669 8.70169C5.40581 8.62257 5.51311 8.57812 5.625 8.57812H12.375C12.4869 8.57812 12.5942 8.62257 12.6733 8.70169C12.7524 8.78081 12.7969 8.88811 12.7969 9ZM12.7969 11.25C12.7969 11.3619 12.7524 11.4692 12.6733 11.5483C12.5942 11.6274 12.4869 11.6719 12.375 11.6719H5.625C5.51311 11.6719 5.40581 11.6274 5.32669 11.5483C5.24757 11.4692 5.20312 11.3619 5.20312 11.25C5.20312 11.1381 5.24757 11.0308 5.32669 10.9517C5.40581 10.8726 5.51311 10.8281 5.625 10.8281H12.375C12.4869 10.8281 12.5942 10.8726 12.6733 10.9517C12.7524 11.0308 12.7969 11.1381 12.7969 11.25Z" fill="#0B1117"/>
</svg>
