<svg width="68" height="68" viewBox="0 0 68 68" fill="none" xmlns="http://www.w3.org/2000/svg">
<rect x="1" y="1" width="66" height="66" rx="33" fill="#CFD7E2"/>
<rect x="1" y="1" width="66" height="66" rx="33" stroke="#EDF1F7" stroke-width="2"/>
<path d="M44.8272 41.8625C44.2377 40.4662 43.3823 39.1978 42.3085 38.1281C41.238 37.0553 39.9698 36.2 38.5741 35.6094C38.5616 35.6031 38.5491 35.6 38.5366 35.5938C40.4835 34.1875 41.7491 31.8969 41.7491 29.3125C41.7491 25.0312 38.2804 21.5625 33.9991 21.5625C29.7179 21.5625 26.2491 25.0312 26.2491 29.3125C26.2491 31.8969 27.5147 34.1875 29.4616 35.5969C29.4491 35.6031 29.4366 35.6062 29.4241 35.6125C28.0241 36.2031 26.7679 37.05 25.6897 38.1313C24.6169 39.2018 23.7616 40.4699 23.171 41.8656C22.5907 43.232 22.2778 44.697 22.2491 46.1812C22.2483 46.2146 22.2541 46.2478 22.2663 46.2788C22.2785 46.3099 22.2968 46.3382 22.3201 46.3621C22.3434 46.386 22.3712 46.4049 22.402 46.4179C22.4327 46.4308 22.4657 46.4375 22.4991 46.4375H24.3741C24.5116 46.4375 24.621 46.3281 24.6241 46.1938C24.6866 43.7812 25.6554 41.5219 27.3679 39.8094C29.1397 38.0375 31.4929 37.0625 33.9991 37.0625C36.5054 37.0625 38.8585 38.0375 40.6304 39.8094C42.3429 41.5219 43.3116 43.7812 43.3741 46.1938C43.3772 46.3313 43.4866 46.4375 43.6241 46.4375H45.4991C45.5325 46.4375 45.5655 46.4308 45.5962 46.4179C45.627 46.4049 45.6548 46.386 45.6781 46.3621C45.7014 46.3382 45.7197 46.3099 45.7319 46.2788C45.7441 46.2478 45.7499 46.2146 45.7491 46.1812C45.7179 44.6875 45.4085 43.2344 44.8272 41.8625ZM33.9991 34.6875C32.5647 34.6875 31.2147 34.1281 30.1991 33.1125C29.1835 32.0969 28.6241 30.7469 28.6241 29.3125C28.6241 27.8781 29.1835 26.5281 30.1991 25.5125C31.2147 24.4969 32.5647 23.9375 33.9991 23.9375C35.4335 23.9375 36.7835 24.4969 37.7991 25.5125C38.8147 26.5281 39.3741 27.8781 39.3741 29.3125C39.3741 30.7469 38.8147 32.0969 37.7991 33.1125C36.7835 34.1281 35.4335 34.6875 33.9991 34.6875Z" fill="#F7FAFD"/>
</svg>
