<svg width="68" height="68" viewBox="0 0 68 68" fill="none" xmlns="http://www.w3.org/2000/svg">
<g clip-path="url(#clip0_180_75383)">
<g clip-path="url(#clip1_180_75383)">
<rect x="2" y="2" width="64" height="64" rx="32" fill="#F3F4F6"/>
<rect width="64" height="64" transform="translate(2 2)" fill="#F3F4F6"/>
<path d="M46.8648 44.5C44.9611 41.2087 42.0273 38.8487 38.6036 37.73C40.2971 36.7218 41.6129 35.1856 42.3489 33.3572C43.0848 31.5289 43.2002 29.5095 42.6774 27.6092C42.1546 25.7089 41.0224 24.0327 39.4548 22.8381C37.8872 21.6436 35.9708 20.9966 33.9999 20.9966C32.0289 20.9966 30.1125 21.6436 28.5449 22.8381C26.9773 24.0327 25.8451 25.7089 25.3223 27.6092C24.7995 29.5095 24.9149 31.5289 25.6508 33.3572C26.3868 35.1856 27.7026 36.7218 29.3961 37.73C25.9724 38.8475 23.0386 41.2075 21.1349 44.5C21.065 44.6138 21.0187 44.7405 20.9987 44.8725C20.9786 45.0045 20.9852 45.1392 21.018 45.2687C21.0508 45.3981 21.1093 45.5197 21.1898 45.6262C21.2704 45.7326 21.3715 45.8219 21.4871 45.8887C21.6028 45.9555 21.7306 45.9985 21.8631 46.015C21.9956 46.0316 22.1301 46.0215 22.2586 45.9853C22.3872 45.949 22.5071 45.8874 22.6115 45.8041C22.7158 45.7207 22.8024 45.6173 22.8661 45.5C25.2211 41.43 29.3836 39 33.9999 39C38.6161 39 42.7786 41.43 45.1336 45.5C45.1973 45.6173 45.2839 45.7207 45.3882 45.8041C45.4926 45.8874 45.6125 45.949 45.7411 45.9853C45.8696 46.0215 46.0041 46.0316 46.1366 46.015C46.2691 45.9985 46.3969 45.9555 46.5126 45.8887C46.6282 45.8219 46.7293 45.7326 46.8099 45.6262C46.8904 45.5197 46.9489 45.3981 46.9817 45.2687C47.0145 45.1392 47.0211 45.0045 47.001 44.8725C46.981 44.7405 46.9347 44.6138 46.8648 44.5ZM26.9999 30C26.9999 28.6155 27.4104 27.2621 28.1796 26.111C28.9487 24.9598 30.042 24.0626 31.3211 23.5328C32.6001 23.003 34.0076 22.8644 35.3655 23.1345C36.7234 23.4046 37.9706 24.0713 38.9496 25.0502C39.9286 26.0292 40.5953 27.2765 40.8653 28.6344C41.1354 29.9922 40.9968 31.3997 40.467 32.6788C39.9372 33.9578 39.04 35.0511 37.8888 35.8203C36.7377 36.5894 35.3843 37 33.9999 37C32.1439 36.998 30.3646 36.2599 29.0523 34.9475C27.74 33.6352 27.0018 31.8559 26.9999 30Z" fill="#6B7280"/>
</g>
</g>
<rect x="1" y="1" width="66" height="66" rx="33" stroke="#E6E8EC" stroke-width="2"/>
<defs>
<clipPath id="clip0_180_75383">
<rect x="2" y="2" width="64" height="64" rx="32" fill="white"/>
</clipPath>
<clipPath id="clip1_180_75383">
<rect x="2" y="2" width="64" height="64" rx="32" fill="white"/>
</clipPath>
</defs>
</svg>
