<svg width="40" height="40" viewBox="0 0 40 40" fill="none" xmlns="http://www.w3.org/2000/svg">
<g clip-path="url(#clip0_355_5743)">
<rect width="40" height="40" rx="20" fill="#F3F4F6"/>
<rect width="40" height="40" fill="#F3F4F6"/>
<path d="M29.6484 27.8746C28.2206 25.4062 26.0203 23.6362 23.4525 22.7971C24.7226 22.041 25.7094 20.8888 26.2614 19.5176C26.8134 18.1463 26.8999 16.6317 26.5078 15.2065C26.1157 13.7813 25.2666 12.5242 24.0909 11.6282C22.9151 10.7323 21.4778 10.2471 19.9996 10.2471C18.5215 10.2471 17.0841 10.7323 15.9084 11.6282C14.7327 12.5242 13.8836 13.7813 13.4915 15.2065C13.0993 16.6317 13.1859 18.1463 13.7379 19.5176C14.2898 20.8888 15.2767 22.041 16.5468 22.7971C13.979 23.6352 11.7787 25.4052 10.3509 27.8746C10.2985 27.96 10.2638 28.055 10.2488 28.154C10.2337 28.253 10.2386 28.3541 10.2633 28.4511C10.2879 28.5482 10.3317 28.6394 10.3921 28.7192C10.4526 28.7991 10.5284 28.8661 10.6151 28.9162C10.7018 28.9663 10.7977 28.9985 10.8971 29.0109C10.9965 29.0234 11.0973 29.0158 11.1937 28.9886C11.2901 28.9614 11.3801 28.9152 11.4584 28.8527C11.5366 28.7902 11.6015 28.7126 11.6493 28.6246C13.4156 25.5721 16.5375 23.7496 19.9996 23.7496C23.4618 23.7496 26.5837 25.5721 28.35 28.6246C28.3977 28.7126 28.4627 28.7902 28.5409 28.8527C28.6192 28.9152 28.7092 28.9614 28.8056 28.9886C28.902 29.0158 29.0028 29.0234 29.1022 29.0109C29.2016 28.9985 29.2975 28.9663 29.3842 28.9162C29.4709 28.8661 29.5467 28.7991 29.6072 28.7192C29.6676 28.6394 29.7114 28.5482 29.736 28.4511C29.7607 28.3541 29.7656 28.253 29.7505 28.154C29.7355 28.055 29.7008 27.96 29.6484 27.8746ZM14.7496 16.9996C14.7496 15.9613 15.0576 14.9462 15.6344 14.0829C16.2113 13.2195 17.0312 12.5466 17.9906 12.1493C18.9499 11.7519 20.0055 11.6479 21.0239 11.8505C22.0423 12.0531 22.9777 12.5531 23.712 13.2873C24.4462 14.0215 24.9462 14.957 25.1488 15.9754C25.3513 16.9938 25.2474 18.0494 24.85 19.0087C24.4527 19.968 23.7797 20.788 22.9164 21.3648C22.053 21.9417 21.038 22.2496 19.9996 22.2496C18.6077 22.2481 17.2732 21.6945 16.289 20.7103C15.3047 19.726 14.7511 18.3916 14.7496 16.9996Z" fill="#6B7280"/>
</g>
<defs>
<clipPath id="clip0_355_5743">
<rect width="40" height="40" rx="20" fill="white"/>
</clipPath>
</defs>
</svg>
