<svg width="18" height="18" viewBox="0 0 18 18" fill="none" xmlns="http://www.w3.org/2000/svg">
<path d="M15.75 14.2031H15.0469V2.8125C15.0469 2.70061 15.0024 2.59331 14.9233 2.51419C14.8442 2.43507 14.7369 2.39063 14.625 2.39062H10.6875C10.5756 2.39063 10.4683 2.43507 10.3892 2.51419C10.3101 2.59331 10.2656 2.70061 10.2656 2.8125V5.76562H6.75C6.63811 5.76562 6.53081 5.81007 6.45169 5.88919C6.37257 5.96831 6.32812 6.07561 6.32812 6.1875V9.14062H3.375C3.26311 9.14062 3.15581 9.18507 3.07669 9.26419C2.99757 9.34331 2.95313 9.45061 2.95312 9.5625V14.2031H2.25C2.13811 14.2031 2.03081 14.2476 1.95169 14.3267C1.87257 14.4058 1.82812 14.5131 1.82812 14.625C1.82812 14.7369 1.87257 14.8442 1.95169 14.9233C2.03081 15.0024 2.13811 15.0469 2.25 15.0469H15.75C15.8619 15.0469 15.9692 15.0024 16.0483 14.9233C16.1274 14.8442 16.1719 14.7369 16.1719 14.625C16.1719 14.5131 16.1274 14.4058 16.0483 14.3267C15.9692 14.2476 15.8619 14.2031 15.75 14.2031ZM11.1094 3.23438H14.2031V14.2031H11.1094V3.23438ZM7.17188 6.60938H10.2656V14.2031H7.17188V6.60938ZM3.79688 9.98438H6.32812V14.2031H3.79688V9.98438Z" fill="#0B1117"/>
</svg>
