<svg width="32" height="32" viewBox="0 0 32 32" fill="none" xmlns="http://www.w3.org/2000/svg">
<rect width="32" height="32" rx="16" fill="#EDF1F7"/>
<g clip-path="url(#clip0_11912_14067)">
<path d="M15.4209 10.9492C16.7412 9.63047 18.7508 9.42285 20.2852 10.3291C20.3801 10.3855 20.4116 10.5074 20.3555 10.6025C20.3461 10.6165 20.3367 10.6292 20.3242 10.6416L17.6299 13.335L18.6914 14.3955L21.3828 11.7041C21.4609 11.626 21.5879 11.626 21.666 11.7041C21.6784 11.715 21.6895 11.7292 21.6973 11.7432C22.6033 13.2774 22.3956 15.2862 21.0771 16.6064C20.0287 17.6549 18.5439 18.0008 17.208 17.6445L12.6318 22.2207C12.5865 22.2676 12.5084 22.2643 12.46 22.2158L9.80859 19.5645C9.76016 19.516 9.75684 19.4395 9.80371 19.3926L14.3818 14.8145C14.0272 13.4801 14.3741 11.9961 15.4209 10.9492ZM18.4678 10.9082C18.0547 10.8774 17.6393 10.9358 17.251 11.0801C16.8628 11.2243 16.5105 11.4512 16.2178 11.7441C15.31 12.652 15.1346 14.0148 15.6924 15.0977L14.8672 15.9229C14.8662 15.9227 14.8662 15.9212 14.8662 15.9209L11.2705 19.5166L12.5078 20.7539L16.7891 16.4707L16.791 16.4727L16.9287 16.335C18.0115 16.8927 19.3735 16.7173 20.2812 15.8096C20.8937 15.1986 21.1769 14.3709 21.1191 13.5615L19.0439 15.6367C18.9501 15.7303 18.823 15.7832 18.6904 15.7832C18.5577 15.7832 18.4298 15.7305 18.3359 15.6367L16.3906 13.6914C16.2969 13.5975 16.2441 13.4696 16.2441 13.3369C16.2442 13.2044 16.2971 13.0772 16.3906 12.9834L18.4678 10.9082Z" fill="black" fill-opacity="0.88"/>
</g>
<defs>
<clipPath id="clip0_11912_14067">
<rect width="16" height="16" fill="white" transform="translate(8 8)"/>
</clipPath>
</defs>
</svg>
