<svg width="32" height="32" viewBox="0 0 32 32" fill="none" xmlns="http://www.w3.org/2000/svg">
<rect width="32" height="32" rx="16" fill="#EDF1F7"/>
<g clip-path="url(#clip0_11912_14043)">
<path d="M15.2502 16.5C15.3876 16.5001 15.5002 16.6126 15.5002 16.75V21.5C15.5002 21.6374 15.3876 21.7499 15.2502 21.75H10.5002C10.3628 21.75 10.2503 21.6375 10.2502 21.5V16.75C10.2502 16.6125 10.3627 16.5 10.5002 16.5H15.2502ZM21.5002 16.5C21.6376 16.5001 21.7502 16.6126 21.7502 16.75V21.5C21.7502 21.6374 21.6376 21.7499 21.5002 21.75H16.7502C16.6128 21.75 16.5003 21.6375 16.5002 21.5V16.75C16.5002 16.6125 16.6127 16.5 16.7502 16.5H21.5002ZM11.3127 17.5625V20.6875H14.4377V17.5625H11.3127ZM17.5627 17.5625V20.6875H20.6877V17.5625H17.5627ZM15.2502 10.25C15.3876 10.2501 15.5002 10.3626 15.5002 10.5V15.25C15.5002 15.3874 15.3876 15.4999 15.2502 15.5H10.5002C10.3628 15.5 10.2503 15.3875 10.2502 15.25V10.5C10.2502 10.3625 10.3627 10.25 10.5002 10.25H15.2502ZM21.5002 10.25C21.6376 10.2501 21.7502 10.3626 21.7502 10.5V15.25C21.7502 15.3874 21.6376 15.4999 21.5002 15.5H16.7502C16.6128 15.5 16.5003 15.3875 16.5002 15.25V10.5C16.5002 10.3625 16.6127 10.25 16.7502 10.25H21.5002ZM11.3127 11.3125V14.4375H14.4377V11.3125H11.3127ZM17.5627 11.3125V14.4375H20.6877V11.3125H17.5627Z" fill="black" fill-opacity="0.88"/>
</g>
<defs>
<clipPath id="clip0_11912_14043">
<rect width="16" height="16" fill="white" transform="translate(8 8)"/>
</clipPath>
</defs>
</svg>
