<svg width="18" height="18" viewBox="0 0 18 18" fill="none" xmlns="http://www.w3.org/2000/svg">
<path d="M17.009 8.3037L15.884 7.1787C15.7023 6.99722 15.4568 6.89394 15.2 6.89092C14.9432 6.8879 14.6954 6.98537 14.5094 7.16253L10.837 3.49011C11.0142 3.30416 11.1116 3.05633 11.1086 2.79951C11.1056 2.5427 11.0023 2.29723 10.8208 2.1155L9.69583 0.990501C9.60442 0.899082 9.4959 0.826565 9.37646 0.777089C9.25702 0.727613 9.12901 0.702148 8.99973 0.702148C8.87046 0.702148 8.74244 0.727613 8.62301 0.777089C8.50357 0.826565 8.39505 0.899082 8.30364 0.990501L3.80364 5.4905C3.71222 5.58191 3.6397 5.69043 3.59023 5.80987C3.54075 5.9293 3.51529 6.05732 3.51529 6.18659C3.51529 6.31587 3.54075 6.44389 3.59023 6.56332C3.6397 6.68276 3.71222 6.79128 3.80364 6.88269L4.92864 8.00769C5.11037 8.18918 5.35584 8.29245 5.61265 8.29547C5.86947 8.29849 6.1173 8.20102 6.30325 8.02386L6.99723 8.71855L2.30106 13.4147C2.02304 13.7224 1.87384 14.1252 1.8843 14.5397C1.89477 14.9543 2.06409 15.349 2.35728 15.6423C2.65047 15.9356 3.04512 16.105 3.45968 16.1156C3.87424 16.1262 4.27703 15.9771 4.58481 15.6992L9.28098 11.003L9.97497 11.697C9.7978 11.8829 9.70033 12.1308 9.70336 12.3876C9.70638 12.6444 9.80965 12.8899 9.99114 13.0716L11.1161 14.1966C11.2075 14.288 11.3161 14.3605 11.4355 14.41C11.5549 14.4595 11.683 14.4849 11.8122 14.4849C11.9415 14.4849 12.0695 14.4595 12.189 14.41C12.3084 14.3605 12.4169 14.288 12.5083 14.1966L17.0083 9.69659C17.0999 9.60522 17.1726 9.49669 17.2222 9.37721C17.2718 9.25774 17.2973 9.12966 17.2974 9.0003C17.2974 8.87093 17.272 8.74283 17.2225 8.6233C17.1731 8.50377 17.1005 8.39517 17.009 8.3037ZM10.5712 11.0993L6.9002 7.42902L10.2415 4.08777L13.9118 7.75808L10.5712 11.0993ZM5.52559 7.41144L4.40059 6.28644C4.38752 6.27338 4.37715 6.25787 4.37007 6.2408C4.36299 6.22373 4.35935 6.20543 4.35935 6.18695C4.35935 6.16847 4.36299 6.15017 4.37007 6.13309C4.37715 6.11602 4.38752 6.10051 4.40059 6.08745L8.90059 1.58745C8.91365 1.57438 8.92916 1.56401 8.94623 1.55693C8.96331 1.54985 8.98161 1.54621 9.00009 1.54621C9.01857 1.54621 9.03686 1.54985 9.05394 1.55693C9.07101 1.56401 9.08652 1.57438 9.09958 1.58745L10.2246 2.71245C10.2377 2.72551 10.248 2.74102 10.2551 2.75809C10.2622 2.77517 10.2658 2.79347 10.2658 2.81195C10.2658 2.83043 10.2622 2.84873 10.2551 2.8658C10.248 2.88287 10.2377 2.89838 10.2246 2.91144L5.72458 7.41144C5.71152 7.42451 5.69601 7.43489 5.67894 7.44196C5.66186 7.44904 5.64356 7.45268 5.62508 7.45268C5.6066 7.45268 5.58831 7.44904 5.57123 7.44196C5.55416 7.43489 5.53865 7.42451 5.52559 7.41144ZM3.98856 15.1029C3.84084 15.2317 3.64973 15.2996 3.45386 15.2929C3.258 15.2862 3.07198 15.2054 2.9334 15.0668C2.79482 14.9283 2.71401 14.7422 2.70732 14.5464C2.70062 14.3505 2.76852 14.1594 2.89731 14.0117L7.59348 9.3155L8.68473 10.406L3.98856 15.1029ZM16.4121 9.09964L11.9121 13.5996C11.899 13.6127 11.8835 13.6231 11.8664 13.6302C11.8494 13.6372 11.8311 13.6409 11.8126 13.6409C11.7941 13.6409 11.7758 13.6372 11.7587 13.6302C11.7417 13.6231 11.7262 13.6127 11.7131 13.5996L10.5881 12.4746C10.575 12.4616 10.5646 12.4461 10.5576 12.429C10.5505 12.4119 10.5468 12.3936 10.5468 12.3751C10.5468 12.3567 10.5505 12.3384 10.5576 12.3213C10.5646 12.3042 10.575 12.2887 10.5881 12.2757L15.0881 7.77566C15.1012 7.76258 15.1167 7.75221 15.1337 7.74513C15.1508 7.73806 15.1691 7.73441 15.1876 7.73441C15.2061 7.73441 15.2244 7.73806 15.2414 7.74513C15.2585 7.75221 15.274 7.76258 15.2871 7.77566L16.4121 8.90066C16.4252 8.91372 16.4355 8.92923 16.4426 8.9463C16.4497 8.96337 16.4533 8.98167 16.4533 9.00015C16.4533 9.01863 16.4497 9.03693 16.4426 9.054C16.4355 9.07107 16.4252 9.08658 16.4121 9.09964Z" fill="#0B1117"/>
</svg>
