<svg width="20" height="20" viewBox="0 0 20 20" fill="none" xmlns="http://www.w3.org/2000/svg">
<path opacity="0.2" d="M11.6917 3.56719L6.6917 8.56719C6.63366 8.6253 6.56473 8.6714 6.48885 8.70285C6.41298 8.73431 6.33165 8.75049 6.24952 8.75049C6.16738 8.75049 6.08605 8.73431 6.01018 8.70285C5.9343 8.6714 5.86537 8.6253 5.80733 8.56719L4.55733 7.31719C4.49922 7.25915 4.45312 7.19022 4.42167 7.11434C4.39021 7.03847 4.37402 6.95714 4.37402 6.875C4.37402 6.79287 4.39021 6.71154 4.42167 6.63567C4.45312 6.55979 4.49922 6.49086 4.55733 6.43282L9.55733 1.43282C9.61537 1.37471 9.6843 1.32861 9.76018 1.29715C9.83605 1.2657 9.91738 1.24951 9.99952 1.24951C10.0816 1.24951 10.163 1.2657 10.2389 1.29715C10.3147 1.32861 10.3837 1.37471 10.4417 1.43282L11.6917 2.68282C11.7498 2.74086 11.7959 2.80979 11.8274 2.88567C11.8588 2.96154 11.875 3.04287 11.875 3.125C11.875 3.20714 11.8588 3.28847 11.8274 3.36434C11.7959 3.44021 11.7498 3.50915 11.6917 3.56719ZM18.5667 9.55782L17.3167 8.30782C17.2587 8.24971 17.1897 8.20361 17.1139 8.17215C17.038 8.1407 16.9566 8.12451 16.8745 8.12451C16.7924 8.12451 16.7111 8.1407 16.6352 8.17215C16.5593 8.20361 16.4904 8.24971 16.4323 8.30782L11.4323 13.3078C11.3742 13.3659 11.3281 13.4348 11.2967 13.5107C11.2652 13.5865 11.249 13.6679 11.249 13.75C11.249 13.8321 11.2652 13.9135 11.2967 13.9893C11.3281 14.0652 11.3742 14.1341 11.4323 14.1922L12.6823 15.4422C12.7404 15.5003 12.8093 15.5464 12.8852 15.5779C12.9611 15.6093 13.0424 15.6255 13.1245 15.6255C13.2066 15.6255 13.288 15.6093 13.3639 15.5779C13.4397 15.5464 13.5087 15.5003 13.5667 15.4422L18.5667 10.4422C18.6248 10.3841 18.6709 10.3152 18.7024 10.2393C18.7338 10.1635 18.75 10.0821 18.75 10C18.75 9.91787 18.7338 9.83654 18.7024 9.76067C18.6709 9.68479 18.6248 9.61586 18.5667 9.55782Z" fill="currentColor"/>
<path d="M19.0096 9.11651L17.7596 7.86651C17.5476 7.65475 17.2665 7.52619 16.9677 7.50425C16.6689 7.48231 16.3721 7.56845 16.1314 7.74698L12.2533 3.86885C12.4319 3.62829 12.5182 3.33157 12.4964 3.03273C12.4746 2.73389 12.3462 2.45283 12.1346 2.24073L10.8846 0.990729C10.7685 0.874626 10.6307 0.782526 10.479 0.71969C10.3273 0.656853 10.1647 0.624512 10.0006 0.624512C9.8364 0.624512 9.67383 0.656853 9.52215 0.71969C9.37048 0.782526 9.23266 0.874626 9.11659 0.990729L4.11659 5.99073C4.00048 6.10681 3.90838 6.24462 3.84555 6.39629C3.78271 6.54797 3.75037 6.71054 3.75037 6.87471C3.75037 7.03889 3.78271 7.20146 3.84555 7.35313C3.90838 7.50481 4.00048 7.64262 4.11659 7.7587L5.36659 9.0087C5.57864 9.22013 5.85955 9.34842 6.15821 9.37021C6.45687 9.39201 6.75343 9.30586 6.99393 9.12745L7.55409 9.6876L2.44627 14.7954C2.10693 15.1666 1.92382 15.6543 1.93506 16.157C1.9463 16.6598 2.15103 17.1388 2.50663 17.4944C2.86222 17.85 3.34127 18.0548 3.84403 18.066C4.34679 18.0772 4.83452 17.8941 5.20565 17.5548L10.3127 12.447L10.8728 13.0064C10.6942 13.2469 10.6079 13.5436 10.6297 13.8425C10.6515 14.1413 10.7799 14.4224 10.9916 14.6345L12.2416 15.8845C12.3577 16.0006 12.4955 16.0927 12.6472 16.1555C12.7988 16.2184 12.9614 16.2507 13.1256 16.2507C13.2897 16.2507 13.4523 16.2184 13.604 16.1555C13.7557 16.0927 13.8935 16.0006 14.0096 15.8845L19.0096 10.8845C19.1257 10.7684 19.2178 10.6306 19.2806 10.4789C19.3434 10.3272 19.3758 10.1647 19.3758 10.0005C19.3758 9.83632 19.3434 9.67375 19.2806 9.52207C19.2178 9.3704 19.1257 9.23259 19.0096 9.11651ZM6.25018 8.1251L5.00018 6.8751L10.0002 1.8751L11.2502 3.1251L6.25018 8.1251ZM4.32206 16.6704C4.19032 16.8014 4.01211 16.8749 3.82635 16.8749C3.6406 16.8749 3.46239 16.8014 3.33065 16.6704C3.19993 16.5387 3.12657 16.3607 3.12657 16.1751C3.12657 15.9895 3.19993 15.8115 3.33065 15.6798L8.43768 10.572L9.42909 11.5626L4.32206 16.6704ZM7.89081 8.25479L11.3799 4.76573L15.2346 8.62042L11.7463 12.1095L7.89081 8.25479ZM13.1252 15.0001L11.8752 13.7501L12.1877 13.4376L16.5627 9.0626L16.8752 8.7501L18.1252 10.0001L13.1252 15.0001Z" fill="currentColor"/>
</svg>
