<svg width="20" height="20" viewBox="0 0 20 20" fill="none" xmlns="http://www.w3.org/2000/svg">
<path opacity="0.2" d="M16.2387 9.62363L17.5496 7.98301C17.3728 7.31833 17.1082 6.68017 16.7629 6.08535L14.677 5.85098C14.5103 5.66324 14.3327 5.48558 14.1449 5.31895L13.9105 3.23223C13.3151 2.88897 12.6767 2.62626 12.0121 2.45098L10.3715 3.76113C10.1207 3.74629 9.86918 3.74629 9.61836 3.76113L7.97773 2.4502C7.31522 2.62754 6.67918 2.89209 6.08633 3.23691L5.85195 5.32285C5.66421 5.48949 5.48656 5.66714 5.31992 5.85488L3.2332 6.08926C2.88995 6.68472 2.62724 7.32311 2.45195 7.9877L3.76211 9.62832C3.74727 9.87914 3.74727 10.1306 3.76211 10.3814L2.45117 12.0221C2.62799 12.6867 2.89256 13.3249 3.23789 13.9197L5.32383 14.1541C5.49046 14.3418 5.66812 14.5195 5.85586 14.6861L6.09023 16.7729C6.6857 17.1161 7.32408 17.3788 7.98867 17.5541L9.6293 16.2439C9.88012 16.2588 10.1316 16.2588 10.3824 16.2439L12.023 17.5549C12.6877 17.3781 13.3259 17.1135 13.9207 16.7682L14.1551 14.6822C14.3428 14.5156 14.5205 14.3379 14.6871 14.1502L16.7738 13.9158C17.1171 13.3204 17.3798 12.682 17.5551 12.0174L16.2449 10.3768C16.2577 10.1258 16.2556 9.87433 16.2387 9.62363ZM9.99961 13.1252C9.38154 13.1252 8.77736 12.9419 8.26345 12.5985C7.74955 12.2552 7.34901 11.7671 7.11249 11.1961C6.87596 10.6251 6.81408 9.99673 6.93466 9.39054C7.05523 8.78435 7.35286 8.22753 7.7899 7.79049C8.22694 7.35345 8.78376 7.05582 9.38995 6.93524C9.99614 6.81466 10.6245 6.87655 11.1955 7.11307C11.7665 7.3496 12.2546 7.75013 12.598 8.26404C12.9413 8.77794 13.1246 9.38213 13.1246 10.0002C13.1246 10.829 12.7954 11.6239 12.2093 12.2099C11.6233 12.796 10.8284 13.1252 9.99961 13.1252Z" fill="currentColor"/>
<path d="M10.0003 6.24979C9.2586 6.24979 8.53358 6.46973 7.91689 6.88178C7.30021 7.29384 6.81956 7.87951 6.53573 8.56473C6.2519 9.24995 6.17764 10.004 6.32234 10.7314C6.46703 11.4588 6.82418 12.127 7.34863 12.6514C7.87308 13.1759 8.54126 13.533 9.26869 13.6777C9.99612 13.8224 10.7501 13.7482 11.4353 13.4643C12.1206 13.1805 12.7062 12.6999 13.1183 12.0832C13.5303 11.4665 13.7503 10.7415 13.7503 9.99979C13.7492 9.00555 13.3538 8.05232 12.6508 7.34928C11.9478 6.64625 10.9945 6.25083 10.0003 6.24979ZM10.0003 12.4998C9.50583 12.4998 9.02248 12.3532 8.61135 12.0785C8.20023 11.8038 7.8798 11.4133 7.69058 10.9565C7.50136 10.4997 7.45185 9.99702 7.54832 9.51207C7.64478 9.02711 7.88288 8.58166 8.23251 8.23202C8.58214 7.88239 9.0276 7.64429 9.51255 7.54783C9.99751 7.45136 10.5002 7.50087 10.957 7.69009C11.4138 7.87931 11.8042 8.19974 12.079 8.61087C12.3537 9.02199 12.5003 9.50534 12.5003 9.99979C12.5003 10.6628 12.2369 11.2987 11.768 11.7676C11.2992 12.2364 10.6633 12.4998 10.0003 12.4998ZM16.8753 10.1685C16.8784 10.056 16.8784 9.94354 16.8753 9.83104L18.0409 8.37479C18.102 8.29833 18.1443 8.20859 18.1644 8.11278C18.1845 8.01698 18.1818 7.9178 18.1565 7.82323C17.9651 7.10506 17.6793 6.41546 17.3065 5.77245C17.2577 5.68832 17.1899 5.61676 17.1085 5.56346C17.0271 5.51015 16.9344 5.47658 16.8378 5.46542L14.9847 5.25917C14.9076 5.17792 14.8294 5.09979 14.7503 5.02479L14.5315 3.16698C14.5203 3.07027 14.4866 2.97753 14.4331 2.89614C14.3797 2.81476 14.308 2.74699 14.2237 2.69823C13.5808 2.32577 12.8911 2.04045 12.1729 1.84979C12.0784 1.82453 11.9792 1.82183 11.8834 1.84191C11.7876 1.86199 11.6978 1.9043 11.6214 1.96542L10.169 3.12479C10.0565 3.12479 9.94403 3.12479 9.83153 3.12479L8.37528 1.96151C8.29882 1.90039 8.20907 1.85809 8.11327 1.838C8.01747 1.81792 7.91829 1.82062 7.82372 1.84589C7.10555 2.03731 6.41595 2.32314 5.77294 2.69589C5.68881 2.74473 5.61725 2.81255 5.56394 2.89392C5.51064 2.9753 5.47707 3.068 5.4659 3.16464L5.25965 5.02088C5.1784 5.09849 5.10028 5.17661 5.02528 5.25526L3.16747 5.46854C3.07076 5.47979 2.97801 5.51348 2.89663 5.56692C2.81525 5.62037 2.74748 5.69208 2.69872 5.77635C2.32633 6.41945 2.04078 7.10904 1.8495 7.82714C1.82434 7.92176 1.82177 8.02098 1.84199 8.11679C1.86221 8.21259 1.90465 8.30231 1.9659 8.3787L3.12528 9.83104C3.12528 9.94354 3.12528 10.056 3.12528 10.1685L1.962 11.6248C1.90088 11.7013 1.85858 11.791 1.83849 11.8868C1.81841 11.9826 1.82111 12.0818 1.84637 12.1764C2.0378 12.8945 2.32363 13.5841 2.69637 14.2271C2.74522 14.3113 2.81303 14.3828 2.89441 14.4361C2.97579 14.4894 3.06849 14.523 3.16512 14.5342L5.01825 14.7404C5.09585 14.8217 5.17398 14.8998 5.25262 14.9748L5.46903 16.8326C5.48028 16.9293 5.51397 17.0221 5.56741 17.1034C5.62085 17.1848 5.69257 17.2526 5.77684 17.3014C6.41994 17.6737 7.10953 17.9593 7.82762 18.1506C7.92225 18.1757 8.02147 18.1783 8.11727 18.1581C8.21308 18.1379 8.30279 18.0954 8.37919 18.0342L9.83153 16.8748C9.94403 16.8779 10.0565 16.8779 10.169 16.8748L11.6253 18.0404C11.7017 18.1015 11.7915 18.1438 11.8873 18.1639C11.9831 18.184 12.0823 18.1813 12.1768 18.156C12.8951 17.965 13.5848 17.6791 14.2276 17.306C14.3118 17.2572 14.3833 17.1894 14.4366 17.108C14.4899 17.0266 14.5235 16.9339 14.5347 16.8373L14.7409 14.9842C14.8222 14.9071 14.9003 14.829 14.9753 14.7498L16.8331 14.531C16.9298 14.5198 17.0225 14.4861 17.1039 14.4327C17.1853 14.3792 17.2531 14.3075 17.3018 14.2232C17.6742 13.5801 17.9598 12.8905 18.1511 12.1724C18.1762 12.0778 18.1788 11.9786 18.1586 11.8828C18.1384 11.787 18.0959 11.6973 18.0347 11.6209L16.8753 10.1685ZM15.6175 9.66073C15.6307 9.88658 15.6307 10.113 15.6175 10.3389C15.6082 10.4935 15.6566 10.646 15.7534 10.767L16.862 12.1521C16.7348 12.5564 16.5719 12.9486 16.3753 13.324L14.6097 13.524C14.4559 13.5411 14.3139 13.6146 14.2112 13.7303C14.0608 13.8994 13.9007 14.0596 13.7315 14.2099C13.6158 14.3127 13.5423 14.4546 13.5253 14.6084L13.3292 16.3724C12.9538 16.5692 12.5616 16.7321 12.1573 16.8592L10.7714 15.7506C10.6605 15.662 10.5227 15.6137 10.3807 15.6139H10.3432C10.1174 15.6271 9.89097 15.6271 9.66512 15.6139C9.51056 15.605 9.35814 15.6534 9.237 15.7498L7.84794 16.8592C7.44367 16.732 7.0515 16.5691 6.67606 16.3724L6.47606 14.6092C6.45899 14.4554 6.3855 14.3134 6.26981 14.2107C6.10068 14.0603 5.94051 13.9002 5.79012 13.731C5.68742 13.6153 5.54545 13.5419 5.39169 13.5248L3.62762 13.3279C3.4309 12.9525 3.26801 12.5603 3.1409 12.156L4.2495 10.7701C4.3463 10.6492 4.39474 10.4966 4.38544 10.342C4.37216 10.1161 4.37216 9.8897 4.38544 9.66385C4.39474 9.50923 4.3463 9.35666 4.2495 9.23573L3.1409 7.84745C3.26811 7.44318 3.43099 7.05101 3.62762 6.67557L5.3909 6.47557C5.54467 6.4585 5.68663 6.38502 5.78934 6.26932C5.93973 6.10019 6.0999 5.94002 6.26903 5.78964C6.38518 5.68686 6.45897 5.54457 6.47606 5.39042L6.67215 3.62714C7.04755 3.43041 7.43972 3.26753 7.84403 3.14042L9.22997 4.24901C9.3509 4.34581 9.50347 4.39426 9.65809 4.38495C9.88394 4.37167 10.1104 4.37167 10.3362 4.38495C10.4908 4.39381 10.6432 4.34541 10.7643 4.24901L12.1526 3.14042C12.5569 3.26762 12.9491 3.4305 13.3245 3.62714L13.5245 5.39042C13.5416 5.54418 13.6151 5.68615 13.7307 5.78885C13.8999 5.93924 14.0601 6.09941 14.2104 6.26854C14.3131 6.38423 14.4551 6.45772 14.6089 6.47479L16.3729 6.67089C16.5697 7.04628 16.7325 7.43845 16.8597 7.84276L15.7511 9.2287C15.6533 9.35065 15.6048 9.50479 15.6151 9.66073H15.6175Z" fill="currentColor"/>
</svg>
