<svg width="16" height="16" viewBox="0 0 16 16" fill="none" xmlns="http://www.w3.org/2000/svg">
<path d="M13.5621 11.4356H12.4637C12.3887 11.4356 12.3184 11.4684 12.2715 11.5262C12.1621 11.659 12.0449 11.7871 11.9215 11.909C11.4166 12.4144 10.8186 12.8171 10.1606 13.0949C9.47876 13.3829 8.74597 13.5306 8.00587 13.5293C7.25743 13.5293 6.53243 13.3824 5.85118 13.0949C5.1931 12.8171 4.59509 12.4144 4.09024 11.909C3.58448 11.4054 3.1812 10.8084 2.90274 10.1512C2.61368 9.46995 2.46837 8.74651 2.46837 7.99807C2.46837 7.24963 2.61524 6.5262 2.90274 5.84495C3.18087 5.18713 3.58087 4.59495 4.09024 4.08713C4.59961 3.57932 5.1918 3.17932 5.85118 2.9012C6.53243 2.6137 7.25743 2.46682 8.00587 2.46682C8.7543 2.46682 9.4793 2.61213 10.1606 2.9012C10.8199 3.17932 11.4121 3.57932 11.9215 4.08713C12.0449 4.21057 12.1606 4.3387 12.2715 4.46995C12.3184 4.52776 12.3902 4.56057 12.4637 4.56057H13.5621C13.6606 4.56057 13.7215 4.4512 13.6668 4.36838C12.4684 2.50588 10.3715 1.27307 7.98868 1.27932C4.24493 1.2887 1.24337 4.32776 1.28087 8.06682C1.31837 11.7465 4.31524 14.7168 8.00587 14.7168C10.3824 14.7168 12.4699 13.4856 13.6668 11.6278C13.7199 11.5449 13.6606 11.4356 13.5621 11.4356ZM14.9512 7.89963L12.734 6.14963C12.6512 6.08401 12.5309 6.14338 12.5309 6.24807V7.43557H7.62462C7.55587 7.43557 7.49962 7.49182 7.49962 7.56057V8.43557C7.49962 8.50432 7.55587 8.56057 7.62462 8.56057H12.5309V9.74807C12.5309 9.85276 12.6527 9.91213 12.734 9.84651L14.9512 8.09651C14.9661 8.08482 14.9782 8.06988 14.9865 8.05282C14.9948 8.03577 14.9991 8.01704 14.9991 7.99807C14.9991 7.9791 14.9948 7.96038 14.9865 7.94332C14.9782 7.92627 14.9661 7.91133 14.9512 7.89963V7.89963Z" fill="#FF4D4F"/>
</svg>
