<svg width="32" height="32" viewBox="0 0 32 32" fill="none" xmlns="http://www.w3.org/2000/svg">
<rect width="32" height="32" rx="16" fill="#EDF1F7"/>
<g clip-path="url(#clip0_11912_15273)">
<path d="M17.512 12.4375C19.2431 12.4109 20.6866 13.8314 20.6868 15.5625C20.6868 16.5437 20.2354 17.4187 19.5276 17.9922C20.0295 18.2251 20.4871 18.5451 20.8782 18.9365C21.7342 19.7911 22.218 20.9191 22.2493 22.1221C22.2497 22.1387 22.2475 22.1554 22.2415 22.1709C22.2354 22.1864 22.2258 22.201 22.2141 22.2129C22.2025 22.2247 22.1884 22.2338 22.1731 22.2402C22.1577 22.2467 22.1409 22.25 22.1243 22.25H21.2493C21.1823 22.2498 21.1258 22.1969 21.1243 22.1299C21.093 21.2237 20.726 20.3752 20.0823 19.7314C19.4089 19.0581 18.5133 18.6875 17.5618 18.6875C17.0937 18.6862 16.63 18.7779 16.1975 18.957C15.765 19.1362 15.3724 19.3996 15.0422 19.7314C14.3969 20.3752 14.029 21.2237 13.9993 22.1299C13.9977 22.1971 13.9415 22.25 13.8743 22.25H12.9993C12.9828 22.25 12.9666 22.2466 12.9514 22.2402C12.9362 22.2338 12.922 22.2247 12.9104 22.2129C12.8988 22.201 12.8892 22.1864 12.8831 22.1709C12.877 22.1554 12.8739 22.1387 12.8743 22.1221C12.9055 20.919 13.3904 19.7912 14.2434 18.9365C14.6343 18.545 15.0911 18.2249 15.593 17.9922C14.887 17.4187 14.4338 16.5436 14.4338 15.5625C14.434 13.8533 15.8075 12.4642 17.512 12.4375ZM14.4905 9.75C15.6904 9.76882 16.7278 10.4631 17.2356 11.4678C17.2744 11.5458 17.2244 11.6391 17.137 11.6484C16.8386 11.6797 16.5477 11.7475 16.2727 11.8428C16.2197 11.8612 16.1593 11.8403 16.1282 11.792C16.0391 11.6546 15.9322 11.5267 15.8088 11.4111C15.4448 11.0706 14.9635 10.8787 14.4651 10.874C13.9136 10.8678 13.3949 11.0833 13.009 11.4785C12.6576 11.8378 12.4558 12.3141 12.4417 12.8154C12.4333 13.0923 12.483 13.3683 12.5872 13.625C12.6912 13.8816 12.8474 14.1139 13.0461 14.3066C13.2149 14.4723 13.4108 14.6029 13.6233 14.6982C13.6748 14.7216 13.7044 14.7798 13.6936 14.8359C13.6499 15.0718 13.6262 15.3142 13.6262 15.5625C13.6262 15.7016 13.6336 15.8396 13.6477 15.9756C13.6554 16.038 13.6148 16.0957 13.554 16.1113C12.9401 16.2661 12.3775 16.5847 11.9182 17.0439C11.273 17.6877 10.9059 18.5362 10.8762 19.4424C10.8747 19.5096 10.8184 19.5625 10.7512 19.5625H9.87427C9.85779 19.5625 9.84161 19.5591 9.82642 19.5527C9.81117 19.5463 9.79699 19.5372 9.7854 19.5254C9.77375 19.5135 9.76415 19.4989 9.75806 19.4834C9.75199 19.4679 9.74885 19.4512 9.74927 19.4346C9.78053 18.2299 10.2651 17.1017 11.1213 16.2471C11.5181 15.8503 11.9761 15.5334 12.4729 15.3037C11.7652 14.7303 11.3138 13.8551 11.3137 12.874C11.3137 11.1443 12.7577 9.72344 14.4905 9.75ZM17.5422 13.5625C17.0064 13.5687 16.5041 13.7827 16.1292 14.167C15.7714 14.5341 15.5666 15.0297 15.5618 15.542C15.5581 15.8082 15.6086 16.0729 15.7092 16.3193C15.8098 16.5656 15.9589 16.7892 16.1477 16.9766C16.5242 17.3546 17.0275 17.5624 17.5618 17.5625C17.8247 17.5633 18.0854 17.5117 18.3284 17.4111C18.5714 17.3106 18.7923 17.163 18.9778 16.9766C19.3558 16.5985 19.5637 16.0968 19.5637 15.5625C19.5637 15.0221 19.3514 14.5144 18.9641 14.1348C18.5861 13.7645 18.0718 13.5579 17.5422 13.5625Z" fill="black" fill-opacity="0.88"/>
</g>
<defs>
<clipPath id="clip0_11912_15273">
<rect width="16" height="16" fill="white" transform="translate(8 8)"/>
</clipPath>
</defs>
</svg>
