<svg width="32" height="32" viewBox="0 0 32 32" fill="none" xmlns="http://www.w3.org/2000/svg">
<rect width="32" height="32" rx="16" fill="#EDF1F7"/>
<g clip-path="url(#clip0_11912_15253)">
<path d="M15.9993 9.78125C18.1399 9.78125 19.8743 11.5156 19.8743 13.6562C19.8742 14.9483 19.2421 16.0938 18.2688 16.7969C18.2749 16.7999 18.2812 16.8016 18.2874 16.8047C18.9851 17.1 19.6193 17.5281 20.1545 18.0645C20.6913 18.5992 21.1186 19.2336 21.4133 19.9316C21.7039 20.6175 21.8586 21.344 21.8743 22.0908C21.8746 22.1074 21.8725 22.1242 21.8665 22.1396C21.8604 22.1551 21.8507 22.1688 21.8391 22.1807C21.8275 22.1926 21.8135 22.2025 21.7981 22.209C21.7828 22.2154 21.7659 22.2188 21.7493 22.2188H20.8118C20.7432 22.2185 20.6883 22.1653 20.6868 22.0967C20.6555 20.8905 20.1719 19.7605 19.3157 18.9043C18.4297 18.0184 17.2524 17.5312 15.9993 17.5312C14.7463 17.5314 13.5697 18.0185 12.6838 18.9043C11.8276 19.7605 11.343 20.8905 11.3118 22.0967C11.3102 22.1639 11.2555 22.2188 11.1868 22.2188H10.2493C10.2328 22.2187 10.2166 22.2153 10.2014 22.209C10.186 22.2025 10.172 22.1926 10.1604 22.1807C10.1488 22.1688 10.1391 22.1551 10.1331 22.1396C10.127 22.1242 10.1239 22.1074 10.1243 22.0908C10.1386 21.3487 10.2951 20.6158 10.5852 19.9326C10.8805 19.2348 11.3086 18.6007 11.845 18.0654C12.384 17.5249 13.0123 17.1019 13.7122 16.8066C13.7183 16.8036 13.7246 16.8018 13.7307 16.7988C12.7573 16.0942 12.1243 14.9484 12.1243 13.6562C12.1243 11.5158 13.8588 9.78147 15.9993 9.78125ZM15.9993 10.9688C15.2823 10.9689 14.6075 11.2483 14.0999 11.7559C13.592 12.2637 13.3118 12.9391 13.3118 13.6562C13.3118 14.3734 13.5921 15.0488 14.0999 15.5566C14.6075 16.0641 15.2824 16.3436 15.9993 16.3438C16.7163 16.3438 17.3919 16.0643 17.8997 15.5566C18.4075 15.0488 18.6867 14.3734 18.6868 13.6562C18.6868 12.9391 18.4075 12.2637 17.8997 11.7559C17.3919 11.2481 16.7164 10.9688 15.9993 10.9688Z" fill="black" fill-opacity="0.88"/>
</g>
<defs>
<clipPath id="clip0_11912_15253">
<rect width="16" height="16" fill="white" transform="translate(8 8)"/>
</clipPath>
</defs>
</svg>
