<svg width="32" height="32" viewBox="0 0 32 32" fill="none" xmlns="http://www.w3.org/2000/svg">
<rect width="32" height="32" rx="16" fill="#EDF1F7"/>
<g clip-path="url(#clip0_11912_18429)">
<path d="M17.9377 9.75C19.0423 9.75013 19.9377 10.6454 19.9377 11.75V15.25H21.0002C21.2767 15.2501 21.5002 15.4735 21.5002 15.75V21.75C21.5002 22.0264 21.2767 22.2499 21.0002 22.25H11.0002C10.7237 22.25 10.5003 22.0265 10.5002 21.75V15.75C10.5002 15.4734 10.7237 15.25 11.0002 15.25H12.0627V11.75C12.0627 10.6453 12.9581 9.75 14.0627 9.75H17.9377ZM11.6252 16.375V21.125H20.3752V16.375H11.6252ZM16.0002 17.5938C16.1589 17.5938 16.3134 17.6439 16.4417 17.7373C16.57 17.8308 16.6655 17.9631 16.7141 18.1143C16.7626 18.2652 16.7617 18.4275 16.7122 18.5781C16.6625 18.7289 16.5667 18.8605 16.4377 18.9531V19.7812C16.4377 19.8499 16.3814 19.9061 16.3127 19.9062H15.6877C15.619 19.9062 15.5628 19.85 15.5627 19.7812V18.9531C15.4338 18.8605 15.3371 18.7289 15.2874 18.5781C15.2378 18.4275 15.2378 18.2652 15.2864 18.1143C15.335 17.9632 15.4296 17.8308 15.5579 17.7373C15.6862 17.6438 15.8415 17.5938 16.0002 17.5938ZM14.0627 10.875C13.5799 10.875 13.1877 11.2672 13.1877 11.75V15.25H18.8127V11.75C18.8127 11.2673 18.4204 10.8751 17.9377 10.875H14.0627Z" fill="black" fill-opacity="0.88"/>
</g>
<defs>
<clipPath id="clip0_11912_18429">
<rect width="16" height="16" fill="white" transform="translate(8 8)"/>
</clipPath>
</defs>
</svg>
