<svg width="32" height="32" viewBox="0 0 32 32" fill="none" xmlns="http://www.w3.org/2000/svg">
<rect width="32" height="32" rx="16" fill="#EDF1F7"/>
<g clip-path="url(#clip0_11912_14091)">
<path d="M13.1655 9.74805C14.3574 9.75764 15.3506 10.662 15.4741 11.8477C15.6132 11.8711 15.8015 11.9068 16.0249 11.96C16.5201 12.0771 17.0149 12.2327 17.4819 12.4326C18.9381 13.056 19.8418 13.9868 19.7935 15.3008C19.7435 16.6569 18.7559 17.2958 17.3062 17.374C16.7906 17.4021 16.2481 17.359 15.7153 17.2715C15.5357 17.2434 15.3557 17.2072 15.1792 17.165C15.1527 17.1619 15.1246 17.1603 15.0981 17.1572C14.8091 17.1307 14.4901 17.1399 14.2026 17.207C13.7293 17.318 13.471 17.5462 13.4194 17.9727C13.2804 19.1133 14.1323 19.674 16.5308 19.749C16.6075 18.5618 17.5636 17.6194 18.7524 17.5615C19.9415 17.5037 20.9854 18.3465 21.1792 19.5215C21.3728 20.6962 20.6542 21.8285 19.5093 22.1553C18.3655 22.4818 17.1573 21.8959 16.7026 20.7959C13.6183 20.7303 12.1448 19.8166 12.3901 17.8447C12.5027 16.9291 13.1077 16.393 13.9702 16.1914C14.3826 16.0962 14.8063 16.0842 15.1968 16.1201C15.2715 16.1279 15.3295 16.135 15.3638 16.1396L15.4116 16.1494C15.4304 16.1541 15.4728 16.1652 15.5337 16.1777C15.6384 16.2012 15.7575 16.2232 15.8872 16.2451C16.3512 16.3216 16.8219 16.3584 17.2515 16.335C18.2292 16.2818 18.7293 15.9603 18.7544 15.2637C18.7825 14.4856 18.1794 13.8615 17.0747 13.3896C16.6685 13.2146 16.2272 13.0777 15.7866 12.9746C15.6414 12.9403 15.4959 12.9103 15.3491 12.8838C14.946 14.0056 13.7634 14.6451 12.604 14.3701C11.4447 14.0951 10.6761 12.9929 10.8198 11.8086C10.9637 10.6243 11.9734 9.73867 13.1655 9.74805ZM18.8687 18.5996C18.1499 18.5996 17.5669 19.1826 17.5669 19.9014C17.5671 20.62 18.15 21.2021 18.8687 21.2021C19.5871 21.2019 20.1692 20.6198 20.1694 19.9014C20.1694 19.1828 19.5872 18.5998 18.8687 18.5996ZM13.1421 10.79C12.4233 10.79 11.8403 11.373 11.8403 12.0918C11.8404 12.8105 12.4234 13.3936 13.1421 13.3936C13.8606 13.3933 14.4428 12.8103 14.4429 12.0918C14.4429 11.3732 13.8606 10.7903 13.1421 10.79Z" fill="black" fill-opacity="0.88"/>
</g>
<defs>
<clipPath id="clip0_11912_14091">
<rect width="16" height="16" fill="white" transform="translate(8 8)"/>
</clipPath>
</defs>
</svg>
