<svg width="18" height="18" viewBox="0 0 18 18" fill="none" xmlns="http://www.w3.org/2000/svg">
<path d="M8.29688 15.1875C8.29688 15.2994 8.25243 15.4067 8.17331 15.4858C8.09419 15.5649 7.98689 15.6094 7.875 15.6094H3.375C3.26311 15.6094 3.15581 15.5649 3.07669 15.4858C2.99757 15.4067 2.95313 15.2994 2.95312 15.1875V2.8125C2.95312 2.70061 2.99757 2.59331 3.07669 2.51419C3.15581 2.43507 3.26311 2.39063 3.375 2.39062H7.875C7.98689 2.39063 8.09419 2.43507 8.17331 2.51419C8.25243 2.59331 8.29688 2.70061 8.29688 2.8125C8.29688 2.92439 8.25243 3.03169 8.17331 3.11081C8.09419 3.18993 7.98689 3.23437 7.875 3.23438H3.79688V14.7656H7.875C7.98689 14.7656 8.09419 14.8101 8.17331 14.8892C8.25243 14.9683 8.29688 15.0756 8.29688 15.1875ZM16.0481 8.70188L13.2356 5.88938C13.1557 5.81486 13.0499 5.77429 12.9406 5.77621C12.8313 5.77814 12.727 5.82242 12.6497 5.89971C12.5724 5.97701 12.5281 6.08129 12.5262 6.19058C12.5243 6.29988 12.5649 6.40565 12.6394 6.48562L14.7312 8.57812H7.875C7.76311 8.57812 7.65581 8.62257 7.57669 8.70169C7.49757 8.78081 7.45312 8.88811 7.45312 9C7.45312 9.11189 7.49757 9.21919 7.57669 9.29831C7.65581 9.37743 7.76311 9.42188 7.875 9.42188H14.7312L12.6394 11.5144C12.5979 11.553 12.5647 11.5996 12.5416 11.6513C12.5186 11.7031 12.5062 11.7589 12.5052 11.8156C12.5042 11.8722 12.5146 11.9285 12.5358 11.981C12.557 12.0336 12.5886 12.0813 12.6287 12.1213C12.6687 12.1614 12.7164 12.193 12.769 12.2142C12.8215 12.2354 12.8778 12.2458 12.9344 12.2448C12.9911 12.2438 13.0469 12.2314 13.0987 12.2084C13.1504 12.1853 13.197 12.1521 13.2356 12.1106L16.0481 9.29813C16.1271 9.21902 16.1715 9.1118 16.1715 9C16.1715 8.8882 16.1271 8.78098 16.0481 8.70188Z" fill="currentColor"/>
</svg>
