<svg width="18" height="18" viewBox="0 0 18 18" fill="none" xmlns="http://www.w3.org/2000/svg">
<path d="M6.1875 10.3634C6.29939 10.3634 6.40669 10.3189 6.48581 10.2398C6.56493 10.1607 6.60938 10.0534 6.60938 9.94148V8.85938H11.3906V10.0751C11.3906 10.187 11.4351 10.2943 11.5142 10.3734C11.5933 10.4525 11.7006 10.497 11.8125 10.497C11.9244 10.497 12.0317 10.4525 12.1108 10.3734C12.1899 10.2943 12.2344 10.187 12.2344 10.0751V2.25C12.2344 2.13811 12.1899 2.03081 12.1108 1.95169C12.0317 1.87257 11.9244 1.82812 11.8125 1.82812C11.7006 1.82812 11.5933 1.87257 11.5142 1.95169C11.4351 2.03081 11.3906 2.13811 11.3906 2.25V3.51562H6.60938V2.25C6.60938 2.13811 6.56493 2.03081 6.48581 1.95169C6.40669 1.87257 6.29939 1.82812 6.1875 1.82812C6.07561 1.82812 5.96831 1.87257 5.88919 1.95169C5.81007 2.03081 5.76562 2.13811 5.76562 2.25V9.94148C5.76562 10.0534 5.81007 10.1607 5.88919 10.2398C5.96831 10.3189 6.07561 10.3634 6.1875 10.3634ZM6.60938 8.01562V6.60938H11.3906V8.01562H6.60938ZM11.3906 4.35938V5.76562H6.60938V4.35938H11.3906ZM1.82812 11.8125C1.82812 11.7006 1.87257 11.5933 1.95169 11.5142C2.03081 11.4351 2.13811 11.3906 2.25 11.3906C3.22172 11.3906 3.72656 11.7274 4.17164 12.0234C4.5675 12.2871 4.90852 12.5156 5.625 12.5156C6.34148 12.5156 6.67969 12.2878 7.07836 12.0234C7.52344 11.7267 8.02828 11.3906 8.9993 11.3906C9.97031 11.3906 10.4759 11.7274 10.9209 12.0234C11.3168 12.2871 11.6585 12.5156 12.375 12.5156C13.0915 12.5156 13.4297 12.2878 13.8284 12.0234C14.2734 11.7267 14.7783 11.3906 15.75 11.3906C15.8619 11.3906 15.9692 11.4351 16.0483 11.5142C16.1274 11.5933 16.1719 11.7006 16.1719 11.8125C16.1719 11.9244 16.1274 12.0317 16.0483 12.1108C15.9692 12.1899 15.8619 12.2344 15.75 12.2344C15.0342 12.2344 14.6953 12.4622 14.2966 12.7266C13.8509 13.0233 13.346 13.3594 12.375 13.3594C11.404 13.3594 10.8984 13.0226 10.4534 12.7266C10.0575 12.4629 9.71578 12.2344 8.9993 12.2344C8.28281 12.2344 7.94461 12.4622 7.54594 12.7266C7.10086 13.0233 6.59602 13.3594 5.625 13.3594C4.65398 13.3594 4.14844 13.0226 3.70336 12.7266C3.30469 12.4622 2.96578 12.2344 2.25 12.2344C2.13811 12.2344 2.03081 12.1899 1.95169 12.1108C1.87257 12.0317 1.82812 11.9244 1.82812 11.8125ZM16.1719 14.625C16.1719 14.7369 16.1274 14.8442 16.0483 14.9233C15.9692 15.0024 15.8619 15.0469 15.75 15.0469C15.0342 15.0469 14.6953 15.2747 14.2966 15.5391C13.8509 15.8358 13.346 16.1719 12.375 16.1719C11.404 16.1719 10.8984 15.8351 10.4534 15.5391C10.0575 15.2754 9.71578 15.0469 8.9993 15.0469C8.28281 15.0469 7.94461 15.2747 7.54594 15.5391C7.10086 15.8358 6.59602 16.1719 5.625 16.1719C4.65398 16.1719 4.14844 15.8351 3.70336 15.5391C3.30469 15.2747 2.96578 15.0469 2.25 15.0469C2.13811 15.0469 2.03081 15.0024 1.95169 14.9233C1.87257 14.8442 1.82812 14.7369 1.82812 14.625C1.82812 14.5131 1.87257 14.4058 1.95169 14.3267C2.03081 14.2476 2.13811 14.2031 2.25 14.2031C3.22172 14.2031 3.72656 14.5399 4.17164 14.8359C4.5675 15.0996 4.90852 15.3281 5.625 15.3281C6.34148 15.3281 6.67969 15.1003 7.07836 14.8359C7.52344 14.5392 8.02828 14.2031 8.9993 14.2031C9.97031 14.2031 10.4759 14.5399 10.9209 14.8359C11.3168 15.0996 11.6585 15.3281 12.375 15.3281C13.0915 15.3281 13.4297 15.1003 13.8284 14.8359C14.2734 14.5392 14.7783 14.2031 15.75 14.2031C15.8619 14.2031 15.9692 14.2476 16.0483 14.3267C16.1274 14.4058 16.1719 14.5131 16.1719 14.625Z" fill="currentColor"/>
</svg>
