<svg width="32" height="32" viewBox="0 0 32 32" fill="none" xmlns="http://www.w3.org/2000/svg">
<rect width="32" height="32" rx="16" fill="#EDF1F7"/>
<g clip-path="url(#clip0_11912_18444)">
<path d="M17.6379 9C17.7705 9.00012 17.8969 9.05298 17.9905 9.14648L21.3528 12.5098C21.4465 12.6035 21.5002 12.7315 21.5002 12.8643V22.5C21.5002 22.7764 21.2767 22.9999 21.0002 23H11.0002C10.7237 23 10.5003 22.7765 10.5002 22.5V9.5C10.5002 9.22344 10.7237 9 11.0002 9H17.6379ZM11.6252 10.125V21.875H20.3752V14.1562H17.0002C16.8263 14.1562 16.6594 14.0868 16.5364 13.9639C16.4133 13.8408 16.344 13.674 16.344 13.5V10.125H11.6252ZM17.4065 13.0938H20.3469L17.4065 10.1533V13.0938Z" fill="black" fill-opacity="0.88"/>
</g>
<defs>
<clipPath id="clip0_11912_18444">
<rect width="16" height="16" fill="white" transform="translate(8 8)"/>
</clipPath>
</defs>
</svg>
