<svg width="18" height="18" viewBox="0 0 18 18" fill="none" xmlns="http://www.w3.org/2000/svg">
<path d="M15.75 4.64062H12.2344V3.9375C12.2344 3.52724 12.0714 3.13379 11.7813 2.84369C11.4912 2.5536 11.0978 2.39062 10.6875 2.39062H7.3125C6.90224 2.39062 6.50879 2.5536 6.21869 2.84369C5.9286 3.13379 5.76563 3.52724 5.76562 3.9375V4.64062H2.25C1.98893 4.64062 1.73855 4.74434 1.55394 4.92894C1.36934 5.11355 1.26563 5.36393 1.26562 5.625V13.5C1.26562 13.7611 1.36934 14.0115 1.55394 14.1961C1.73855 14.3807 1.98893 14.4844 2.25 14.4844H15.75C16.0111 14.4844 16.2615 14.3807 16.4461 14.1961C16.6307 14.0115 16.7344 13.7611 16.7344 13.5V5.625C16.7344 5.36393 16.6307 5.11355 16.4461 4.92894C16.2615 4.74434 16.0111 4.64062 15.75 4.64062ZM6.60938 3.9375C6.60938 3.75102 6.68345 3.57218 6.81532 3.44032C6.94718 3.30845 7.12602 3.23437 7.3125 3.23438H10.6875C10.874 3.23438 11.0528 3.30845 11.1847 3.44032C11.3165 3.57218 11.3906 3.75102 11.3906 3.9375V4.64062H6.60938V3.9375ZM2.25 5.48438H15.75C15.7873 5.48438 15.8231 5.49919 15.8494 5.52556C15.8758 5.55194 15.8906 5.5877 15.8906 5.625V8.01562H13.3594V7.3125C13.3594 7.20061 13.3149 7.09331 13.2358 7.01419C13.1567 6.93507 13.0494 6.89062 12.9375 6.89062C12.8256 6.89062 12.7183 6.93507 12.6392 7.01419C12.5601 7.09331 12.5156 7.20061 12.5156 7.3125V8.01562H5.48438V7.3125C5.48438 7.20061 5.43993 7.09331 5.36081 7.01419C5.28169 6.93507 5.17439 6.89062 5.0625 6.89062C4.95061 6.89062 4.84331 6.93507 4.76419 7.01419C4.68507 7.09331 4.64062 7.20061 4.64062 7.3125V8.01562H2.10938V5.625C2.10938 5.5877 2.12419 5.55194 2.15056 5.52556C2.17694 5.49919 2.2127 5.48438 2.25 5.48438ZM15.75 13.6406H2.25C2.2127 13.6406 2.17694 13.6258 2.15056 13.5994C2.12419 13.5731 2.10938 13.5373 2.10938 13.5V8.85938H4.64062V9.5625C4.64062 9.67439 4.68507 9.78169 4.76419 9.86081C4.84331 9.93993 4.95061 9.98438 5.0625 9.98438C5.17439 9.98438 5.28169 9.93993 5.36081 9.86081C5.43993 9.78169 5.48438 9.67439 5.48438 9.5625V8.85938H12.5156V9.5625C12.5156 9.67439 12.5601 9.78169 12.6392 9.86081C12.7183 9.93993 12.8256 9.98438 12.9375 9.98438C13.0494 9.98438 13.1567 9.93993 13.2358 9.86081C13.3149 9.78169 13.3594 9.67439 13.3594 9.5625V8.85938H15.8906V13.5C15.8906 13.5373 15.8758 13.5731 15.8494 13.5994C15.8231 13.6258 15.7873 13.6406 15.75 13.6406Z" fill="currentColor"/>
</svg>
