<svg width="18" height="18" viewBox="0 0 18 18" fill="none" xmlns="http://www.w3.org/2000/svg">
<path d="M15.1875 3.51562H12.2344V2.8125C12.2344 2.40224 12.0714 2.00879 11.7813 1.71869C11.4912 1.4286 11.0978 1.26563 10.6875 1.26562H7.3125C6.90224 1.26563 6.50879 1.4286 6.21869 1.71869C5.9286 2.00879 5.76563 2.40224 5.76562 2.8125V3.51562H2.8125C2.70061 3.51562 2.59331 3.56007 2.51419 3.63919C2.43507 3.71831 2.39063 3.82561 2.39062 3.9375C2.39063 4.04939 2.43507 4.15669 2.51419 4.23581C2.59331 4.31493 2.70061 4.35938 2.8125 4.35938H3.51562V14.625C3.51562 14.8861 3.61934 15.1365 3.80394 15.3211C3.98855 15.5057 4.23893 15.6094 4.5 15.6094H13.5C13.7611 15.6094 14.0115 15.5057 14.1961 15.3211C14.3807 15.1365 14.4844 14.8861 14.4844 14.625V4.35938H15.1875C15.2994 4.35937 15.4067 4.31493 15.4858 4.23581C15.5649 4.15669 15.6094 4.04939 15.6094 3.9375C15.6094 3.82561 15.5649 3.71831 15.4858 3.63919C15.4067 3.56007 15.2994 3.51562 15.1875 3.51562ZM6.60938 2.8125C6.60938 2.62602 6.68345 2.44718 6.81532 2.31532C6.94718 2.18345 7.12602 2.10938 7.3125 2.10938H10.6875C10.874 2.10938 11.0528 2.18345 11.1847 2.31532C11.3165 2.44718 11.3906 2.62602 11.3906 2.8125V3.51562H6.60938V2.8125ZM13.6406 14.625C13.6406 14.6623 13.6258 14.6981 13.5994 14.7244C13.5731 14.7508 13.5373 14.7656 13.5 14.7656H4.5C4.4627 14.7656 4.42694 14.7508 4.40056 14.7244C4.37419 14.6981 4.35938 14.6623 4.35938 14.625V4.35938H13.6406V14.625ZM7.73438 7.3125V11.8125C7.73438 11.9244 7.68993 12.0317 7.61081 12.1108C7.53169 12.1899 7.42439 12.2344 7.3125 12.2344C7.20061 12.2344 7.09331 12.1899 7.01419 12.1108C6.93507 12.0317 6.89062 11.9244 6.89062 11.8125V7.3125C6.89062 7.20061 6.93507 7.09331 7.01419 7.01419C7.09331 6.93507 7.20061 6.89062 7.3125 6.89062C7.42439 6.89062 7.53169 6.93507 7.61081 7.01419C7.68993 7.09331 7.73438 7.20061 7.73438 7.3125ZM11.1094 7.3125V11.8125C11.1094 11.9244 11.0649 12.0317 10.9858 12.1108C10.9067 12.1899 10.7994 12.2344 10.6875 12.2344C10.5756 12.2344 10.4683 12.1899 10.3892 12.1108C10.3101 12.0317 10.2656 11.9244 10.2656 11.8125V7.3125C10.2656 7.20061 10.3101 7.09331 10.3892 7.01419C10.4683 6.93507 10.5756 6.89062 10.6875 6.89062C10.7994 6.89062 10.9067 6.93507 10.9858 7.01419C11.0649 7.09331 11.1094 7.20061 11.1094 7.3125Z" fill="#0B1117"/>
</svg>
