<svg width="18" height="18" viewBox="0 0 18 18" fill="none" xmlns="http://www.w3.org/2000/svg">
<path d="M16.115 14.9766C15.0034 13.0556 13.2582 11.7077 11.2304 11.1361C12.2163 10.6349 13.0047 9.81634 13.4684 8.81231C13.9321 7.80829 14.0442 6.67733 13.7865 5.60182C13.5289 4.52631 12.9165 3.56892 12.0481 2.88403C11.1798 2.19914 10.1061 1.82666 9.00011 1.82666C7.89416 1.82666 6.82044 2.19914 5.95208 2.88403C5.08373 3.56892 4.47134 4.52631 4.21368 5.60182C3.95601 6.67733 4.06808 7.80829 4.53181 8.81231C4.99554 9.81634 5.78391 10.6349 6.76979 11.1361C4.74198 11.707 2.99682 13.0549 1.88518 14.9766C1.85466 15.0246 1.83416 15.0783 1.82493 15.1344C1.81569 15.1905 1.81791 15.248 1.83145 15.3032C1.84499 15.3585 1.86956 15.4105 1.9037 15.456C1.93783 15.5015 1.98083 15.5396 2.03009 15.5681C2.07935 15.5966 2.13386 15.6148 2.19034 15.6217C2.24682 15.6285 2.30411 15.6239 2.35875 15.608C2.4134 15.5922 2.46427 15.5654 2.50831 15.5294C2.55235 15.4934 2.58865 15.4488 2.61503 15.3984C3.96573 13.0648 6.35214 11.6719 9.00011 11.6719C11.6481 11.6719 14.0345 13.0648 15.3852 15.3984C15.4116 15.4488 15.4479 15.4934 15.4919 15.5294C15.5359 15.5654 15.5868 15.5922 15.6415 15.608C15.6961 15.6239 15.7534 15.6285 15.8099 15.6217C15.8664 15.6148 15.9209 15.5966 15.9701 15.5681C16.0194 15.5396 16.0624 15.5015 16.0965 15.456C16.1307 15.4105 16.1552 15.3585 16.1688 15.3032C16.1823 15.248 16.1845 15.1905 16.1753 15.1344C16.166 15.0783 16.1456 15.0246 16.115 14.9766ZM4.92198 6.74999C4.92198 5.94341 5.16116 5.15495 5.60927 4.4843C6.05738 3.81366 6.69429 3.29095 7.43947 2.98229C8.18465 2.67363 9.00463 2.59287 9.79571 2.75022C10.5868 2.90758 11.3134 3.29598 11.8838 3.86632C12.4541 4.43665 12.8425 5.16331 12.9999 5.95438C13.1572 6.74546 13.0765 7.56544 12.7678 8.31062C12.4591 9.0558 11.9364 9.69271 11.2658 10.1408C10.5951 10.5889 9.80668 10.8281 9.00011 10.8281C7.91892 10.8268 6.88239 10.3967 6.11787 9.63222C5.35336 8.8677 4.92328 7.83117 4.92198 6.74999Z" fill="#0B1117"/>
</svg>
