<svg width="18" height="18" viewBox="0 0 18 18" fill="none" xmlns="http://www.w3.org/2000/svg">
<path d="M7.91732 11.1396C8.70074 10.6956 9.31515 10.0047 9.66471 9.17485C10.0143 8.34496 10.0793 7.4227 9.84971 6.55196C9.6201 5.68121 9.10874 4.91095 8.39541 4.36134C7.68208 3.81173 6.80689 3.51367 5.90638 3.51367C5.00587 3.51367 4.13069 3.81173 3.41736 4.36134C2.70402 4.91095 2.19267 5.68121 1.96305 6.55196C1.73344 7.4227 1.79849 8.34496 2.14805 9.17485C2.49761 10.0047 3.11203 10.6956 3.89545 11.1396C2.44347 11.6025 1.19653 12.5538 0.366461 13.8319C0.305295 13.9256 0.28386 14.0398 0.306869 14.1493C0.329879 14.2588 0.39545 14.3547 0.489156 14.4159C0.582862 14.477 0.697029 14.4985 0.80654 14.4754C0.916051 14.4524 1.01194 14.3869 1.0731 14.2932C1.59665 13.4882 2.31297 12.8267 3.15702 12.3688C4.00107 11.9109 4.94612 11.6711 5.90638 11.6711C6.86664 11.6711 7.81169 11.9109 8.65574 12.3688C9.49979 12.8267 10.2161 13.4882 10.7397 14.2932C10.8048 14.3767 10.899 14.4326 11.0035 14.4499C11.108 14.4671 11.2151 14.4445 11.3037 14.3864C11.3922 14.3283 11.4557 14.239 11.4815 14.1363C11.5072 14.0336 11.4934 13.9249 11.4428 13.8319C10.6136 12.5545 9.36799 11.6033 7.91732 11.1396ZM2.67201 7.59379C2.67201 6.95409 2.8617 6.32875 3.2171 5.79686C3.5725 5.26497 4.07764 4.85042 4.66864 4.60561C5.25965 4.36081 5.90997 4.29676 6.53738 4.42156C7.16479 4.54636 7.7411 4.8544 8.19343 5.30674C8.64577 5.75907 8.95381 6.33538 9.07861 6.96279C9.20341 7.5902 9.13936 8.24052 8.89456 8.83153C8.64975 9.42253 8.2352 9.92767 7.70331 10.2831C7.17141 10.6385 6.54608 10.8282 5.90638 10.8282C5.04892 10.827 4.22689 10.4859 3.62057 9.8796C3.01425 9.27328 2.67312 8.45125 2.67201 7.59379ZM17.5079 14.4141C17.4143 14.4752 17.3003 14.4966 17.1908 14.4737C17.0814 14.4508 16.9856 14.3853 16.9244 14.2918C16.4017 13.4867 15.6859 12.8252 14.8422 12.3676C13.9985 11.91 13.0537 11.6709 12.0939 11.6719C11.982 11.6719 11.8747 11.6275 11.7956 11.5483C11.7165 11.4692 11.672 11.3619 11.672 11.25C11.672 11.1381 11.7165 11.0308 11.7956 10.9517C11.8747 10.8726 11.982 10.8282 12.0939 10.8282C12.5702 10.8277 13.0405 10.722 13.4712 10.5187C13.9019 10.3154 14.2824 10.0195 14.5855 9.65212C14.8886 9.28472 15.1068 8.85493 15.2246 8.39343C15.3423 7.93193 15.3567 7.45011 15.2667 6.98241C15.1767 6.51471 14.9844 6.07267 14.7038 5.68786C14.4231 5.30305 14.0609 4.98498 13.6431 4.75637C13.2253 4.52775 12.7621 4.39424 12.2867 4.36536C11.8113 4.33649 11.3354 4.41297 10.8929 4.58933C10.8414 4.61043 10.7862 4.62112 10.7305 4.62079C10.6749 4.62045 10.6198 4.6091 10.5685 4.58738C10.5173 4.56566 10.4708 4.53401 10.4318 4.49425C10.3929 4.45449 10.3621 4.40741 10.3414 4.35572C10.3207 4.30403 10.3105 4.24875 10.3113 4.19308C10.312 4.13741 10.3238 4.08244 10.3459 4.03134C10.368 3.98024 10.4001 3.93403 10.4401 3.89536C10.4802 3.8567 10.5275 3.82634 10.5794 3.80605C11.539 3.42346 12.6081 3.41934 13.5706 3.79452C14.5332 4.1697 15.3175 4.89622 15.7651 5.82731C16.2127 6.7584 16.2902 7.82468 15.9821 8.81073C15.6739 9.79679 15.003 10.6291 14.1048 11.1396C15.5568 11.6025 16.8037 12.5538 17.6338 13.8319C17.6941 13.9259 17.7148 14.0399 17.6912 14.149C17.6676 14.2581 17.6017 14.3535 17.5079 14.4141Z" fill="currentColor"/>
</svg>
