<svg width="40" height="40" viewBox="0 0 40 40" fill="none" xmlns="http://www.w3.org/2000/svg">
<rect width="40" height="40" rx="20" fill="url(#paint0_linear)"/>
<g clip-path="url(#clip0)">
<path fill-rule="evenodd" clip-rule="evenodd" d="M17.5498 13.2597C17.8112 12.214 19.2972 12.214 19.5586 13.2597L20.0664 15.2909C20.7289 17.9404 22.7977 20.0094 25.4473 20.6718L27.4785 21.1796C28.5242 21.4411 28.5242 22.927 27.4785 23.1884L25.4473 23.6962C22.7977 24.3587 20.7289 26.4274 20.0664 29.0771L19.5547 31.122C19.2935 32.1668 17.8098 32.1683 17.5469 31.1239L17.0391 29.1083C16.3776 26.4814 14.3326 24.4265 11.709 23.7519L9.56637 23.2011C8.52621 22.9335 8.53125 21.4538 9.57324 21.1933L11.6611 20.6718C14.3107 20.0094 16.3795 17.9404 17.042 15.2909L17.5498 13.2597ZM27.8604 8.0966C27.98 7.61884 28.6596 7.61891 28.7793 8.0966L29.0117 9.02532C29.3146 10.2368 30.2601 11.1834 31.4717 11.4862L32.4004 11.7177C32.8785 11.8372 32.8785 12.5171 32.4004 12.6366L31.4717 12.8691C30.2603 13.1719 29.3147 14.1177 29.0117 15.329L28.7774 16.2646C28.6579 16.7421 27.9798 16.7428 27.8594 16.2655L27.627 15.3437C27.3246 14.1427 26.3899 13.203 25.1905 12.8945L24.2099 12.6425C23.7347 12.5199 23.7376 11.8436 24.2138 11.7245L25.168 11.4862C26.3795 11.1834 27.3251 10.2369 27.628 9.02532L27.8604 8.0966Z" fill="white"/>
</g>
<defs>
<linearGradient id="paint0_linear" x1="0" y1="0" x2="40" y2="40" gradientUnits="userSpaceOnUse">
<stop stop-color="#B4D4F0"/>
<stop offset="0.5" stop-color="#D4B4E8"/>
<stop offset="1" stop-color="#F0C890"/>
</linearGradient>
<clipPath id="clip0">
<rect width="25.2632" height="25.2632" fill="white" transform="translate(7.3682 7.3691)"/>
</clipPath>
</defs>
</svg>
