<svg width="26" height="26" viewBox="0 0 26 26" fill="none" xmlns="http://www.w3.org/2000/svg">
<g clip-path="url(#clip0_6107_185140)">
<g clip-path="url(#clip1_6107_185140)">
<path fill-rule="evenodd" clip-rule="evenodd" d="M10.1817 5.89054C10.4431 4.84486 11.9291 4.84486 12.1905 5.89054L12.6983 7.92179C13.3608 10.5713 15.4296 12.6402 18.0791 13.3026L20.1104 13.8105C21.156 14.0719 21.156 15.5578 20.1104 15.8193L18.0791 16.3271C15.4296 16.9896 13.3607 19.0583 12.6983 21.7079L12.1866 23.7528C11.9254 24.7976 10.4417 24.7991 10.1788 23.7548L9.67094 21.7392C9.00948 19.1122 6.96447 17.0574 4.34086 16.3827L2.19828 15.8319C1.15812 15.5644 1.16316 14.0847 2.20512 13.8241L4.29301 13.3026C6.94254 12.6402 9.01135 10.5713 9.67387 7.92179L10.1817 5.89054ZM20.4922 0.727455C20.6119 0.249699 21.2915 0.249706 21.4112 0.727455L21.6436 1.65617C21.9465 2.8677 22.892 3.81422 24.1036 4.1171L25.0323 4.34855C25.5104 4.46807 25.5103 5.14793 25.0323 5.26749L24.1036 5.49992C22.8922 5.80278 21.9466 6.74852 21.6436 7.95988L21.4092 8.89542C21.2898 9.37299 20.6117 9.37362 20.4913 8.8964L20.2588 7.97452C19.9564 6.77352 19.0217 5.83389 17.8223 5.52531L16.8418 5.27335C16.3666 5.15077 16.3694 4.47447 16.8457 4.35538L17.7998 4.1171C19.0114 3.81422 19.9569 2.8677 20.2598 1.65617L20.4922 0.727455Z" fill="white"/>
</g>
</g>
<defs>
<clipPath id="clip0_6107_185140">
<rect width="25.2632" height="25.2632" fill="white"/>
</clipPath>
<clipPath id="clip1_6107_185140">
<rect width="25.2632" height="25.2632" fill="white"/>
</clipPath>
</defs>
</svg>
