<svg width="14" height="14" viewBox="0 0 14 14" fill="none" xmlns="http://www.w3.org/2000/svg">
<g clip-path="url(#clip0_9348_53370)">
<path d="M7 0.875C3.61758 0.875 0.875 3.61758 0.875 7C0.875 10.3824 3.61758 13.125 7 13.125C10.3824 13.125 13.125 10.3824 13.125 7C13.125 3.61758 10.3824 0.875 7 0.875ZM10.9443 10.2102L3.79668 3.0625C3.52734 3.28125 3.28125 3.52734 3.0625 3.79668L10.2102 10.9443C9.33516 11.658 8.2168 12.0859 7 12.0859C4.1918 12.0859 1.91406 9.8082 1.91406 7C1.91406 4.1918 4.1918 1.91406 7 1.91406C9.8082 1.91406 12.0859 4.1918 12.0859 7C12.0859 8.2168 11.658 9.33516 10.9443 10.2102Z" fill="#D48806"/>
<path opacity="0.1" d="M7 1.91406C4.1918 1.91406 1.91406 4.1918 1.91406 7C1.91406 9.8082 4.1918 12.0859 7 12.0859C8.2168 12.0859 9.33516 11.658 10.2102 10.9443L3.0625 3.79668C3.28125 3.52734 3.52734 3.28125 3.79668 3.0625L10.9443 10.2102C11.658 9.33516 12.0859 8.2168 12.0859 7C12.0859 4.1918 9.8082 1.91406 7 1.91406Z" fill="#FFFBE6"/>
</g>
<defs>
<clipPath id="clip0_9348_53370">
<rect width="14" height="14" fill="white"/>
</clipPath>
</defs>
</svg>
