<svg width="12" height="12" viewBox="0 0 12 12" fill="none" xmlns="http://www.w3.org/2000/svg">
<path d="M6 1.125C5.03582 1.125 4.09329 1.41091 3.2916 1.94659C2.48991 2.48226 1.86507 3.24363 1.49609 4.13442C1.12711 5.02521 1.03057 6.00541 1.21867 6.95107C1.40678 7.89672 1.87108 8.76536 2.55286 9.44715C3.23464 10.1289 4.10328 10.5932 5.04894 10.7813C5.99459 10.9694 6.97479 10.8729 7.86558 10.5039C8.75637 10.1349 9.51775 9.51009 10.0534 8.7084C10.5891 7.90671 10.875 6.96418 10.875 6C10.875 4.70707 10.3614 3.46709 9.44715 2.55285C8.53291 1.63861 7.29293 1.125 6 1.125ZM5.625 3C5.625 2.90054 5.66451 2.80516 5.73484 2.73484C5.80516 2.66451 5.90055 2.625 6 2.625C6.09946 2.625 6.19484 2.66451 6.26517 2.73484C6.33549 2.80516 6.375 2.90054 6.375 3V6C6.375 6.09946 6.33549 6.19484 6.26517 6.26517C6.19484 6.33549 6.09946 6.375 6 6.375C5.90055 6.375 5.80516 6.33549 5.73484 6.26517C5.66451 6.19484 5.625 6.09946 5.625 6V3ZM6 9.75C5.19545 9.75008 4.41219 9.4914 3.76594 9.01217C3.11968 8.53293 2.64469 7.85856 2.41112 7.08865C2.17756 6.31874 2.1978 5.49413 2.46886 4.73661C2.73992 3.97909 3.24742 3.32883 3.91641 2.88188C3.95727 2.85298 4.00351 2.83255 4.05239 2.8218C4.10127 2.81105 4.15181 2.81019 4.20102 2.81928C4.25024 2.82837 4.29714 2.84722 4.33896 2.87471C4.38078 2.90221 4.41667 2.9378 4.44452 2.97939C4.47237 3.02097 4.49161 3.06771 4.50111 3.11685C4.51062 3.16599 4.51019 3.21653 4.49985 3.2655C4.48951 3.31447 4.46947 3.36088 4.44092 3.40198C4.41237 3.44309 4.37588 3.47806 4.3336 3.50484C3.79839 3.86236 3.39235 4.38254 3.17546 4.98853C2.95857 5.59452 2.94233 6.2542 3.12913 6.87014C3.31593 7.48607 3.69587 8.02559 4.21283 8.40902C4.72979 8.79245 5.35637 8.99946 6 8.99946C6.64364 8.99946 7.27021 8.79245 7.78717 8.40902C8.30414 8.02559 8.68408 7.48607 8.87088 6.87014C9.05768 6.2542 9.04143 5.59452 8.82454 4.98853C8.60765 4.38254 8.20162 3.86236 7.66641 3.50484C7.62413 3.47806 7.58764 3.44309 7.55908 3.40198C7.53053 3.36088 7.51049 3.31447 7.50016 3.2655C7.48982 3.21653 7.48939 3.16599 7.49889 3.11685C7.50839 3.06771 7.52764 3.02097 7.55548 2.97939C7.58333 2.9378 7.61923 2.90221 7.66104 2.87471C7.70286 2.84722 7.74976 2.82837 7.79898 2.81928C7.8482 2.81019 7.89874 2.81105 7.94762 2.8218C7.9965 2.83255 8.04273 2.85298 8.0836 2.88188C8.75258 3.32883 9.26009 3.97909 9.53115 4.73661C9.80221 5.49413 9.82245 6.31874 9.58888 7.08865C9.35531 7.85856 8.88032 8.53293 8.23407 9.01217C7.58781 9.4914 6.80456 9.75008 6 9.75Z" fill="#006AFF"/>
</svg>
