<svg width="12" height="12" viewBox="0 0 12 12" fill="none" xmlns="http://www.w3.org/2000/svg">
<path d="M11.0995 8.81675L7.00031 1.69784C6.89787 1.52343 6.75164 1.37882 6.57609 1.27834C6.40055 1.17786 6.20179 1.125 5.99953 1.125C5.79726 1.125 5.5985 1.17786 5.42296 1.27834C5.24742 1.37882 5.10118 1.52343 4.99874 1.69784L0.899526 8.81675C0.800965 8.98544 0.749023 9.17731 0.749023 9.37269C0.749023 9.56806 0.800965 9.75993 0.899526 9.92862C1.00065 10.1041 1.14664 10.2495 1.32251 10.3499C1.49838 10.4503 1.6978 10.5021 1.90031 10.5H10.0987C10.3011 10.502 10.5003 10.4501 10.676 10.3497C10.8517 10.2493 10.9975 10.1039 11.0986 9.92862C11.1973 9.76001 11.2494 9.56819 11.2496 9.37281C11.2497 9.17744 11.1979 8.98553 11.0995 8.81675ZM5.62453 4.87503C5.62453 4.77557 5.66404 4.68019 5.73436 4.60987C5.80469 4.53954 5.90007 4.50003 5.99953 4.50003C6.09898 4.50003 6.19437 4.53954 6.26469 4.60987C6.33502 4.68019 6.37453 4.77557 6.37453 4.87503V6.75003C6.37453 6.84949 6.33502 6.94487 6.26469 7.0152C6.19437 7.08552 6.09898 7.12503 5.99953 7.12503C5.90007 7.12503 5.80469 7.08552 5.73436 7.0152C5.66404 6.94487 5.62453 6.84949 5.62453 6.75003V4.87503ZM5.99953 9.00003C5.88827 9.00003 5.77952 8.96704 5.68702 8.90523C5.59452 8.84342 5.52242 8.75557 5.47984 8.65279C5.43727 8.55001 5.42613 8.43691 5.44783 8.32779C5.46954 8.21868 5.52311 8.11845 5.60178 8.03978C5.68045 7.96112 5.78067 7.90754 5.88979 7.88584C5.9989 7.86413 6.112 7.87527 6.21479 7.91785C6.31757 7.96042 6.40542 8.03252 6.46723 8.12502C6.52904 8.21753 6.56203 8.32628 6.56203 8.43753C6.56203 8.58672 6.50276 8.72979 6.39727 8.83528C6.29178 8.94077 6.14871 9.00003 5.99953 9.00003Z" fill="#F79009"/>
</svg>
