<svg width="12" height="14" viewBox="0 0 12 14" fill="none" xmlns="http://www.w3.org/2000/svg">
<path d="M11.1656 3.47031C10.8715 2.792 10.4473 2.17784 9.91719 1.6625C9.3853 1.1425 8.75826 0.729779 8.07031 0.446875C7.35469 0.15 6.59531 0 5.8125 0C5.02969 0 4.27031 0.15 3.55469 0.445312C2.8625 0.73125 2.24219 1.14062 1.70781 1.66094C1.178 2.17657 0.753931 2.79066 0.459375 3.46875C0.154687 4.17188 0 4.91875 0 5.6875C0 6.79063 0.264063 7.88906 0.782813 8.94844C1.2 9.8 1.78281 10.6297 2.51719 11.4187C3.77188 12.7656 5.0875 13.5891 5.46094 13.8094C5.56694 13.872 5.68783 13.9049 5.81094 13.9047C5.93281 13.9047 6.05312 13.8734 6.16094 13.8094C6.53437 13.5891 7.85 12.7656 9.10469 11.4187C9.83906 10.6312 10.4219 9.8 10.8391 8.94844C11.3609 7.89062 11.625 6.79375 11.625 5.68906C11.625 4.92031 11.4703 4.17344 11.1656 3.47031ZM5.8125 12.7063C4.78281 12.0516 1.125 9.45938 1.125 5.68906C1.125 4.47188 1.61094 3.32812 2.49375 2.46563C3.37969 1.60156 4.55781 1.125 5.8125 1.125C7.06719 1.125 8.24531 1.60156 9.13125 2.46719C10.0141 3.32812 10.5 4.47188 10.5 5.68906C10.5 9.45938 6.84219 12.0516 5.8125 12.7063ZM5.8125 3.0625C4.29375 3.0625 3.0625 4.29375 3.0625 5.8125C3.0625 7.33125 4.29375 8.5625 5.8125 8.5625C7.33125 8.5625 8.5625 7.33125 8.5625 5.8125C8.5625 4.29375 7.33125 3.0625 5.8125 3.0625ZM7.05 7.05C6.88769 7.21278 6.6948 7.34185 6.48242 7.42981C6.27004 7.51776 6.04237 7.56286 5.8125 7.5625C5.34531 7.5625 4.90625 7.37969 4.575 7.05C4.41222 6.88769 4.28315 6.6948 4.19519 6.48242C4.10724 6.27004 4.06214 6.04237 4.0625 5.8125C4.0625 5.34531 4.24531 4.90625 4.575 4.575C4.90625 4.24375 5.34531 4.0625 5.8125 4.0625C6.27969 4.0625 6.71875 4.24375 7.05 4.575C7.38125 4.90625 7.5625 5.34531 7.5625 5.8125C7.5625 6.27969 7.38125 6.71875 7.05 7.05Z" fill="currentColor"/>
</svg>
