<svg width="179" height="139" viewBox="0 0 179 139" fill="none" xmlns="http://www.w3.org/2000/svg">
<g filter="url(#filter0_ddd_4214_21319)">
<rect x="5.5" y="4.5" width="168" height="128" rx="8" fill="#FFF1F0"/>
<rect x="5.5" y="4.5" width="168" height="128" rx="8" stroke="#FFA39E"/>
<g clip-path="url(#clip0_4214_21319)">
<path d="M37.5005 14.2998C40.2067 14.2998 42.6852 14.7301 44.5083 15.4463C45.4175 15.8035 46.194 16.2443 46.7534 16.7637C47.3136 17.284 47.6994 17.9282 47.6997 18.6709V18.6855L47.6987 18.6992L46.9888 33.5986C46.9613 34.1716 46.6624 34.6981 46.1841 35.0146L45.354 35.5625L49.7905 52.3203C50.5888 55.3372 47.9343 58.1396 44.8784 57.5068L38.1079 56.1055C37.7068 56.0225 37.2932 56.0225 36.8921 56.1055L30.1216 57.5068C27.0658 58.1394 24.4113 55.3371 25.2095 52.3203L29.644 35.5635L28.814 35.0146C28.3357 34.6981 28.0377 34.1715 28.0103 33.5986L27.3013 18.6992L27.3003 18.6855V18.6709C27.3006 17.9282 27.6864 17.284 28.2466 16.7637C28.8062 16.2441 29.5841 15.8036 30.4937 15.4463C32.3168 14.7303 34.7944 14.2998 37.5005 14.2998ZM42.8813 37.1982C42.7277 37.3 42.6285 37.4677 42.6138 37.6514L42.4058 40.2441C42.3304 41.1783 41.5509 41.8999 40.6128 41.9004H34.3872C33.4492 41.8998 32.6696 41.1782 32.5942 40.2441L32.3853 37.6523C32.3704 37.4688 32.2712 37.3019 32.1177 37.2002L30.7007 36.2627L26.3696 52.627C25.7994 54.7819 27.6956 56.7851 29.8784 56.333L36.6479 54.9297C37.2098 54.8133 37.7902 54.8133 38.3521 54.9297L45.1216 56.333C47.3044 56.7851 49.2006 54.7819 48.6304 52.627L44.2983 36.2607L42.8813 37.1982ZM38.6997 43.1006C39.6938 43.1006 40.5005 43.9063 40.5005 44.9004V52.1006C40.5002 53.0945 39.6937 53.9004 38.6997 53.9004H36.3003C35.3063 53.9004 34.5007 53.0945 34.5005 52.1006V44.9004C34.5005 43.9063 35.3062 43.1006 36.3003 43.1006H38.6997ZM36.3003 44.2998C35.9689 44.2998 35.6997 44.569 35.6997 44.9004V52.1006C35.6999 52.4318 35.9691 52.7002 36.3003 52.7002H38.6997C39.0309 52.7002 39.3001 52.4318 39.3003 52.1006V44.9004C39.3003 44.569 39.0311 44.2998 38.6997 44.2998H36.3003ZM43.2085 35.2793C39.4093 35.5821 35.5898 35.5821 31.7905 35.2793L31.3345 35.2422L32.7798 36.1992C33.2405 36.5042 33.5359 37.0039 33.5806 37.5547L33.7896 40.1484C33.8149 40.4601 34.0755 40.6998 34.3872 40.7002H40.6128L40.7261 40.6895C40.9854 40.6393 41.1882 40.4214 41.2104 40.1484L41.4185 37.5547C41.4628 37.0036 41.7582 36.5034 42.2192 36.1982L43.6626 35.2422L43.2085 35.2793ZM29.2095 33.541C29.2135 33.6266 29.2363 33.7087 29.2739 33.7832C29.3116 33.7801 29.3503 33.7791 29.3892 33.7822L31.9038 33.9824C35.6277 34.2792 39.3713 34.2792 43.0952 33.9824L45.6108 33.7822C45.6492 33.7792 45.687 33.7803 45.7241 33.7832C45.7619 33.7086 45.7854 33.6267 45.7896 33.541L46.0894 27.2695H28.9106L29.2095 33.541ZM42.6675 19.1885C39.2274 18.9354 35.7716 18.9354 32.3315 19.1885L28.7046 19.4551C28.6472 19.4593 28.5909 19.4542 28.5366 19.4453L28.8481 25.9678H46.1519L46.4634 19.4453C46.409 19.4543 46.353 19.4593 46.2954 19.4551L42.6675 19.1885ZM37.5005 15.5C34.9056 15.5 32.5835 15.9149 30.9321 16.5635C30.1048 16.8885 29.4751 17.261 29.063 17.6436C28.8717 17.8213 28.7367 17.9919 28.647 18.1533L32.228 17.8896C35.7374 17.6315 39.2626 17.6314 42.772 17.8896L46.3521 18.1533C46.2623 17.9921 46.129 17.821 45.938 17.6436C45.526 17.261 44.8961 16.8885 44.0688 16.5635C42.4176 15.9149 40.0953 15.5 37.5005 15.5Z" fill="#CF1322"/>
</g>
<path d="M16.62 82.5V74.892H13.548V74.04H20.688V74.892H17.616V82.5H16.62ZM21.6308 82.5V74.04H22.6028V77.964H22.4468C22.6148 77.5 22.8868 77.152 23.2628 76.92C23.6468 76.68 24.0868 76.56 24.5828 76.56C25.0468 76.56 25.4308 76.644 25.7348 76.812C26.0468 76.98 26.2788 77.236 26.4308 77.58C26.5828 77.916 26.6588 78.344 26.6588 78.864V82.5H25.6868V78.924C25.6868 78.564 25.6388 78.268 25.5428 78.036C25.4548 77.804 25.3108 77.632 25.1108 77.52C24.9188 77.408 24.6668 77.352 24.3548 77.352C24.0028 77.352 23.6948 77.428 23.4308 77.58C23.1668 77.732 22.9628 77.944 22.8188 78.216C22.6748 78.488 22.6028 78.808 22.6028 79.176V82.5H21.6308ZM30.8751 82.608C30.3071 82.608 29.8151 82.484 29.3991 82.236C28.9831 81.988 28.6591 81.64 28.4271 81.192C28.2031 80.736 28.0911 80.2 28.0911 79.584C28.0911 78.968 28.2031 78.436 28.4271 77.988C28.6591 77.532 28.9831 77.18 29.3991 76.932C29.8151 76.684 30.3071 76.56 30.8751 76.56C31.4431 76.56 31.9351 76.684 32.3511 76.932C32.7671 77.18 33.0871 77.532 33.3111 77.988C33.5431 78.436 33.6591 78.968 33.6591 79.584C33.6591 80.2 33.5431 80.736 33.3111 81.192C33.0871 81.64 32.7671 81.988 32.3511 82.236C31.9351 82.484 31.4431 82.608 30.8751 82.608ZM30.8751 81.828C31.4271 81.828 31.8631 81.636 32.1831 81.252C32.5111 80.86 32.6751 80.3 32.6751 79.572C32.6751 78.852 32.5111 78.3 32.1831 77.916C31.8631 77.532 31.4271 77.34 30.8751 77.34C30.3311 77.34 29.8951 77.532 29.5671 77.916C29.2391 78.3 29.0751 78.852 29.0751 79.572C29.0751 80.3 29.2391 80.86 29.5671 81.252C29.8951 81.636 30.3311 81.828 30.8751 81.828ZM29.0991 75.888L30.4071 73.464H31.3431L32.6511 75.888H31.9791L30.8751 74.112L29.7711 75.888H29.0991ZM35.119 82.5V76.668H36.067V77.964H35.935C36.103 77.5 36.375 77.152 36.751 76.92C37.135 76.68 37.575 76.56 38.071 76.56C38.535 76.56 38.919 76.644 39.223 76.812C39.535 76.972 39.767 77.224 39.919 77.568C40.071 77.912 40.147 78.344 40.147 78.864V82.5H39.175V78.924C39.175 78.564 39.127 78.268 39.031 78.036C38.943 77.804 38.799 77.632 38.599 77.52C38.407 77.408 38.155 77.352 37.843 77.352C37.491 77.352 37.183 77.428 36.919 77.58C36.655 77.732 36.451 77.944 36.307 78.216C36.163 78.488 36.091 78.808 36.091 79.176V82.5H35.119ZM44.5193 84.768C44.0153 84.768 43.5393 84.7 43.0913 84.564C42.6513 84.436 42.2593 84.24 41.9153 83.976L42.2393 83.268C42.4793 83.436 42.7153 83.572 42.9473 83.676C43.1873 83.788 43.4313 83.868 43.6793 83.916C43.9353 83.964 44.1993 83.988 44.4713 83.988C45.0393 83.988 45.4673 83.836 45.7553 83.532C46.0513 83.228 46.1993 82.788 46.1993 82.212V80.856H46.3193C46.1993 81.32 45.9433 81.688 45.5513 81.96C45.1673 82.232 44.7153 82.368 44.1953 82.368C43.6593 82.368 43.1953 82.248 42.8033 82.008C42.4113 81.76 42.1073 81.416 41.8913 80.976C41.6833 80.536 41.5793 80.028 41.5793 79.452C41.5793 78.876 41.6833 78.372 41.8913 77.94C42.1073 77.5 42.4113 77.16 42.8033 76.92C43.1953 76.68 43.6593 76.56 44.1953 76.56C44.7233 76.56 45.1793 76.696 45.5633 76.968C45.9473 77.232 46.1953 77.592 46.3073 78.048H46.1993V76.668H47.1473V82.08C47.1473 82.672 47.0473 83.168 46.8473 83.568C46.6553 83.968 46.3633 84.268 45.9713 84.468C45.5793 84.668 45.0953 84.768 44.5193 84.768ZM44.3753 81.576C44.9353 81.576 45.3793 81.384 45.7073 81C46.0353 80.616 46.1993 80.1 46.1993 79.452C46.1993 78.804 46.0353 78.292 45.7073 77.916C45.3793 77.532 44.9353 77.34 44.3753 77.34C43.8233 77.34 43.3833 77.532 43.0553 77.916C42.7273 78.292 42.5633 78.804 42.5633 79.452C42.5633 80.1 42.7273 80.616 43.0553 81C43.3833 81.384 43.8233 81.576 44.3753 81.576ZM55.0046 82.608C54.4766 82.608 54.0206 82.472 53.6366 82.2C53.2606 81.928 53.0086 81.564 52.8806 81.108H53.0006V82.5H52.0526V74.04H53.0246V78.024H52.8806C53.0166 77.576 53.2726 77.22 53.6486 76.956C54.0246 76.692 54.4766 76.56 55.0046 76.56C55.5326 76.56 55.9886 76.684 56.3726 76.932C56.7566 77.172 57.0526 77.52 57.2606 77.976C57.4766 78.424 57.5846 78.96 57.5846 79.584C57.5846 80.2 57.4766 80.736 57.2606 81.192C57.0526 81.64 56.7526 81.988 56.3606 82.236C55.9766 82.484 55.5246 82.608 55.0046 82.608ZM54.8006 81.828C55.3526 81.828 55.7886 81.636 56.1086 81.252C56.4366 80.86 56.6006 80.304 56.6006 79.584C56.6006 78.856 56.4366 78.3 56.1086 77.916C55.7886 77.532 55.3526 77.34 54.8006 77.34C54.2566 77.34 53.8206 77.532 53.4926 77.916C53.1646 78.3 53.0006 78.856 53.0006 79.584C53.0006 80.304 53.1646 80.86 53.4926 81.252C53.8206 81.636 54.2566 81.828 54.8006 81.828ZM60.8847 82.608C60.4847 82.608 60.1247 82.532 59.8047 82.38C59.4927 82.22 59.2447 82.004 59.0607 81.732C58.8767 81.46 58.7847 81.156 58.7847 80.82C58.7847 80.388 58.8927 80.048 59.1087 79.8C59.3327 79.552 59.6967 79.376 60.2007 79.272C60.7127 79.168 61.4087 79.116 62.2887 79.116H62.8287V79.752H62.3007C61.8127 79.752 61.4047 79.768 61.0767 79.8C60.7487 79.832 60.4887 79.888 60.2967 79.968C60.1047 80.048 59.9687 80.152 59.8887 80.28C59.8087 80.408 59.7687 80.568 59.7687 80.76C59.7687 81.088 59.8807 81.356 60.1047 81.564C60.3367 81.772 60.6487 81.876 61.0407 81.876C61.3607 81.876 61.6407 81.8 61.8807 81.648C62.1287 81.496 62.3207 81.288 62.4567 81.024C62.6007 80.76 62.6727 80.456 62.6727 80.112V78.744C62.6727 78.248 62.5727 77.892 62.3727 77.676C62.1727 77.452 61.8447 77.34 61.3887 77.34C61.0367 77.34 60.6967 77.392 60.3687 77.496C60.0407 77.592 59.7047 77.752 59.3607 77.976L59.0247 77.268C59.2327 77.124 59.4687 77 59.7327 76.896C59.9967 76.784 60.2727 76.7 60.5607 76.644C60.8487 76.588 61.1247 76.56 61.3887 76.56C61.8927 76.56 62.3087 76.644 62.6367 76.812C62.9647 76.972 63.2087 77.22 63.3687 77.556C63.5287 77.884 63.6087 78.308 63.6087 78.828V82.5H62.6967V81.144H62.8047C62.7407 81.448 62.6167 81.708 62.4327 81.924C62.2567 82.14 62.0367 82.308 61.7727 82.428C61.5087 82.548 61.2127 82.608 60.8847 82.608ZM61.0527 75.888L62.2887 73.464H63.3327L61.7487 75.888H61.0527ZM67.836 82.608C67.268 82.608 66.776 82.484 66.36 82.236C65.944 81.988 65.62 81.64 65.388 81.192C65.164 80.736 65.052 80.2 65.052 79.584C65.052 78.968 65.164 78.436 65.388 77.988C65.62 77.532 65.944 77.18 66.36 76.932C66.776 76.684 67.268 76.56 67.836 76.56C68.404 76.56 68.896 76.684 69.312 76.932C69.728 77.18 70.048 77.532 70.272 77.988C70.504 78.436 70.62 78.968 70.62 79.584C70.62 80.2 70.504 80.736 70.272 81.192C70.048 81.64 69.728 81.988 69.312 82.236C68.896 82.484 68.404 82.608 67.836 82.608ZM67.836 81.828C68.388 81.828 68.824 81.636 69.144 81.252C69.472 80.86 69.636 80.3 69.636 79.572C69.636 78.852 69.472 78.3 69.144 77.916C68.824 77.532 68.388 77.34 67.836 77.34C67.292 77.34 66.856 77.532 66.528 77.916C66.2 78.3 66.036 78.852 66.036 79.572C66.036 80.3 66.2 80.86 66.528 81.252C66.856 81.636 67.292 81.828 67.836 81.828ZM76.95 82.608C76.358 82.608 75.91 82.432 75.606 82.08C75.31 81.728 75.162 81.224 75.162 80.568V74.04H76.134V80.496C76.134 80.776 76.17 81.012 76.242 81.204C76.322 81.396 76.438 81.54 76.59 81.636C76.742 81.732 76.93 81.78 77.154 81.78C77.25 81.78 77.342 81.776 77.43 81.768C77.526 81.752 77.614 81.732 77.694 81.708L77.67 82.524C77.542 82.548 77.418 82.568 77.298 82.584C77.186 82.6 77.07 82.608 76.95 82.608ZM81.0782 82.608C80.5102 82.608 80.0182 82.484 79.6022 82.236C79.1862 81.988 78.8622 81.64 78.6302 81.192C78.4062 80.736 78.2942 80.2 78.2942 79.584C78.2942 78.968 78.4062 78.436 78.6302 77.988C78.8622 77.532 79.1862 77.18 79.6022 76.932C80.0182 76.684 80.5102 76.56 81.0782 76.56C81.6462 76.56 82.1382 76.684 82.5542 76.932C82.9702 77.18 83.2902 77.532 83.5142 77.988C83.7462 78.436 83.8622 78.968 83.8622 79.584C83.8622 80.2 83.7462 80.736 83.5142 81.192C83.2902 81.64 82.9702 81.988 82.5542 82.236C82.1382 82.484 81.6462 82.608 81.0782 82.608ZM81.0782 81.828C81.6302 81.828 82.0662 81.636 82.3862 81.252C82.7142 80.86 82.8782 80.3 82.8782 79.572C82.8782 78.852 82.7142 78.3 82.3862 77.916C82.0662 77.532 81.6302 77.34 81.0782 77.34C80.5342 77.34 80.0982 77.532 79.7702 77.916C79.4422 78.3 79.2782 78.852 79.2782 79.572C79.2782 80.3 79.4422 80.86 79.7702 81.252C80.0982 81.636 80.5342 81.828 81.0782 81.828ZM79.3022 75.888L80.6102 74.304H81.5462L82.8542 75.888H82.1942L81.0782 74.868L79.9622 75.888H79.3022ZM79.7222 74.004L79.1822 73.98C79.2062 73.708 79.2662 73.48 79.3622 73.296C79.4662 73.112 79.5982 72.976 79.7582 72.888C79.9182 72.8 80.1022 72.756 80.3102 72.756C80.4542 72.756 80.5942 72.784 80.7302 72.84C80.8662 72.896 81.0182 72.984 81.1862 73.104C81.3542 73.216 81.4822 73.292 81.5702 73.332C81.6662 73.372 81.7542 73.392 81.8342 73.392C82.0182 73.392 82.1542 73.34 82.2422 73.236C82.3382 73.132 82.4022 72.968 82.4342 72.744L82.9742 72.768C82.9422 73.176 82.8262 73.484 82.6262 73.692C82.4342 73.892 82.1782 73.992 81.8582 73.992C81.7062 73.992 81.5622 73.964 81.4262 73.908C81.2902 73.844 81.1262 73.744 80.9342 73.608C80.8142 73.536 80.7062 73.476 80.6102 73.428C80.5142 73.38 80.4182 73.356 80.3222 73.356C80.1462 73.356 80.0102 73.408 79.9142 73.512C79.8262 73.616 79.7622 73.78 79.7222 74.004ZM85.2022 75.216V74.124H86.4022V75.216H85.2022ZM85.3222 82.5V76.668H86.2942V82.5H85.3222Z" fill="#CF1322"/>
<path d="M133.5 13H157.5C161.642 13 165 16.3579 165 20.5V44.5C165 48.6421 161.642 52 157.5 52H133.5C129.358 52 126 48.6421 126 44.5V20.5C126 16.3579 129.358 13 133.5 13Z" fill="white"/>
<path d="M133.5 13H157.5C161.642 13 165 16.3579 165 20.5V44.5C165 48.6421 161.642 52 157.5 52H133.5C129.358 52 126 48.6421 126 44.5V20.5C126 16.3579 129.358 13 133.5 13Z" stroke="#DEE4ED"/>
<g clip-path="url(#clip1_4214_21319)">
<path d="M152.757 34.4974L151.605 33.513C151.66 33.179 151.688 32.838 151.688 32.497C151.688 32.156 151.66 31.8149 151.605 31.481L152.757 30.4966C152.844 30.4222 152.906 30.3232 152.935 30.2127C152.964 30.1022 152.959 29.9854 152.92 29.8778L152.904 29.8321C152.588 28.9462 152.113 28.125 151.504 27.4081L151.472 27.3712C151.398 27.2843 151.299 27.2218 151.189 27.192C151.079 27.1622 150.963 27.1664 150.855 27.2042L149.426 27.7122C148.898 27.2798 148.31 26.9388 147.673 26.6997L147.397 25.2056C147.376 25.0931 147.322 24.9897 147.241 24.909C147.16 24.8283 147.056 24.7742 146.944 24.7538L146.896 24.745C145.98 24.5798 145.017 24.5798 144.101 24.745L144.054 24.7538C143.941 24.7742 143.838 24.8283 143.757 24.909C143.676 24.9897 143.621 25.0931 143.6 25.2056L143.323 26.7067C142.691 26.9459 142.104 27.2867 141.582 27.7157L140.143 27.2042C140.035 27.1661 139.918 27.1617 139.808 27.1915C139.698 27.2214 139.6 27.284 139.526 27.3712L139.494 27.4081C138.885 28.1255 138.411 28.9466 138.093 29.8321L138.077 29.8778C137.998 30.0976 138.063 30.3437 138.241 30.4966L139.406 31.4915C139.352 31.822 139.325 32.1595 139.325 32.4952C139.325 32.8327 139.352 33.1702 139.406 33.4989L138.241 34.4938C138.154 34.5682 138.092 34.6672 138.063 34.7777C138.033 34.8883 138.039 35.0051 138.077 35.1126L138.093 35.1583C138.411 36.0442 138.882 36.8616 139.494 37.5823L139.526 37.6192C139.6 37.7062 139.698 37.7686 139.808 37.7985C139.919 37.8283 140.035 37.824 140.143 37.7862L141.582 37.2747C142.106 37.7054 142.692 38.0464 143.323 38.2837L143.6 39.7849C143.621 39.8973 143.676 40.0007 143.757 40.0814C143.838 40.1621 143.941 40.2162 144.054 40.2366L144.101 40.2454C145.026 40.4115 145.972 40.4115 146.896 40.2454L146.944 40.2366C147.056 40.2162 147.16 40.1621 147.241 40.0814C147.322 40.0007 147.376 39.8973 147.397 39.7849L147.673 38.2907C148.309 38.0523 148.902 37.7102 149.426 37.2782L150.855 37.7862C150.963 37.8243 151.079 37.8287 151.189 37.7989C151.3 37.7691 151.398 37.7064 151.472 37.6192L151.504 37.5823C152.115 36.8599 152.586 36.0442 152.904 35.1583L152.92 35.1126C152.999 34.8964 152.934 34.6503 152.757 34.4974ZM150.357 31.6884C150.401 31.9538 150.424 32.2263 150.424 32.4987C150.424 32.7712 150.401 33.0437 150.357 33.3091L150.241 34.014L151.554 35.1372C151.355 35.5958 151.104 36.0299 150.806 36.431L149.174 35.8526L148.622 36.3062C148.202 36.6507 147.735 36.9214 147.229 37.1112L146.559 37.3626L146.244 39.0677C145.748 39.1239 145.246 39.1239 144.75 39.0677L144.435 37.3591L143.771 37.1042C143.27 36.9144 142.804 36.6437 142.388 36.3009L141.836 35.8456L140.194 36.4292C139.895 36.0267 139.645 35.5925 139.445 35.1354L140.772 34.0017L140.658 33.2985C140.616 33.0366 140.593 32.7659 140.593 32.4987C140.593 32.2298 140.614 31.9608 140.658 31.6989L140.772 30.9958L139.445 29.862C139.644 29.4032 139.895 28.9708 140.194 28.5683L141.836 29.1519L142.388 28.6966C142.804 28.3538 143.27 28.0831 143.771 27.8933L144.437 27.6419L144.752 25.9333C145.246 25.8771 145.75 25.8771 146.246 25.9333L146.561 27.6384L147.23 27.8897C147.735 28.0796 148.204 28.3503 148.624 28.6948L149.176 29.1483L150.807 28.57C151.106 28.9726 151.356 29.4067 151.556 29.8638L150.243 30.987L150.357 31.6884ZM145.501 29.2292C143.792 29.2292 142.407 30.6144 142.407 32.3229C142.407 34.0315 143.792 35.4167 145.501 35.4167C147.209 35.4167 148.594 34.0315 148.594 32.3229C148.594 30.6144 147.209 29.2292 145.501 29.2292ZM146.893 33.7151C146.71 33.8983 146.493 34.0435 146.254 34.1424C146.015 34.2414 145.759 34.2921 145.501 34.2917C144.975 34.2917 144.481 34.086 144.108 33.7151C143.925 33.5325 143.78 33.3155 143.681 33.0766C143.582 32.8377 143.531 32.5816 143.532 32.3229C143.532 31.7974 143.738 31.3034 144.108 30.9308C144.481 30.5581 144.975 30.3542 145.501 30.3542C146.026 30.3542 146.52 30.5581 146.893 30.9308C147.076 31.1134 147.221 31.3304 147.32 31.5693C147.419 31.8082 147.47 32.0643 147.469 32.3229C147.469 32.8485 147.264 33.3425 146.893 33.7151Z" fill="black" fill-opacity="0.88"/>
</g>
<path d="M103.5 69H161.5C163.433 69 165 70.567 165 72.5V86.5C165 88.433 163.433 90 161.5 90H103.5C101.567 90 100 88.433 100 86.5V72.5C100 70.567 101.567 69 103.5 69Z" fill="white"/>
<path d="M103.5 69H161.5C163.433 69 165 70.567 165 72.5V86.5C165 88.433 163.433 90 161.5 90H103.5C101.567 90 100 88.433 100 86.5V72.5C100 70.567 101.567 69 103.5 69Z" stroke="#DEE4ED"/>
<path d="M108.544 83.5V75.04H109.528V82.636H113.836V83.5H108.544ZM114.808 76.216V75.124H116.008V76.216H114.808ZM114.928 83.5V77.668H115.9V83.5H114.928ZM114.844 85.744V84.688H115.948V85.744H114.844ZM120.189 83.608C119.605 83.608 119.101 83.48 118.677 83.224C118.253 82.968 117.925 82.612 117.693 82.156C117.469 81.692 117.357 81.156 117.357 80.548C117.357 79.932 117.469 79.4 117.693 78.952C117.925 78.504 118.253 78.16 118.677 77.92C119.101 77.68 119.605 77.56 120.189 77.56C120.549 77.56 120.905 77.624 121.257 77.752C121.609 77.88 121.901 78.06 122.133 78.292L121.797 79C121.565 78.776 121.309 78.612 121.029 78.508C120.757 78.404 120.497 78.352 120.249 78.352C119.641 78.352 119.173 78.544 118.845 78.928C118.517 79.304 118.353 79.848 118.353 80.56C118.353 81.256 118.517 81.808 118.845 82.216C119.173 82.616 119.641 82.816 120.249 82.816C120.497 82.816 120.757 82.764 121.029 82.66C121.309 82.556 121.565 82.388 121.797 82.156L122.133 82.864C121.901 83.096 121.605 83.28 121.245 83.416C120.893 83.544 120.541 83.608 120.189 83.608ZM123.271 83.5V75.04H124.243V78.964H124.087C124.255 78.5 124.527 78.152 124.903 77.92C125.287 77.68 125.727 77.56 126.223 77.56C126.687 77.56 127.071 77.644 127.375 77.812C127.687 77.98 127.919 78.236 128.071 78.58C128.223 78.916 128.299 79.344 128.299 79.864V83.5H127.327V79.924C127.327 79.564 127.279 79.268 127.183 79.036C127.095 78.804 126.951 78.632 126.751 78.52C126.559 78.408 126.307 78.352 125.995 78.352C125.643 78.352 125.335 78.428 125.071 78.58C124.807 78.732 124.603 78.944 124.459 79.216C124.315 79.488 124.243 79.808 124.243 80.176V83.5H123.271ZM135.514 83.608C134.826 83.608 134.31 83.424 133.966 83.056C133.622 82.688 133.45 82.164 133.45 81.484V78.424H132.31V77.668H133.45V75.88H134.422V77.668H136.27V78.424H134.422V81.388C134.422 81.844 134.518 82.192 134.71 82.432C134.902 82.664 135.214 82.78 135.646 82.78C135.774 82.78 135.902 82.764 136.03 82.732C136.158 82.7 136.274 82.668 136.378 82.636L136.546 83.38C136.442 83.436 136.29 83.488 136.09 83.536C135.89 83.584 135.698 83.608 135.514 83.608ZM137.369 83.5V77.668H138.317V79.048H138.197C138.333 78.576 138.569 78.22 138.905 77.98C139.241 77.732 139.685 77.588 140.237 77.548L140.585 77.512L140.657 78.352L140.045 78.424C139.501 78.472 139.081 78.648 138.785 78.952C138.497 79.248 138.353 79.656 138.353 80.176V83.5H137.369ZM141.67 83.5V77.668H142.642V83.5H141.67ZM141.802 76.888L140.23 74.464H141.262L142.498 76.888H141.802ZM144.459 83.5V77.668H145.407V78.964H145.275C145.443 78.5 145.715 78.152 146.091 77.92C146.475 77.68 146.915 77.56 147.411 77.56C147.875 77.56 148.259 77.644 148.563 77.812C148.875 77.972 149.107 78.224 149.259 78.568C149.411 78.912 149.487 79.344 149.487 79.864V83.5H148.515V79.924C148.515 79.564 148.467 79.268 148.371 79.036C148.283 78.804 148.139 78.632 147.939 78.52C147.747 78.408 147.495 78.352 147.183 78.352C146.831 78.352 146.523 78.428 146.259 78.58C145.995 78.732 145.791 78.944 145.647 79.216C145.503 79.488 145.431 79.808 145.431 80.176V83.5H144.459ZM151.279 83.5V75.04H152.251V78.964H152.095C152.263 78.5 152.535 78.152 152.911 77.92C153.295 77.68 153.735 77.56 154.231 77.56C154.695 77.56 155.079 77.644 155.383 77.812C155.695 77.98 155.927 78.236 156.079 78.58C156.231 78.916 156.307 79.344 156.307 79.864V83.5H155.335V79.924C155.335 79.564 155.287 79.268 155.191 79.036C155.103 78.804 154.959 78.632 154.759 78.52C154.567 78.408 154.315 78.352 154.003 78.352C153.651 78.352 153.343 78.428 153.079 78.58C152.815 78.732 152.611 78.944 152.467 79.216C152.323 79.488 152.251 79.808 152.251 80.176V83.5H151.279Z" fill="black" fill-opacity="0.88"/>
<path d="M17.14 118.5V109.624H13.556V108.63H21.886V109.624H18.302V118.5H17.14ZM24.9855 118.626C24.2668 118.626 23.6461 118.486 23.1235 118.206C22.6101 117.917 22.2088 117.511 21.9195 116.988C21.6395 116.465 21.4995 115.84 21.4995 115.112C21.4995 114.403 21.6395 113.787 21.9195 113.264C22.1995 112.732 22.5821 112.317 23.0675 112.018C23.5621 111.719 24.1315 111.57 24.7755 111.57C25.3915 111.57 25.9188 111.705 26.3575 111.976C26.7961 112.247 27.1321 112.629 27.3655 113.124C27.6081 113.619 27.7295 114.211 27.7295 114.902V115.336H22.3675V114.594H26.9735L26.7495 114.776C26.7495 114.029 26.5815 113.451 26.2455 113.04C25.9188 112.62 25.4381 112.41 24.8035 112.41C24.3275 112.41 23.9215 112.522 23.5855 112.746C23.2588 112.961 23.0115 113.264 22.8435 113.656C22.6755 114.039 22.5915 114.487 22.5915 115V115.084C22.5915 115.653 22.6801 116.134 22.8575 116.526C23.0441 116.918 23.3195 117.217 23.6835 117.422C24.0475 117.618 24.4815 117.716 24.9855 117.716C25.3868 117.716 25.7741 117.655 26.1475 117.534C26.5301 117.403 26.8895 117.193 27.2255 116.904L27.6175 117.702C27.3095 117.982 26.9175 118.206 26.4415 118.374C25.9655 118.542 25.4801 118.626 24.9855 118.626ZM22.7035 110.786L24.2295 107.958H25.3215L26.8475 110.786H26.0635L24.7755 108.714L23.4875 110.786H22.7035ZM29.3706 118.5V111.696H30.4766V113.208H30.3226C30.5186 112.667 30.836 112.261 31.2746 111.99C31.7226 111.71 32.236 111.57 32.8146 111.57C33.356 111.57 33.804 111.668 34.1586 111.864C34.5226 112.051 34.7933 112.345 34.9706 112.746C35.148 113.147 35.2366 113.651 35.2366 114.258V118.5H34.1026V114.328C34.1026 113.908 34.0466 113.563 33.9346 113.292C33.832 113.021 33.664 112.821 33.4306 112.69C33.2066 112.559 32.9126 112.494 32.5486 112.494C32.138 112.494 31.7786 112.583 31.4706 112.76C31.1626 112.937 30.9246 113.185 30.7566 113.502C30.5886 113.819 30.5046 114.193 30.5046 114.622V118.5H29.3706ZM43.6534 118.626C42.8507 118.626 42.2487 118.411 41.8474 117.982C41.446 117.553 41.2454 116.941 41.2454 116.148V112.578H39.9154V111.696H41.2454V109.61H42.3794V111.696H44.5354V112.578H42.3794V116.036C42.3794 116.568 42.4914 116.974 42.7154 117.254C42.9394 117.525 43.3034 117.66 43.8074 117.66C43.9567 117.66 44.106 117.641 44.2554 117.604C44.4047 117.567 44.54 117.529 44.6614 117.492L44.8574 118.36C44.736 118.425 44.5587 118.486 44.3254 118.542C44.092 118.598 43.868 118.626 43.6534 118.626ZM45.8179 118.5V108.63H46.9519V113.208H46.7699C46.9659 112.667 47.2832 112.261 47.7219 111.99C48.1699 111.71 48.6832 111.57 49.2619 111.57C49.8032 111.57 50.2512 111.668 50.6059 111.864C50.9699 112.06 51.2406 112.359 51.4179 112.76C51.5952 113.152 51.6839 113.651 51.6839 114.258V118.5H50.5499V114.328C50.5499 113.908 50.4939 113.563 50.3819 113.292C50.2792 113.021 50.1112 112.821 49.8779 112.69C49.6539 112.559 49.3599 112.494 48.9959 112.494C48.5852 112.494 48.2259 112.583 47.9179 112.76C47.6099 112.937 47.3719 113.185 47.2039 113.502C47.0359 113.819 46.9519 114.193 46.9519 114.622V118.5H45.8179ZM53.6349 110.002V108.728H55.0349V110.002H53.6349ZM53.7749 118.5V111.696H54.9089V118.5H53.7749ZM60.0948 118.626C59.3762 118.626 58.7555 118.486 58.2328 118.206C57.7195 117.917 57.3182 117.511 57.0288 116.988C56.7488 116.465 56.6088 115.84 56.6088 115.112C56.6088 114.403 56.7488 113.787 57.0288 113.264C57.3088 112.732 57.6915 112.317 58.1768 112.018C58.6715 111.719 59.2408 111.57 59.8848 111.57C60.5008 111.57 61.0282 111.705 61.4668 111.976C61.9055 112.247 62.2415 112.629 62.4748 113.124C62.7175 113.619 62.8388 114.211 62.8388 114.902V115.336H57.4768V114.594H62.0828L61.8588 114.776C61.8588 114.029 61.6908 113.451 61.3548 113.04C61.0282 112.62 60.5475 112.41 59.9128 112.41C59.4368 112.41 59.0308 112.522 58.6948 112.746C58.3682 112.961 58.1208 113.264 57.9528 113.656C57.7848 114.039 57.7008 114.487 57.7008 115V115.084C57.7008 115.653 57.7895 116.134 57.9668 116.526C58.1535 116.918 58.4288 117.217 58.7928 117.422C59.1568 117.618 59.5908 117.716 60.0948 117.716C60.4962 117.716 60.8835 117.655 61.2568 117.534C61.6395 117.403 61.9988 117.193 62.3348 116.904L62.7268 117.702C62.4188 117.982 62.0268 118.206 61.5508 118.374C61.0748 118.542 60.5895 118.626 60.0948 118.626ZM57.8128 110.786L59.3388 108.518H60.4308L61.9568 110.786H61.1728L59.8848 109.246L58.5968 110.786H57.8128ZM61.2008 109.33L62.4048 107.23H63.4968L61.9428 109.33H61.2008ZM67.21 118.626C66.4073 118.626 65.8053 118.411 65.404 117.982C65.0027 117.553 64.802 116.941 64.802 116.148V112.578H63.472V111.696H64.802V109.61H65.936V111.696H68.092V112.578H65.936V116.036C65.936 116.568 66.048 116.974 66.272 117.254C66.496 117.525 66.86 117.66 67.364 117.66C67.5133 117.66 67.6627 117.641 67.812 117.604C67.9613 117.567 68.0967 117.529 68.218 117.492L68.414 118.36C68.2927 118.425 68.1153 118.486 67.882 118.542C67.6487 118.598 67.4247 118.626 67.21 118.626ZM76.4143 118.626C75.7983 118.626 75.2663 118.467 74.8183 118.15C74.3796 117.833 74.0856 117.408 73.9363 116.876H74.0763V118.5H72.9703V108.63H74.1043V113.278H73.9363C74.0949 112.755 74.3936 112.34 74.8323 112.032C75.2709 111.724 75.7983 111.57 76.4143 111.57C77.0303 111.57 77.5623 111.715 78.0103 112.004C78.4583 112.284 78.8036 112.69 79.0463 113.222C79.2983 113.745 79.4243 114.37 79.4243 115.098C79.4243 115.817 79.2983 116.442 79.0463 116.974C78.8036 117.497 78.4536 117.903 77.9963 118.192C77.5483 118.481 77.0209 118.626 76.4143 118.626ZM76.1763 117.716C76.8203 117.716 77.3289 117.492 77.7023 117.044C78.0849 116.587 78.2763 115.938 78.2763 115.098C78.2763 114.249 78.0849 113.6 77.7023 113.152C77.3289 112.704 76.8203 112.48 76.1763 112.48C75.5416 112.48 75.0329 112.704 74.6503 113.152C74.2676 113.6 74.0763 114.249 74.0763 115.098C74.0763 115.938 74.2676 116.587 74.6503 117.044C75.0329 117.492 75.5416 117.716 76.1763 117.716ZM80.9924 110.002V108.728H82.3924V110.002H80.9924ZM81.1324 118.5V111.696H82.2664V118.5H81.1324ZM81.0344 121.118V119.886H82.3224V121.118H81.0344Z" fill="black" fill-opacity="0.88"/>
<rect x="121.5" y="102.5" width="44" height="22" rx="11" fill="#1677FF"/>
<g clip-path="url(#clip2_4214_21319)">
<g filter="url(#filter1_d_4214_21319)">
<rect x="145.5" y="104.5" width="18" height="18" rx="9" fill="white"/>
</g>
</g>
</g>
<defs>
<filter id="filter0_ddd_4214_21319" x="0" y="0" width="179" height="139" filterUnits="userSpaceOnUse" color-interpolation-filters="sRGB">
<feFlood flood-opacity="0" result="BackgroundImageFix"/>
<feColorMatrix in="SourceAlpha" type="matrix" values="0 0 0 0 0 0 0 0 0 0 0 0 0 0 0 0 0 0 127 0" result="hardAlpha"/>
<feOffset dy="2"/>
<feGaussianBlur stdDeviation="2"/>
<feComposite in2="hardAlpha" operator="out"/>
<feColorMatrix type="matrix" values="0 0 0 0 0 0 0 0 0 0 0 0 0 0 0 0 0 0 0.02 0"/>
<feBlend mode="normal" in2="BackgroundImageFix" result="effect1_dropShadow_4214_21319"/>
<feColorMatrix in="SourceAlpha" type="matrix" values="0 0 0 0 0 0 0 0 0 0 0 0 0 0 0 0 0 0 127 0" result="hardAlpha"/>
<feMorphology radius="1" operator="erode" in="SourceAlpha" result="effect2_dropShadow_4214_21319"/>
<feOffset dy="1"/>
<feGaussianBlur stdDeviation="3"/>
<feComposite in2="hardAlpha" operator="out"/>
<feColorMatrix type="matrix" values="0 0 0 0 0 0 0 0 0 0 0 0 0 0 0 0 0 0 0.02 0"/>
<feBlend mode="normal" in2="effect1_dropShadow_4214_21319" result="effect2_dropShadow_4214_21319"/>
<feColorMatrix in="SourceAlpha" type="matrix" values="0 0 0 0 0 0 0 0 0 0 0 0 0 0 0 0 0 0 127 0" result="hardAlpha"/>
<feOffset dy="1"/>
<feGaussianBlur stdDeviation="1"/>
<feComposite in2="hardAlpha" operator="out"/>
<feColorMatrix type="matrix" values="0 0 0 0 0 0 0 0 0 0 0 0 0 0 0 0 0 0 0.03 0"/>
<feBlend mode="normal" in2="effect2_dropShadow_4214_21319" result="effect3_dropShadow_4214_21319"/>
<feBlend mode="normal" in="SourceGraphic" in2="effect3_dropShadow_4214_21319" result="shape"/>
</filter>
<filter id="filter1_d_4214_21319" x="141.5" y="102.5" width="26" height="26" filterUnits="userSpaceOnUse" color-interpolation-filters="sRGB">
<feFlood flood-opacity="0" result="BackgroundImageFix"/>
<feColorMatrix in="SourceAlpha" type="matrix" values="0 0 0 0 0 0 0 0 0 0 0 0 0 0 0 0 0 0 127 0" result="hardAlpha"/>
<feOffset dy="2"/>
<feGaussianBlur stdDeviation="2"/>
<feColorMatrix type="matrix" values="0 0 0 0 0 0 0 0 0 0.137255 0 0 0 0 0.0431373 0 0 0 0.2 0"/>
<feBlend mode="normal" in2="BackgroundImageFix" result="effect1_dropShadow_4214_21319"/>
<feBlend mode="normal" in="SourceGraphic" in2="effect1_dropShadow_4214_21319" result="shape"/>
</filter>
<clipPath id="clip0_4214_21319">
<rect width="48" height="48" fill="white" transform="translate(13.5 12.5)"/>
</clipPath>
<clipPath id="clip1_4214_21319">
<rect width="18" height="18" fill="white" transform="translate(136.5 23.5)"/>
</clipPath>
<clipPath id="clip2_4214_21319">
<rect width="44" height="22" fill="white" transform="translate(121.5 102.5)"/>
</clipPath>
</defs>
</svg>
