<svg width="40" height="40" viewBox="0 0 40 40" fill="none" xmlns="http://www.w3.org/2000/svg">
<g clip-path="url(#clip0_4004_19047)">
<path d="M26 20C26 16.6863 23.3137 14 20 14C16.6863 14 14 16.6863 14 20C14 23.3137 16.6863 26 20 26V27C16.134 27 13 23.866 13 20C13 16.134 16.134 13 20 13C23.866 13 27 16.134 27 20C27 23.866 23.866 27 20 27V26C23.3137 26 26 23.3137 26 20Z" fill="currentColor"/>
<path d="M22.7129 0.571803C23.6776 0.51725 24.4417 1.37583 24.2754 2.32766L22.8877 10.2583C22.762 10.9759 22.1386 11.4994 21.4101 11.4995H18.6591C17.9401 11.4994 17.3223 10.9889 17.1865 10.2827L15.7246 2.67044C15.5535 1.77938 16.2064 0.941744 17.1123 0.890162L22.7129 0.571803ZM17.1689 1.88821C16.8671 1.90551 16.65 2.18499 16.707 2.48196L18.1689 10.0943C18.2143 10.3294 18.4197 10.4994 18.6591 10.4995H21.4101C21.6529 10.4994 21.8605 10.3246 21.9023 10.0855L23.29 2.15579C23.3455 1.83852 23.091 1.5518 22.7695 1.56985L17.1689 1.88821Z" fill="currentColor"/>
<path d="M8.18078 4.34468C8.82436 3.62395 9.97176 3.69077 10.5272 4.48141L15.1538 11.0705C15.5723 11.6667 15.5017 12.4777 14.9867 12.9929L13.0414 14.9382C12.5329 15.4465 11.735 15.5224 11.1397 15.1191L4.72328 10.7701C3.97224 10.261 3.84162 9.20702 4.44568 8.53001L8.18078 4.34468ZM5.19146 9.19568C4.99024 9.42137 5.03436 9.77249 5.28468 9.94215L11.7011 14.2911C11.8995 14.4253 12.1649 14.4003 12.3343 14.2311L14.2796 12.2858C14.4511 12.1141 14.4743 11.8437 14.3348 11.645L9.70893 5.05662C9.52385 4.79302 9.14114 4.77025 8.92656 5.01036L5.19146 9.19568Z" fill="currentColor"/>
<path d="M0.572291 17.2871C0.517739 16.3224 1.37632 15.5583 2.32815 15.7246L10.2588 17.1123C10.9764 17.238 11.4999 17.8614 11.5 18.5899V21.3409C11.4999 22.0599 10.9894 22.6777 10.2832 22.8135L2.67092 24.2754C1.77987 24.4465 0.942232 23.7936 0.89065 22.8877L0.572291 17.2871ZM1.8887 22.8311C1.906 23.1329 2.18548 23.35 2.48245 23.293L10.0948 21.8311C10.3299 21.7857 10.4999 21.5803 10.5 21.3409V18.5899C10.4999 18.3471 10.3251 18.1395 10.086 18.0977L2.15628 16.71C1.83901 16.6545 1.55229 16.909 1.57034 17.2305L1.8887 22.8311Z" fill="currentColor"/>
<path d="M4.34468 31.8187C3.62395 31.1752 3.69077 30.0277 4.48141 29.4723L11.0705 24.8457C11.6667 24.4272 12.4777 24.4978 12.9929 25.0128L14.9382 26.9581C15.4465 27.4667 15.5224 28.2645 15.1191 28.8598L10.7701 35.2762C10.261 36.0273 9.20702 36.1579 8.53001 35.5538L4.34468 31.8187ZM9.19568 34.8081C9.42137 35.0093 9.77249 34.9652 9.94215 34.7148L14.2911 28.2984C14.4253 28.1 14.4003 27.8346 14.2311 27.6652L12.2858 25.7199C12.1141 25.5484 11.8437 25.5252 11.645 25.6647L5.05662 30.2906C4.79302 30.4757 4.77025 30.8584 5.01036 31.073L9.19568 34.8081Z" fill="currentColor"/>
<path d="M17.2871 39.4272C16.3224 39.4818 15.5583 38.6232 15.7246 37.6714L17.1123 29.7407C17.238 29.0231 17.8614 28.4997 18.5899 28.4995H21.3409C22.0599 28.4997 22.6777 29.0101 22.8135 29.7163L24.2754 37.3286C24.4465 38.2196 23.7936 39.0573 22.8877 39.1089L17.2871 39.4272ZM22.8311 38.1108C23.1329 38.0935 23.35 37.814 23.293 37.5171L21.8311 29.9048C21.7857 29.6697 21.5803 29.4997 21.3409 29.4995H18.5899C18.3471 29.4997 18.1395 29.6744 18.0977 29.9136L16.71 37.8432C16.6545 38.1605 16.909 38.4472 17.2305 38.4292L22.8311 38.1108Z" fill="currentColor"/>
<path d="M31.8192 35.6553C31.1756 36.376 30.0282 36.3092 29.4728 35.5186L24.8462 28.9295C24.4277 28.3333 24.4983 27.5223 25.0133 27.0071L26.9586 25.0618C27.4671 24.5535 28.265 24.4776 28.8603 24.8809L35.2767 29.2299C36.0278 29.739 36.1584 30.793 35.5543 31.47L31.8192 35.6553ZM34.8085 30.8043C35.0098 30.5786 34.9656 30.2275 34.7153 30.0579L28.2989 25.7089C28.1005 25.5747 27.8351 25.5997 27.6657 25.7689L25.7204 27.7142C25.5489 27.8859 25.5257 28.1563 25.6652 28.355L30.2911 34.9434C30.4761 35.207 30.8589 35.2298 31.0734 34.9896L34.8085 30.8043Z" fill="currentColor"/>
<path d="M39.4277 22.7129C39.4823 23.6776 38.6237 24.4417 37.6719 24.2754L29.7412 22.8877C29.0236 22.762 28.5001 22.1386 28.5 21.4101V18.6591C28.5002 17.9401 29.0106 17.3223 29.7168 17.1865L37.3291 15.7246C38.2201 15.5535 39.0578 16.2064 39.1093 17.1123L39.4277 22.7129ZM38.1113 17.1689C38.094 16.8671 37.8145 16.65 37.5176 16.707L29.9052 18.1689C29.6701 18.2143 29.5001 18.4197 29.5 18.6591V21.4101C29.5001 21.6529 29.6749 21.8605 29.914 21.9023L37.8437 23.29C38.161 23.3455 38.4477 23.091 38.4297 22.7695L38.1113 17.1689Z" fill="currentColor"/>
<path d="M35.6553 8.18029C36.376 8.82387 36.3092 9.97128 35.5186 10.5267L28.9295 15.1533C28.3333 15.5719 27.5223 15.5012 27.0071 14.9862L25.0618 13.041C24.5535 12.5324 24.4776 11.7346 24.8809 11.1392L29.2299 4.72279C29.739 3.97175 30.793 3.84113 31.47 4.44519L35.6553 8.18029ZM30.8043 5.19097C30.5786 4.98976 30.2275 5.03387 30.0579 5.28419L25.7089 11.7006C25.5747 11.899 25.5997 12.1644 25.7689 12.3339L27.7142 14.2791C27.8859 14.4506 28.1563 14.4738 28.355 14.3343L34.9434 9.70844C35.207 9.52336 35.2298 9.14065 34.9896 8.92607L30.8043 5.19097Z" fill="currentColor"/>
<path d="M21 20C21 19.4477 20.5523 19 20 19C19.4477 19 19 19.4477 19 20C19 20.5523 19.4477 21 20 21V22C18.8954 22 18 21.1046 18 20C18 18.8954 18.8954 18 20 18C21.1046 18 22 18.8954 22 20C22 21.1046 21.1046 22 20 22V21C20.5523 21 21 20.5523 21 20Z" fill="currentColor"/></g>
<defs>
<clipPath id="clip0_4004_19047">
<rect width="40" height="40" fill="white"/>
</clipPath>
</defs>
</svg>
