<svg width="14" height="13" viewBox="0 0 14 13" fill="none" xmlns="http://www.w3.org/2000/svg">
<path d="M13.6407 4.54585H9.64071C9.57196 4.54585 9.51571 4.6021 9.51571 4.67085V5.42084C9.51571 5.48959 9.57196 5.54584 9.64071 5.54584H13.6407C13.7095 5.54584 13.7657 5.48959 13.7657 5.42084V4.67085C13.7657 4.6021 13.7095 4.54585 13.6407 4.54585ZM11.547 6.67084H9.64071C9.57196 6.67084 9.51571 6.72709 9.51571 6.79584V7.54584C9.51571 7.61459 9.57196 7.67084 9.64071 7.67084H11.547C11.6157 7.67084 11.672 7.61459 11.672 7.54584V6.79584C11.672 6.72709 11.6157 6.67084 11.547 6.67084ZM6.3329 3.14741H5.65634C5.55946 3.14741 5.48134 3.22553 5.48134 3.32241V7.19741C5.48134 7.25366 5.5079 7.30522 5.55321 7.33803L7.87978 9.0349C7.9579 9.09115 8.06728 9.07553 8.12353 8.9974L8.52509 8.44897V8.4474C8.58134 8.36928 8.56415 8.2599 8.48603 8.20365L6.50634 6.77241V3.32241C6.5079 3.22553 6.42821 3.14741 6.3329 3.14741Z" fill="black" fill-opacity="0.88"/>
<path d="M11.45 8.63798H10.5469C10.4594 8.63798 10.3766 8.68329 10.3297 8.75829C10.1313 9.07235 9.90001 9.36298 9.63438 9.6286C9.17657 10.0864 8.64376 10.4458 8.05157 10.6958C7.43751 10.9552 6.78595 11.0864 6.11407 11.0864C5.44063 11.0864 4.78907 10.9552 4.17657 10.6958C3.58438 10.4458 3.05157 10.0864 2.59376 9.6286C2.13595 9.17079 1.77657 8.63798 1.52657 8.04579C1.2672 7.43329 1.13595 6.78173 1.13595 6.10829C1.13595 5.43485 1.2672 4.78485 1.52657 4.17079C1.77657 3.5786 2.13595 3.04579 2.59376 2.58798C3.05157 2.13016 3.58438 1.77079 4.17657 1.52079C4.78907 1.26141 5.4422 1.13016 6.11407 1.13016C6.78751 1.13016 7.43907 1.26141 8.05157 1.52079C8.64376 1.77079 9.17657 2.13016 9.63438 2.58798C9.90001 2.8536 10.1313 3.14423 10.3297 3.45829C10.3766 3.53329 10.4594 3.5786 10.5469 3.5786H11.45C11.5578 3.5786 11.6266 3.4661 11.5781 3.37079C10.5594 1.34423 8.49376 0.0270391 6.18751 0.000476604C2.81095 -0.0417109 0.00626067 2.72235 1.06747e-05 6.09579C-0.00623932 9.47548 2.73282 12.2177 6.11251 12.2177C8.44845 12.2177 10.5484 10.8958 11.5781 8.84579C11.6266 8.75048 11.5563 8.63798 11.45 8.63798Z" fill="black" fill-opacity="0.88"/>
</svg>
