<svg width="179" height="135" viewBox="0 0 179 135" fill="none" xmlns="http://www.w3.org/2000/svg">
<g filter="url(#filter0_ddd_11181_65685)">
<rect x="5.5" y="4.5" width="168" height="124" rx="8" fill="white"/>
<rect x="5.5" y="4.5" width="168" height="124" rx="8" stroke="#91CAFF"/>
<g clip-path="url(#clip0_11181_65685)">
<path d="M37.5005 14.2998C40.2067 14.2998 42.6852 14.7301 44.5083 15.4463C45.4175 15.8035 46.194 16.2443 46.7534 16.7637C47.3136 17.284 47.6994 17.9282 47.6997 18.6709V18.6855L47.6987 18.6992L46.9888 33.5986C46.9613 34.1716 46.6624 34.6981 46.1841 35.0146L45.354 35.5625L49.7905 52.3203C50.5888 55.3372 47.9343 58.1396 44.8784 57.5068L38.1079 56.1055C37.7068 56.0225 37.2932 56.0225 36.8921 56.1055L30.1216 57.5068C27.0658 58.1394 24.4113 55.3371 25.2095 52.3203L29.644 35.5635L28.814 35.0146C28.3357 34.6981 28.0377 34.1715 28.0103 33.5986L27.3013 18.6992L27.3003 18.6855V18.6709C27.3006 17.9282 27.6864 17.284 28.2466 16.7637C28.8062 16.2441 29.5841 15.8036 30.4937 15.4463C32.3168 14.7303 34.7944 14.2998 37.5005 14.2998ZM42.8813 37.1982C42.7277 37.3 42.6285 37.4677 42.6138 37.6514L42.4058 40.2441C42.3304 41.1783 41.5509 41.8999 40.6128 41.9004H34.3872C33.4492 41.8998 32.6696 41.1782 32.5942 40.2441L32.3853 37.6523C32.3704 37.4688 32.2712 37.3019 32.1177 37.2002L30.7007 36.2627L26.3696 52.627C25.7994 54.7819 27.6956 56.7851 29.8784 56.333L36.6479 54.9297C37.2098 54.8133 37.7902 54.8133 38.3521 54.9297L45.1216 56.333C47.3044 56.7851 49.2006 54.7819 48.6304 52.627L44.2983 36.2607L42.8813 37.1982ZM38.6997 43.1006C39.6938 43.1006 40.5005 43.9063 40.5005 44.9004V52.1006C40.5002 53.0945 39.6937 53.9004 38.6997 53.9004H36.3003C35.3063 53.9004 34.5007 53.0945 34.5005 52.1006V44.9004C34.5005 43.9063 35.3062 43.1006 36.3003 43.1006H38.6997ZM36.3003 44.2998C35.9689 44.2998 35.6997 44.569 35.6997 44.9004V52.1006C35.6999 52.4318 35.9691 52.7002 36.3003 52.7002H38.6997C39.0309 52.7002 39.3001 52.4318 39.3003 52.1006V44.9004C39.3003 44.569 39.0311 44.2998 38.6997 44.2998H36.3003ZM43.2085 35.2793C39.4093 35.5821 35.5898 35.5821 31.7905 35.2793L31.3345 35.2422L32.7798 36.1992C33.2405 36.5042 33.5359 37.0039 33.5806 37.5547L33.7896 40.1484C33.8149 40.4601 34.0755 40.6998 34.3872 40.7002H40.6128L40.7261 40.6895C40.9854 40.6393 41.1882 40.4214 41.2104 40.1484L41.4185 37.5547C41.4628 37.0036 41.7582 36.5034 42.2192 36.1982L43.6626 35.2422L43.2085 35.2793ZM29.2095 33.541C29.2135 33.6266 29.2363 33.7087 29.2739 33.7832C29.3116 33.7801 29.3503 33.7791 29.3892 33.7822L31.9038 33.9824C35.6277 34.2792 39.3713 34.2792 43.0952 33.9824L45.6108 33.7822C45.6492 33.7792 45.687 33.7803 45.7241 33.7832C45.7619 33.7086 45.7854 33.6267 45.7896 33.541L46.0894 27.2695H28.9106L29.2095 33.541ZM42.6675 19.1885C39.2274 18.9354 35.7716 18.9354 32.3315 19.1885L28.7046 19.4551C28.6472 19.4593 28.5909 19.4542 28.5366 19.4453L28.8481 25.9678H46.1519L46.4634 19.4453C46.409 19.4543 46.353 19.4593 46.2954 19.4551L42.6675 19.1885ZM37.5005 15.5C34.9056 15.5 32.5835 15.9149 30.9321 16.5635C30.1048 16.8885 29.4751 17.261 29.063 17.6436C28.8717 17.8213 28.7367 17.9919 28.647 18.1533L32.228 17.8896C35.7374 17.6315 39.2626 17.6314 42.772 17.8896L46.3521 18.1533C46.2623 17.9921 46.129 17.821 45.938 17.6436C45.526 17.261 44.8961 16.8885 44.0688 16.5635C42.4176 15.9149 40.0953 15.5 37.5005 15.5Z" fill="#1677FF"/>
</g>
<path d="M133.5 13H157.5C161.642 13 165 16.3579 165 20.5V44.5C165 48.6421 161.642 52 157.5 52H133.5C129.358 52 126 48.6421 126 44.5V20.5C126 16.3579 129.358 13 133.5 13Z" fill="white"/>
<path d="M133.5 13H157.5C161.642 13 165 16.3579 165 20.5V44.5C165 48.6421 161.642 52 157.5 52H133.5C129.358 52 126 48.6421 126 44.5V20.5C126 16.3579 129.358 13 133.5 13Z" stroke="#DEE4ED"/>
<g clip-path="url(#clip1_11181_65685)">
<path d="M152.757 34.4974L151.605 33.513C151.66 33.179 151.688 32.838 151.688 32.497C151.688 32.156 151.66 31.8149 151.605 31.481L152.757 30.4966C152.844 30.4222 152.906 30.3232 152.935 30.2127C152.964 30.1022 152.959 29.9854 152.92 29.8778L152.904 29.8321C152.588 28.9462 152.113 28.125 151.504 27.4081L151.472 27.3712C151.398 27.2843 151.299 27.2218 151.189 27.192C151.079 27.1622 150.963 27.1664 150.855 27.2042L149.426 27.7122C148.898 27.2798 148.31 26.9388 147.673 26.6997L147.397 25.2056C147.376 25.0931 147.322 24.9897 147.241 24.909C147.16 24.8283 147.056 24.7742 146.944 24.7538L146.896 24.745C145.98 24.5798 145.017 24.5798 144.101 24.745L144.054 24.7538C143.941 24.7742 143.838 24.8283 143.757 24.909C143.676 24.9897 143.621 25.0931 143.6 25.2056L143.323 26.7067C142.691 26.9459 142.104 27.2867 141.582 27.7157L140.143 27.2042C140.035 27.1661 139.918 27.1617 139.808 27.1915C139.698 27.2214 139.6 27.284 139.526 27.3712L139.494 27.4081C138.885 28.1255 138.411 28.9466 138.093 29.8321L138.077 29.8778C137.998 30.0976 138.063 30.3437 138.241 30.4966L139.406 31.4915C139.352 31.822 139.325 32.1595 139.325 32.4952C139.325 32.8327 139.352 33.1702 139.406 33.4989L138.241 34.4938C138.154 34.5682 138.092 34.6672 138.063 34.7777C138.033 34.8883 138.039 35.0051 138.077 35.1126L138.093 35.1583C138.411 36.0442 138.882 36.8616 139.494 37.5823L139.526 37.6192C139.6 37.7062 139.698 37.7686 139.808 37.7985C139.919 37.8283 140.035 37.824 140.143 37.7862L141.582 37.2747C142.106 37.7054 142.692 38.0464 143.323 38.2837L143.6 39.7849C143.621 39.8973 143.676 40.0007 143.757 40.0814C143.838 40.1621 143.941 40.2162 144.054 40.2366L144.101 40.2454C145.026 40.4115 145.972 40.4115 146.896 40.2454L146.944 40.2366C147.056 40.2162 147.16 40.1621 147.241 40.0814C147.322 40.0007 147.376 39.8973 147.397 39.7849L147.673 38.2907C148.309 38.0523 148.902 37.7102 149.426 37.2782L150.855 37.7862C150.963 37.8243 151.079 37.8287 151.189 37.7989C151.3 37.7691 151.398 37.7064 151.472 37.6192L151.504 37.5823C152.115 36.8599 152.586 36.0442 152.904 35.1583L152.92 35.1126C152.999 34.8964 152.934 34.6503 152.757 34.4974ZM150.357 31.6884C150.401 31.9538 150.424 32.2263 150.424 32.4987C150.424 32.7712 150.401 33.0437 150.357 33.3091L150.241 34.014L151.554 35.1372C151.355 35.5958 151.104 36.0299 150.806 36.431L149.174 35.8526L148.622 36.3062C148.202 36.6507 147.735 36.9214 147.229 37.1112L146.559 37.3626L146.244 39.0677C145.748 39.1239 145.246 39.1239 144.75 39.0677L144.435 37.3591L143.771 37.1042C143.27 36.9144 142.804 36.6437 142.388 36.3009L141.836 35.8456L140.194 36.4292C139.895 36.0267 139.645 35.5925 139.445 35.1354L140.772 34.0017L140.658 33.2985C140.616 33.0366 140.593 32.7659 140.593 32.4987C140.593 32.2298 140.614 31.9608 140.658 31.6989L140.772 30.9958L139.445 29.862C139.644 29.4032 139.895 28.9708 140.194 28.5683L141.836 29.1519L142.388 28.6966C142.804 28.3538 143.27 28.0831 143.771 27.8933L144.437 27.6419L144.752 25.9333C145.246 25.8771 145.75 25.8771 146.246 25.9333L146.561 27.6384L147.23 27.8897C147.735 28.0796 148.204 28.3503 148.624 28.6948L149.176 29.1483L150.807 28.57C151.106 28.9726 151.356 29.4067 151.556 29.8638L150.243 30.987L150.357 31.6884ZM145.501 29.2292C143.792 29.2292 142.407 30.6144 142.407 32.3229C142.407 34.0315 143.792 35.4167 145.501 35.4167C147.209 35.4167 148.594 34.0315 148.594 32.3229C148.594 30.6144 147.209 29.2292 145.501 29.2292ZM146.893 33.7151C146.71 33.8983 146.493 34.0435 146.254 34.1424C146.015 34.2414 145.759 34.2921 145.501 34.2917C144.975 34.2917 144.481 34.086 144.108 33.7151C143.925 33.5325 143.78 33.3155 143.681 33.0766C143.582 32.8377 143.531 32.5816 143.532 32.3229C143.532 31.7974 143.738 31.3034 144.108 30.9308C144.481 30.5581 144.975 30.3542 145.501 30.3542C146.026 30.3542 146.52 30.5581 146.893 30.9308C147.076 31.1134 147.221 31.3304 147.32 31.5693C147.419 31.8082 147.47 32.0643 147.469 32.3229C147.469 32.8485 147.264 33.3425 146.893 33.7151Z" fill="black" fill-opacity="0.88"/>
</g>
<path d="M103.5 65H161.5C163.433 65 165 66.567 165 68.5V82.5C165 84.433 163.433 86 161.5 86H103.5C101.567 86 100 84.433 100 82.5V68.5C100 66.567 101.567 65 103.5 65Z" fill="white"/>
<path d="M103.5 65H161.5C163.433 65 165 66.567 165 68.5V82.5C165 84.433 163.433 86 161.5 86H103.5C101.567 86 100 84.433 100 82.5V68.5C100 66.567 101.567 65 103.5 65Z" stroke="#DEE4ED"/>
<path d="M110.62 79.5V71.892H107.548V71.04H114.688V71.892H111.616V79.5H110.62ZM115.631 79.5V71.04H116.603V74.964H116.447C116.615 74.5 116.887 74.152 117.263 73.92C117.647 73.68 118.087 73.56 118.583 73.56C119.047 73.56 119.431 73.644 119.735 73.812C120.047 73.98 120.279 74.236 120.431 74.58C120.583 74.916 120.659 75.344 120.659 75.864V79.5H119.687V75.924C119.687 75.564 119.639 75.268 119.543 75.036C119.455 74.804 119.311 74.632 119.111 74.52C118.919 74.408 118.667 74.352 118.355 74.352C118.003 74.352 117.695 74.428 117.431 74.58C117.167 74.732 116.963 74.944 116.819 75.216C116.675 75.488 116.603 75.808 116.603 76.176V79.5H115.631ZM124.515 79.608C124.043 79.608 123.651 79.524 123.339 79.356C123.035 79.18 122.803 78.92 122.643 78.576C122.491 78.232 122.415 77.804 122.415 77.292V73.668H123.387V77.28C123.387 77.624 123.431 77.912 123.519 78.144C123.615 78.368 123.763 78.536 123.963 78.648C124.163 78.752 124.411 78.804 124.707 78.804C125.043 78.804 125.335 78.728 125.583 78.576C125.831 78.424 126.027 78.212 126.171 77.94C126.315 77.668 126.387 77.348 126.387 76.98V73.668H127.359V79.5H126.411V78.156H126.567C126.407 78.628 126.143 78.988 125.775 79.236C125.415 79.484 124.995 79.608 124.515 79.608ZM124.587 72.876V72.624C124.587 72.44 124.623 72.288 124.695 72.168C124.775 72.048 124.863 71.948 124.959 71.868C125.055 71.78 125.139 71.692 125.211 71.604C125.291 71.516 125.331 71.416 125.331 71.304C125.331 71.192 125.283 71.108 125.187 71.052C125.099 70.996 124.963 70.968 124.779 70.968C124.651 70.968 124.527 70.984 124.407 71.016C124.295 71.04 124.167 71.084 124.023 71.148L123.855 70.644C124.007 70.548 124.175 70.48 124.359 70.44C124.543 70.4 124.743 70.38 124.959 70.38C125.327 70.38 125.611 70.452 125.811 70.596C126.019 70.732 126.123 70.932 126.123 71.196C126.123 71.396 126.079 71.556 125.991 71.676C125.903 71.796 125.799 71.9 125.679 71.988C125.567 72.076 125.463 72.172 125.367 72.276C125.279 72.38 125.235 72.516 125.235 72.684V72.876H124.587ZM134.732 79.608C134.148 79.608 133.644 79.48 133.22 79.224C132.796 78.968 132.468 78.612 132.236 78.156C132.012 77.692 131.9 77.156 131.9 76.548C131.9 75.932 132.012 75.4 132.236 74.952C132.468 74.504 132.796 74.16 133.22 73.92C133.644 73.68 134.148 73.56 134.732 73.56C135.092 73.56 135.448 73.624 135.8 73.752C136.152 73.88 136.444 74.06 136.676 74.292L136.34 75C136.108 74.776 135.852 74.612 135.572 74.508C135.3 74.404 135.04 74.352 134.792 74.352C134.184 74.352 133.716 74.544 133.388 74.928C133.06 75.304 132.896 75.848 132.896 76.56C132.896 77.256 133.06 77.808 133.388 78.216C133.716 78.616 134.184 78.816 134.792 78.816C135.04 78.816 135.3 78.764 135.572 78.66C135.852 78.556 136.108 78.388 136.34 78.156L136.676 78.864C136.444 79.096 136.148 79.28 135.788 79.416C135.436 79.544 135.084 79.608 134.732 79.608ZM140.121 79.608C139.553 79.608 139.061 79.484 138.645 79.236C138.229 78.988 137.905 78.64 137.673 78.192C137.449 77.736 137.337 77.2 137.337 76.584C137.337 75.968 137.449 75.436 137.673 74.988C137.905 74.532 138.229 74.18 138.645 73.932C139.061 73.684 139.553 73.56 140.121 73.56C140.689 73.56 141.181 73.684 141.597 73.932C142.013 74.18 142.333 74.532 142.557 74.988C142.789 75.436 142.905 75.968 142.905 76.584C142.905 77.2 142.789 77.736 142.557 78.192C142.333 78.64 142.013 78.988 141.597 79.236C141.181 79.484 140.689 79.608 140.121 79.608ZM140.121 78.828C140.673 78.828 141.109 78.636 141.429 78.252C141.757 77.86 141.921 77.3 141.921 76.572C141.921 75.852 141.757 75.3 141.429 74.916C141.109 74.532 140.673 74.34 140.121 74.34C139.577 74.34 139.141 74.532 138.813 74.916C138.485 75.3 138.321 75.852 138.321 76.572C138.321 77.3 138.485 77.86 138.813 78.252C139.141 78.636 139.577 78.828 140.121 78.828ZM138.345 72.888L139.653 70.464H140.589L141.897 72.888H141.225L140.121 71.112L139.017 72.888H138.345ZM144.365 79.5V73.668H145.313V74.964H145.181C145.349 74.5 145.621 74.152 145.997 73.92C146.381 73.68 146.821 73.56 147.317 73.56C147.781 73.56 148.165 73.644 148.469 73.812C148.781 73.972 149.013 74.224 149.165 74.568C149.317 74.912 149.393 75.344 149.393 75.864V79.5H148.421V75.924C148.421 75.564 148.373 75.268 148.277 75.036C148.189 74.804 148.045 74.632 147.845 74.52C147.653 74.408 147.401 74.352 147.089 74.352C146.737 74.352 146.429 74.428 146.165 74.58C145.901 74.732 145.697 74.944 145.553 75.216C145.409 75.488 145.337 75.808 145.337 76.176V79.5H144.365ZM153.765 81.768C153.261 81.768 152.785 81.7 152.337 81.564C151.897 81.436 151.505 81.24 151.161 80.976L151.485 80.268C151.725 80.436 151.961 80.572 152.193 80.676C152.433 80.788 152.677 80.868 152.925 80.916C153.181 80.964 153.445 80.988 153.717 80.988C154.285 80.988 154.713 80.836 155.001 80.532C155.297 80.228 155.445 79.788 155.445 79.212V77.856H155.565C155.445 78.32 155.189 78.688 154.797 78.96C154.413 79.232 153.961 79.368 153.441 79.368C152.905 79.368 152.441 79.248 152.049 79.008C151.657 78.76 151.353 78.416 151.137 77.976C150.929 77.536 150.825 77.028 150.825 76.452C150.825 75.876 150.929 75.372 151.137 74.94C151.353 74.5 151.657 74.16 152.049 73.92C152.441 73.68 152.905 73.56 153.441 73.56C153.969 73.56 154.425 73.696 154.809 73.968C155.193 74.232 155.441 74.592 155.553 75.048H155.445V73.668H156.393V79.08C156.393 79.672 156.293 80.168 156.093 80.568C155.901 80.968 155.609 81.268 155.217 81.468C154.825 81.668 154.341 81.768 153.765 81.768ZM153.621 78.576C154.181 78.576 154.625 78.384 154.953 78C155.281 77.616 155.445 77.1 155.445 76.452C155.445 75.804 155.281 75.292 154.953 74.916C154.625 74.532 154.181 74.34 153.621 74.34C153.069 74.34 152.629 74.532 152.301 74.916C151.973 75.292 151.809 75.804 151.809 76.452C151.809 77.1 151.973 77.616 152.301 78C152.629 78.384 153.069 78.576 153.621 78.576Z" fill="black" fill-opacity="0.88"/>
<path d="M17.14 114.5V105.624H13.556V104.63H21.886V105.624H18.302V114.5H17.14ZM24.9855 114.626C24.2668 114.626 23.6461 114.486 23.1235 114.206C22.6101 113.917 22.2088 113.511 21.9195 112.988C21.6395 112.465 21.4995 111.84 21.4995 111.112C21.4995 110.403 21.6395 109.787 21.9195 109.264C22.1995 108.732 22.5821 108.317 23.0675 108.018C23.5621 107.719 24.1315 107.57 24.7755 107.57C25.3915 107.57 25.9188 107.705 26.3575 107.976C26.7961 108.247 27.1321 108.629 27.3655 109.124C27.6081 109.619 27.7295 110.211 27.7295 110.902V111.336H22.3675V110.594H26.9735L26.7495 110.776C26.7495 110.029 26.5815 109.451 26.2455 109.04C25.9188 108.62 25.4381 108.41 24.8035 108.41C24.3275 108.41 23.9215 108.522 23.5855 108.746C23.2588 108.961 23.0115 109.264 22.8435 109.656C22.6755 110.039 22.5915 110.487 22.5915 111V111.084C22.5915 111.653 22.6801 112.134 22.8575 112.526C23.0441 112.918 23.3195 113.217 23.6835 113.422C24.0475 113.618 24.4815 113.716 24.9855 113.716C25.3868 113.716 25.7741 113.655 26.1475 113.534C26.5301 113.403 26.8895 113.193 27.2255 112.904L27.6175 113.702C27.3095 113.982 26.9175 114.206 26.4415 114.374C25.9655 114.542 25.4801 114.626 24.9855 114.626ZM22.7035 106.786L24.2295 103.958H25.3215L26.8475 106.786H26.0635L24.7755 104.714L23.4875 106.786H22.7035ZM29.3706 114.5V107.696H30.4766V109.208H30.3226C30.5186 108.667 30.836 108.261 31.2746 107.99C31.7226 107.71 32.236 107.57 32.8146 107.57C33.356 107.57 33.804 107.668 34.1586 107.864C34.5226 108.051 34.7933 108.345 34.9706 108.746C35.148 109.147 35.2366 109.651 35.2366 110.258V114.5H34.1026V110.328C34.1026 109.908 34.0466 109.563 33.9346 109.292C33.832 109.021 33.664 108.821 33.4306 108.69C33.2066 108.559 32.9126 108.494 32.5486 108.494C32.138 108.494 31.7786 108.583 31.4706 108.76C31.1626 108.937 30.9246 109.185 30.7566 109.502C30.5886 109.819 30.5046 110.193 30.5046 110.622V114.5H29.3706ZM43.6534 114.626C42.8507 114.626 42.2487 114.411 41.8474 113.982C41.446 113.553 41.2454 112.941 41.2454 112.148V108.578H39.9154V107.696H41.2454V105.61H42.3794V107.696H44.5354V108.578H42.3794V112.036C42.3794 112.568 42.4914 112.974 42.7154 113.254C42.9394 113.525 43.3034 113.66 43.8074 113.66C43.9567 113.66 44.106 113.641 44.2554 113.604C44.4047 113.567 44.54 113.529 44.6614 113.492L44.8574 114.36C44.736 114.425 44.5587 114.486 44.3254 114.542C44.092 114.598 43.868 114.626 43.6534 114.626ZM45.8179 114.5V104.63H46.9519V109.208H46.7699C46.9659 108.667 47.2832 108.261 47.7219 107.99C48.1699 107.71 48.6832 107.57 49.2619 107.57C49.8032 107.57 50.2512 107.668 50.6059 107.864C50.9699 108.06 51.2406 108.359 51.4179 108.76C51.5952 109.152 51.6839 109.651 51.6839 110.258V114.5H50.5499V110.328C50.5499 109.908 50.4939 109.563 50.3819 109.292C50.2792 109.021 50.1112 108.821 49.8779 108.69C49.6539 108.559 49.3599 108.494 48.9959 108.494C48.5852 108.494 48.2259 108.583 47.9179 108.76C47.6099 108.937 47.3719 109.185 47.2039 109.502C47.0359 109.819 46.9519 110.193 46.9519 110.622V114.5H45.8179ZM53.6349 106.002V104.728H55.0349V106.002H53.6349ZM53.7749 114.5V107.696H54.9089V114.5H53.7749ZM60.0948 114.626C59.3762 114.626 58.7555 114.486 58.2328 114.206C57.7195 113.917 57.3182 113.511 57.0288 112.988C56.7488 112.465 56.6088 111.84 56.6088 111.112C56.6088 110.403 56.7488 109.787 57.0288 109.264C57.3088 108.732 57.6915 108.317 58.1768 108.018C58.6715 107.719 59.2408 107.57 59.8848 107.57C60.5008 107.57 61.0282 107.705 61.4668 107.976C61.9055 108.247 62.2415 108.629 62.4748 109.124C62.7175 109.619 62.8388 110.211 62.8388 110.902V111.336H57.4768V110.594H62.0828L61.8588 110.776C61.8588 110.029 61.6908 109.451 61.3548 109.04C61.0282 108.62 60.5475 108.41 59.9128 108.41C59.4368 108.41 59.0308 108.522 58.6948 108.746C58.3682 108.961 58.1208 109.264 57.9528 109.656C57.7848 110.039 57.7008 110.487 57.7008 111V111.084C57.7008 111.653 57.7895 112.134 57.9668 112.526C58.1535 112.918 58.4288 113.217 58.7928 113.422C59.1568 113.618 59.5908 113.716 60.0948 113.716C60.4962 113.716 60.8835 113.655 61.2568 113.534C61.6395 113.403 61.9988 113.193 62.3348 112.904L62.7268 113.702C62.4188 113.982 62.0268 114.206 61.5508 114.374C61.0748 114.542 60.5895 114.626 60.0948 114.626ZM57.8128 106.786L59.3388 104.518H60.4308L61.9568 106.786H61.1728L59.8848 105.246L58.5968 106.786H57.8128ZM61.2008 105.33L62.4048 103.23H63.4968L61.9428 105.33H61.2008ZM67.21 114.626C66.4073 114.626 65.8053 114.411 65.404 113.982C65.0027 113.553 64.802 112.941 64.802 112.148V108.578H63.472V107.696H64.802V105.61H65.936V107.696H68.092V108.578H65.936V112.036C65.936 112.568 66.048 112.974 66.272 113.254C66.496 113.525 66.86 113.66 67.364 113.66C67.5133 113.66 67.6627 113.641 67.812 113.604C67.9613 113.567 68.0967 113.529 68.218 113.492L68.414 114.36C68.2927 114.425 68.1153 114.486 67.882 114.542C67.6487 114.598 67.4247 114.626 67.21 114.626ZM76.4143 114.626C75.7983 114.626 75.2663 114.467 74.8183 114.15C74.3796 113.833 74.0856 113.408 73.9363 112.876H74.0763V114.5H72.9703V104.63H74.1043V109.278H73.9363C74.0949 108.755 74.3936 108.34 74.8323 108.032C75.2709 107.724 75.7983 107.57 76.4143 107.57C77.0303 107.57 77.5623 107.715 78.0103 108.004C78.4583 108.284 78.8036 108.69 79.0463 109.222C79.2983 109.745 79.4243 110.37 79.4243 111.098C79.4243 111.817 79.2983 112.442 79.0463 112.974C78.8036 113.497 78.4536 113.903 77.9963 114.192C77.5483 114.481 77.0209 114.626 76.4143 114.626ZM76.1763 113.716C76.8203 113.716 77.3289 113.492 77.7023 113.044C78.0849 112.587 78.2763 111.938 78.2763 111.098C78.2763 110.249 78.0849 109.6 77.7023 109.152C77.3289 108.704 76.8203 108.48 76.1763 108.48C75.5416 108.48 75.0329 108.704 74.6503 109.152C74.2676 109.6 74.0763 110.249 74.0763 111.098C74.0763 111.938 74.2676 112.587 74.6503 113.044C75.0329 113.492 75.5416 113.716 76.1763 113.716ZM80.9924 106.002V104.728H82.3924V106.002H80.9924ZM81.1324 114.5V107.696H82.2664V114.5H81.1324ZM81.0344 117.118V115.886H82.3224V117.118H81.0344Z" fill="black" fill-opacity="0.88"/>
<rect x="121.5" y="98.5" width="44" height="22" rx="11" fill="#1677FF"/>
<g clip-path="url(#clip2_11181_65685)">
<g filter="url(#filter1_d_11181_65685)">
<rect x="145.5" y="100.5" width="18" height="18" rx="9" fill="white"/>
</g>
</g>
</g>
<defs>
<filter id="filter0_ddd_11181_65685" x="0" y="0" width="179" height="135" filterUnits="userSpaceOnUse" color-interpolation-filters="sRGB">
<feFlood flood-opacity="0" result="BackgroundImageFix"/>
<feColorMatrix in="SourceAlpha" type="matrix" values="0 0 0 0 0 0 0 0 0 0 0 0 0 0 0 0 0 0 127 0" result="hardAlpha"/>
<feOffset dy="2"/>
<feGaussianBlur stdDeviation="2"/>
<feComposite in2="hardAlpha" operator="out"/>
<feColorMatrix type="matrix" values="0 0 0 0 0 0 0 0 0 0 0 0 0 0 0 0 0 0 0.02 0"/>
<feBlend mode="normal" in2="BackgroundImageFix" result="effect1_dropShadow_11181_65685"/>
<feColorMatrix in="SourceAlpha" type="matrix" values="0 0 0 0 0 0 0 0 0 0 0 0 0 0 0 0 0 0 127 0" result="hardAlpha"/>
<feMorphology radius="1" operator="erode" in="SourceAlpha" result="effect2_dropShadow_11181_65685"/>
<feOffset dy="1"/>
<feGaussianBlur stdDeviation="3"/>
<feComposite in2="hardAlpha" operator="out"/>
<feColorMatrix type="matrix" values="0 0 0 0 0 0 0 0 0 0 0 0 0 0 0 0 0 0 0.02 0"/>
<feBlend mode="normal" in2="effect1_dropShadow_11181_65685" result="effect2_dropShadow_11181_65685"/>
<feColorMatrix in="SourceAlpha" type="matrix" values="0 0 0 0 0 0 0 0 0 0 0 0 0 0 0 0 0 0 127 0" result="hardAlpha"/>
<feOffset dy="1"/>
<feGaussianBlur stdDeviation="1"/>
<feComposite in2="hardAlpha" operator="out"/>
<feColorMatrix type="matrix" values="0 0 0 0 0 0 0 0 0 0 0 0 0 0 0 0 0 0 0.03 0"/>
<feBlend mode="normal" in2="effect2_dropShadow_11181_65685" result="effect3_dropShadow_11181_65685"/>
<feBlend mode="normal" in="SourceGraphic" in2="effect3_dropShadow_11181_65685" result="shape"/>
</filter>
<filter id="filter1_d_11181_65685" x="141.5" y="98.5" width="26" height="26" filterUnits="userSpaceOnUse" color-interpolation-filters="sRGB">
<feFlood flood-opacity="0" result="BackgroundImageFix"/>
<feColorMatrix in="SourceAlpha" type="matrix" values="0 0 0 0 0 0 0 0 0 0 0 0 0 0 0 0 0 0 127 0" result="hardAlpha"/>
<feOffset dy="2"/>
<feGaussianBlur stdDeviation="2"/>
<feColorMatrix type="matrix" values="0 0 0 0 0 0 0 0 0 0.137255 0 0 0 0 0.0431373 0 0 0 0.2 0"/>
<feBlend mode="normal" in2="BackgroundImageFix" result="effect1_dropShadow_11181_65685"/>
<feBlend mode="normal" in="SourceGraphic" in2="effect1_dropShadow_11181_65685" result="shape"/>
</filter>
<clipPath id="clip0_11181_65685">
<rect width="48" height="48" fill="white" transform="translate(13.5 12.5)"/>
</clipPath>
<clipPath id="clip1_11181_65685">
<rect width="18" height="18" fill="white" transform="translate(136.5 23.5)"/>
</clipPath>
<clipPath id="clip2_11181_65685">
<rect width="44" height="22" fill="white" transform="translate(121.5 98.5)"/>
</clipPath>
</defs>
</svg>
