<svg width="16" height="16" viewBox="0 0 16 16" fill="none" xmlns="http://www.w3.org/2000/svg">
<path d="M8.00012 4.99934C7.40677 4.99934 6.82676 5.17528 6.33341 5.50493C5.84006 5.83457 5.45554 6.30311 5.22848 6.85129C5.00142 7.39947 4.94201 8.00267 5.05776 8.58461C5.17352 9.16655 5.45924 9.7011 5.8788 10.1207C6.29836 10.5402 6.8329 10.8259 7.41485 10.9417C7.99679 11.0574 8.59999 10.998 9.14817 10.771C9.69635 10.5439 10.1649 10.1594 10.4945 9.66605C10.8242 9.1727 11.0001 8.59268 11.0001 7.99934C10.9993 7.20394 10.683 6.44136 10.1205 5.87893C9.5581 5.3165 8.79551 5.00016 8.00012 4.99934ZM8.00012 9.99934C7.60456 9.99934 7.21788 9.88204 6.88898 9.66228C6.56008 9.44251 6.30373 9.13016 6.15236 8.7647C6.00098 8.39925 5.96138 7.99712 6.03855 7.60916C6.11572 7.22119 6.3062 6.86483 6.58591 6.58512C6.86561 6.30542 7.22198 6.11494 7.60994 6.03777C7.9979 5.9606 8.40003 6.0002 8.76549 6.15158C9.13094 6.30295 9.4433 6.5593 9.66306 6.8882C9.88282 7.2171 10.0001 7.60377 10.0001 7.99934C10.0001 8.52977 9.78941 9.03848 9.41433 9.41355C9.03926 9.78862 8.53055 9.99934 8.00012 9.99934ZM14.8714 6.69996C14.8574 6.62955 14.8285 6.56297 14.7866 6.50473C14.7446 6.44649 14.6906 6.39797 14.6282 6.36246L12.7639 5.29996L12.7564 3.19871C12.7561 3.12635 12.7402 3.05489 12.7097 2.98928C12.6791 2.92368 12.6347 2.86548 12.5795 2.81871C11.9032 2.24665 11.1244 1.80825 10.2845 1.52684C10.2184 1.50445 10.1483 1.49616 10.0787 1.50252C10.0092 1.50887 9.94174 1.52971 9.88074 1.56371L8.00012 2.61496L6.11762 1.56184C6.05659 1.52765 5.98906 1.50664 5.91941 1.50018C5.84975 1.49372 5.77952 1.50195 5.71324 1.52434C4.87396 1.80781 4.09605 2.24788 3.42074 2.82121C3.3656 2.86791 3.32123 2.92601 3.2907 2.9915C3.26016 3.05699 3.24419 3.12833 3.24387 3.20059L3.23449 5.30371L1.37012 6.36621C1.30774 6.40172 1.25375 6.45024 1.21179 6.50848C1.16984 6.56672 1.14092 6.6333 1.12699 6.70371C0.956367 7.56114 0.956367 8.44379 1.12699 9.30121C1.14092 9.37162 1.16984 9.43821 1.21179 9.49644C1.25375 9.55468 1.30774 9.6032 1.37012 9.63871L3.23449 10.7012L3.24199 12.8025C3.24222 12.8748 3.25815 12.9463 3.28869 13.0119C3.31923 13.0775 3.36364 13.1357 3.41887 13.1825C4.09516 13.7545 4.87397 14.1929 5.71387 14.4743C5.78001 14.4967 5.85011 14.505 5.91965 14.4987C5.98919 14.4923 6.05663 14.4715 6.11762 14.4375L8.00012 13.3837L9.88262 14.4368C9.95712 14.4783 10.0411 14.4999 10.1264 14.4993C10.181 14.4993 10.2352 14.4905 10.287 14.4731C11.1262 14.19 11.9041 13.7504 12.5795 13.1775C12.6346 13.1308 12.679 13.0727 12.7095 13.0072C12.7401 12.9417 12.7561 12.8703 12.7564 12.7981L12.7657 10.695L14.6301 9.63246C14.6925 9.59695 14.7465 9.54843 14.7884 9.49019C14.8304 9.43196 14.8593 9.36537 14.8732 9.29496C15.0429 8.43822 15.0423 7.55646 14.8714 6.69996ZM13.9339 8.88184L12.1482 9.89746C12.07 9.94195 12.0052 10.0067 11.9607 10.085C11.9245 10.1475 11.8864 10.2137 11.8476 10.2762C11.798 10.355 11.7716 10.4462 11.7714 10.5393L11.762 12.555C11.282 12.9319 10.7473 13.2333 10.1764 13.4487L8.37512 12.445C8.30034 12.4036 8.2162 12.3821 8.13074 12.3825H8.11887C8.04324 12.3825 7.96699 12.3825 7.89137 12.3825C7.80192 12.3802 7.71349 12.4018 7.63512 12.445L5.83262 13.4512C5.26044 13.2374 4.72426 12.9375 4.24262 12.5618L4.23574 10.5493C4.23544 10.456 4.20902 10.3647 4.15949 10.2856C4.12074 10.2231 4.08262 10.1606 4.04699 10.0943C4.00282 10.0149 3.93805 9.94882 3.85949 9.90309L2.07199 8.88496C1.97949 8.29985 1.97949 7.70383 2.07199 7.11871L3.85449 6.10121C3.93273 6.05673 3.99751 5.99195 4.04199 5.91371C4.07824 5.85121 4.11637 5.78496 4.15512 5.72246C4.20472 5.64365 4.23114 5.55246 4.23137 5.45934L4.24074 3.44371C4.7207 3.0668 5.25541 2.76541 5.82637 2.54996L7.62512 3.55371C7.7034 3.59711 7.7919 3.61869 7.88137 3.61621C7.95699 3.61621 8.03324 3.61621 8.10887 3.61621C8.19831 3.61845 8.28675 3.59688 8.36512 3.55371L10.1676 2.54746C10.7398 2.76126 11.276 3.06117 11.7576 3.43684L11.7645 5.44934C11.7648 5.54265 11.7912 5.63401 11.8407 5.71309C11.8795 5.77559 11.9176 5.83809 11.9532 5.90434C11.9974 5.98378 12.0622 6.04985 12.1407 6.09559L13.9282 7.11371C14.022 7.69928 14.023 8.29594 13.9314 8.88184H13.9339Z" fill="#0B1117"/>
</svg>
