<svg width="32" height="32" viewBox="0 0 32 32" fill="none" xmlns="http://www.w3.org/2000/svg">
<rect x="0.5" y="0.5" width="31" height="31" rx="15.5" fill="white"/>
<rect x="0.5" y="0.5" width="31" height="31" rx="15.5" stroke="#E6E8EC"/>
<path d="M22.1734 12.3134C22.143 12.2384 22.095 12.1719 22.0333 12.1196C21.9716 12.0673 21.8982 12.0307 21.8193 12.013C21.7404 11.9953 21.6584 11.997 21.5803 12.018C21.5021 12.039 21.4303 12.0786 21.3709 12.1334L18.8521 14.4578L17.7752 14.2265L17.544 13.1496L19.8684 10.6309C19.9232 10.5714 19.9628 10.4996 19.9837 10.4215C20.0047 10.3434 20.0064 10.2614 19.9887 10.1825C19.971 10.1036 19.9344 10.0301 19.8821 9.96845C19.8298 9.90678 19.7633 9.85872 19.6884 9.82839C19.0052 9.55204 18.2646 9.44769 17.5317 9.52453C16.7988 9.60136 16.0959 9.85702 15.4849 10.269C14.8739 10.6811 14.3734 11.2368 14.0275 11.8875C13.6816 12.5382 13.5007 13.2639 13.5009 14.0009C13.5 14.6232 13.6277 15.239 13.8759 15.8096L10.1127 19.0634C10.1034 19.0709 10.0946 19.0796 10.0859 19.0878C9.71074 19.4629 9.5 19.9716 9.5 20.5021C9.5 20.7648 9.55174 21.0249 9.65226 21.2676C9.75278 21.5103 9.90011 21.7308 10.0859 21.9165C10.2716 22.1023 10.4921 22.2496 10.7348 22.3501C10.9775 22.4506 11.2376 22.5024 11.5002 22.5024C12.0307 22.5024 12.5395 22.2916 12.9146 21.9165C12.9227 21.9084 12.9315 21.899 12.939 21.8903L16.1921 18.1259C16.8774 18.4267 17.6268 18.5519 18.3727 18.49C19.1185 18.4282 19.8371 18.1813 20.4635 17.7718C21.0899 17.3622 21.6042 16.8029 21.96 16.1445C22.3157 15.486 22.5016 14.7493 22.5009 14.0009C22.5018 13.4225 22.3906 12.8494 22.1734 12.3134ZM18.0009 17.5009C17.409 17.5001 16.827 17.3496 16.309 17.0634C16.2086 17.0079 16.0922 16.9887 15.9794 17.0088C15.8665 17.029 15.764 17.0873 15.689 17.174L12.1952 21.2203C12.0062 21.3999 11.7544 21.4985 11.4937 21.4952C11.2329 21.4919 10.9838 21.3868 10.7994 21.2024C10.6149 21.018 10.5099 20.7688 10.5065 20.5081C10.5032 20.2473 10.6019 19.9956 10.7815 19.8065L14.8246 16.3134C14.9115 16.2384 14.9699 16.1357 14.99 16.0227C15.0102 15.9097 14.9908 15.7932 14.9352 15.6928C14.6165 15.1163 14.4669 14.4616 14.5037 13.8039C14.5405 13.1462 14.7621 12.5122 15.1431 11.9749C15.5241 11.4375 16.049 11.0186 16.6575 10.7662C17.2659 10.5139 17.9333 10.4384 18.5827 10.5484L16.6327 12.6615C16.5785 12.7204 16.5391 12.7914 16.518 12.8686C16.4969 12.9458 16.4947 13.027 16.5115 13.1053L16.8652 14.7509C16.8855 14.845 16.9324 14.9313 17.0005 14.9994C17.0686 15.0674 17.1549 15.1144 17.249 15.1346L18.8959 15.4884C18.9741 15.5052 19.0553 15.5029 19.1325 15.4818C19.2097 15.4607 19.2807 15.4214 19.3396 15.3671L21.4527 13.4171C21.537 13.919 21.5109 14.4332 21.3763 14.924C21.2416 15.4148 21.0017 15.8703 20.6732 16.259C20.3447 16.6476 19.9354 16.9601 19.4739 17.1745C19.0124 17.389 18.5098 17.5004 18.0009 17.5009Z" fill="#0B1117"/>
</svg>
