<svg width="167" height="135" viewBox="0 0 167 135" fill="none" xmlns="http://www.w3.org/2000/svg">
<g filter="url(#filter0_ddd_4187_20904)">
<rect x="5.5" y="4.5" width="155.5" height="124" rx="8" fill="white"/>
<rect x="5.5" y="4.5" width="155.5" height="124" rx="8" stroke="#91CAFF"/>
<g clip-path="url(#clip0_4187_20904)">
<path d="M37.5005 14.2998C40.2067 14.2998 42.6852 14.7301 44.5083 15.4463C45.4175 15.8035 46.194 16.2443 46.7534 16.7637C47.3136 17.284 47.6994 17.9282 47.6997 18.6709V18.6855L47.6987 18.6992L46.9888 33.5986C46.9613 34.1716 46.6624 34.6981 46.1841 35.0146L45.354 35.5625L49.7905 52.3203C50.5888 55.3372 47.9343 58.1396 44.8784 57.5068L38.1079 56.1055C37.7068 56.0225 37.2932 56.0225 36.8921 56.1055L30.1216 57.5068C27.0658 58.1394 24.4113 55.3371 25.2095 52.3203L29.644 35.5635L28.814 35.0146C28.3357 34.6981 28.0377 34.1715 28.0103 33.5986L27.3013 18.6992L27.3003 18.6855V18.6709C27.3006 17.9282 27.6864 17.284 28.2466 16.7637C28.8062 16.2441 29.5841 15.8036 30.4937 15.4463C32.3168 14.7303 34.7944 14.2998 37.5005 14.2998ZM42.8813 37.1982C42.7277 37.3 42.6285 37.4677 42.6138 37.6514L42.4058 40.2441C42.3304 41.1783 41.5509 41.8999 40.6128 41.9004H34.3872C33.4492 41.8998 32.6696 41.1782 32.5942 40.2441L32.3853 37.6523C32.3704 37.4688 32.2712 37.3019 32.1177 37.2002L30.7007 36.2627L26.3696 52.627C25.7994 54.7819 27.6956 56.7851 29.8784 56.333L36.6479 54.9297C37.2098 54.8133 37.7902 54.8133 38.3521 54.9297L45.1216 56.333C47.3044 56.7851 49.2006 54.7819 48.6304 52.627L44.2983 36.2607L42.8813 37.1982ZM38.6997 43.1006C39.6938 43.1006 40.5005 43.9063 40.5005 44.9004V52.1006C40.5002 53.0945 39.6937 53.9004 38.6997 53.9004H36.3003C35.3063 53.9004 34.5007 53.0945 34.5005 52.1006V44.9004C34.5005 43.9063 35.3062 43.1006 36.3003 43.1006H38.6997ZM36.3003 44.2998C35.9689 44.2998 35.6997 44.569 35.6997 44.9004V52.1006C35.6999 52.4318 35.9691 52.7002 36.3003 52.7002H38.6997C39.0309 52.7002 39.3001 52.4318 39.3003 52.1006V44.9004C39.3003 44.569 39.0311 44.2998 38.6997 44.2998H36.3003ZM43.2085 35.2793C39.4093 35.5821 35.5898 35.5821 31.7905 35.2793L31.3345 35.2422L32.7798 36.1992C33.2405 36.5042 33.5359 37.0039 33.5806 37.5547L33.7896 40.1484C33.8149 40.4601 34.0755 40.6998 34.3872 40.7002H40.6128L40.7261 40.6895C40.9854 40.6393 41.1882 40.4214 41.2104 40.1484L41.4185 37.5547C41.4628 37.0036 41.7582 36.5034 42.2192 36.1982L43.6626 35.2422L43.2085 35.2793ZM29.2095 33.541C29.2135 33.6266 29.2363 33.7087 29.2739 33.7832C29.3116 33.7801 29.3503 33.7791 29.3892 33.7822L31.9038 33.9824C35.6277 34.2792 39.3713 34.2792 43.0952 33.9824L45.6108 33.7822C45.6492 33.7792 45.687 33.7803 45.7241 33.7832C45.7619 33.7086 45.7854 33.6267 45.7896 33.541L46.0894 27.2695H28.9106L29.2095 33.541ZM42.6675 19.1885C39.2274 18.9354 35.7716 18.9354 32.3315 19.1885L28.7046 19.4551C28.6472 19.4593 28.5909 19.4542 28.5366 19.4453L28.8481 25.9678H46.1519L46.4634 19.4453C46.409 19.4543 46.353 19.4593 46.2954 19.4551L42.6675 19.1885ZM37.5005 15.5C34.9056 15.5 32.5835 15.9149 30.9321 16.5635C30.1048 16.8885 29.4751 17.261 29.063 17.6436C28.8717 17.8213 28.7367 17.9919 28.647 18.1533L32.228 17.8896C35.7374 17.6315 39.2626 17.6314 42.772 17.8896L46.3521 18.1533C46.2623 17.9921 46.129 17.821 45.938 17.6436C45.526 17.261 44.8961 16.8885 44.0688 16.5635C42.4176 15.9149 40.0953 15.5 37.5005 15.5Z" fill="#1677FF"/>
</g>
<path d="M121 13H145C149.142 13 152.5 16.3579 152.5 20.5V44.5C152.5 48.6421 149.142 52 145 52H121C116.858 52 113.5 48.6421 113.5 44.5V20.5C113.5 16.3579 116.858 13 121 13Z" fill="white"/>
<path d="M121 13H145C149.142 13 152.5 16.3579 152.5 20.5V44.5C152.5 48.6421 149.142 52 145 52H121C116.858 52 113.5 48.6421 113.5 44.5V20.5C113.5 16.3579 116.858 13 121 13Z" stroke="#DEE4ED"/>
<g clip-path="url(#clip1_4187_20904)">
<path d="M140.257 34.4974L139.105 33.513C139.16 33.179 139.188 32.838 139.188 32.497C139.188 32.156 139.16 31.8149 139.105 31.481L140.257 30.4966C140.344 30.4222 140.406 30.3232 140.435 30.2127C140.464 30.1022 140.459 29.9854 140.42 29.8778L140.404 29.8321C140.088 28.9462 139.613 28.125 139.004 27.4081L138.972 27.3712C138.898 27.2843 138.799 27.2218 138.689 27.192C138.579 27.1622 138.463 27.1664 138.355 27.2042L136.926 27.7122C136.398 27.2798 135.81 26.9388 135.173 26.6997L134.897 25.2056C134.876 25.0931 134.822 24.9897 134.741 24.909C134.66 24.8283 134.556 24.7742 134.444 24.7538L134.396 24.745C133.48 24.5798 132.517 24.5798 131.601 24.745L131.554 24.7538C131.441 24.7742 131.338 24.8283 131.257 24.909C131.176 24.9897 131.121 25.0931 131.1 25.2056L130.823 26.7067C130.191 26.9459 129.604 27.2867 129.082 27.7157L127.643 27.2042C127.535 27.1661 127.418 27.1617 127.308 27.1915C127.198 27.2214 127.1 27.284 127.026 27.3712L126.994 27.4081C126.385 28.1255 125.911 28.9466 125.593 29.8321L125.577 29.8778C125.498 30.0976 125.563 30.3437 125.741 30.4966L126.906 31.4915C126.852 31.822 126.825 32.1595 126.825 32.4952C126.825 32.8327 126.852 33.1702 126.906 33.4989L125.741 34.4938C125.654 34.5682 125.592 34.6672 125.563 34.7777C125.533 34.8883 125.539 35.0051 125.577 35.1126L125.593 35.1583C125.911 36.0442 126.382 36.8616 126.994 37.5823L127.026 37.6192C127.1 37.7062 127.198 37.7686 127.308 37.7985C127.419 37.8283 127.535 37.824 127.643 37.7862L129.082 37.2747C129.606 37.7054 130.192 38.0464 130.823 38.2837L131.1 39.7849C131.121 39.8973 131.176 40.0007 131.257 40.0814C131.338 40.1621 131.441 40.2162 131.554 40.2366L131.601 40.2454C132.526 40.4115 133.472 40.4115 134.396 40.2454L134.444 40.2366C134.556 40.2162 134.66 40.1621 134.741 40.0814C134.822 40.0007 134.876 39.8973 134.897 39.7849L135.173 38.2907C135.809 38.0523 136.402 37.7102 136.926 37.2782L138.355 37.7862C138.463 37.8243 138.579 37.8287 138.689 37.7989C138.8 37.7691 138.898 37.7064 138.972 37.6192L139.004 37.5823C139.615 36.8599 140.086 36.0442 140.404 35.1583L140.42 35.1126C140.499 34.8964 140.434 34.6503 140.257 34.4974ZM137.857 31.6884C137.901 31.9538 137.924 32.2263 137.924 32.4987C137.924 32.7712 137.901 33.0437 137.857 33.3091L137.741 34.014L139.054 35.1372C138.855 35.5958 138.604 36.0299 138.306 36.431L136.674 35.8526L136.122 36.3062C135.702 36.6507 135.235 36.9214 134.729 37.1112L134.059 37.3626L133.744 39.0677C133.248 39.1239 132.746 39.1239 132.25 39.0677L131.935 37.3591L131.271 37.1042C130.77 36.9144 130.304 36.6437 129.888 36.3009L129.336 35.8456L127.694 36.4292C127.395 36.0267 127.145 35.5925 126.945 35.1354L128.272 34.0017L128.158 33.2985C128.116 33.0366 128.093 32.7659 128.093 32.4987C128.093 32.2298 128.114 31.9608 128.158 31.6989L128.272 30.9958L126.945 29.862C127.144 29.4032 127.395 28.9708 127.694 28.5683L129.336 29.1519L129.888 28.6966C130.304 28.3538 130.77 28.0831 131.271 27.8933L131.937 27.6419L132.252 25.9333C132.746 25.8771 133.25 25.8771 133.746 25.9333L134.061 27.6384L134.73 27.8897C135.235 28.0796 135.704 28.3503 136.124 28.6948L136.676 29.1483L138.307 28.57C138.606 28.9726 138.856 29.4067 139.056 29.8638L137.743 30.987L137.857 31.6884ZM133.001 29.2292C131.292 29.2292 129.907 30.6144 129.907 32.3229C129.907 34.0315 131.292 35.4167 133.001 35.4167C134.709 35.4167 136.094 34.0315 136.094 32.3229C136.094 30.6144 134.709 29.2292 133.001 29.2292ZM134.393 33.7151C134.21 33.8983 133.993 34.0435 133.754 34.1424C133.515 34.2414 133.259 34.2921 133.001 34.2917C132.475 34.2917 131.981 34.086 131.608 33.7151C131.425 33.5325 131.28 33.3155 131.181 33.0766C131.082 32.8377 131.031 32.5816 131.032 32.3229C131.032 31.7974 131.238 31.3034 131.608 30.9308C131.981 30.5581 132.475 30.3542 133.001 30.3542C133.526 30.3542 134.02 30.5581 134.393 30.9308C134.576 31.1134 134.721 31.3304 134.82 31.5693C134.919 31.8082 134.97 32.0643 134.969 32.3229C134.969 32.8485 134.764 33.3425 134.393 33.7151Z" fill="black" fill-opacity="0.88"/>
</g>
<path d="M91 65H149C150.933 65 152.5 66.567 152.5 68.5V82.5C152.5 84.433 150.933 86 149 86H91C89.067 86 87.5 84.433 87.5 82.5V68.5C87.5 66.567 89.067 65 91 65Z" fill="white"/>
<path d="M91 65H149C150.933 65 152.5 66.567 152.5 68.5V82.5C152.5 84.433 150.933 86 149 86H91C89.067 86 87.5 84.433 87.5 82.5V68.5C87.5 66.567 89.067 65 91 65Z" stroke="#DEE4ED"/>
<path d="M98.12 79.5V71.892H95.048V71.04H102.188V71.892H99.116V79.5H98.12ZM103.131 79.5V71.04H104.103V74.964H103.947C104.115 74.5 104.387 74.152 104.763 73.92C105.147 73.68 105.587 73.56 106.083 73.56C106.547 73.56 106.931 73.644 107.235 73.812C107.547 73.98 107.779 74.236 107.931 74.58C108.083 74.916 108.159 75.344 108.159 75.864V79.5H107.187V75.924C107.187 75.564 107.139 75.268 107.043 75.036C106.955 74.804 106.811 74.632 106.611 74.52C106.419 74.408 106.167 74.352 105.855 74.352C105.503 74.352 105.195 74.428 104.931 74.58C104.667 74.732 104.463 74.944 104.319 75.216C104.175 75.488 104.103 75.808 104.103 76.176V79.5H103.131ZM112.015 79.608C111.543 79.608 111.151 79.524 110.839 79.356C110.535 79.18 110.303 78.92 110.143 78.576C109.991 78.232 109.915 77.804 109.915 77.292V73.668H110.887V77.28C110.887 77.624 110.931 77.912 111.019 78.144C111.115 78.368 111.263 78.536 111.463 78.648C111.663 78.752 111.911 78.804 112.207 78.804C112.543 78.804 112.835 78.728 113.083 78.576C113.331 78.424 113.527 78.212 113.671 77.94C113.815 77.668 113.887 77.348 113.887 76.98V73.668H114.859V79.5H113.911V78.156H114.067C113.907 78.628 113.643 78.988 113.275 79.236C112.915 79.484 112.495 79.608 112.015 79.608ZM112.087 72.876V72.624C112.087 72.44 112.123 72.288 112.195 72.168C112.275 72.048 112.363 71.948 112.459 71.868C112.555 71.78 112.639 71.692 112.711 71.604C112.791 71.516 112.831 71.416 112.831 71.304C112.831 71.192 112.783 71.108 112.687 71.052C112.599 70.996 112.463 70.968 112.279 70.968C112.151 70.968 112.027 70.984 111.907 71.016C111.795 71.04 111.667 71.084 111.523 71.148L111.355 70.644C111.507 70.548 111.675 70.48 111.859 70.44C112.043 70.4 112.243 70.38 112.459 70.38C112.827 70.38 113.111 70.452 113.311 70.596C113.519 70.732 113.623 70.932 113.623 71.196C113.623 71.396 113.579 71.556 113.491 71.676C113.403 71.796 113.299 71.9 113.179 71.988C113.067 72.076 112.963 72.172 112.867 72.276C112.779 72.38 112.735 72.516 112.735 72.684V72.876H112.087ZM122.232 79.608C121.648 79.608 121.144 79.48 120.72 79.224C120.296 78.968 119.968 78.612 119.736 78.156C119.512 77.692 119.4 77.156 119.4 76.548C119.4 75.932 119.512 75.4 119.736 74.952C119.968 74.504 120.296 74.16 120.72 73.92C121.144 73.68 121.648 73.56 122.232 73.56C122.592 73.56 122.948 73.624 123.3 73.752C123.652 73.88 123.944 74.06 124.176 74.292L123.84 75C123.608 74.776 123.352 74.612 123.072 74.508C122.8 74.404 122.54 74.352 122.292 74.352C121.684 74.352 121.216 74.544 120.888 74.928C120.56 75.304 120.396 75.848 120.396 76.56C120.396 77.256 120.56 77.808 120.888 78.216C121.216 78.616 121.684 78.816 122.292 78.816C122.54 78.816 122.8 78.764 123.072 78.66C123.352 78.556 123.608 78.388 123.84 78.156L124.176 78.864C123.944 79.096 123.648 79.28 123.288 79.416C122.936 79.544 122.584 79.608 122.232 79.608ZM127.621 79.608C127.053 79.608 126.561 79.484 126.145 79.236C125.729 78.988 125.405 78.64 125.173 78.192C124.949 77.736 124.837 77.2 124.837 76.584C124.837 75.968 124.949 75.436 125.173 74.988C125.405 74.532 125.729 74.18 126.145 73.932C126.561 73.684 127.053 73.56 127.621 73.56C128.189 73.56 128.681 73.684 129.097 73.932C129.513 74.18 129.833 74.532 130.057 74.988C130.289 75.436 130.405 75.968 130.405 76.584C130.405 77.2 130.289 77.736 130.057 78.192C129.833 78.64 129.513 78.988 129.097 79.236C128.681 79.484 128.189 79.608 127.621 79.608ZM127.621 78.828C128.173 78.828 128.609 78.636 128.929 78.252C129.257 77.86 129.421 77.3 129.421 76.572C129.421 75.852 129.257 75.3 128.929 74.916C128.609 74.532 128.173 74.34 127.621 74.34C127.077 74.34 126.641 74.532 126.313 74.916C125.985 75.3 125.821 75.852 125.821 76.572C125.821 77.3 125.985 77.86 126.313 78.252C126.641 78.636 127.077 78.828 127.621 78.828ZM125.845 72.888L127.153 70.464H128.089L129.397 72.888H128.725L127.621 71.112L126.517 72.888H125.845ZM131.865 79.5V73.668H132.813V74.964H132.681C132.849 74.5 133.121 74.152 133.497 73.92C133.881 73.68 134.321 73.56 134.817 73.56C135.281 73.56 135.665 73.644 135.969 73.812C136.281 73.972 136.513 74.224 136.665 74.568C136.817 74.912 136.893 75.344 136.893 75.864V79.5H135.921V75.924C135.921 75.564 135.873 75.268 135.777 75.036C135.689 74.804 135.545 74.632 135.345 74.52C135.153 74.408 134.901 74.352 134.589 74.352C134.237 74.352 133.929 74.428 133.665 74.58C133.401 74.732 133.197 74.944 133.053 75.216C132.909 75.488 132.837 75.808 132.837 76.176V79.5H131.865ZM141.265 81.768C140.761 81.768 140.285 81.7 139.837 81.564C139.397 81.436 139.005 81.24 138.661 80.976L138.985 80.268C139.225 80.436 139.461 80.572 139.693 80.676C139.933 80.788 140.177 80.868 140.425 80.916C140.681 80.964 140.945 80.988 141.217 80.988C141.785 80.988 142.213 80.836 142.501 80.532C142.797 80.228 142.945 79.788 142.945 79.212V77.856H143.065C142.945 78.32 142.689 78.688 142.297 78.96C141.913 79.232 141.461 79.368 140.941 79.368C140.405 79.368 139.941 79.248 139.549 79.008C139.157 78.76 138.853 78.416 138.637 77.976C138.429 77.536 138.325 77.028 138.325 76.452C138.325 75.876 138.429 75.372 138.637 74.94C138.853 74.5 139.157 74.16 139.549 73.92C139.941 73.68 140.405 73.56 140.941 73.56C141.469 73.56 141.925 73.696 142.309 73.968C142.693 74.232 142.941 74.592 143.053 75.048H142.945V73.668H143.893V79.08C143.893 79.672 143.793 80.168 143.593 80.568C143.401 80.968 143.109 81.268 142.717 81.468C142.325 81.668 141.841 81.768 141.265 81.768ZM141.121 78.576C141.681 78.576 142.125 78.384 142.453 78C142.781 77.616 142.945 77.1 142.945 76.452C142.945 75.804 142.781 75.292 142.453 74.916C142.125 74.532 141.681 74.34 141.121 74.34C140.569 74.34 140.129 74.532 139.801 74.916C139.473 75.292 139.309 75.804 139.309 76.452C139.309 77.1 139.473 77.616 139.801 78C140.129 78.384 140.569 78.576 141.121 78.576Z" fill="black" fill-opacity="0.88"/>
<path d="M14.746 114.5V104.63H15.712L19.716 112.148H19.296L23.272 104.63H24.238V114.5H23.174V106.17H23.51L19.884 112.974H19.128L15.46 106.156H15.796V114.5H14.746ZM28.6826 114.626C28.2159 114.626 27.7959 114.537 27.4226 114.36C27.0586 114.173 26.7692 113.921 26.5546 113.604C26.3399 113.287 26.2326 112.932 26.2326 112.54C26.2326 112.036 26.3586 111.639 26.6106 111.35C26.8719 111.061 27.2966 110.855 27.8846 110.734C28.4819 110.613 29.2939 110.552 30.3206 110.552H30.9506V111.294H30.3346C29.7652 111.294 29.2892 111.313 28.9066 111.35C28.5239 111.387 28.2206 111.453 27.9966 111.546C27.7726 111.639 27.6139 111.761 27.5206 111.91C27.4272 112.059 27.3806 112.246 27.3806 112.47C27.3806 112.853 27.5112 113.165 27.7726 113.408C28.0432 113.651 28.4072 113.772 28.8646 113.772C29.2379 113.772 29.5646 113.683 29.8446 113.506C30.1339 113.329 30.3579 113.086 30.5166 112.778C30.6846 112.47 30.7686 112.115 30.7686 111.714V110.118C30.7686 109.539 30.6519 109.124 30.4186 108.872C30.1852 108.611 29.8026 108.48 29.2706 108.48C28.8599 108.48 28.4632 108.541 28.0806 108.662C27.6979 108.774 27.3059 108.961 26.9046 109.222L26.5126 108.396C26.7552 108.228 27.0306 108.083 27.3386 107.962C27.6466 107.831 27.9686 107.733 28.3046 107.668C28.6406 107.603 28.9626 107.57 29.2706 107.57C29.8586 107.57 30.3439 107.668 30.7266 107.864C31.1092 108.051 31.3939 108.34 31.5806 108.732C31.7672 109.115 31.8606 109.609 31.8606 110.216V114.5H30.7966V112.918H30.9226C30.8479 113.273 30.7032 113.576 30.4886 113.828C30.2832 114.08 30.0266 114.276 29.7186 114.416C29.4106 114.556 29.0652 114.626 28.6826 114.626ZM28.8786 106.786L30.3206 103.958H31.5386L29.6906 106.786H28.8786ZM34.68 117.02L35.954 114.15V114.64L32.972 107.696H34.204L36.64 113.66H36.262L38.726 107.696H39.916L35.87 117.02H34.68ZM47.5671 114.626C46.8858 114.626 46.2978 114.477 45.8031 114.178C45.3085 113.879 44.9258 113.464 44.6551 112.932C44.3938 112.391 44.2631 111.765 44.2631 111.056C44.2631 110.337 44.3938 109.717 44.6551 109.194C44.9258 108.671 45.3085 108.27 45.8031 107.99C46.2978 107.71 46.8858 107.57 47.5671 107.57C47.9871 107.57 48.4025 107.645 48.8131 107.794C49.2238 107.943 49.5645 108.153 49.8351 108.424L49.4431 109.25C49.1725 108.989 48.8738 108.797 48.5471 108.676C48.2298 108.555 47.9265 108.494 47.6371 108.494C46.9278 108.494 46.3818 108.718 45.9991 109.166C45.6165 109.605 45.4251 110.239 45.4251 111.07C45.4251 111.882 45.6165 112.526 45.9991 113.002C46.3818 113.469 46.9278 113.702 47.6371 113.702C47.9265 113.702 48.2298 113.641 48.5471 113.52C48.8738 113.399 49.1725 113.203 49.4431 112.932L49.8351 113.758C49.5645 114.029 49.2191 114.243 48.7991 114.402C48.3885 114.551 47.9778 114.626 47.5671 114.626ZM51.1636 114.5V104.63H52.2976V109.208H52.1156C52.3116 108.667 52.6289 108.261 53.0676 107.99C53.5156 107.71 54.0289 107.57 54.6076 107.57C55.1489 107.57 55.5969 107.668 55.9516 107.864C56.3156 108.06 56.5863 108.359 56.7636 108.76C56.9409 109.152 57.0296 109.651 57.0296 110.258V114.5H55.8956V110.328C55.8956 109.908 55.8396 109.563 55.7276 109.292C55.6249 109.021 55.4569 108.821 55.2236 108.69C54.9996 108.559 54.7056 108.494 54.3416 108.494C53.9309 108.494 53.5716 108.583 53.2636 108.76C52.9556 108.937 52.7176 109.185 52.5496 109.502C52.3816 109.819 52.2976 110.193 52.2976 110.622V114.5H51.1636ZM61.9486 114.626C61.286 114.626 60.712 114.481 60.2266 114.192C59.7413 113.903 59.3633 113.497 59.0926 112.974C58.8313 112.442 58.7006 111.817 58.7006 111.098C58.7006 110.379 58.8313 109.759 59.0926 109.236C59.3633 108.704 59.7413 108.293 60.2266 108.004C60.712 107.715 61.286 107.57 61.9486 107.57C62.6113 107.57 63.1853 107.715 63.6706 108.004C64.156 108.293 64.5293 108.704 64.7906 109.236C65.0613 109.759 65.1966 110.379 65.1966 111.098C65.1966 111.817 65.0613 112.442 64.7906 112.974C64.5293 113.497 64.156 113.903 63.6706 114.192C63.1853 114.481 62.6113 114.626 61.9486 114.626ZM61.9486 113.716C62.5926 113.716 63.1013 113.492 63.4746 113.044C63.8573 112.587 64.0486 111.933 64.0486 111.084C64.0486 110.244 63.8573 109.6 63.4746 109.152C63.1013 108.704 62.5926 108.48 61.9486 108.48C61.314 108.48 60.8053 108.704 60.4226 109.152C60.04 109.6 59.8486 110.244 59.8486 111.084C59.8486 111.933 60.04 112.587 60.4226 113.044C60.8053 113.492 61.314 113.716 61.9486 113.716ZM72.6376 114.626C72.171 114.626 71.751 114.537 71.3776 114.36C71.0136 114.173 70.7243 113.921 70.5096 113.604C70.295 113.287 70.1876 112.932 70.1876 112.54C70.1876 112.036 70.3136 111.639 70.5656 111.35C70.827 111.061 71.2516 110.855 71.8396 110.734C72.437 110.613 73.249 110.552 74.2756 110.552H74.9056V111.294H74.2896C73.7203 111.294 73.2443 111.313 72.8616 111.35C72.479 111.387 72.1756 111.453 71.9516 111.546C71.7276 111.639 71.569 111.761 71.4756 111.91C71.3823 112.059 71.3356 112.246 71.3356 112.47C71.3356 112.853 71.4663 113.165 71.7276 113.408C71.9983 113.651 72.3623 113.772 72.8196 113.772C73.193 113.772 73.5196 113.683 73.7996 113.506C74.089 113.329 74.313 113.086 74.4716 112.778C74.6396 112.47 74.7236 112.115 74.7236 111.714V110.118C74.7236 109.539 74.607 109.124 74.3736 108.872C74.1403 108.611 73.7576 108.48 73.2256 108.48C72.815 108.48 72.4183 108.541 72.0356 108.662C71.653 108.774 71.261 108.961 70.8596 109.222L70.4676 108.396C70.7103 108.228 70.9856 108.083 71.2936 107.962C71.6016 107.831 71.9236 107.733 72.2596 107.668C72.5956 107.603 72.9176 107.57 73.2256 107.57C73.8136 107.57 74.299 107.668 74.6816 107.864C75.0643 108.051 75.349 108.34 75.5356 108.732C75.7223 109.115 75.8156 109.609 75.8156 110.216V114.5H74.7516V112.918H74.8776C74.803 113.273 74.6583 113.576 74.4436 113.828C74.2383 114.08 73.9816 114.276 73.6736 114.416C73.3656 114.556 73.0203 114.626 72.6376 114.626ZM73.2396 106.814C72.829 106.814 72.465 106.707 72.1476 106.492C71.8303 106.277 71.5783 105.974 71.3916 105.582C71.2143 105.181 71.1116 104.705 71.0836 104.154L71.7976 104.084C71.835 104.709 71.975 105.195 72.2176 105.54C72.4696 105.876 72.8103 106.044 73.2396 106.044C73.669 106.044 74.005 105.876 74.2476 105.54C74.4996 105.195 74.6443 104.709 74.6816 104.084L75.3956 104.154C75.377 104.705 75.2743 105.181 75.0876 105.582C74.9103 105.974 74.663 106.277 74.3456 106.492C74.0283 106.707 73.6596 106.814 73.2396 106.814ZM77.9195 114.5V107.696H79.0255V109.208H78.8715C79.0675 108.667 79.3848 108.261 79.8235 107.99C80.2715 107.71 80.7848 107.57 81.3635 107.57C81.9048 107.57 82.3528 107.668 82.7075 107.864C83.0715 108.051 83.3421 108.345 83.5195 108.746C83.6968 109.147 83.7855 109.651 83.7855 110.258V114.5H82.6515V110.328C82.6515 109.908 82.5955 109.563 82.4835 109.292C82.3808 109.021 82.2128 108.821 81.9795 108.69C81.7555 108.559 81.4615 108.494 81.0975 108.494C80.6868 108.494 80.3275 108.583 80.0195 108.76C79.7115 108.937 79.4735 109.185 79.3055 109.502C79.1375 109.819 79.0535 110.193 79.0535 110.622V114.5H77.9195Z" fill="black" fill-opacity="0.88"/>
<rect x="109" y="98.5" width="44" height="22" rx="11" fill="#1677FF"/>
<g clip-path="url(#clip2_4187_20904)">
<g filter="url(#filter1_d_4187_20904)">
<rect x="133" y="100.5" width="18" height="18" rx="9" fill="white"/>
</g>
</g>
</g>
<defs>
<filter id="filter0_ddd_4187_20904" x="0" y="0" width="166.5" height="135" filterUnits="userSpaceOnUse" color-interpolation-filters="sRGB">
<feFlood flood-opacity="0" result="BackgroundImageFix"/>
<feColorMatrix in="SourceAlpha" type="matrix" values="0 0 0 0 0 0 0 0 0 0 0 0 0 0 0 0 0 0 127 0" result="hardAlpha"/>
<feOffset dy="2"/>
<feGaussianBlur stdDeviation="2"/>
<feComposite in2="hardAlpha" operator="out"/>
<feColorMatrix type="matrix" values="0 0 0 0 0 0 0 0 0 0 0 0 0 0 0 0 0 0 0.02 0"/>
<feBlend mode="normal" in2="BackgroundImageFix" result="effect1_dropShadow_4187_20904"/>
<feColorMatrix in="SourceAlpha" type="matrix" values="0 0 0 0 0 0 0 0 0 0 0 0 0 0 0 0 0 0 127 0" result="hardAlpha"/>
<feMorphology radius="1" operator="erode" in="SourceAlpha" result="effect2_dropShadow_4187_20904"/>
<feOffset dy="1"/>
<feGaussianBlur stdDeviation="3"/>
<feComposite in2="hardAlpha" operator="out"/>
<feColorMatrix type="matrix" values="0 0 0 0 0 0 0 0 0 0 0 0 0 0 0 0 0 0 0.02 0"/>
<feBlend mode="normal" in2="effect1_dropShadow_4187_20904" result="effect2_dropShadow_4187_20904"/>
<feColorMatrix in="SourceAlpha" type="matrix" values="0 0 0 0 0 0 0 0 0 0 0 0 0 0 0 0 0 0 127 0" result="hardAlpha"/>
<feOffset dy="1"/>
<feGaussianBlur stdDeviation="1"/>
<feComposite in2="hardAlpha" operator="out"/>
<feColorMatrix type="matrix" values="0 0 0 0 0 0 0 0 0 0 0 0 0 0 0 0 0 0 0.03 0"/>
<feBlend mode="normal" in2="effect2_dropShadow_4187_20904" result="effect3_dropShadow_4187_20904"/>
<feBlend mode="normal" in="SourceGraphic" in2="effect3_dropShadow_4187_20904" result="shape"/>
</filter>
<filter id="filter1_d_4187_20904" x="129" y="98.5" width="26" height="26" filterUnits="userSpaceOnUse" color-interpolation-filters="sRGB">
<feFlood flood-opacity="0" result="BackgroundImageFix"/>
<feColorMatrix in="SourceAlpha" type="matrix" values="0 0 0 0 0 0 0 0 0 0 0 0 0 0 0 0 0 0 127 0" result="hardAlpha"/>
<feOffset dy="2"/>
<feGaussianBlur stdDeviation="2"/>
<feColorMatrix type="matrix" values="0 0 0 0 0 0 0 0 0 0.137255 0 0 0 0 0.0431373 0 0 0 0.2 0"/>
<feBlend mode="normal" in2="BackgroundImageFix" result="effect1_dropShadow_4187_20904"/>
<feBlend mode="normal" in="SourceGraphic" in2="effect1_dropShadow_4187_20904" result="shape"/>
</filter>
<clipPath id="clip0_4187_20904">
<rect width="48" height="48" fill="white" transform="translate(13.5 12.5)"/>
</clipPath>
<clipPath id="clip1_4187_20904">
<rect width="18" height="18" fill="white" transform="translate(124 23.5)"/>
</clipPath>
<clipPath id="clip2_4187_20904">
<rect width="44" height="22" fill="white" transform="translate(109 98.5)"/>
</clipPath>
</defs>
</svg>
