<svg width="179" height="135" viewBox="0 0 179 135" fill="none" xmlns="http://www.w3.org/2000/svg">
<g filter="url(#filter0_ddd_4214_21767)">
<rect x="5.5" y="4.5" width="168" height="124" rx="8" fill="white"/>
<rect x="5.5" y="4.5" width="168" height="124" rx="8" stroke="#91CAFF"/>
<g clip-path="url(#clip0_4214_21767)">
<path d="M37.5005 14.2998C40.2067 14.2998 42.6852 14.7301 44.5083 15.4463C45.4175 15.8035 46.194 16.2443 46.7534 16.7637C47.3136 17.284 47.6994 17.9282 47.6997 18.6709V18.6855L47.6987 18.6992L46.9888 33.5986C46.9613 34.1716 46.6624 34.6981 46.1841 35.0146L45.354 35.5625L49.7905 52.3203C50.5888 55.3372 47.9343 58.1396 44.8784 57.5068L38.1079 56.1055C37.7068 56.0225 37.2932 56.0225 36.8921 56.1055L30.1216 57.5068C27.0658 58.1394 24.4113 55.3371 25.2095 52.3203L29.644 35.5635L28.814 35.0146C28.3357 34.6981 28.0377 34.1715 28.0103 33.5986L27.3013 18.6992L27.3003 18.6855V18.6709C27.3006 17.9282 27.6864 17.284 28.2466 16.7637C28.8062 16.2441 29.5841 15.8036 30.4937 15.4463C32.3168 14.7303 34.7944 14.2998 37.5005 14.2998ZM42.8813 37.1982C42.7277 37.3 42.6285 37.4677 42.6138 37.6514L42.4058 40.2441C42.3304 41.1783 41.5509 41.8999 40.6128 41.9004H34.3872C33.4492 41.8998 32.6696 41.1782 32.5942 40.2441L32.3853 37.6523C32.3704 37.4688 32.2712 37.3019 32.1177 37.2002L30.7007 36.2627L26.3696 52.627C25.7994 54.7819 27.6956 56.7851 29.8784 56.333L36.6479 54.9297C37.2098 54.8133 37.7902 54.8133 38.3521 54.9297L45.1216 56.333C47.3044 56.7851 49.2006 54.7819 48.6304 52.627L44.2983 36.2607L42.8813 37.1982ZM38.6997 43.1006C39.6938 43.1006 40.5005 43.9063 40.5005 44.9004V52.1006C40.5002 53.0945 39.6937 53.9004 38.6997 53.9004H36.3003C35.3063 53.9004 34.5007 53.0945 34.5005 52.1006V44.9004C34.5005 43.9063 35.3062 43.1006 36.3003 43.1006H38.6997ZM36.3003 44.2998C35.9689 44.2998 35.6997 44.569 35.6997 44.9004V52.1006C35.6999 52.4318 35.9691 52.7002 36.3003 52.7002H38.6997C39.0309 52.7002 39.3001 52.4318 39.3003 52.1006V44.9004C39.3003 44.569 39.0311 44.2998 38.6997 44.2998H36.3003ZM43.2085 35.2793C39.4093 35.5821 35.5898 35.5821 31.7905 35.2793L31.3345 35.2422L32.7798 36.1992C33.2405 36.5042 33.5359 37.0039 33.5806 37.5547L33.7896 40.1484C33.8149 40.4601 34.0755 40.6998 34.3872 40.7002H40.6128L40.7261 40.6895C40.9854 40.6393 41.1882 40.4214 41.2104 40.1484L41.4185 37.5547C41.4628 37.0036 41.7582 36.5034 42.2192 36.1982L43.6626 35.2422L43.2085 35.2793ZM29.2095 33.541C29.2135 33.6266 29.2363 33.7087 29.2739 33.7832C29.3116 33.7801 29.3503 33.7791 29.3892 33.7822L31.9038 33.9824C35.6277 34.2792 39.3713 34.2792 43.0952 33.9824L45.6108 33.7822C45.6492 33.7792 45.687 33.7803 45.7241 33.7832C45.7619 33.7086 45.7854 33.6267 45.7896 33.541L46.0894 27.2695H28.9106L29.2095 33.541ZM42.6675 19.1885C39.2274 18.9354 35.7716 18.9354 32.3315 19.1885L28.7046 19.4551C28.6472 19.4593 28.5909 19.4542 28.5366 19.4453L28.8481 25.9678H46.1519L46.4634 19.4453C46.409 19.4543 46.353 19.4593 46.2954 19.4551L42.6675 19.1885ZM37.5005 15.5C34.9056 15.5 32.5835 15.9149 30.9321 16.5635C30.1048 16.8885 29.4751 17.261 29.063 17.6436C28.8717 17.8213 28.7367 17.9919 28.647 18.1533L32.228 17.8896C35.7374 17.6315 39.2626 17.6314 42.772 17.8896L46.3521 18.1533C46.2623 17.9921 46.129 17.821 45.938 17.6436C45.526 17.261 44.8961 16.8885 44.0688 16.5635C42.4176 15.9149 40.0953 15.5 37.5005 15.5Z" fill="#1677FF"/>
</g>
<path d="M133.5 13H157.5C161.642 13 165 16.3579 165 20.5V44.5C165 48.6421 161.642 52 157.5 52H133.5C129.358 52 126 48.6421 126 44.5V20.5C126 16.3579 129.358 13 133.5 13Z" fill="white"/>
<path d="M133.5 13H157.5C161.642 13 165 16.3579 165 20.5V44.5C165 48.6421 161.642 52 157.5 52H133.5C129.358 52 126 48.6421 126 44.5V20.5C126 16.3579 129.358 13 133.5 13Z" stroke="#DEE4ED"/>
<g clip-path="url(#clip1_4214_21767)">
<path d="M152.757 34.4974L151.605 33.513C151.66 33.179 151.688 32.838 151.688 32.497C151.688 32.156 151.66 31.8149 151.605 31.481L152.757 30.4966C152.844 30.4222 152.906 30.3232 152.935 30.2127C152.964 30.1022 152.959 29.9854 152.92 29.8778L152.904 29.8321C152.588 28.9462 152.113 28.125 151.504 27.4081L151.472 27.3712C151.398 27.2843 151.299 27.2218 151.189 27.192C151.079 27.1622 150.963 27.1664 150.855 27.2042L149.426 27.7122C148.898 27.2798 148.31 26.9388 147.673 26.6997L147.397 25.2056C147.376 25.0931 147.322 24.9897 147.241 24.909C147.16 24.8283 147.056 24.7742 146.944 24.7538L146.896 24.745C145.98 24.5798 145.017 24.5798 144.101 24.745L144.054 24.7538C143.941 24.7742 143.838 24.8283 143.757 24.909C143.676 24.9897 143.621 25.0931 143.6 25.2056L143.323 26.7067C142.691 26.9459 142.104 27.2867 141.582 27.7157L140.143 27.2042C140.035 27.1661 139.918 27.1617 139.808 27.1915C139.698 27.2214 139.6 27.284 139.526 27.3712L139.494 27.4081C138.885 28.1255 138.411 28.9466 138.093 29.8321L138.077 29.8778C137.998 30.0976 138.063 30.3437 138.241 30.4966L139.406 31.4915C139.352 31.822 139.325 32.1595 139.325 32.4952C139.325 32.8327 139.352 33.1702 139.406 33.4989L138.241 34.4938C138.154 34.5682 138.092 34.6672 138.063 34.7777C138.033 34.8883 138.039 35.0051 138.077 35.1126L138.093 35.1583C138.411 36.0442 138.882 36.8616 139.494 37.5823L139.526 37.6192C139.6 37.7062 139.698 37.7686 139.808 37.7985C139.919 37.8283 140.035 37.824 140.143 37.7862L141.582 37.2747C142.106 37.7054 142.692 38.0464 143.323 38.2837L143.6 39.7849C143.621 39.8973 143.676 40.0007 143.757 40.0814C143.838 40.1621 143.941 40.2162 144.054 40.2366L144.101 40.2454C145.026 40.4115 145.972 40.4115 146.896 40.2454L146.944 40.2366C147.056 40.2162 147.16 40.1621 147.241 40.0814C147.322 40.0007 147.376 39.8973 147.397 39.7849L147.673 38.2907C148.309 38.0523 148.902 37.7102 149.426 37.2782L150.855 37.7862C150.963 37.8243 151.079 37.8287 151.189 37.7989C151.3 37.7691 151.398 37.7064 151.472 37.6192L151.504 37.5823C152.115 36.8599 152.586 36.0442 152.904 35.1583L152.92 35.1126C152.999 34.8964 152.934 34.6503 152.757 34.4974ZM150.357 31.6884C150.401 31.9538 150.424 32.2263 150.424 32.4987C150.424 32.7712 150.401 33.0437 150.357 33.3091L150.241 34.014L151.554 35.1372C151.355 35.5958 151.104 36.0299 150.806 36.431L149.174 35.8526L148.622 36.3062C148.202 36.6507 147.735 36.9214 147.229 37.1112L146.559 37.3626L146.244 39.0677C145.748 39.1239 145.246 39.1239 144.75 39.0677L144.435 37.3591L143.771 37.1042C143.27 36.9144 142.804 36.6437 142.388 36.3009L141.836 35.8456L140.194 36.4292C139.895 36.0267 139.645 35.5925 139.445 35.1354L140.772 34.0017L140.658 33.2985C140.616 33.0366 140.593 32.7659 140.593 32.4987C140.593 32.2298 140.614 31.9608 140.658 31.6989L140.772 30.9958L139.445 29.862C139.644 29.4032 139.895 28.9708 140.194 28.5683L141.836 29.1519L142.388 28.6966C142.804 28.3538 143.27 28.0831 143.771 27.8933L144.437 27.6419L144.752 25.9333C145.246 25.8771 145.75 25.8771 146.246 25.9333L146.561 27.6384L147.23 27.8897C147.735 28.0796 148.204 28.3503 148.624 28.6948L149.176 29.1483L150.807 28.57C151.106 28.9726 151.356 29.4067 151.556 29.8638L150.243 30.987L150.357 31.6884ZM145.501 29.2292C143.792 29.2292 142.407 30.6144 142.407 32.3229C142.407 34.0315 143.792 35.4167 145.501 35.4167C147.209 35.4167 148.594 34.0315 148.594 32.3229C148.594 30.6144 147.209 29.2292 145.501 29.2292ZM146.893 33.7151C146.71 33.8983 146.493 34.0435 146.254 34.1424C146.015 34.2414 145.759 34.2921 145.501 34.2917C144.975 34.2917 144.481 34.086 144.108 33.7151C143.925 33.5325 143.78 33.3155 143.681 33.0766C143.582 32.8377 143.531 32.5816 143.532 32.3229C143.532 31.7974 143.738 31.3034 144.108 30.9308C144.481 30.5581 144.975 30.3542 145.501 30.3542C146.026 30.3542 146.52 30.5581 146.893 30.9308C147.076 31.1134 147.221 31.3304 147.32 31.5693C147.419 31.8082 147.47 32.0643 147.469 32.3229C147.469 32.8485 147.264 33.3425 146.893 33.7151Z" fill="black" fill-opacity="0.88"/>
</g>
<path d="M115.5 65H161.5C163.433 65 165 66.567 165 68.5V82.5C165 84.433 163.433 86 161.5 86H115.5C113.567 86 112 84.433 112 82.5V68.5C112 66.567 113.567 65 115.5 65Z" fill="white"/>
<path d="M115.5 65H161.5C163.433 65 165 66.567 165 68.5V82.5C165 84.433 163.433 86 161.5 86H115.5C113.567 86 112 84.433 112 82.5V68.5C112 66.567 113.567 65 115.5 65Z" stroke="#DEE4ED"/>
<path d="M122.62 79.5V71.892H119.548V71.04H126.688V71.892H123.616V79.5H122.62ZM128.553 79.608C128.153 79.608 127.793 79.532 127.473 79.38C127.161 79.22 126.913 79.004 126.729 78.732C126.545 78.46 126.453 78.156 126.453 77.82C126.453 77.388 126.561 77.048 126.777 76.8C127.001 76.552 127.365 76.376 127.869 76.272C128.381 76.168 129.077 76.116 129.957 76.116H130.497V76.752H129.969C129.481 76.752 129.073 76.768 128.745 76.8C128.417 76.832 128.157 76.888 127.965 76.968C127.773 77.048 127.637 77.152 127.557 77.28C127.477 77.408 127.437 77.568 127.437 77.76C127.437 78.088 127.549 78.356 127.773 78.564C128.005 78.772 128.317 78.876 128.709 78.876C129.029 78.876 129.309 78.8 129.549 78.648C129.797 78.496 129.989 78.288 130.125 78.024C130.269 77.76 130.341 77.456 130.341 77.112V75.744C130.341 75.248 130.241 74.892 130.041 74.676C129.841 74.452 129.513 74.34 129.057 74.34C128.705 74.34 128.365 74.392 128.037 74.496C127.709 74.592 127.373 74.752 127.029 74.976L126.693 74.268C126.901 74.124 127.137 74 127.401 73.896C127.665 73.784 127.941 73.7 128.229 73.644C128.517 73.588 128.793 73.56 129.057 73.56C129.561 73.56 129.977 73.644 130.305 73.812C130.633 73.972 130.877 74.22 131.037 74.556C131.197 74.884 131.277 75.308 131.277 75.828V79.5H130.365V78.144H130.473C130.409 78.448 130.285 78.708 130.101 78.924C129.925 79.14 129.705 79.308 129.441 79.428C129.177 79.548 128.881 79.608 128.553 79.608ZM128.469 81.744V80.688H129.573V81.744H128.469ZM132.96 72.216V71.124H134.16V72.216H132.96ZM133.08 79.5V73.668H134.052V79.5H133.08ZM141.423 79.608C140.839 79.608 140.335 79.48 139.911 79.224C139.487 78.968 139.159 78.612 138.927 78.156C138.703 77.692 138.591 77.156 138.591 76.548C138.591 75.932 138.703 75.4 138.927 74.952C139.159 74.504 139.487 74.16 139.911 73.92C140.335 73.68 140.839 73.56 141.423 73.56C141.783 73.56 142.139 73.624 142.491 73.752C142.843 73.88 143.135 74.06 143.367 74.292L143.031 75C142.799 74.776 142.543 74.612 142.263 74.508C141.991 74.404 141.731 74.352 141.483 74.352C140.875 74.352 140.407 74.544 140.079 74.928C139.751 75.304 139.587 75.848 139.587 76.56C139.587 77.256 139.751 77.808 140.079 78.216C140.407 78.616 140.875 78.816 141.483 78.816C141.731 78.816 141.991 78.764 142.263 78.66C142.543 78.556 142.799 78.388 143.031 78.156L143.367 78.864C143.135 79.096 142.839 79.28 142.479 79.416C142.127 79.544 141.775 79.608 141.423 79.608ZM144.506 79.5V71.04H145.478V74.964H145.322C145.49 74.5 145.762 74.152 146.138 73.92C146.522 73.68 146.962 73.56 147.458 73.56C147.922 73.56 148.306 73.644 148.61 73.812C148.922 73.98 149.154 74.236 149.306 74.58C149.458 74.916 149.534 75.344 149.534 75.864V79.5H148.562V75.924C148.562 75.564 148.514 75.268 148.418 75.036C148.33 74.804 148.186 74.632 147.986 74.52C147.794 74.408 147.542 74.352 147.23 74.352C146.878 74.352 146.57 74.428 146.306 74.58C146.042 74.732 145.838 74.944 145.694 75.216C145.55 75.488 145.478 75.808 145.478 76.176V79.5H144.506ZM153.75 79.608C153.182 79.608 152.69 79.484 152.274 79.236C151.858 78.988 151.534 78.64 151.302 78.192C151.078 77.736 150.966 77.2 150.966 76.584C150.966 75.968 151.078 75.436 151.302 74.988C151.534 74.532 151.858 74.18 152.274 73.932C152.69 73.684 153.182 73.56 153.75 73.56C154.318 73.56 154.81 73.684 155.226 73.932C155.642 74.18 155.962 74.532 156.186 74.988C156.418 75.436 156.534 75.968 156.534 76.584C156.534 77.2 156.418 77.736 156.186 78.192C155.962 78.64 155.642 78.988 155.226 79.236C154.81 79.484 154.318 79.608 153.75 79.608ZM153.75 78.828C154.302 78.828 154.738 78.636 155.058 78.252C155.386 77.86 155.55 77.3 155.55 76.572C155.55 75.852 155.386 75.3 155.058 74.916C154.738 74.532 154.302 74.34 153.75 74.34C153.206 74.34 152.77 74.532 152.442 74.916C152.114 75.3 151.95 75.852 151.95 76.572C151.95 77.3 152.114 77.86 152.442 78.252C152.77 78.636 153.206 78.828 153.75 78.828ZM151.974 72.888L153.282 71.304H154.218L155.526 72.888H154.866L153.75 71.868L152.634 72.888H151.974ZM152.394 71.004L151.854 70.98C151.878 70.708 151.938 70.48 152.034 70.296C152.138 70.112 152.27 69.976 152.43 69.888C152.59 69.8 152.774 69.756 152.982 69.756C153.126 69.756 153.266 69.784 153.402 69.84C153.538 69.896 153.69 69.984 153.858 70.104C154.026 70.216 154.154 70.292 154.242 70.332C154.338 70.372 154.426 70.392 154.506 70.392C154.69 70.392 154.826 70.34 154.914 70.236C155.01 70.132 155.074 69.968 155.106 69.744L155.646 69.768C155.614 70.176 155.498 70.484 155.298 70.692C155.106 70.892 154.85 70.992 154.53 70.992C154.378 70.992 154.234 70.964 154.098 70.908C153.962 70.844 153.798 70.744 153.606 70.608C153.486 70.536 153.378 70.476 153.282 70.428C153.186 70.38 153.09 70.356 152.994 70.356C152.818 70.356 152.682 70.408 152.586 70.512C152.498 70.616 152.434 70.78 152.394 71.004Z" fill="black" fill-opacity="0.88"/>
<path d="M17.14 114.5V105.624H13.556V104.63H21.886V105.624H18.302V114.5H17.14ZM24.9855 114.626C24.2668 114.626 23.6461 114.486 23.1235 114.206C22.6101 113.917 22.2088 113.511 21.9195 112.988C21.6395 112.465 21.4995 111.84 21.4995 111.112C21.4995 110.403 21.6395 109.787 21.9195 109.264C22.1995 108.732 22.5821 108.317 23.0675 108.018C23.5621 107.719 24.1315 107.57 24.7755 107.57C25.3915 107.57 25.9188 107.705 26.3575 107.976C26.7961 108.247 27.1321 108.629 27.3655 109.124C27.6081 109.619 27.7295 110.211 27.7295 110.902V111.336H22.3675V110.594H26.9735L26.7495 110.776C26.7495 110.029 26.5815 109.451 26.2455 109.04C25.9188 108.62 25.4381 108.41 24.8035 108.41C24.3275 108.41 23.9215 108.522 23.5855 108.746C23.2588 108.961 23.0115 109.264 22.8435 109.656C22.6755 110.039 22.5915 110.487 22.5915 111V111.084C22.5915 111.653 22.6801 112.134 22.8575 112.526C23.0441 112.918 23.3195 113.217 23.6835 113.422C24.0475 113.618 24.4815 113.716 24.9855 113.716C25.3868 113.716 25.7741 113.655 26.1475 113.534C26.5301 113.403 26.8895 113.193 27.2255 112.904L27.6175 113.702C27.3095 113.982 26.9175 114.206 26.4415 114.374C25.9655 114.542 25.4801 114.626 24.9855 114.626ZM22.7035 106.786L24.2295 103.958H25.3215L26.8475 106.786H26.0635L24.7755 104.714L23.4875 106.786H22.7035ZM29.3706 114.5V107.696H30.4766V109.208H30.3226C30.5186 108.667 30.836 108.261 31.2746 107.99C31.7226 107.71 32.236 107.57 32.8146 107.57C33.356 107.57 33.804 107.668 34.1586 107.864C34.5226 108.051 34.7933 108.345 34.9706 108.746C35.148 109.147 35.2366 109.651 35.2366 110.258V114.5H34.1026V110.328C34.1026 109.908 34.0466 109.563 33.9346 109.292C33.832 109.021 33.664 108.821 33.4306 108.69C33.2066 108.559 32.9126 108.494 32.5486 108.494C32.138 108.494 31.7786 108.583 31.4706 108.76C31.1626 108.937 30.9246 109.185 30.7566 109.502C30.5886 109.819 30.5046 110.193 30.5046 110.622V114.5H29.3706ZM43.6534 114.626C42.8507 114.626 42.2487 114.411 41.8474 113.982C41.446 113.553 41.2454 112.941 41.2454 112.148V108.578H39.9154V107.696H41.2454V105.61H42.3794V107.696H44.5354V108.578H42.3794V112.036C42.3794 112.568 42.4914 112.974 42.7154 113.254C42.9394 113.525 43.3034 113.66 43.8074 113.66C43.9567 113.66 44.106 113.641 44.2554 113.604C44.4047 113.567 44.54 113.529 44.6614 113.492L44.8574 114.36C44.736 114.425 44.5587 114.486 44.3254 114.542C44.092 114.598 43.868 114.626 43.6534 114.626ZM45.8179 114.5V104.63H46.9519V109.208H46.7699C46.9659 108.667 47.2832 108.261 47.7219 107.99C48.1699 107.71 48.6832 107.57 49.2619 107.57C49.8032 107.57 50.2512 107.668 50.6059 107.864C50.9699 108.06 51.2406 108.359 51.4179 108.76C51.5952 109.152 51.6839 109.651 51.6839 110.258V114.5H50.5499V110.328C50.5499 109.908 50.4939 109.563 50.3819 109.292C50.2792 109.021 50.1112 108.821 49.8779 108.69C49.6539 108.559 49.3599 108.494 48.9959 108.494C48.5852 108.494 48.2259 108.583 47.9179 108.76C47.6099 108.937 47.3719 109.185 47.2039 109.502C47.0359 109.819 46.9519 110.193 46.9519 110.622V114.5H45.8179ZM53.6349 106.002V104.728H55.0349V106.002H53.6349ZM53.7749 114.5V107.696H54.9089V114.5H53.7749ZM60.0948 114.626C59.3762 114.626 58.7555 114.486 58.2328 114.206C57.7195 113.917 57.3182 113.511 57.0288 112.988C56.7488 112.465 56.6088 111.84 56.6088 111.112C56.6088 110.403 56.7488 109.787 57.0288 109.264C57.3088 108.732 57.6915 108.317 58.1768 108.018C58.6715 107.719 59.2408 107.57 59.8848 107.57C60.5008 107.57 61.0282 107.705 61.4668 107.976C61.9055 108.247 62.2415 108.629 62.4748 109.124C62.7175 109.619 62.8388 110.211 62.8388 110.902V111.336H57.4768V110.594H62.0828L61.8588 110.776C61.8588 110.029 61.6908 109.451 61.3548 109.04C61.0282 108.62 60.5475 108.41 59.9128 108.41C59.4368 108.41 59.0308 108.522 58.6948 108.746C58.3682 108.961 58.1208 109.264 57.9528 109.656C57.7848 110.039 57.7008 110.487 57.7008 111V111.084C57.7008 111.653 57.7895 112.134 57.9668 112.526C58.1535 112.918 58.4288 113.217 58.7928 113.422C59.1568 113.618 59.5908 113.716 60.0948 113.716C60.4962 113.716 60.8835 113.655 61.2568 113.534C61.6395 113.403 61.9988 113.193 62.3348 112.904L62.7268 113.702C62.4188 113.982 62.0268 114.206 61.5508 114.374C61.0748 114.542 60.5895 114.626 60.0948 114.626ZM57.8128 106.786L59.3388 104.518H60.4308L61.9568 106.786H61.1728L59.8848 105.246L58.5968 106.786H57.8128ZM61.2008 105.33L62.4048 103.23H63.4968L61.9428 105.33H61.2008ZM67.21 114.626C66.4073 114.626 65.8053 114.411 65.404 113.982C65.0027 113.553 64.802 112.941 64.802 112.148V108.578H63.472V107.696H64.802V105.61H65.936V107.696H68.092V108.578H65.936V112.036C65.936 112.568 66.048 112.974 66.272 113.254C66.496 113.525 66.86 113.66 67.364 113.66C67.5133 113.66 67.6627 113.641 67.812 113.604C67.9613 113.567 68.0967 113.529 68.218 113.492L68.414 114.36C68.2927 114.425 68.1153 114.486 67.882 114.542C67.6487 114.598 67.4247 114.626 67.21 114.626ZM76.4143 114.626C75.7983 114.626 75.2663 114.467 74.8183 114.15C74.3796 113.833 74.0856 113.408 73.9363 112.876H74.0763V114.5H72.9703V104.63H74.1043V109.278H73.9363C74.0949 108.755 74.3936 108.34 74.8323 108.032C75.2709 107.724 75.7983 107.57 76.4143 107.57C77.0303 107.57 77.5623 107.715 78.0103 108.004C78.4583 108.284 78.8036 108.69 79.0463 109.222C79.2983 109.745 79.4243 110.37 79.4243 111.098C79.4243 111.817 79.2983 112.442 79.0463 112.974C78.8036 113.497 78.4536 113.903 77.9963 114.192C77.5483 114.481 77.0209 114.626 76.4143 114.626ZM76.1763 113.716C76.8203 113.716 77.3289 113.492 77.7023 113.044C78.0849 112.587 78.2763 111.938 78.2763 111.098C78.2763 110.249 78.0849 109.6 77.7023 109.152C77.3289 108.704 76.8203 108.48 76.1763 108.48C75.5416 108.48 75.0329 108.704 74.6503 109.152C74.2676 109.6 74.0763 110.249 74.0763 111.098C74.0763 111.938 74.2676 112.587 74.6503 113.044C75.0329 113.492 75.5416 113.716 76.1763 113.716ZM80.9924 106.002V104.728H82.3924V106.002H80.9924ZM81.1324 114.5V107.696H82.2664V114.5H81.1324ZM81.0344 117.118V115.886H82.3224V117.118H81.0344Z" fill="black" fill-opacity="0.88"/>
<g opacity="0.65">
<rect x="121.5" y="98.5" width="44" height="22" rx="11" fill="#1677FF"/>
<rect x="145.5" y="100.5" width="18" height="18" rx="9" fill="white"/>
</g>
</g>
<defs>
<filter id="filter0_ddd_4214_21767" x="0" y="0" width="179" height="135" filterUnits="userSpaceOnUse" color-interpolation-filters="sRGB">
<feFlood flood-opacity="0" result="BackgroundImageFix"/>
<feColorMatrix in="SourceAlpha" type="matrix" values="0 0 0 0 0 0 0 0 0 0 0 0 0 0 0 0 0 0 127 0" result="hardAlpha"/>
<feOffset dy="2"/>
<feGaussianBlur stdDeviation="2"/>
<feComposite in2="hardAlpha" operator="out"/>
<feColorMatrix type="matrix" values="0 0 0 0 0 0 0 0 0 0 0 0 0 0 0 0 0 0 0.02 0"/>
<feBlend mode="normal" in2="BackgroundImageFix" result="effect1_dropShadow_4214_21767"/>
<feColorMatrix in="SourceAlpha" type="matrix" values="0 0 0 0 0 0 0 0 0 0 0 0 0 0 0 0 0 0 127 0" result="hardAlpha"/>
<feMorphology radius="1" operator="erode" in="SourceAlpha" result="effect2_dropShadow_4214_21767"/>
<feOffset dy="1"/>
<feGaussianBlur stdDeviation="3"/>
<feComposite in2="hardAlpha" operator="out"/>
<feColorMatrix type="matrix" values="0 0 0 0 0 0 0 0 0 0 0 0 0 0 0 0 0 0 0.02 0"/>
<feBlend mode="normal" in2="effect1_dropShadow_4214_21767" result="effect2_dropShadow_4214_21767"/>
<feColorMatrix in="SourceAlpha" type="matrix" values="0 0 0 0 0 0 0 0 0 0 0 0 0 0 0 0 0 0 127 0" result="hardAlpha"/>
<feOffset dy="1"/>
<feGaussianBlur stdDeviation="1"/>
<feComposite in2="hardAlpha" operator="out"/>
<feColorMatrix type="matrix" values="0 0 0 0 0 0 0 0 0 0 0 0 0 0 0 0 0 0 0.03 0"/>
<feBlend mode="normal" in2="effect2_dropShadow_4214_21767" result="effect3_dropShadow_4214_21767"/>
<feBlend mode="normal" in="SourceGraphic" in2="effect3_dropShadow_4214_21767" result="shape"/>
</filter>
<clipPath id="clip0_4214_21767">
<rect width="48" height="48" fill="white" transform="translate(13.5 12.5)"/>
</clipPath>
<clipPath id="clip1_4214_21767">
<rect width="18" height="18" fill="white" transform="translate(136.5 23.5)"/>
</clipPath>
</defs>
</svg>
