<svg width="40" height="40" viewBox="0 0 40 40" fill="none" xmlns="http://www.w3.org/2000/svg">
<path d="M31.1998 19.5381H22.8887C22.2465 19.5381 21.7554 20.0181 21.7554 20.6458C21.7554 21.2735 22.2465 21.7535 22.8887 21.7535H31.1998C31.842 21.7535 32.3331 21.2735 32.3331 20.6458C32.3331 20.0181 31.842 19.5381 31.1998 19.5381ZM31.1998 21.015H22.8887C22.662 21.015 22.5109 20.8673 22.5109 20.6458C22.5109 20.4242 22.662 20.2766 22.8887 20.2766H31.1998C31.4265 20.2766 31.5776 20.4242 31.5776 20.6458C31.5776 20.8673 31.4265 21.015 31.1998 21.015Z" fill="currentColor"/>
<path d="M31.1998 23.9688H22.8887C22.2465 23.9688 21.7554 24.4488 21.7554 25.0765C21.7554 25.7042 22.2465 26.1842 22.8887 26.1842H31.1998C31.842 26.1842 32.3331 25.7042 32.3331 25.0765C32.3331 24.4488 31.842 23.9688 31.1998 23.9688ZM31.1998 25.4457H22.8887C22.662 25.4457 22.5109 25.298 22.5109 25.0765C22.5109 24.8549 22.662 24.7072 22.8887 24.7072H31.1998C31.4265 24.7072 31.5776 24.8549 31.5776 25.0765C31.5776 25.298 31.4265 25.4457 31.1998 25.4457Z" fill="currentColor"/>
<path d="M31.1998 28.4004H22.8887C22.2465 28.4004 21.7554 28.8804 21.7554 29.5081C21.7554 30.1358 22.2465 30.6158 22.8887 30.6158H31.1998C31.842 30.6158 32.3331 30.1358 32.3331 29.5081C32.3331 28.8804 31.842 28.4004 31.1998 28.4004ZM31.1998 29.8773H22.8887C22.662 29.8773 22.5109 29.7296 22.5109 29.5081C22.5109 29.2866 22.662 29.1389 22.8887 29.1389H31.1998C31.4265 29.1389 31.5776 29.2866 31.5776 29.5081C31.5776 29.7296 31.4265 29.8773 31.1998 29.8773Z" fill="currentColor"/>
<path d="M35.7826 16.9135H34.3043C33.8978 16.9135 33.5652 17.2413 33.5652 17.6419H20.2609C20.2609 17.2413 19.9283 16.9135 19.5217 16.9135C18.3022 16.9135 17.3043 17.8969 17.3043 19.0987C16.0848 19.0987 15.087 20.082 15.087 21.2838V23.469H13.9783V20.1913C13.9783 19.9727 13.8304 19.8271 13.6087 19.8271H12.5V17.6419H12.8696C12.9804 17.6419 13.0543 17.6055 13.1283 17.5327L13.8674 16.8043C13.9413 16.7314 13.9783 16.6586 13.9783 16.5493V14.3642C13.9783 14.1457 13.8304 14 13.6087 14H7.69565C7.47391 14 7.32609 14.1457 7.32609 14.3642V16.5493C7.32609 16.6586 7.36304 16.7314 7.43696 16.8043L8.17609 17.5327C8.25 17.6055 8.32391 17.6419 8.43478 17.6419H8.80435V19.8271H8.06522C7.95435 19.8271 7.88043 19.8635 7.80652 19.9363L6.69783 21.0289C6.62391 21.1017 6.58696 21.1746 6.58696 21.2838V23.469H0.369565C0.147826 23.469 0 23.6147 0 23.8332V26.7467C0 26.9652 0.147826 27.1109 0.369565 27.1109H6.58696V29.2961C6.58696 29.4053 6.62391 29.4782 6.69783 29.551L7.80652 30.6436C7.88043 30.7164 7.95435 30.7528 8.06522 30.7528H13.6087C13.8304 30.7528 13.9783 30.6071 13.9783 30.3886V27.1109H15.087V29.2961C15.087 30.4979 16.0848 31.4812 17.3043 31.4812C17.3043 32.683 18.3022 33.6664 19.5217 33.6664C19.9283 33.6664 20.2609 33.3386 20.2609 32.938H22.8478V34.3947H8.43478C8.28696 34.3947 8.13913 34.504 8.10217 34.6133L6.99348 37.5268C6.95652 37.6361 6.95652 37.7817 7.03043 37.8546C7.10435 37.9638 7.21522 38.0002 7.32609 38.0002H34.6739C34.7848 38.0002 34.8957 37.9274 34.9696 37.8546C35.0435 37.7453 35.0435 37.6361 35.0065 37.5268L33.8978 34.6133C33.8609 34.504 33.713 34.3947 33.5652 34.3947H30.9783V32.938H33.5652C33.5652 33.3386 33.8978 33.6664 34.3043 33.6664H35.7826C37.0022 33.6664 38 32.683 38 31.4812V19.0987C38 17.8969 37.0022 16.9135 35.7826 16.9135ZM8.06522 16.4037V14.7284H13.2391V16.4037L12.7217 16.9135H12.1304H9.17391H8.58261L8.06522 16.4037ZM9.54348 17.6419H11.7609V19.8271H9.54348V17.6419ZM0.73913 26.3825V24.1974H6.58696V26.3825H0.73913ZM13.2391 30.0244H8.21304L7.32609 29.1504V26.7467V23.8332V21.4295L8.21304 20.5555H9.17391H12.1304H13.2391V23.8332V26.7467V30.0244ZM13.9783 26.3825V24.1974H15.087V26.3825H13.9783ZM15.8261 29.2961V26.7467V23.8332V21.2838C15.8261 20.4826 16.4913 19.8271 17.3043 19.8271V30.7528C16.4913 30.7528 15.8261 30.0973 15.8261 29.2961ZM19.5217 32.938C18.7087 32.938 18.0435 32.2824 18.0435 31.4812V31.117V19.4629V19.0987C18.0435 18.2975 18.7087 17.6419 19.5217 17.6419V18.0061V32.5738V32.938ZM34.1565 37.3083H7.84348L8.69348 35.1231H23.2174H30.6087H33.3065L34.1565 37.3083ZM30.2391 34.3947H23.587V32.938H30.2391V34.3947ZM30.6087 32.2096H23.2174H20.2609V18.3703H33.5652V32.2096H30.6087ZM37.2609 31.4812C37.2609 32.2824 36.5956 32.938 35.7826 32.938H34.3043V32.5738V18.0061V17.6419H35.7826C36.5956 17.6419 37.2609 18.2975 37.2609 19.0987V31.4812Z" fill="currentColor"/>
<path d="M10.0022 22.1108C9.92667 22.1846 8 24.0677 8 25.6923C8 26.9108 9.02 27.9078 10.2667 27.9078C11.5133 27.9078 12.5333 26.9108 12.5333 25.6923C12.5333 24.0677 10.6067 22.1846 10.5311 22.1108C10.38 21.9631 10.1533 21.9631 10.0022 22.1108ZM10.2667 27.1693C9.43556 27.1693 8.75556 26.5047 8.75556 25.6923C8.75556 24.7693 9.7 23.5508 10.2667 22.9231C10.8333 23.5508 11.7778 24.7693 11.7778 25.6923C11.7778 26.5047 11.0978 27.1693 10.2667 27.1693Z" fill="currentColor"/>
<path d="M32.667 8.92484V3.07422H33.2645L36.9243 7.93729H36.7998V3.07422H37.472V8.92484H36.8745L33.2313 4.07007H33.3392V8.92484H32.667Z" fill="currentColor"/>
<path d="M28.616 9C28.2011 9 27.8277 8.93084 27.4957 8.79253C27.1638 8.65422 26.8788 8.45505 26.6409 8.19502C26.4086 7.92946 26.2288 7.61411 26.1015 7.24896C25.9798 6.87828 25.9189 6.46058 25.9189 5.99585C25.9189 5.53112 25.9798 5.11618 26.1015 4.75104C26.2288 4.38036 26.4086 4.06501 26.6409 3.80498C26.8788 3.54495 27.1638 3.34578 27.4957 3.20747C27.8277 3.06916 28.2011 3 28.616 3C29.031 3 29.4044 3.06916 29.7364 3.20747C30.0683 3.34578 30.3532 3.54495 30.5911 3.80498C30.829 4.06501 31.0088 4.38036 31.1306 4.75104C31.2578 5.11618 31.3214 5.52835 31.3214 5.98755C31.3214 6.45228 31.2578 6.86999 31.1306 7.24066C31.0033 7.61134 30.8207 7.92946 30.5828 8.19502C30.3505 8.45505 30.0683 8.65422 29.7364 8.79253C29.4044 8.93084 29.031 9 28.616 9ZM28.616 8.361C29.031 8.361 29.3823 8.26971 29.67 8.08714C29.9632 7.90456 30.1873 7.63624 30.3422 7.28216C30.4971 6.92808 30.5745 6.49931 30.5745 5.99585C30.5745 5.48686 30.4971 5.05809 30.3422 4.70954C30.1928 4.361 29.9715 4.09544 29.6783 3.91286C29.3851 3.73029 29.031 3.639 28.616 3.639C28.2066 3.639 27.8553 3.73029 27.5621 3.91286C27.2744 4.09544 27.0531 4.36376 26.8982 4.71784C26.7433 5.06639 26.6658 5.49239 26.6658 5.99585C26.6658 6.49931 26.7433 6.92808 26.8982 7.28216C27.0531 7.6307 27.2744 7.89903 27.5621 8.08714C27.8553 8.26971 28.2066 8.361 28.616 8.361Z" fill="currentColor"/>
<path d="M19.668 8.92484V3.07422H20.3817V5.64683H23.8505V3.07422H24.5642V8.92484H23.8505V6.26924H20.3817V8.92484H19.668Z" fill="currentColor"/>
<path d="M14.1895 8.92484V3.07422H16.5546C16.9751 3.07422 17.3319 3.14338 17.6251 3.28169C17.9184 3.42 18.1397 3.61917 18.289 3.8792C18.4439 4.13923 18.5214 4.45734 18.5214 4.83355C18.5214 5.20423 18.4439 5.52235 18.289 5.78791C18.1341 6.04794 17.9101 6.24988 17.6168 6.39372C17.3291 6.53203 16.9751 6.60119 16.5546 6.60119H14.9031V8.92484H14.1895ZM14.9031 6.00368H16.4633C16.9059 6.00368 17.2406 5.90686 17.4675 5.71322C17.6943 5.51405 17.8077 5.22083 17.8077 4.83355C17.8077 4.44628 17.6943 4.15582 17.4675 3.96219C17.2406 3.76855 16.9059 3.67173 16.4633 3.67173H14.9031V6.00368Z" fill="currentColor"/>
<path d="M10.3564 8.92484V5.8875L10.5058 6.40202L8.14062 3.07422H8.9539L10.7796 5.63853H10.6717L12.4975 3.07422H13.2942L10.929 6.40202L11.0701 5.8875V8.92484H10.3564Z" fill="currentColor"/>
<path d="M5.76556 9C5.45574 9 5.16252 8.9751 4.88589 8.92531C4.60927 8.86999 4.35477 8.79253 4.12241 8.69295C3.89004 8.59336 3.68257 8.46888 3.5 8.3195L3.75726 7.73859C3.9509 7.88243 4.15007 8.00138 4.35477 8.09544C4.55947 8.18949 4.77801 8.25864 5.01037 8.3029C5.24274 8.34716 5.49447 8.36929 5.76556 8.36929C6.24689 8.36929 6.60927 8.27801 6.8527 8.09544C7.09613 7.90733 7.21784 7.65837 7.21784 7.34855C7.21784 7.18257 7.17911 7.04426 7.10166 6.93361C7.0242 6.81743 6.89972 6.72061 6.72822 6.64315C6.56224 6.5657 6.34371 6.50207 6.07261 6.45228L5.16805 6.26971C4.63693 6.15906 4.24689 5.97649 3.99793 5.72199C3.7545 5.46196 3.63278 5.12448 3.63278 4.70954C3.63278 4.36653 3.72407 4.06777 3.90664 3.81328C4.09474 3.55325 4.35477 3.35408 4.68672 3.21577C5.01867 3.07192 5.39765 3 5.82365 3C6.09474 3 6.34924 3.02766 6.58714 3.08299C6.82503 3.13278 7.04633 3.213 7.25104 3.32365C7.45574 3.42877 7.63555 3.55602 7.79046 3.70539L7.5332 4.27801C7.28976 4.05118 7.02697 3.88797 6.74481 3.78838C6.46819 3.68326 6.15837 3.63071 5.81535 3.63071C5.52766 3.63071 5.27317 3.67497 5.05187 3.76349C4.83057 3.84647 4.65629 3.96819 4.52905 4.12863C4.40733 4.28907 4.34647 4.47994 4.34647 4.70124C4.34647 4.95574 4.42393 5.15768 4.57884 5.30705C4.73928 5.4509 5.00761 5.56155 5.38382 5.639L6.28008 5.82158C6.8444 5.93223 7.25934 6.10927 7.5249 6.3527C7.79599 6.59059 7.93154 6.91148 7.93154 7.31535C7.93154 7.64177 7.84302 7.93223 7.66598 8.18672C7.49447 8.44122 7.24551 8.64039 6.91909 8.78423C6.59267 8.92808 6.20816 9 5.76556 9Z" fill="currentColor"/>
</svg>
