<svg width="343" height="193" viewBox="0 0 343 193" fill="none" xmlns="http://www.w3.org/2000/svg">
<g clip-path="url(#clip0_3078_35165)">
<rect width="343" height="193" rx="8" fill="currentColor"/>
<path d="M32.0186 28.5732C32.5178 28.5732 32.9818 28.6596 33.4106 28.8324C33.8458 29.0052 34.2234 29.2484 34.5434 29.562C34.8698 29.8756 35.1226 30.2404 35.3018 30.6564C35.4874 31.066 35.5802 31.5108 35.5802 31.9908C35.5802 32.4708 35.4874 32.922 35.3018 33.3444C35.1226 33.7604 34.8698 34.1252 34.5434 34.4388C34.2234 34.7524 33.8458 34.9988 33.4106 35.178C32.9818 35.3508 32.5178 35.4372 32.0186 35.4372C31.5194 35.4372 31.0522 35.3508 30.617 35.178C30.1882 34.9988 29.8106 34.7524 29.4842 34.4388C29.1642 34.1252 28.9114 33.7604 28.7258 33.3444C28.5466 32.922 28.457 32.4708 28.457 31.9908C28.457 31.5108 28.5466 31.0628 28.7258 30.6468C28.9114 30.2308 29.1642 29.8692 29.4842 29.562C29.8106 29.2484 30.1882 29.0052 30.617 28.8324C31.0522 28.6596 31.5194 28.5732 32.0186 28.5732ZM32.0282 29.5332C31.6954 29.5332 31.3818 29.5972 31.0874 29.7252C30.7994 29.8468 30.5434 30.0196 30.3194 30.2436C30.0954 30.4676 29.9194 30.73 29.7914 31.0308C29.6698 31.3252 29.609 31.6452 29.609 31.9908C29.609 32.3364 29.673 32.6596 29.801 32.9604C29.929 33.2612 30.105 33.5268 30.329 33.7572C30.553 33.9812 30.809 34.1572 31.097 34.2852C31.3914 34.4132 31.7018 34.4772 32.0282 34.4772C32.3546 34.4772 32.6618 34.4132 32.9498 34.2852C33.2442 34.1572 33.5002 33.9812 33.7178 33.7572C33.9354 33.5268 34.105 33.2612 34.2266 32.9604C34.3546 32.6596 34.4186 32.3364 34.4186 31.9908C34.4186 31.6452 34.3546 31.3252 34.2266 31.0308C34.105 30.73 33.9354 30.4676 33.7178 30.2436C33.5002 30.0196 33.2442 29.8468 32.9498 29.7252C32.6618 29.5972 32.3546 29.5332 32.0282 29.5332Z" fill="#006AFF"/>
<path d="M27.3263 30.3876C27.0831 30.1188 26.7951 29.9076 26.4623 29.754C26.1295 29.6004 25.7935 29.5236 25.4543 29.5236C25.1215 29.5236 24.8079 29.5876 24.5135 29.7156C24.2255 29.8372 23.9695 30.01 23.7455 30.234C23.5279 30.458 23.3583 30.7204 23.2367 31.0212C23.1151 31.3156 23.0543 31.6356 23.0543 31.9812C23.0543 32.3204 23.1151 32.6404 23.2367 32.9412C23.3583 33.2356 23.5279 33.4948 23.7455 33.7188C23.9695 33.9428 24.2255 34.1188 24.5135 34.2468C24.8079 34.3748 25.1215 34.4388 25.4543 34.4388C25.7935 34.4388 26.1263 34.3684 26.4527 34.2276C26.7791 34.0804 27.0703 33.882 27.3263 33.6324L27.9983 34.3332C27.7743 34.5572 27.5183 34.7524 27.2303 34.9188C26.9487 35.0852 26.6511 35.2132 26.3375 35.3028C26.0303 35.3924 25.7167 35.4372 25.3967 35.4372C24.9039 35.4372 24.4463 35.3508 24.0239 35.178C23.6015 34.9988 23.2303 34.7524 22.9103 34.4388C22.5967 34.1252 22.3503 33.7604 22.1711 33.3444C21.9919 32.922 21.9023 32.4708 21.9023 31.9908C21.9023 31.5108 21.9919 31.066 22.1711 30.6564C22.3503 30.2404 22.5999 29.8756 22.9199 29.562C23.2463 29.2484 23.6207 29.0052 24.0431 28.8324C24.4719 28.6596 24.9359 28.5732 25.4351 28.5732C25.7551 28.5732 26.0687 28.6148 26.3759 28.698C26.6831 28.7812 26.9743 28.8996 27.2495 29.0532C27.5247 29.2068 27.7711 29.3924 27.9887 29.61L27.3263 30.3876Z" fill="#006AFF"/>
<path d="M16.1602 28.6396H20.9602V29.6092H17.293V31.5004H20.5762V32.4604H17.293V34.39H21.0754V35.3596H16.1602V28.6396Z" fill="#006AFF"/>
<path d="M38.5547 18.0801H39.6875V24.8001H38.5547V18.0801Z" fill="#FD6900"/>
<path d="M34.5981 18.0801C35.0653 18.0801 35.4653 18.1473 35.7981 18.2817C36.1373 18.4161 36.3965 18.6081 36.5757 18.8577C36.7613 19.1073 36.8541 19.4081 36.8541 19.7601C36.8541 20.1377 36.7485 20.4609 36.5373 20.7297C36.3261 20.9985 36.0381 21.1745 35.6733 21.2577C36.1213 21.3345 36.4733 21.5233 36.7293 21.8241C36.9853 22.1249 37.1133 22.5025 37.1133 22.9569C37.1133 23.3409 37.0141 23.6705 36.8157 23.9457C36.6173 24.2209 36.3357 24.4321 35.9709 24.5793C35.6061 24.7265 35.1709 24.8001 34.6653 24.8001H31.6797V18.0801H34.5981ZM34.5405 20.8737C34.8989 20.8737 35.1805 20.7937 35.3853 20.6337C35.5901 20.4673 35.6925 20.2369 35.6925 19.9425C35.6925 19.6545 35.5901 19.4337 35.3853 19.2801C35.1805 19.1201 34.8989 19.0433 34.5405 19.0497H32.8125V20.8737H34.5405ZM34.5405 23.8305C34.9821 23.8369 35.3277 23.7537 35.5773 23.5809C35.8269 23.4017 35.9517 23.1489 35.9517 22.8225C35.9517 22.5153 35.8269 22.2753 35.5773 22.1025C35.3277 21.9233 34.9821 21.8369 34.5405 21.8433H32.8125V23.8305H34.5405Z" fill="#FD6900"/>
<path d="M25.2852 18.0801H30.0852V19.0497H26.418V20.9409H29.7012V21.9009H26.418V23.8305H30.2004V24.8001H25.2852V18.0801Z" fill="#FD6900"/>
<path d="M16.1602 18.0801H17.4754L19.7986 22.6401L22.1026 18.0801H23.4178V24.8001H22.3714L22.3618 19.6641L20.1538 24.0993H19.4338L17.2066 19.6641V24.8001H16.1602V18.0801Z" fill="#FD6900"/>
<path fill-rule="evenodd" clip-rule="evenodd" d="M42.7188 19.3604C43.1606 19.3604 43.5186 19.7183 43.5186 20.1602C43.5185 20.213 43.5137 20.2645 43.5039 20.3145C45.0161 21.8033 46.2279 23.5724 47.0674 25.5264C48.0031 27.7044 48.4556 30.0599 48.3936 32.4297C48.3314 34.7994 47.7565 37.1279 46.708 39.2539C45.6596 41.3799 44.1625 43.2533 42.3203 44.7451C40.478 46.237 38.3338 47.312 36.0361 47.8955C33.7385 48.479 31.3416 48.5569 29.0107 48.125C26.6798 47.693 24.4701 46.7608 22.5342 45.3926C20.6601 44.0681 19.0861 42.3654 17.9121 40.3955C17.5112 40.3522 17.1992 40.0121 17.1992 39.5996C17.1994 39.158 17.5573 38.7998 17.999 38.7998C18.4407 38.7998 18.7986 39.158 18.7988 39.5996C18.7988 39.7737 18.7419 39.9341 18.6475 40.0654C19.7589 41.9053 21.238 43.4973 22.9951 44.7393C24.8366 46.0407 26.939 46.9279 29.1562 47.3389C31.3734 47.7498 33.6533 47.6751 35.8389 47.1201C38.0245 46.565 40.0639 45.5422 41.8164 44.123C43.5688 42.7039 44.9929 40.9218 45.9902 38.8994C46.9875 36.877 47.5347 34.6624 47.5938 32.4082C47.6528 30.154 47.2222 27.9136 46.332 25.8418C45.5396 23.9974 44.3986 22.3264 42.9756 20.917C42.895 20.9443 42.8086 20.96 42.7188 20.96C42.2771 20.9598 41.919 20.6018 41.9189 20.1602C41.9189 19.7184 42.277 19.3605 42.7188 19.3604ZM41.9189 24.4004C42.3608 24.4004 42.7188 24.7584 42.7188 25.2002C42.7187 25.3443 42.68 25.4789 42.6133 25.5957C44.1462 28.1361 44.7241 31.1487 44.2217 34.0889C43.6789 37.264 41.9217 40.1034 39.3223 42.0059C36.7229 43.9083 33.4855 44.7249 30.2949 44.2822C27.4318 43.8849 24.8106 42.4996 22.8691 40.3857C22.8205 40.395 22.7701 40.4004 22.7188 40.4004C22.277 40.4002 21.9189 40.0413 21.9189 39.5996C21.9192 39.1581 22.2772 38.8 22.7188 38.7998C23.1604 38.7998 23.5183 39.158 23.5186 39.5996C23.5186 39.6919 23.5033 39.7808 23.4746 39.8633C25.2891 41.8304 27.7343 43.1197 30.4043 43.4902C33.3891 43.9044 36.4179 43.14 38.8496 41.3604C41.2813 39.5806 42.9259 36.9244 43.4336 33.9541C43.9042 31.2003 43.3617 28.3783 41.9238 26C41.9222 26 41.9205 26 41.9189 26C41.4772 26 41.1192 25.6419 41.1191 25.2002C41.1191 24.7584 41.4772 24.4004 41.9189 24.4004ZM39.5186 28.4805C39.9604 28.4805 40.3193 28.8384 40.3193 29.2803C40.3193 29.4878 40.2381 29.6752 40.1084 29.8174C40.4632 31.1356 40.4943 32.5237 40.1904 33.8613C39.8373 35.4155 39.0488 36.8369 37.918 37.96C36.7869 39.0831 35.3595 39.8618 33.8027 40.2041C32.5694 40.4753 31.2953 40.4632 30.0742 40.1758C29.9303 40.3145 29.7342 40.4004 29.5186 40.4004C29.0769 40.4001 28.7188 40.0413 28.7188 39.5996C28.719 39.1581 29.0771 38.8001 29.5186 38.7998C29.8932 38.7998 30.2079 39.0576 30.2949 39.4053C31.3883 39.6569 32.5276 39.6654 33.6309 39.4229C35.0394 39.1132 36.3312 38.4088 37.3545 37.3926C38.3777 36.3764 39.0907 35.0899 39.4102 33.6836C39.6823 32.4856 39.6575 31.2433 39.3457 30.0615C38.9873 29.9824 38.7189 29.6625 38.7188 29.2803C38.7188 28.8386 39.0769 28.4807 39.5186 28.4805Z" fill="url(#paint0_linear_3078_35165)"/>
<g opacity="0.15">
<path d="M371.123 89.8749C369.3 89.8749 367.551 90.5992 366.262 91.8885C364.973 93.1778 364.248 94.9265 364.248 96.7499V110.5H325.843L310.108 94.739L353.368 51.4694C355.945 48.891 357.393 45.395 357.393 41.7499C357.393 38.1047 355.945 34.6087 353.368 32.0303L320.987 -0.359497L305.218 -16.0947C303.941 -17.3718 302.425 -18.3849 300.757 -19.0761C299.088 -19.7673 297.3 -20.123 295.494 -20.123C293.688 -20.123 291.9 -19.7673 290.231 -19.0761C288.563 -18.3849 287.047 -17.3718 285.77 -16.0947L160.508 109.589C159.308 110.792 158.493 112.323 158.163 113.989C157.834 115.655 158.005 117.382 158.656 118.95C159.307 120.519 160.409 121.859 161.821 122.803C163.233 123.746 164.894 124.25 166.592 124.25H200.426L230.779 154.594C233.357 157.171 236.853 158.619 240.498 158.619C244.143 158.619 247.639 157.171 250.218 154.594L300.362 104.484L316.123 120.219C317.395 121.502 318.91 122.518 320.578 123.21C322.247 123.902 324.036 124.256 325.843 124.25H364.248V138C364.248 139.823 364.973 141.572 366.262 142.861C367.551 144.151 369.3 144.875 371.123 144.875C372.947 144.875 374.695 144.151 375.985 142.861C377.274 141.572 377.998 139.823 377.998 138V96.7499C377.998 94.9265 377.274 93.1778 375.985 91.8885C374.695 90.5992 372.947 89.8749 371.123 89.8749ZM295.498 -6.37512L306.404 4.53035L200.426 110.5H179.018L295.498 -6.37512Z" fill="white"/>
</g>
</g>
<defs>
<linearGradient id="paint0_linear_3078_35165" x1="42.1833" y1="25.2164" x2="30.4166" y2="40.2915" gradientUnits="userSpaceOnUse">
<stop stop-color="#FD6900"/>
<stop offset="0.5" stop-color="#FF647E"/>
<stop offset="1" stop-color="#006AFF"/>
</linearGradient>
<clipPath id="clip0_3078_35165">
<rect width="343" height="193" rx="8" fill="white"/>
</clipPath>
</defs>
</svg>
