<svg width="343" height="193" viewBox="0 0 343 193" fill="none" xmlns="http://www.w3.org/2000/svg">
<g clip-path="url(#clip0_3078_35165)">
<rect width="343" height="193" rx="8" fill="#D0D5DD"/>
<path d="M32.0177 28.5723C32.5169 28.5723 32.9809 28.6587 33.4097 28.8315C33.8449 29.0043 34.2225 29.2475 34.5425 29.5611C34.8689 29.8747 35.1217 30.2395 35.3009 30.6555C35.4865 31.0651 35.5793 31.5099 35.5793 31.9899C35.5793 32.4699 35.4865 32.9211 35.3009 33.3435C35.1217 33.7595 34.8689 34.1243 34.5425 34.4379C34.2225 34.7515 33.8449 34.9979 33.4097 35.1771C32.9809 35.3499 32.5169 35.4363 32.0177 35.4363C31.5185 35.4363 31.0513 35.3499 30.6161 35.1771C30.1873 34.9979 29.8097 34.7515 29.4833 34.4379C29.1633 34.1243 28.9105 33.7595 28.7249 33.3435C28.5457 32.9211 28.4561 32.4699 28.4561 31.9899C28.4561 31.5099 28.5457 31.0619 28.7249 30.6459C28.9105 30.2299 29.1633 29.8683 29.4833 29.5611C29.8097 29.2475 30.1873 29.0043 30.6161 28.8315C31.0513 28.6587 31.5185 28.5723 32.0177 28.5723ZM32.0273 29.5323C31.6945 29.5323 31.3809 29.5963 31.0865 29.7243C30.7985 29.8459 30.5425 30.0187 30.3185 30.2427C30.0945 30.4667 29.9185 30.7291 29.7905 31.0299C29.6689 31.3243 29.6081 31.6443 29.6081 31.9899C29.6081 32.3355 29.6721 32.6587 29.8001 32.9595C29.9281 33.2603 30.1041 33.5259 30.3281 33.7563C30.5521 33.9803 30.8081 34.1563 31.0961 34.2843C31.3905 34.4123 31.7009 34.4763 32.0273 34.4763C32.3537 34.4763 32.6609 34.4123 32.9489 34.2843C33.2433 34.1563 33.4993 33.9803 33.7169 33.7563C33.9345 33.5259 34.1041 33.2603 34.2257 32.9595C34.3537 32.6587 34.4177 32.3355 34.4177 31.9899C34.4177 31.6443 34.3537 31.3243 34.2257 31.0299C34.1041 30.7291 33.9345 30.4667 33.7169 30.2427C33.4993 30.0187 33.2433 29.8459 32.9489 29.7243C32.6609 29.5963 32.3537 29.5323 32.0273 29.5323Z" fill="#006AFF"/>
<path d="M27.3273 30.3867C27.0841 30.1179 26.7961 29.9067 26.4633 29.7531C26.1305 29.5995 25.7945 29.5227 25.4553 29.5227C25.1225 29.5227 24.8089 29.5867 24.5145 29.7147C24.2265 29.8363 23.9705 30.0091 23.7465 30.2331C23.5289 30.4571 23.3593 30.7195 23.2377 31.0203C23.1161 31.3147 23.0553 31.6347 23.0553 31.9803C23.0553 32.3195 23.1161 32.6395 23.2377 32.9403C23.3593 33.2347 23.5289 33.4939 23.7465 33.7179C23.9705 33.9419 24.2265 34.1179 24.5145 34.2459C24.8089 34.3739 25.1225 34.4379 25.4553 34.4379C25.7945 34.4379 26.1273 34.3675 26.4537 34.2267C26.7801 34.0795 27.0713 33.8811 27.3273 33.6315L27.9993 34.3323C27.7753 34.5563 27.5193 34.7515 27.2313 34.9179C26.9497 35.0843 26.6521 35.2123 26.3385 35.3019C26.0313 35.3915 25.7177 35.4363 25.3977 35.4363C24.9049 35.4363 24.4473 35.3499 24.0249 35.1771C23.6025 34.9979 23.2313 34.7515 22.9113 34.4379C22.5977 34.1243 22.3513 33.7595 22.1721 33.3435C21.9929 32.9211 21.9033 32.4699 21.9033 31.9899C21.9033 31.5099 21.9929 31.0651 22.1721 30.6555C22.3513 30.2395 22.6009 29.8747 22.9209 29.5611C23.2473 29.2475 23.6217 29.0043 24.0441 28.8315C24.4729 28.6587 24.9369 28.5723 25.4361 28.5723C25.7561 28.5723 26.0697 28.6139 26.3769 28.6971C26.6841 28.7803 26.9753 28.8987 27.2505 29.0523C27.5257 29.2059 27.7721 29.3915 27.9897 29.6091L27.3273 30.3867Z" fill="#006AFF"/>
<path d="M16.1602 28.6406H20.9602V29.6102H17.293V31.5014H20.5762V32.4614H17.293V34.391H21.0754V35.3606H16.1602V28.6406Z" fill="#006AFF"/>
<path d="M38.5547 18.0801H39.6875V24.8001H38.5547V18.0801Z" fill="#FD6900"/>
<path d="M34.5981 18.0801C35.0653 18.0801 35.4653 18.1473 35.7981 18.2817C36.1373 18.4161 36.3965 18.6081 36.5757 18.8577C36.7613 19.1073 36.8541 19.4081 36.8541 19.7601C36.8541 20.1377 36.7485 20.4609 36.5373 20.7297C36.3261 20.9985 36.0381 21.1745 35.6733 21.2577C36.1213 21.3345 36.4733 21.5233 36.7293 21.8241C36.9853 22.1249 37.1133 22.5025 37.1133 22.9569C37.1133 23.3409 37.0141 23.6705 36.8157 23.9457C36.6173 24.2209 36.3357 24.4321 35.9709 24.5793C35.6061 24.7265 35.1709 24.8001 34.6653 24.8001H31.6797V18.0801H34.5981ZM34.5405 20.8737C34.8989 20.8737 35.1805 20.7937 35.3853 20.6337C35.5901 20.4673 35.6925 20.2369 35.6925 19.9425C35.6925 19.6545 35.5901 19.4337 35.3853 19.2801C35.1805 19.1201 34.8989 19.0433 34.5405 19.0497H32.8125V20.8737H34.5405ZM34.5405 23.8305C34.9821 23.8369 35.3277 23.7537 35.5773 23.5809C35.8269 23.4017 35.9517 23.1489 35.9517 22.8225C35.9517 22.5153 35.8269 22.2753 35.5773 22.1025C35.3277 21.9233 34.9821 21.8369 34.5405 21.8433H32.8125V23.8305H34.5405Z" fill="#FD6900"/>
<path d="M25.2842 18.0801H30.0842V19.0497H26.417V20.9409H29.7002V21.9009H26.417V23.8305H30.1994V24.8001H25.2842V18.0801Z" fill="#FD6900"/>
<path d="M16.1602 18.0801H17.4754L19.7986 22.6401L22.1026 18.0801H23.4178V24.8001H22.3714L22.3618 19.6641L20.1538 24.0993H19.4338L17.2066 19.6641V24.8001H16.1602V18.0801Z" fill="#FD6900"/>
<path fill-rule="evenodd" clip-rule="evenodd" d="M42.7197 19.3594C43.1616 19.3594 43.5195 19.7174 43.5195 20.1592C43.5195 20.212 43.5147 20.2635 43.5049 20.3135C45.0171 21.8023 46.2288 23.5714 47.0684 25.5254C48.0041 27.7035 48.4566 30.059 48.3945 32.4287C48.3324 34.7984 47.7574 37.1269 46.709 39.2529C45.6605 41.3789 44.1634 43.2523 42.3213 44.7441C40.479 46.236 38.3348 47.311 36.0371 47.8945C33.7395 48.478 31.3426 48.556 29.0117 48.124C26.6808 47.692 24.4711 46.7598 22.5352 45.3916C20.6611 44.0671 19.0871 42.3644 17.9131 40.3945C17.5121 40.3512 17.2002 40.0111 17.2002 39.5986C17.2004 39.157 17.5583 38.7988 18 38.7988C18.4417 38.7988 18.7996 39.157 18.7998 39.5986C18.7998 39.7727 18.7429 39.9331 18.6484 40.0645C19.7599 41.9043 21.239 43.4964 22.9961 44.7383C24.8376 46.0397 26.94 46.9269 29.1572 47.3379C31.3744 47.7488 33.6543 47.6742 35.8398 47.1191C38.0255 46.5641 40.0649 45.5412 41.8174 44.1221C43.5698 42.703 44.9939 40.9208 45.9912 38.8984C46.9885 36.876 47.5357 34.6614 47.5947 32.4072C47.6537 30.153 47.2231 27.9126 46.333 25.8408C45.5406 23.9964 44.3996 22.3254 42.9766 20.916C42.8959 20.9433 42.8096 20.959 42.7197 20.959C42.2781 20.9588 41.92 20.6008 41.9199 20.1592C41.9199 19.7174 42.278 19.3595 42.7197 19.3594ZM41.9199 24.3994C42.3617 24.3994 42.7197 24.7574 42.7197 25.1992C42.7197 25.3433 42.6809 25.478 42.6143 25.5947C44.1472 28.1351 44.7251 31.1478 44.2227 34.0879C43.6799 37.2631 41.9226 40.1024 39.3232 42.0049C36.7239 43.9073 33.4865 44.7239 30.2959 44.2812C27.4328 43.884 24.8116 42.4987 22.8701 40.3848C22.8215 40.394 22.771 40.3994 22.7197 40.3994C22.278 40.3993 21.9199 40.0404 21.9199 39.5986C21.9201 39.1571 22.2782 38.799 22.7197 38.7988C23.1614 38.7988 23.5193 39.157 23.5195 39.5986C23.5195 39.6909 23.5043 39.7798 23.4756 39.8623C25.29 41.8294 27.7353 43.1187 30.4053 43.4893C33.39 43.9034 36.4189 43.1391 38.8506 41.3594C41.2823 39.5796 42.9268 36.9235 43.4346 33.9531C43.9052 31.1994 43.3627 28.3773 41.9248 25.999C41.9232 25.999 41.9215 25.999 41.9199 25.999C41.4782 25.999 41.1202 25.6409 41.1201 25.1992C41.1201 24.7574 41.4781 24.3995 41.9199 24.3994ZM39.5195 28.4795C39.9614 28.4795 40.3203 28.8375 40.3203 29.2793C40.3202 29.4868 40.239 29.6743 40.1094 29.8164C40.4642 31.1346 40.4953 32.5227 40.1914 33.8604C39.8383 35.4145 39.0498 36.8359 37.9189 37.959C36.7879 39.0822 35.3605 39.8608 33.8037 40.2031C32.5704 40.4743 31.2962 40.4623 30.0752 40.1748C29.9313 40.3136 29.7352 40.3994 29.5195 40.3994C29.0779 40.3992 28.7197 40.0403 28.7197 39.5986C28.7199 39.1571 29.078 38.7991 29.5195 38.7988C29.8942 38.7988 30.2089 39.0566 30.2959 39.4043C31.3893 39.6559 32.5285 39.6644 33.6318 39.4219C35.0404 39.1122 36.3321 38.4078 37.3555 37.3916C38.3787 36.3754 39.0916 35.0889 39.4111 33.6826C39.6833 32.4847 39.6585 31.2423 39.3467 30.0605C38.9882 29.9814 38.7199 29.6615 38.7197 29.2793C38.7197 28.8376 39.0779 28.4797 39.5195 28.4795Z" fill="url(#paint0_linear_3078_35165)"/>
<g opacity="0.64">
<path d="M371.125 89.8749C369.302 89.8749 367.553 90.5992 366.264 91.8885C364.974 93.1778 364.25 94.9265 364.25 96.7499V110.5H325.845L310.11 94.739L353.37 51.4694C355.947 48.891 357.395 45.395 357.395 41.7499C357.395 38.1047 355.947 34.6087 353.37 32.0303L320.989 -0.359497L305.22 -16.0947C303.943 -17.3718 302.427 -18.3849 300.758 -19.0761C299.09 -19.7673 297.302 -20.123 295.496 -20.123C293.69 -20.123 291.902 -19.7673 290.233 -19.0761C288.565 -18.3849 287.049 -17.3718 285.772 -16.0947L160.51 109.589C159.31 110.792 158.495 112.323 158.165 113.989C157.836 115.655 158.007 117.382 158.658 118.95C159.309 120.519 160.411 121.859 161.823 122.803C163.235 123.746 164.896 124.25 166.594 124.25H200.427L230.781 154.594C233.359 157.171 236.855 158.619 240.5 158.619C244.145 158.619 247.641 157.171 250.22 154.594L300.364 104.484L316.125 120.219C317.397 121.502 318.912 122.518 320.58 123.21C322.249 123.902 324.038 124.256 325.845 124.25H364.25V138C364.25 139.823 364.974 141.572 366.264 142.861C367.553 144.151 369.302 144.875 371.125 144.875C372.948 144.875 374.697 144.151 375.986 142.861C377.276 141.572 378 139.823 378 138V96.7499C378 94.9265 377.276 93.1778 375.986 91.8885C374.697 90.5992 372.948 89.8749 371.125 89.8749ZM295.5 -6.37512L306.406 4.53035L200.427 110.5H179.02L295.5 -6.37512Z" fill="#E6E8EC"/>
</g>
</g>
<defs>
<linearGradient id="paint0_linear_3078_35165" x1="42.1842" y1="25.2154" x2="30.4176" y2="40.2905" gradientUnits="userSpaceOnUse">
<stop stop-color="#FD6900"/>
<stop offset="0.5" stop-color="#FF647E"/>
<stop offset="1" stop-color="#006AFF"/>
</linearGradient>
<clipPath id="clip0_3078_35165">
<rect width="343" height="193" rx="8" fill="white"/>
</clipPath>
</defs>
</svg>
