<svg width="17" height="15" viewBox="0 0 17 15" fill="none" xmlns="http://www.w3.org/2000/svg">
<path d="M1.25059 2.5C1.25059 2.33424 1.31644 2.17527 1.43365 2.05806C1.55086 1.94085 1.70983 1.875 1.87559 1.875H3.12559V0.625C3.12559 0.45924 3.19144 0.300269 3.30865 0.183058C3.42586 0.0658481 3.58483 0 3.75059 0C3.91635 0 4.07532 0.0658481 4.19253 0.183058C4.30974 0.300269 4.37559 0.45924 4.37559 0.625V1.875H5.62559C5.79135 1.875 5.95032 1.94085 6.06753 2.05806C6.18474 2.17527 6.25059 2.33424 6.25059 2.5C6.25059 2.66576 6.18474 2.82473 6.06753 2.94194C5.95032 3.05915 5.79135 3.125 5.62559 3.125H4.37559V4.375C4.37559 4.54076 4.30974 4.69973 4.19253 4.81694C4.07532 4.93415 3.91635 5 3.75059 5C3.58483 5 3.42586 4.93415 3.30865 4.81694C3.19144 4.69973 3.12559 4.54076 3.12559 4.375V3.125H1.87559C1.70983 3.125 1.55086 3.05915 1.43365 2.94194C1.31644 2.82473 1.25059 2.66576 1.25059 2.5ZM11.8756 12.5H11.2506V11.875C11.2506 11.7092 11.1847 11.5503 11.0675 11.4331C10.9503 11.3158 10.7914 11.25 10.6256 11.25C10.4598 11.25 10.3009 11.3158 10.1837 11.4331C10.0664 11.5503 10.0006 11.7092 10.0006 11.875V12.5H9.37559C9.20983 12.5 9.05086 12.5658 8.93365 12.6831C8.81644 12.8003 8.75059 12.9592 8.75059 13.125C8.75059 13.2908 8.81644 13.4497 8.93365 13.5669C9.05086 13.6842 9.20983 13.75 9.37559 13.75H10.0006V14.375C10.0006 14.5408 10.0664 14.6997 10.1837 14.8169C10.3009 14.9342 10.4598 15 10.6256 15C10.7914 15 10.9503 14.9342 11.0675 14.8169C11.1847 14.6997 11.2506 14.5408 11.2506 14.375V13.75H11.8756C12.0414 13.75 12.2003 13.6842 12.3175 13.5669C12.4347 13.4497 12.5006 13.2908 12.5006 13.125C12.5006 12.9592 12.4347 12.8003 12.3175 12.6831C12.2003 12.5658 12.0414 12.5 11.8756 12.5ZM16.2506 8.75H15.0006V7.5C15.0006 7.33424 14.9347 7.17527 14.8175 7.05806C14.7003 6.94085 14.5414 6.875 14.3756 6.875C14.2098 6.875 14.0509 6.94085 13.9337 7.05806C13.8164 7.17527 13.7506 7.33424 13.7506 7.5V8.75H12.5006C12.3348 8.75 12.1759 8.81585 12.0587 8.93306C11.9414 9.05027 11.8756 9.20924 11.8756 9.375C11.8756 9.54076 11.9414 9.69973 12.0587 9.81694C12.1759 9.93415 12.3348 10 12.5006 10H13.7506V11.25C13.7506 11.4158 13.8164 11.5747 13.9337 11.6919C14.0509 11.8092 14.2098 11.875 14.3756 11.875C14.5414 11.875 14.7003 11.8092 14.8175 11.6919C14.9347 11.5747 15.0006 11.4158 15.0006 11.25V10H16.2506C16.4164 10 16.5753 9.93415 16.6925 9.81694C16.8097 9.69973 16.8756 9.54076 16.8756 9.375C16.8756 9.20924 16.8097 9.05027 16.6925 8.93306C16.5753 8.81585 16.4164 8.75 16.2506 8.75ZM14.6342 3.75L3.75059 14.6336C3.5162 14.8678 3.19838 14.9994 2.867 14.9994C2.53562 14.9994 2.2178 14.8678 1.98341 14.6336L0.366217 13.018C0.250114 12.9019 0.158014 12.7641 0.0951779 12.6124C0.0323417 12.4607 0 12.2982 0 12.134C0 11.9698 0.0323417 11.8072 0.0951779 11.6556C0.158014 11.5039 0.250114 11.3661 0.366217 11.25L11.2506 0.366406C11.3667 0.250303 11.5045 0.158203 11.6562 0.0953668C11.8078 0.0325306 11.9704 0.000188947 12.1346 0.000188947C12.2988 0.000188947 12.4613 0.0325306 12.613 0.0953668C12.7647 0.158203 12.9025 0.250303 13.0186 0.366406L14.6342 1.98203C14.7503 2.09811 14.8424 2.23592 14.9052 2.3876C14.9681 2.53927 15.0004 2.70184 15.0004 2.86602C15.0004 3.03019 14.9681 3.19276 14.9052 3.34444C14.8424 3.49611 14.7503 3.63392 14.6342 3.75ZM10.3662 6.25L8.75059 4.63359L1.25059 12.1336L2.86622 13.75L10.3662 6.25ZM13.7506 2.86641L12.1342 1.25L9.63419 3.75L11.2506 5.36641L13.7506 2.86641Z" fill="currentColor"/>
</svg>
