<svg width="124" height="124" viewBox="0 0 124 124" fill="none" xmlns="http://www.w3.org/2000/svg">
<path d="M62 11.625C52.0368 11.625 42.2973 14.5794 34.0132 20.1147C25.729 25.65 19.2724 33.5175 15.4596 42.7223C11.6468 51.9271 10.6492 62.0559 12.593 71.8277C14.5367 81.5995 19.3344 90.5754 26.3795 97.6205C33.4246 104.666 42.4006 109.463 52.1723 111.407C61.9441 113.351 72.0729 112.353 81.2777 108.54C90.4825 104.728 98.35 98.271 103.885 89.9868C109.421 81.7027 112.375 71.9632 112.375 62C112.361 48.644 107.049 35.8392 97.6049 26.3951C88.1609 16.951 75.356 11.6391 62 11.625ZM84.1166 53.1166L56.9916 80.2416C56.6317 80.6018 56.2043 80.8877 55.7339 81.0827C55.2635 81.2777 54.7593 81.378 54.25 81.378C53.7408 81.378 53.2365 81.2777 52.7661 81.0827C52.2957 80.8877 51.8683 80.6018 51.5085 80.2416L39.8835 68.6166C39.1564 67.8895 38.7479 66.9033 38.7479 65.875C38.7479 64.8467 39.1564 63.8605 39.8835 63.1334C40.6106 62.4063 41.5967 61.9978 42.625 61.9978C43.6533 61.9978 44.6395 62.4063 45.3666 63.1334L54.25 72.0217L78.6335 47.6334C78.9935 47.2734 79.4209 46.9878 79.8913 46.793C80.3617 46.5981 80.8659 46.4978 81.375 46.4978C81.8842 46.4978 82.3884 46.5981 82.8587 46.793C83.3291 46.9878 83.7566 47.2734 84.1166 47.6334C84.4766 47.9935 84.7622 48.4209 84.957 48.8913C85.1519 49.3617 85.2522 49.8658 85.2522 50.375C85.2522 50.8842 85.1519 51.3883 84.957 51.8587C84.7622 52.3291 84.4766 52.7565 84.1166 53.1166Z" fill="#22C55E"/>
</svg>
