<svg width="40" height="40" viewBox="0 0 40 40" fill="none" xmlns="http://www.w3.org/2000/svg">
<rect width="40" height="40" rx="20" fill="#F9F0FF"/>
<g clip-path="url(#clip0_9639_33020)">
<path d="M19.1802 12.3444C19.2159 12.1532 19.3174 11.9806 19.467 11.8563C19.6166 11.7321 19.8049 11.6641 19.9994 11.6641C20.1939 11.6641 20.3822 11.7321 20.5318 11.8563C20.6814 11.9806 20.7829 12.1532 20.8186 12.3444L21.6944 16.9761C21.7566 17.3053 21.9166 17.6082 22.1536 17.8452C22.3905 18.0822 22.6934 18.2422 23.0227 18.3044L27.6544 19.1802C27.8456 19.2159 28.0182 19.3174 28.1425 19.467C28.2667 19.6166 28.3347 19.8049 28.3347 19.9994C28.3347 20.1939 28.2667 20.3822 28.1425 20.5318C28.0182 20.6814 27.8456 20.7829 27.6544 20.8186L23.0227 21.6944C22.6934 21.7566 22.3905 21.9166 22.1536 22.1536C21.9166 22.3905 21.7566 22.6934 21.6944 23.0227L20.8186 27.6544C20.7829 27.8456 20.6814 28.0182 20.5318 28.1425C20.3822 28.2667 20.1939 28.3347 19.9994 28.3347C19.8049 28.3347 19.6166 28.2667 19.467 28.1425C19.3174 28.0182 19.2159 27.8456 19.1802 27.6544L18.3044 23.0227C18.2422 22.6934 18.0822 22.3905 17.8452 22.1536C17.6082 21.9166 17.3053 21.7566 16.9761 21.6944L12.3444 20.8186C12.1532 20.7829 11.9806 20.6814 11.8563 20.5318C11.7321 20.3822 11.6641 20.1939 11.6641 19.9994C11.6641 19.8049 11.7321 19.6166 11.8563 19.467C11.9806 19.3174 12.1532 19.2159 12.3444 19.1802L16.9761 18.3044C17.3053 18.2422 17.6082 18.0822 17.8452 17.8452C18.0822 17.6082 18.2422 17.3053 18.3044 16.9761L19.1802 12.3444Z" fill="#9254DE"/>
<path d="M26.668 11.666V14.9993" stroke="#9254DE" stroke-width="1.5" stroke-linecap="round" stroke-linejoin="round"/>
<path d="M28.3333 13.334H25" stroke="#9254DE" stroke-width="1.5" stroke-linecap="round" stroke-linejoin="round"/>
<path d="M13.3346 28.3333C14.2551 28.3333 15.0013 27.5871 15.0013 26.6667C15.0013 25.7462 14.2551 25 13.3346 25C12.4142 25 11.668 25.7462 11.668 26.6667C11.668 27.5871 12.4142 28.3333 13.3346 28.3333Z" stroke="#9254DE" stroke-width="1.5" stroke-linecap="round" stroke-linejoin="round"/>
</g>
<defs>
<clipPath id="clip0_9639_33020">
<rect width="20" height="20" fill="white" transform="translate(10 10)"/>
</clipPath>
</defs>
</svg>
