<svg width="40" height="40" viewBox="0 0 40 40" fill="none" xmlns="http://www.w3.org/2000/svg">
<rect width="40" height="40" rx="20" fill="#F9F5FF"/>
<path d="M15 28.4375C15 28.6229 14.945 28.8042 14.842 28.9583C14.739 29.1125 14.5926 29.2327 14.4213 29.3036C14.25 29.3746 14.0615 29.3932 13.8796 29.357C13.6977 29.3208 13.5307 29.2315 13.3996 29.1004C13.2685 28.9693 13.1792 28.8023 13.143 28.6204C13.1068 28.4385 13.1254 28.25 13.1964 28.0787C13.2673 27.9074 13.3875 27.761 13.5417 27.658C13.6958 27.555 13.8771 27.5 14.0625 27.5C14.3111 27.5 14.5496 27.5988 14.7254 27.7746C14.9012 27.9504 15 28.1889 15 28.4375ZM16.5625 25C16.3771 25 16.1958 25.055 16.0417 25.158C15.8875 25.261 15.7673 25.4074 15.6964 25.5787C15.6254 25.75 15.6068 25.9385 15.643 26.1204C15.6792 26.3023 15.7685 26.4693 15.8996 26.6004C16.0307 26.7315 16.1977 26.8208 16.3796 26.857C16.5615 26.8932 16.75 26.8746 16.9213 26.8036C17.0926 26.7327 17.239 26.6125 17.342 26.4583C17.445 26.3042 17.5 26.1229 17.5 25.9375C17.5 25.6889 17.4012 25.4504 17.2254 25.2746C17.0496 25.0988 16.8111 25 16.5625 25ZM11.5625 25C11.3771 25 11.1958 25.055 11.0417 25.158C10.8875 25.261 10.7673 25.4074 10.6964 25.5787C10.6254 25.75 10.6068 25.9385 10.643 26.1204C10.6792 26.3023 10.7685 26.4693 10.8996 26.6004C11.0307 26.7315 11.1977 26.8208 11.3796 26.857C11.5615 26.8932 11.75 26.8746 11.9213 26.8036C12.0926 26.7327 12.239 26.6125 12.342 26.4583C12.445 26.3042 12.5 26.1229 12.5 25.9375C12.5 25.6889 12.4012 25.4504 12.2254 25.2746C12.0496 25.0988 11.8111 25 11.5625 25ZM14.0625 22.5C13.8771 22.5 13.6958 22.555 13.5417 22.658C13.3875 22.761 13.2673 22.9074 13.1964 23.0787C13.1254 23.25 13.1068 23.4385 13.143 23.6204C13.1792 23.8023 13.2685 23.9693 13.3996 24.1004C13.5307 24.2315 13.6977 24.3208 13.8796 24.357C14.0615 24.3932 14.25 24.3746 14.4213 24.3036C14.5926 24.2327 14.739 24.1125 14.842 23.9583C14.945 23.8042 15 23.6229 15 23.4375C15 23.1889 14.9012 22.9504 14.7254 22.7746C14.5496 22.5988 14.3111 22.5 14.0625 22.5ZM30 13.125C30 13.2908 29.9342 13.4497 29.8169 13.5669C29.6997 13.6842 29.5408 13.75 29.375 13.75H27.1336L24.9578 15.9266L23.2656 25.832C23.2275 26.0583 23.1279 26.2698 22.9776 26.4432C22.8273 26.6166 22.6322 26.7453 22.4136 26.8152C22.195 26.8851 21.9614 26.8934 21.7384 26.8394C21.5153 26.7853 21.3115 26.6708 21.1492 26.5086L13.493 18.8523C13.3305 18.6899 13.2159 18.4858 13.1618 18.2625C13.1077 18.0393 13.1162 17.8054 13.1864 17.5866C13.2565 17.3678 13.3856 17.1726 13.5595 17.0224C13.7333 16.8722 13.9452 16.7728 14.1719 16.7352L24.0734 15.0422L26.4328 12.6828C26.4909 12.6248 26.5598 12.5788 26.6357 12.5474C26.7116 12.516 26.7929 12.4999 26.875 12.5H29.375C29.5408 12.5 29.6997 12.5658 29.8169 12.6831C29.9342 12.8003 30 12.9592 30 13.125ZM23.6102 16.3898L14.375 17.9688L22.0312 25.625L23.6102 16.3898Z" fill="#9E77ED"/>
</svg>
