<svg width="40" height="40" viewBox="0 0 40 40" fill="none" xmlns="http://www.w3.org/2000/svg">
<rect width="40" height="40" rx="20" fill="#FFFAEB"/>
<path d="M19.375 13.125V11.25C19.375 11.0842 19.4408 10.9253 19.5581 10.8081C19.6753 10.6908 19.8342 10.625 20 10.625C20.1658 10.625 20.3247 10.6908 20.4419 10.8081C20.5592 10.9253 20.625 11.0842 20.625 11.25V13.125C20.625 13.2908 20.5592 13.4497 20.4419 13.5669C20.3247 13.6842 20.1658 13.75 20 13.75C19.8342 13.75 19.6753 13.6842 19.5581 13.5669C19.4408 13.4497 19.375 13.2908 19.375 13.125ZM25 20C25 20.9889 24.7068 21.9556 24.1573 22.7779C23.6079 23.6001 22.827 24.241 21.9134 24.6194C20.9998 24.9978 19.9945 25.0969 19.0245 24.9039C18.0546 24.711 17.1637 24.2348 16.4645 23.5355C15.7652 22.8363 15.289 21.9454 15.0961 20.9755C14.9031 20.0055 15.0022 19.0002 15.3806 18.0866C15.759 17.173 16.3999 16.3921 17.2221 15.8427C18.0444 15.2932 19.0111 15 20 15C21.3256 15.0014 22.5966 15.5287 23.5339 16.4661C24.4713 17.4034 24.9986 18.6744 25 20ZM23.75 20C23.75 19.2583 23.5301 18.5333 23.118 17.9166C22.706 17.2999 22.1203 16.8193 21.4351 16.5355C20.7498 16.2516 19.9958 16.1774 19.2684 16.3221C18.541 16.4668 17.8728 16.8239 17.3483 17.3483C16.8239 17.8728 16.4668 18.541 16.3221 19.2684C16.1774 19.9958 16.2516 20.7498 16.5355 21.4351C16.8193 22.1203 17.2999 22.706 17.9166 23.118C18.5333 23.5301 19.2583 23.75 20 23.75C20.9942 23.749 21.9475 23.3535 22.6505 22.6505C23.3535 21.9475 23.749 20.9942 23.75 20ZM14.5578 15.4422C14.6751 15.5595 14.8341 15.6253 15 15.6253C15.1659 15.6253 15.3249 15.5595 15.4422 15.4422C15.5595 15.3249 15.6253 15.1659 15.6253 15C15.6253 14.8341 15.5595 14.6751 15.4422 14.5578L14.1922 13.3078C14.0749 13.1905 13.9159 13.1247 13.75 13.1247C13.5841 13.1247 13.4251 13.1905 13.3078 13.3078C13.1905 13.4251 13.1247 13.5841 13.1247 13.75C13.1247 13.9159 13.1905 14.0749 13.3078 14.1922L14.5578 15.4422ZM14.5578 24.5578L13.3078 25.8078C13.1905 25.9251 13.1247 26.0841 13.1247 26.25C13.1247 26.4159 13.1905 26.5749 13.3078 26.6922C13.4251 26.8095 13.5841 26.8753 13.75 26.8753C13.9159 26.8753 14.0749 26.8095 14.1922 26.6922L15.4422 25.4422C15.5003 25.3841 15.5463 25.3152 15.5777 25.2393C15.6092 25.1634 15.6253 25.0821 15.6253 25C15.6253 24.9179 15.6092 24.8366 15.5777 24.7607C15.5463 24.6848 15.5003 24.6159 15.4422 24.5578C15.3841 24.4997 15.3152 24.4537 15.2393 24.4223C15.1634 24.3908 15.0821 24.3747 15 24.3747C14.9179 24.3747 14.8366 24.3908 14.7607 24.4223C14.6848 24.4537 14.6159 24.4997 14.5578 24.5578ZM25 15.625C25.0821 15.6251 25.1634 15.609 25.2393 15.5776C25.3152 15.5462 25.3841 15.5002 25.4422 15.4422L26.6922 14.1922C26.8095 14.0749 26.8753 13.9159 26.8753 13.75C26.8753 13.5841 26.8095 13.4251 26.6922 13.3078C26.5749 13.1905 26.4159 13.1247 26.25 13.1247C26.0841 13.1247 25.9251 13.1905 25.8078 13.3078L24.5578 14.5578C24.4703 14.6452 24.4107 14.7566 24.3865 14.8779C24.3624 14.9992 24.3748 15.125 24.4221 15.2392C24.4695 15.3535 24.5496 15.4512 24.6525 15.5198C24.7554 15.5885 24.8763 15.6251 25 15.625ZM25.4422 24.5578C25.3249 24.4405 25.1659 24.3747 25 24.3747C24.8341 24.3747 24.6751 24.4405 24.5578 24.5578C24.4405 24.6751 24.3747 24.8341 24.3747 25C24.3747 25.1659 24.4405 25.3249 24.5578 25.4422L25.8078 26.6922C25.8659 26.7503 25.9348 26.7963 26.0107 26.8277C26.0866 26.8592 26.1679 26.8753 26.25 26.8753C26.3321 26.8753 26.4134 26.8592 26.4893 26.8277C26.5652 26.7963 26.6341 26.7503 26.6922 26.6922C26.7503 26.6341 26.7963 26.5652 26.8277 26.4893C26.8592 26.4134 26.8753 26.3321 26.8753 26.25C26.8753 26.1679 26.8592 26.0866 26.8277 26.0107C26.7963 25.9348 26.7503 25.8659 26.6922 25.8078L25.4422 24.5578ZM13.75 20C13.75 19.8342 13.6842 19.6753 13.5669 19.5581C13.4497 19.4408 13.2908 19.375 13.125 19.375H11.25C11.0842 19.375 10.9253 19.4408 10.8081 19.5581C10.6908 19.6753 10.625 19.8342 10.625 20C10.625 20.1658 10.6908 20.3247 10.8081 20.4419C10.9253 20.5592 11.0842 20.625 11.25 20.625H13.125C13.2908 20.625 13.4497 20.5592 13.5669 20.4419C13.6842 20.3247 13.75 20.1658 13.75 20ZM20 26.25C19.8342 26.25 19.6753 26.3158 19.5581 26.4331C19.4408 26.5503 19.375 26.7092 19.375 26.875V28.75C19.375 28.9158 19.4408 29.0747 19.5581 29.1919C19.6753 29.3092 19.8342 29.375 20 29.375C20.1658 29.375 20.3247 29.3092 20.4419 29.1919C20.5592 29.0747 20.625 28.9158 20.625 28.75V26.875C20.625 26.7092 20.5592 26.5503 20.4419 26.4331C20.3247 26.3158 20.1658 26.25 20 26.25ZM28.75 19.375H26.875C26.7092 19.375 26.5503 19.4408 26.4331 19.5581C26.3158 19.6753 26.25 19.8342 26.25 20C26.25 20.1658 26.3158 20.3247 26.4331 20.4419C26.5503 20.5592 26.7092 20.625 26.875 20.625H28.75C28.9158 20.625 29.0747 20.5592 29.1919 20.4419C29.3092 20.3247 29.375 20.1658 29.375 20C29.375 19.8342 29.3092 19.6753 29.1919 19.5581C29.0747 19.4408 28.9158 19.375 28.75 19.375Z" fill="#F79009"/>
</svg>
