<svg width="32" height="16" viewBox="0 0 32 16" fill="none" xmlns="http://www.w3.org/2000/svg">
<path d="M22.2075 4.58547L19.4144 1.79297C19.3215 1.70009 19.2113 1.62641 19.0899 1.57614C18.9686 1.52587 18.8385 1.5 18.7072 1.5C18.5759 1.5 18.4458 1.52587 18.3245 1.57614C18.2031 1.62641 18.0929 1.70009 18 1.79297L10.2931 9.49985C10.1999 9.59237 10.1259 9.70251 10.0756 9.82386C10.0253 9.94521 9.99959 10.0754 10 10.2067V12.9998C10 13.2651 10.1054 13.5194 10.2929 13.707C10.4804 13.8945 10.7348 13.9998 11 13.9998H21.5C21.6326 13.9998 21.7598 13.9472 21.8536 13.8534C21.9473 13.7596 22 13.6325 22 13.4998C22 13.3672 21.9473 13.2401 21.8536 13.1463C21.7598 13.0525 21.6326 12.9998 21.5 12.9998H15.2075L22.2075 5.99985C22.3004 5.90699 22.3741 5.79674 22.4243 5.6754C22.4746 5.55406 22.5005 5.424 22.5005 5.29266C22.5005 5.16132 22.4746 5.03127 22.4243 4.90992C22.3741 4.78858 22.3004 4.67834 22.2075 4.58547ZM13.7931 12.9998H11V10.2067L16.5 4.70672L19.2931 7.49985L13.7931 12.9998ZM20 6.79297L17.2075 3.99985L18.7075 2.49985L21.5 5.29297L20 6.79297Z" fill="#0B1117"/>
</svg>
