<svg width="40" height="40" viewBox="0 0 40 40" fill="none" xmlns="http://www.w3.org/2000/svg">
<rect width="40" height="40" rx="20" fill="#FFF2E8"/>
<g clip-path="url(#clip0_9639_32933)">
<path fill-rule="evenodd" clip-rule="evenodd" d="M16.7504 13.3447H12.3571V15.1984H13.0971C13.1696 15.1984 13.2391 15.2272 13.2904 15.2784C13.3417 15.3297 13.3705 15.3993 13.3705 15.4718C13.3705 15.5443 13.3417 15.6139 13.2904 15.6651C13.2391 15.7164 13.1696 15.7452 13.0971 15.7452H12.3571V17.1172H14.0672C14.1397 17.1172 14.2093 17.146 14.2605 17.1973C14.3118 17.2486 14.3406 17.3181 14.3406 17.3906C14.3406 17.4631 14.3118 17.5327 14.2605 17.584C14.2093 17.6353 14.1397 17.6641 14.0672 17.6641H12.3571V19.0361H13.0971C13.1696 19.0361 13.2391 19.0649 13.2904 19.1161C13.3417 19.1674 13.3705 19.237 13.3705 19.3095C13.3705 19.382 13.3417 19.4516 13.2904 19.5028C13.2391 19.5541 13.1696 19.5829 13.0971 19.5829H12.3571V21.6736H14.7786C15.1812 23.0035 16.0842 24.1252 17.2973 24.8027V26.9047C17.2973 27.6324 17.0083 28.3302 16.4938 28.8447C15.9792 29.3593 15.2814 29.6483 14.5538 29.6483C13.8261 29.6483 13.1283 29.3593 12.6137 28.8447C12.0992 28.3302 11.8102 27.6324 11.8102 26.9047V13.3371C11.5461 13.3051 11.3029 13.1777 11.1263 12.9788C10.9497 12.78 10.852 12.5233 10.8516 12.2574V11.4389C10.852 11.1506 10.9667 10.8743 11.1705 10.6705C11.3743 10.4667 11.6506 10.352 11.9389 10.3516H17.1686C17.4569 10.352 17.7332 10.4667 17.937 10.6705C18.1408 10.8743 18.2555 11.1506 18.2559 11.4389V12.2574C18.2555 12.5233 18.1578 12.78 17.9812 12.9789C17.8046 13.1777 17.5614 13.3052 17.2973 13.3371V15.4555C17.1081 15.5612 16.9255 15.6783 16.7505 15.8061L16.7504 13.3447ZM24.0385 24.9914L24.7638 24.2661C24.8795 24.151 25.0361 24.0864 25.1993 24.0864C25.3625 24.0864 25.5191 24.151 25.6348 24.2661L28.9677 27.5989C29.0827 27.7147 29.1473 27.8712 29.1473 28.0345C29.1473 28.1977 29.0827 28.3542 28.9677 28.47L28.2423 29.1953C28.1266 29.3104 27.97 29.375 27.8068 29.375C27.6436 29.375 27.487 29.3104 27.3713 29.1953L24.0385 25.8625C23.9234 25.7467 23.8588 25.5902 23.8588 25.427C23.8588 25.2637 23.9234 25.1071 24.0385 24.9914ZM24.7043 20.1295C24.7042 19.0473 24.3387 17.9968 23.6669 17.1484C22.995 16.2999 22.0563 15.7033 21.003 15.4551C19.9496 15.207 18.8433 15.3219 17.8634 15.7812C16.8835 16.2405 16.0874 17.0173 15.6043 17.9857C15.1212 18.9541 14.9793 20.0573 15.2016 21.1164C15.4239 22.1755 15.9975 23.1285 16.8292 23.8209C17.661 24.5132 18.7022 24.9044 19.7841 24.9309C20.866 24.9574 21.9251 24.6177 22.7898 23.9669L23.5476 24.7247C23.5796 24.6825 23.6144 24.6426 23.6518 24.6051L24.3771 23.8798C24.4146 23.8424 24.4545 23.8076 24.4967 23.7756L23.7389 23.0178C24.367 22.1859 24.706 21.1718 24.7043 20.1295ZM19.9014 24.0633C19.1234 24.0633 18.3627 23.8326 17.7158 23.4003C17.0688 22.968 16.5646 22.3536 16.2668 21.6347C15.969 20.9158 15.8911 20.1248 16.0429 19.3617C16.1947 18.5985 16.5694 17.8975 17.1196 17.3473C17.6698 16.7972 18.3708 16.4225 19.1339 16.2707C19.8971 16.1189 20.6881 16.1968 21.407 16.4945C22.1258 16.7923 22.7402 17.2966 23.1725 17.9435C23.6048 18.5905 23.8355 19.3511 23.8355 20.1292C23.8356 20.6458 23.7339 21.1574 23.5362 21.6348C23.3385 22.1121 23.0488 22.5458 22.6834 22.9112C22.3181 23.2765 21.8844 23.5663 21.407 23.764C20.9297 23.9616 20.4181 24.0633 19.9014 24.0633Z" fill="#FA541C"/>
</g>
<defs>
<clipPath id="clip0_9639_32933">
<rect width="20" height="20" fill="white" transform="translate(10 10)"/>
</clipPath>
</defs>
</svg>
