<svg width="40" height="40" viewBox="0 0 40 40" fill="none" xmlns="http://www.w3.org/2000/svg">
<rect width="40" height="40" rx="20" fill="#FFFAEB"/>
<path d="M14.375 17.5V22.5C14.375 22.6658 14.3092 22.8247 14.1919 22.9419C14.0747 23.0592 13.9158 23.125 13.75 23.125C13.5842 23.125 13.4253 23.0592 13.3081 22.9419C13.1908 22.8247 13.125 22.6658 13.125 22.5V17.5C13.125 17.3342 13.1908 17.1753 13.3081 17.0581C13.4253 16.9408 13.5842 16.875 13.75 16.875C13.9158 16.875 14.0747 16.9408 14.1919 17.0581C14.3092 17.1753 14.375 17.3342 14.375 17.5ZM16.875 11.875C16.7092 11.875 16.5503 11.9408 16.4331 12.0581C16.3158 12.1753 16.25 12.3342 16.25 12.5V27.5C16.25 27.6658 16.3158 27.8247 16.4331 27.9419C16.5503 28.0592 16.7092 28.125 16.875 28.125C17.0408 28.125 17.1997 28.0592 17.3169 27.9419C17.4342 27.8247 17.5 27.6658 17.5 27.5V12.5C17.5 12.3342 17.4342 12.1753 17.3169 12.0581C17.1997 11.9408 17.0408 11.875 16.875 11.875ZM20 14.375C19.8342 14.375 19.6753 14.4408 19.5581 14.5581C19.4408 14.6753 19.375 14.8342 19.375 15V25C19.375 25.1658 19.4408 25.3247 19.5581 25.4419C19.6753 25.5592 19.8342 25.625 20 25.625C20.1658 25.625 20.3247 25.5592 20.4419 25.4419C20.5592 25.3247 20.625 25.1658 20.625 25V15C20.625 14.8342 20.5592 14.6753 20.4419 14.5581C20.3247 14.4408 20.1658 14.375 20 14.375ZM23.125 16.875C22.9592 16.875 22.8003 16.9408 22.6831 17.0581C22.5658 17.1753 22.5 17.3342 22.5 17.5V22.5C22.5 22.6658 22.5658 22.8247 22.6831 22.9419C22.8003 23.0592 22.9592 23.125 23.125 23.125C23.2908 23.125 23.4497 23.0592 23.5669 22.9419C23.6842 22.8247 23.75 22.6658 23.75 22.5V17.5C23.75 17.3342 23.6842 17.1753 23.5669 17.0581C23.4497 16.9408 23.2908 16.875 23.125 16.875ZM26.25 15.625C26.0842 15.625 25.9253 15.6908 25.8081 15.8081C25.6908 15.9253 25.625 16.0842 25.625 16.25V23.75C25.625 23.9158 25.6908 24.0747 25.8081 24.1919C25.9253 24.3092 26.0842 24.375 26.25 24.375C26.4158 24.375 26.5747 24.3092 26.6919 24.1919C26.8092 24.0747 26.875 23.9158 26.875 23.75V16.25C26.875 16.0842 26.8092 15.9253 26.6919 15.8081C26.5747 15.6908 26.4158 15.625 26.25 15.625Z" fill="#F79009"/>
</svg>
