<svg width="40" height="40" viewBox="0 0 40 40" fill="none" xmlns="http://www.w3.org/2000/svg">
<rect width="40" height="40" rx="20" fill="#E6FFFB"/>
<mask id="mask0_9639_50787" style="mask-type:luminance" maskUnits="userSpaceOnUse" x="10" y="10" width="20" height="20">
<path d="M10 10H30V30H10V10Z" fill="white"/>
</mask>
<g mask="url(#mask0_9639_50787)">
<path d="M25.8594 15.2734H14.1406C13.4934 15.2734 12.9688 15.7981 12.9688 16.4453C12.9688 17.0925 13.4934 17.6172 14.1406 17.6172H25.8594C26.5066 17.6172 27.0313 17.0925 27.0313 16.4453C27.0313 15.7981 26.5066 15.2734 25.8594 15.2734Z" fill="#13C2C2"/>
<path d="M25.8591 17.6172H14.1403C13.7243 18.9782 13.2787 20.6151 13.3591 23.0859C13.4212 24.996 13.7789 26.5935 14.1403 27.7734C13.8799 28.2943 13.6195 28.8151 13.3591 29.4141H26.6403L25.8591 27.7734C26.2206 26.5935 26.5782 24.996 26.6403 23.0859C26.7207 20.6151 26.2751 18.9782 25.8591 17.6172Z" stroke="#13C2C2" stroke-width="1.2" stroke-miterlimit="10" stroke-linecap="round" stroke-linejoin="round"/>
<path d="M20 10.5859C19.2533 10.5859 18.5409 10.8993 18.0363 11.4498L14.5312 15.2734H25.4688L21.9637 11.4498C21.4591 10.8993 20.7467 10.5859 20 10.5859Z" stroke="#13C2C2" stroke-width="1.2" stroke-miterlimit="10" stroke-linecap="round" stroke-linejoin="round"/>
<path d="M21.3672 12.9297C21.3672 13.2533 21.1048 13.5156 20.7813 13.5156C20.4577 13.5156 20.1953 13.2533 20.1953 12.9297C20.1953 12.6061 20.4577 12.3437 20.7813 12.3437C21.1048 12.3437 21.3672 12.6061 21.3672 12.9297Z" fill="#13C2C2"/>
<path d="M19.2188 13.5156C19.2188 13.8392 18.9564 14.1016 18.6328 14.1016C18.3092 14.1016 18.0469 13.8392 18.0469 13.5156C18.0469 13.192 18.3092 12.9297 18.6328 12.9297C18.9564 12.9297 19.2188 13.192 19.2188 13.5156Z" fill="#13C2C2"/>
</g>
<g clip-path="url(#clip0_9639_50787)">
<path d="M20.3588 23.2964L20.9838 23.5932C20.9838 23.5932 21.8381 23.5733 22.3081 22.9768C22.5696 22.6448 22.6516 21.9962 22.6516 21.9962C22.4074 21.7215 21.3327 21.268 21.3327 21.268C21.3327 21.268 21.5507 21.8409 21.233 22.4661C20.908 23.1055 20.3588 23.2964 20.3588 23.2964Z" fill="#13C2C2"/>
<path d="M23.1584 24.0669L23.4846 23.8129C23.4805 23.2796 23.2998 22.7599 22.9751 22.3379C22.9751 22.3379 22.961 22.8325 22.4957 23.3318C22.0704 23.7884 21.5261 23.8499 21.5261 23.8499L22.1443 24.1436C22.4712 24.2989 22.8589 24.2692 23.1584 24.0669Z" fill="#13C2C2"/>
<path d="M22.591 24.6171C22.1917 24.6284 21.8921 24.4396 21.8921 24.4396C21.8998 24.5283 21.8916 24.6199 21.864 24.7085C21.864 24.7085 22.153 25.2298 22.5982 25.2648L23.052 25.2666C23.0925 25.1987 23.3843 24.6653 23.4331 24.3288C23.4331 24.3288 23.1041 24.6026 22.591 24.6171Z" fill="#13C2C2"/>
<path d="M22.1942 25.5313C22.0394 25.4516 21.8973 25.3488 21.783 25.2096L21.1295 25.8146C20.97 25.94 20.8933 26.126 20.9162 26.3115L21.0186 26.6703C21.7223 26.5562 22.3504 26.1905 22.7938 25.6416C22.7938 25.6416 22.5022 25.6901 22.1942 25.5313Z" fill="#13C2C2"/>
<path d="M20.9625 25.4243C20.8194 25.1051 20.5727 24.8509 20.2543 24.6997L19.3787 24.2837C19.2856 24.2395 19.1666 24.2766 19.1289 24.3727C18.7266 25.3978 19.6362 25.8612 19.6362 25.8612C18.9997 26.1567 18.6909 26.8787 18.9303 27.5394C18.9826 27.684 19.1216 27.6697 19.1708 27.6536L19.8903 27.3976C20.21 27.2838 20.4775 27.0704 20.6605 26.7899C20.6606 26.7897 20.6607 26.7896 20.6607 26.7894C20.6607 26.7894 20.219 26.0299 20.9625 25.4243Z" fill="#13C2C2"/>
<path d="M17.3265 20.6087C17.3265 20.6087 18.0329 22.0822 18.7866 22.5166C18.4236 22.7415 18.2664 23.131 18.2664 23.131C18.1577 23.3974 18.5135 23.5136 18.6052 23.2919C18.6052 23.2919 18.7877 22.8683 19.1708 22.7303L19.2657 22.7753C18.9169 23.0119 18.7745 23.3723 18.7745 23.3723C18.6767 23.6215 19.023 23.7301 19.1132 23.5332C19.1132 23.5332 19.2321 23.1585 19.6789 22.9716L19.9194 23.0859C19.9194 23.0859 20.6053 22.9118 20.8943 22.3035C21.1425 21.781 20.9187 21.0696 20.9187 21.0696C20.9187 21.0696 20.3854 20.689 19.4258 20.6552C18.6494 20.6279 17.5196 20.2853 17.5196 20.2853L17.2842 20.1734C16.7215 19.9062 17.1157 19.0555 17.6864 19.3266L20.1422 20.4931C20.3574 20.5954 20.5398 20.2669 20.3031 20.1544L17.8473 18.9879C16.9629 18.5414 16.0468 19.8518 17.1233 20.5122L17.3265 20.6087ZM18.9837 21.1883L18.9854 21.1891C19.0789 21.2335 19.1187 21.3455 19.0743 21.4389C19.0299 21.5324 18.918 21.5723 18.8245 21.5279C18.731 21.4835 18.6903 21.3711 18.7347 21.2776C18.7792 21.1842 18.8902 21.1439 18.9837 21.1883Z" fill="#13C2C2"/>
</g>
<defs>
<clipPath id="clip0_9639_50787">
<rect width="9" height="9" fill="white" transform="translate(16.8613 18) rotate(25.4085)"/>
</clipPath>
</defs>
</svg>
