<svg width="40" height="40" viewBox="0 0 40 40" fill="none" xmlns="http://www.w3.org/2000/svg">
<rect width="40" height="40" rx="20" fill="#F0FDF9"/>
<path d="M27.5 18.128H26.8461C26.6891 16.4209 25.8999 14.834 24.6334 13.6787C23.3668 12.5233 21.7143 11.8828 20 11.8828C18.2857 11.8828 16.6332 12.5233 15.3666 13.6787C14.1001 14.834 13.3109 16.4209 13.1539 18.128H12.5C12.3342 18.128 12.1753 18.1939 12.0581 18.3111C11.9408 18.4283 11.875 18.5873 11.875 18.753C11.8777 20.2394 12.2868 21.6967 13.0579 22.9674C13.829 24.238 14.9328 25.2737 16.25 25.9624V26.253C16.25 26.5846 16.3817 26.9025 16.6161 27.1369C16.8505 27.3713 17.1685 27.503 17.5 27.503H22.5C22.8315 27.503 23.1495 27.3713 23.3839 27.1369C23.6183 26.9025 23.75 26.5846 23.75 26.253V25.9624C25.0672 25.2737 26.171 24.238 26.9421 22.9674C27.7132 21.6967 28.1223 20.2394 28.125 18.753C28.125 18.5873 28.0592 18.4283 27.9419 18.3111C27.8247 18.1939 27.6658 18.128 27.5 18.128ZM25.5891 18.128H21.5719C22.3296 16.9912 23.476 16.1698 24.7961 15.8179C25.2277 16.5199 25.4985 17.3089 25.5891 18.128ZM23.5531 14.396C23.6964 14.5132 23.8336 14.6369 23.9648 14.7671C22.3011 15.3524 20.9262 16.5552 20.125 18.1265H17.8203C18.2109 17.0315 18.9301 16.0838 19.8796 15.4129C20.829 14.742 21.9624 14.3806 23.125 14.378C23.268 14.378 23.4109 14.3851 23.5531 14.396ZM20 13.128C20.5015 13.1284 21.0008 13.1959 21.4844 13.3288C20.3066 13.621 19.2266 14.2185 18.3533 15.061C17.4801 15.9036 16.8443 16.9615 16.5102 18.128H14.4109C14.566 16.7537 15.2213 15.4845 16.2521 14.5624C17.2829 13.6402 18.617 13.1297 20 13.128ZM22.8641 25.003C22.755 25.0531 22.6627 25.1335 22.5982 25.2347C22.5336 25.3358 22.4995 25.4534 22.5 25.5733V26.253H17.5V25.5733C17.5005 25.4534 17.4664 25.3358 17.4018 25.2347C17.3373 25.1335 17.245 25.0531 17.1359 25.003C16.0368 24.4973 15.0901 23.7113 14.3907 22.7239C13.6914 21.7366 13.264 20.5827 13.1516 19.378H26.8461C26.7339 20.5825 26.3069 21.7362 25.6079 22.7235C24.909 23.7108 23.9628 24.4969 22.8641 25.003Z" fill="#0E9384"/>
</svg>
