<svg width="40" height="40" viewBox="0 0 40 40" fill="none" xmlns="http://www.w3.org/2000/svg">
<rect width="40" height="40" rx="20" fill="#F0FDF9"/>
<g clip-path="url(#clip0_1121_2896)">
<path d="M23.3368 21.5058C23.2891 21.5058 23.2413 21.4948 23.1933 21.4788C23.1508 21.4575 23.1083 21.431 23.0711 21.3938C23.0391 21.362 23.0073 21.3195 22.9913 21.277C22.9701 21.2293 22.9648 21.1815 22.9648 21.1338C22.9648 21.086 22.9701 21.0378 22.9913 20.99C23.0126 20.9475 23.0391 20.905 23.0711 20.868C23.1083 20.8358 23.1453 20.8093 23.1933 20.788C23.3316 20.735 23.4963 20.7668 23.5971 20.868C23.6343 20.9048 23.6608 20.9475 23.6768 20.99C23.6981 21.0378 23.7088 21.086 23.7088 21.1338C23.7088 21.1815 23.6981 21.2293 23.6768 21.277C23.6608 21.3195 23.6343 21.362 23.5971 21.3938C23.5281 21.4683 23.4326 21.5058 23.3368 21.5058Z" fill="#0E9384"/>
<path d="M23.9833 22.9826C23.9356 22.9826 23.8878 22.9721 23.8398 22.9509C23.7973 22.9349 23.7548 22.9084 23.7176 22.8709C23.6486 22.8019 23.6113 22.7064 23.6113 22.6104C23.6113 22.5626 23.6221 22.5096 23.6378 22.4671C23.6591 22.4194 23.6856 22.3821 23.7176 22.3446C23.8238 22.2439 23.9886 22.2066 24.1268 22.2651C24.1693 22.2811 24.2118 22.3129 24.2438 22.3446C24.2811 22.3819 24.3076 22.4194 24.3288 22.4671C24.3448 22.5096 24.3553 22.5626 24.3553 22.6104C24.3553 22.7064 24.3183 22.8019 24.2438 22.8709C24.2118 22.9081 24.1696 22.9346 24.1268 22.9509C24.0791 22.9721 24.0313 22.9826 23.9833 22.9826Z" fill="#0E9384"/>
<path d="M24.6962 21.6701C24.643 21.6701 24.5952 21.6591 24.5527 21.6436C24.505 21.6223 24.4677 21.5958 24.4305 21.5586C24.3985 21.5263 24.3667 21.4843 24.3507 21.4418C24.3295 21.3936 24.3242 21.3458 24.3242 21.2981C24.3242 21.2503 24.3295 21.2026 24.3507 21.1548C24.372 21.1123 24.3985 21.0698 24.4305 21.0323C24.4675 21.0006 24.5047 20.9743 24.5527 20.9528C24.6855 20.8993 24.8502 20.9316 24.9565 21.0323C24.9935 21.0696 25.0202 21.1123 25.0362 21.1548C25.0575 21.2026 25.0682 21.2503 25.0682 21.2981C25.0682 21.3458 25.0575 21.3936 25.0362 21.4418C25.0202 21.4843 24.9937 21.5263 24.9565 21.5586C24.9245 21.5958 24.882 21.6223 24.8395 21.6436C24.7917 21.6591 24.744 21.6701 24.6962 21.6701Z" fill="#0E9384"/>
<path d="M25.2861 17.9608C25.2383 17.9608 25.1906 17.9503 25.1426 17.9291C25.1001 17.9131 25.0576 17.8866 25.0256 17.8491C24.9883 17.8123 24.9618 17.7748 24.9406 17.7271C24.9246 17.6846 24.9141 17.6368 24.9141 17.5833C24.9141 17.5356 24.9248 17.4878 24.9406 17.4453C24.9618 17.3976 24.9883 17.3551 25.0256 17.3233C25.0576 17.2911 25.1001 17.2596 25.1426 17.2433C25.2383 17.2008 25.3393 17.2008 25.4296 17.2433C25.4721 17.2593 25.5146 17.2911 25.5518 17.3233C25.6211 17.3923 25.6581 17.4878 25.6581 17.5833C25.6581 17.6368 25.6476 17.6846 25.6316 17.7271C25.6103 17.7748 25.5838 17.8121 25.5518 17.8491C25.5148 17.8863 25.4721 17.9128 25.4296 17.9291C25.3818 17.9506 25.3341 17.9608 25.2861 17.9608Z" fill="#0E9384"/>
<path d="M24.0422 16.8924C23.9944 16.8924 23.9464 16.8819 23.9039 16.8606C23.8562 16.8446 23.8189 16.8129 23.7817 16.7806C23.7124 16.7064 23.6699 16.6161 23.6699 16.5149C23.6699 16.4194 23.7124 16.3239 23.7817 16.2544C23.9199 16.1164 24.1697 16.1164 24.3077 16.2544C24.3767 16.3239 24.4139 16.4194 24.4139 16.5149C24.4139 16.6161 24.3767 16.7116 24.3077 16.7806C24.2704 16.8129 24.2332 16.8444 24.1854 16.8606C24.1432 16.8821 24.0954 16.8924 24.0422 16.8924Z" fill="#0E9384"/>
<path d="M23.4579 17.9238C23.3569 17.9238 23.2612 17.8866 23.1922 17.8123C23.1549 17.7801 23.1284 17.7376 23.1124 17.6951C23.0912 17.6473 23.0859 17.5996 23.0859 17.5518C23.0859 17.5041 23.0912 17.4563 23.1124 17.4081C23.1282 17.3661 23.1549 17.3236 23.1922 17.2913C23.2242 17.2546 23.2664 17.2276 23.3144 17.2063C23.4527 17.1533 23.6174 17.1851 23.7182 17.2913C23.7874 17.3603 23.8297 17.4563 23.8297 17.5518C23.8297 17.6473 23.7872 17.7433 23.7182 17.8123C23.6494 17.8863 23.5537 17.9238 23.4579 17.9238Z" fill="#0E9384"/>
<path d="M26.7182 16.8873C26.6789 16.8873 26.6384 16.8848 26.5962 16.8796C26.1944 16.8266 25.8857 16.5738 25.7507 16.2038C25.6104 15.8188 25.6924 15.3933 25.9644 15.0923L26.0704 14.9746L24.0392 15.6151C23.7512 15.7053 23.4362 15.6503 23.1949 15.4713C22.9517 15.2903 22.8137 15.0126 22.8164 14.7101C22.8164 14.5118 22.9017 14.2316 23.0447 13.9628C23.2354 13.6006 23.5459 13.2466 23.9414 12.9411C24.0029 12.8918 24.1284 12.7786 24.2577 12.6566C24.4829 12.4423 24.6269 12.1558 24.6627 11.8496L24.8224 10.4883C24.8257 10.4618 24.8317 10.4353 24.8404 10.4101C25.0097 9.92181 25.4722 9.43756 26.0657 9.43506H29.5649C30.0632 9.43506 30.4682 9.84031 30.4682 10.3386V13.6001C30.4682 13.8056 30.3017 13.9721 30.0962 13.9721H29.7782C29.3967 14.3928 28.1614 15.7521 27.7937 16.1043C27.7174 16.1781 27.6527 16.2616 27.5899 16.3411C27.4059 16.5746 27.1587 16.8873 26.7182 16.8873ZM26.5654 14.0676C26.7619 14.0676 26.9469 14.1661 27.0587 14.3406C27.2047 14.5688 27.1802 14.8568 26.9982 15.0563L26.5169 15.5908C26.4127 15.7061 26.4139 15.8513 26.4497 15.9493C26.4727 16.0126 26.5332 16.1221 26.6782 16.1423C26.7707 16.1501 26.8112 16.1268 27.0064 15.8803C27.0892 15.7756 27.1762 15.6671 27.2782 15.5683C27.6879 15.1761 29.3212 13.3691 29.3374 13.3503C29.4079 13.2726 29.5082 13.2278 29.6134 13.2278H29.7247V10.3383C29.7247 10.2506 29.6532 10.1791 29.5652 10.1791H26.0627C26.0619 10.1791 26.0612 10.1791 26.0604 10.1791C25.8762 10.1791 25.6539 10.3768 25.5567 10.6196L25.4019 11.9361C25.3459 12.4146 25.1214 12.8618 24.7699 13.1961C24.6214 13.3368 24.4769 13.4653 24.4009 13.5261C24.0027 13.8338 23.8017 14.1223 23.7024 14.3108C23.5887 14.5241 23.5612 14.6766 23.5604 14.7136C23.5597 14.8023 23.6094 14.8521 23.6389 14.8738C23.6637 14.8921 23.7292 14.9318 23.8172 14.9043L26.3839 14.0953C26.4444 14.0768 26.5057 14.0676 26.5654 14.0676ZM26.4472 14.5563C26.4467 14.5568 26.4464 14.5573 26.4462 14.5573L26.4472 14.5563Z" fill="#0E9384"/>
<path d="M30.628 20.349C28.8018 20.349 27.8743 20.0707 26.9775 19.802C26.0933 19.5367 25.258 19.2862 23.541 19.2862C21.824 19.2862 20.9885 19.537 20.1045 19.802C19.2078 20.0707 18.2805 20.349 16.454 20.349C14.6288 20.349 13.7023 20.0707 12.806 19.802C11.9223 19.5367 11.0878 19.2862 9.37175 19.2862C9.1665 19.2862 9 19.1195 9 18.914C9 18.7085 9.1665 18.542 9.372 18.542C11.1973 18.542 12.1238 18.8202 13.02 19.089C13.9038 19.3542 14.7383 19.6047 16.4543 19.6047C18.1715 19.6047 19.0068 19.354 19.8908 19.089C20.7875 18.8202 21.7148 18.542 23.5413 18.542C25.3678 18.542 26.295 18.8202 27.1918 19.089C28.076 19.3542 28.9113 19.6047 30.6283 19.6047C30.8338 19.6047 31.0003 19.7712 31.0003 19.9767C31.0003 20.1822 30.8335 20.349 30.628 20.349Z" fill="#0E9384"/>
<path d="M15.2964 25.584C15.2724 25.4945 15.2755 25.4 15.3053 25.3123C15.3351 25.2246 15.3902 25.1477 15.4636 25.0913C15.5371 25.0349 15.6256 25.0016 15.718 24.9956C15.8105 24.9895 15.9026 25.011 15.9828 25.0573C16.063 25.1036 16.1277 25.1726 16.1686 25.2557C16.2096 25.3388 16.225 25.4321 16.2129 25.5239C16.2008 25.6157 16.1618 25.7019 16.1007 25.7715C16.0396 25.8412 15.9593 25.8911 15.8699 25.9151C15.7499 25.9472 15.6221 25.9304 15.5146 25.8683C15.407 25.8062 15.3285 25.7039 15.2964 25.584ZM18.2963 23.5432C18.4484 24.3196 18.3004 25.1249 17.8821 25.7964C17.4637 26.4679 16.8062 26.9558 16.0423 27.1616L14.8362 27.4847C14.7162 27.5169 14.614 27.5953 14.5519 27.7029C14.4898 27.8104 14.4729 27.9382 14.5051 28.0582C14.5372 28.1781 14.6157 28.2804 14.7233 28.3425C14.8308 28.4046 14.9586 28.4214 15.0786 28.3893L17.1892 27.8237C17.2692 27.8023 17.3544 27.8135 17.4261 27.8549C17.4978 27.8963 17.5501 27.9645 17.5715 28.0445C17.5929 28.1244 17.5817 28.2096 17.5403 28.2813C17.4989 28.353 17.4308 28.4054 17.3508 28.4268L15.5417 28.9115L15.7033 29.5146L16.9093 29.1914C16.9893 29.17 17.0745 29.1812 17.1462 29.2226C17.2179 29.264 17.2702 29.3322 17.2916 29.4121C17.3131 29.4921 17.3019 29.5773 17.2605 29.649C17.2191 29.7207 17.1509 29.773 17.0709 29.7945L14.9603 30.36C14.1606 30.5743 13.3085 30.4621 12.5916 30.0482C11.8746 29.6342 11.3514 28.9524 11.1371 28.1527C10.9229 27.353 11.035 26.501 11.449 25.784C11.8629 25.067 12.5447 24.5439 13.3444 24.3296L17.7165 23.1581C17.8364 23.1259 17.9387 23.0475 18.0008 22.9399C18.0629 22.8324 18.0797 22.7046 18.0476 22.5846C18.0154 22.4647 17.937 22.3624 17.8294 22.3003C17.7219 22.2382 17.5941 22.2214 17.4741 22.2535L14.3081 23.1018C14.0682 23.1661 13.8126 23.1325 13.5975 23.0083C13.3824 22.8841 13.2255 22.6796 13.1612 22.4397C13.1398 22.3597 13.151 22.2745 13.1924 22.2028C13.2338 22.1311 13.302 22.0788 13.3819 22.0573C13.4619 22.0359 13.5471 22.0471 13.6188 22.0885C13.6905 22.1299 13.7428 22.1981 13.7642 22.2781C13.7857 22.358 13.838 22.4262 13.9097 22.4676C13.9814 22.509 14.0666 22.5202 14.1465 22.4988L17.3125 21.6505C17.5527 21.5864 17.8076 21.6061 18.0351 21.7064C18.2626 21.8067 18.4491 21.9816 18.5637 22.2022C18.6784 22.4228 18.7144 22.6759 18.6658 22.9197C18.6172 23.1635 18.4868 23.3835 18.2963 23.5432ZM12.9061 29.5082L13.9186 28.2784C13.9134 28.2592 13.9085 28.2407 13.9028 28.2196C13.8771 28.1244 13.8643 28.0262 13.865 27.9276L11.6655 27.5615C11.6997 27.9622 11.8307 28.3486 12.047 28.6876C12.2634 29.0266 12.5587 29.308 12.9076 29.5078L12.9061 29.5082ZM14.2932 28.8053L13.5109 29.757C13.9327 29.8703 14.3769 29.8703 14.7987 29.757L15.1002 29.6762L14.9268 29.029C14.6979 29.0221 14.4769 28.9437 14.2948 28.8049L14.2932 28.8053ZM14.3849 27.0066L13.8075 24.8518L13.506 24.9326C13.0435 25.0571 12.6265 25.3118 12.3046 25.6665C11.9827 26.0212 11.7694 26.4608 11.6902 26.9332L14.0524 27.3259C14.1392 27.197 14.2526 27.0882 14.3849 27.0066ZM17.7085 23.8066L14.4106 24.6902L14.9761 26.8009L15.8807 26.5585C16.4678 26.4004 16.9773 26.0338 17.3137 25.5273C17.6501 25.0208 17.7904 24.4091 17.7085 23.8066Z" fill="#0E9384"/>
</g>
<defs>
<clipPath id="clip0_1121_2896">
<rect width="24" height="24" fill="white" transform="translate(8 8)"/>
</clipPath>
</defs>
</svg>
