<svg width="41" height="42" viewBox="0 0 41 42" fill="none" xmlns="http://www.w3.org/2000/svg">
<path d="M8 2.5H32C36.1421 2.5 39.5 5.85786 39.5 10V34C39.5 38.1421 36.1421 41.5 32 41.5H8C3.85786 41.5 0.5 38.1421 0.5 34V10C0.5 5.85786 3.85786 2.5 8 2.5Z" fill="white"/>
<path d="M8 2.5H32C36.1421 2.5 39.5 5.85786 39.5 10V34C39.5 38.1421 36.1421 41.5 32 41.5H8C3.85786 41.5 0.5 38.1421 0.5 34V10C0.5 5.85786 3.85786 2.5 8 2.5Z" stroke="#0958D9"/>
<g clip-path="url(#clip0_3930_11465)">
<path d="M26.4705 15.707H13.5294C13.0988 15.707 12.8298 16.1764 13.046 16.5508L17.1347 23.5012V27.7305C17.1347 28.0416 17.3843 28.293 17.6937 28.293H22.3062C22.6156 28.293 22.8652 28.0416 22.8652 27.7305V23.5012L26.9556 16.5508C27.1701 16.1764 26.9011 15.707 26.4705 15.707ZM21.6066 27.0273H18.3933V24.2852H21.6083V27.0273H21.6066ZM21.7753 22.8684L21.6083 23.1602H18.3915L18.2246 22.8684L14.7388 16.9727H25.2611L21.7753 22.8684Z" fill="#0958D9"/>
</g>
<circle cx="37" cy="4" r="3.5" fill="#1677FF" stroke="white"/>
<defs>
<clipPath id="clip0_3930_11465">
<rect width="18" height="18" fill="white" transform="translate(11 13)"/>
</clipPath>
</defs>
</svg>
