<svg width="40" height="40" viewBox="0 0 40 40" fill="none" xmlns="http://www.w3.org/2000/svg">
<path d="M8 0.5H32C36.1421 0.5 39.5 3.85786 39.5 8V32C39.5 36.1421 36.1421 39.5 32 39.5H8C3.85786 39.5 0.5 36.1421 0.5 32V8C0.5 3.85786 3.85786 0.5 8 0.5Z" fill="white"/>
<path d="M8 0.5H32C36.1421 0.5 39.5 3.85786 39.5 8V32C39.5 36.1421 36.1421 39.5 32 39.5H8C3.85786 39.5 0.5 36.1421 0.5 32V8C0.5 3.85786 3.85786 0.5 8 0.5Z" stroke="#DEE4ED"/>
<g clip-path="url(#clip0_3930_11463)">
<path d="M26.4705 13.707H13.5294C13.0988 13.707 12.8298 14.1764 13.046 14.5508L17.1347 21.5012V25.7305C17.1347 26.0416 17.3843 26.293 17.6937 26.293H22.3062C22.6156 26.293 22.8652 26.0416 22.8652 25.7305V21.5012L26.9556 14.5508C27.1701 14.1764 26.9011 13.707 26.4705 13.707ZM21.6066 25.0273H18.3933V22.2852H21.6083V25.0273H21.6066ZM21.7753 20.8684L21.6083 21.1602H18.3915L18.2246 20.8684L14.7388 14.9727H25.2611L21.7753 20.8684Z" fill="black" fill-opacity="0.88"/>
</g>
<defs>
<clipPath id="clip0_3930_11463">
<rect width="18" height="18" fill="white" transform="translate(11 11)"/>
</clipPath>
</defs>
</svg>
