<svg width="40" height="40" viewBox="0 0 40 40" fill="none" xmlns="http://www.w3.org/2000/svg">
<rect width="40" height="40" rx="20" fill="#E6FFFB"/>
<g clip-path="url(#clip0_9639_9124)">
<path d="M28.3906 26.4778C27.4057 22.1767 27.4057 17.8233 28.3906 13.5222C29.2912 13.4433 30 12.6854 30 11.7647C30 10.7917 29.2084 10 28.2353 10C27.3146 10 26.5568 10.7088 26.4778 11.6094C22.1767 12.5943 17.8233 12.5943 13.5222 11.6094C13.4432 10.7088 12.6854 10 11.7647 10C10.7916 10 10 10.7917 10 11.7647C10 12.6854 10.7088 13.4432 11.6094 13.5222C12.5943 17.8232 12.5943 22.1767 11.6094 26.4778C10.7089 26.5568 10 27.3146 10 28.2353C10 29.2084 10.7916 30 11.7647 30C12.6854 30 13.4432 29.2912 13.5222 28.3906C17.8232 27.4057 22.1767 27.4057 26.4778 28.3906C26.5568 29.2912 27.3146 30 28.2353 30C29.2084 30 30 29.2084 30 28.2353C30 27.3146 29.2912 26.5567 28.3906 26.4778ZM20.5882 19.4118V17.0523C21.4042 17.0428 22.22 17.0136 23.0352 16.9649C22.9864 17.78 22.9572 18.5958 22.9477 19.4118H20.5882ZM19.4118 19.4118H17.0523C17.0428 18.5958 17.0136 17.78 16.9648 16.9649C17.78 17.0136 18.5958 17.0428 19.4118 17.0523V19.4118ZM19.4118 20.5882V22.9477C18.5958 22.9571 17.78 22.9864 16.9648 23.0352C17.0136 22.22 17.0428 21.4042 17.0523 20.5882H19.4118ZM20.5882 20.5882H22.9477C22.9572 21.4042 22.9864 22.22 23.0352 23.0352C22.22 22.9864 21.4042 22.9572 20.5882 22.9477V20.5882ZM24.1243 20.5882H26.4814C26.4999 21.5206 26.5617 22.4528 26.668 23.3838C25.8531 23.276 25.0366 23.1881 24.2192 23.12C24.166 22.2767 24.1343 21.4325 24.1243 20.5882ZM26.4814 19.4118H24.1242C24.1343 18.5675 24.166 17.7233 24.2191 16.88C25.0366 16.8119 25.8531 16.724 26.668 16.6162C26.5616 17.5472 26.4999 18.4794 26.4814 19.4118ZM27.2505 13.2289C27.0838 13.9536 26.9444 14.6796 26.8315 15.4066C25.9919 15.5232 25.1505 15.6185 24.308 15.6919C24.3815 14.8495 24.4768 14.0081 24.5933 13.1685C25.3204 13.0556 26.0465 12.9161 26.7711 12.7494C26.8984 12.9385 27.0615 13.1016 27.2505 13.2289ZM23.12 15.7808C22.2767 15.8339 21.4325 15.8656 20.5882 15.8757V13.5186C21.5206 13.5001 22.4528 13.4384 23.3838 13.332C23.276 14.1469 23.1882 14.9633 23.12 15.7808ZM19.4118 15.8757C18.5675 15.8656 17.7233 15.834 16.88 15.7808C16.8118 14.9633 16.724 14.1469 16.6162 13.332C17.5472 13.4384 18.4793 13.5001 19.4117 13.5186V15.8757H19.4118ZM15.692 15.692C14.8495 15.6185 14.0081 15.5232 13.1685 15.4067C13.0556 14.6796 12.9162 13.9536 12.7495 13.229C12.9385 13.1016 13.1016 12.9386 13.229 12.7495C13.9536 12.9162 14.6796 13.0556 15.4067 13.1686C15.5232 14.0082 15.6185 14.8495 15.692 15.692ZM15.7808 16.88C15.834 17.7233 15.8657 18.5675 15.8757 19.4118H13.5186C13.5001 18.4794 13.4384 17.5472 13.332 16.6162C14.1469 16.724 14.9633 16.8119 15.7808 16.88ZM13.5186 20.5882H15.8757C15.8657 21.4325 15.834 22.2767 15.7808 23.12C14.9634 23.1881 14.1469 23.276 13.332 23.3838C13.4384 22.4528 13.5001 21.5206 13.5186 20.5882ZM12.7495 26.7711C12.9162 26.0464 13.0556 25.3204 13.1685 24.5933C14.0081 24.4768 14.8495 24.3815 15.692 24.308C15.6185 25.1505 15.5232 25.9919 15.4067 26.8315C14.6796 26.9444 13.9536 27.0838 13.229 27.2506C13.1016 27.0615 12.9385 26.8984 12.7495 26.7711ZM16.88 24.2192C17.7233 24.166 18.5675 24.1343 19.4118 24.1243V26.4813C18.4794 26.4998 17.5472 26.5616 16.6162 26.668C16.724 25.8531 16.8119 25.0366 16.88 24.2192ZM20.5882 24.1243C21.4325 24.1343 22.2767 24.166 23.12 24.2192C23.1882 25.0366 23.276 25.8531 23.3838 26.668C22.4528 26.5616 21.5206 26.4998 20.5882 26.4813V24.1243ZM24.308 24.308C25.1505 24.3814 25.9918 24.4768 26.8314 24.5933C26.9444 25.3204 27.0838 26.0464 27.2505 26.771C27.0615 26.8984 26.8984 27.0614 26.771 27.2505C26.0464 27.0838 25.3204 26.9444 24.5933 26.8314C24.4768 25.9918 24.3815 25.1505 24.308 24.308Z" fill="#13C2C2"/>
</g>
<defs>
<clipPath id="clip0_9639_9124">
<rect width="20" height="20" fill="white" transform="translate(10 10)"/>
</clipPath>
</defs>
</svg>
