<svg width="40" height="40" viewBox="0 0 40 40" fill="none" xmlns="http://www.w3.org/2000/svg">
<rect width="40" height="40" rx="20" fill="#F0FDF9"/>
<path d="M20.625 19.3733V23.7483C20.625 23.9141 20.5592 24.0731 20.442 24.1903C20.3248 24.3075 20.1658 24.3733 20 24.3733C19.8343 24.3733 19.6753 24.3075 19.5581 24.1903C19.4409 24.0731 19.375 23.9141 19.375 23.7483V19.3733C19.375 19.2076 19.4409 19.0486 19.5581 18.9314C19.6753 18.8142 19.8343 18.7483 20 18.7483C20.1658 18.7483 20.3248 18.8142 20.442 18.9314C20.5592 19.0486 20.625 19.2076 20.625 19.3733ZM23.5032 19.3108L23.0657 23.6858C23.057 23.7677 23.0647 23.8505 23.0881 23.9295C23.1116 24.0084 23.1504 24.082 23.2024 24.1459C23.2544 24.2098 23.3185 24.2627 23.391 24.3018C23.4636 24.3408 23.5431 24.3651 23.625 24.3733C23.6461 24.3745 23.6672 24.3745 23.6883 24.3733C23.8431 24.3731 23.9924 24.3155 24.1071 24.2116C24.2218 24.1077 24.2939 23.9649 24.3094 23.8108L24.7469 19.4358C24.7635 19.2709 24.7139 19.1061 24.609 18.9778C24.5041 18.8494 24.3525 18.768 24.1875 18.7514C24.0226 18.7349 23.8578 18.7845 23.7295 18.8894C23.6012 18.9943 23.5197 19.1459 23.5032 19.3108ZM16.4969 19.3108C16.4803 19.1459 16.3989 18.9943 16.2706 18.8894C16.1422 18.7845 15.9775 18.7349 15.8125 18.7514C15.6476 18.768 15.496 18.8494 15.3911 18.9778C15.2862 19.1061 15.2366 19.2709 15.2532 19.4358L15.6907 23.8108C15.7062 23.9655 15.7789 24.1089 15.8944 24.2129C16.01 24.3169 16.1602 24.3741 16.3157 24.3733C16.3367 24.3745 16.3579 24.3745 16.3789 24.3733C16.4606 24.3651 16.5399 24.3409 16.6122 24.3021C16.6845 24.2632 16.7484 24.2105 16.8004 24.147C16.8523 24.0834 16.8912 24.0103 16.9149 23.9317C16.9386 23.8531 16.9465 23.7706 16.9383 23.6889L16.4969 19.3108ZM28.7446 16.9561L27.5672 25.7889C27.5262 26.0887 27.3781 26.3635 27.1505 26.5628C26.9228 26.7621 26.6307 26.8724 26.3282 26.8733H13.6719C13.3693 26.8724 13.0773 26.7621 12.8496 26.5628C12.6219 26.3635 12.4739 26.0887 12.4329 25.7889L11.2555 16.9561C11.2437 16.8678 11.2509 16.7781 11.2766 16.6928C11.3024 16.6075 11.346 16.5287 11.4047 16.4617C11.4634 16.3947 11.5357 16.3409 11.6168 16.3041C11.6979 16.2673 11.786 16.2483 11.875 16.2483H15.3414L19.5313 11.4616C19.5899 11.3951 19.6621 11.3418 19.7429 11.3054C19.8237 11.2689 19.9114 11.25 20 11.25C20.0887 11.25 20.1764 11.2689 20.2572 11.3054C20.338 11.3418 20.4101 11.3951 20.4688 11.4616L24.6586 16.2483H28.125C28.2141 16.2483 28.3022 16.2673 28.3833 16.3041C28.4644 16.3409 28.5367 16.3947 28.5954 16.4617C28.654 16.5287 28.6977 16.6075 28.7234 16.6928C28.7492 16.7781 28.7564 16.8678 28.7446 16.9561ZM17.0024 16.2483H22.9977L20 12.8225L17.0024 16.2483ZM27.411 17.4983H12.5891L13.6719 25.6233H26.3282L27.411 17.4983Z" fill="#0E9384"/>
</svg>
