<svg width="40" height="40" viewBox="0 0 40 40" fill="none" xmlns="http://www.w3.org/2000/svg">
<rect width="40" height="40" rx="20" fill="#E6F4FF"/>
<rect x="8.09961" y="8.09961" width="23.8" height="23.8" rx="2" fill="#1677FF"/>
<g clip-path="url(#clip0_9639_21317)">
<path d="M26.0743 15.2638C25.5052 15.9539 24.582 15.9539 24.0084 15.2638C23.3945 14.5244 22.5745 14.1211 21.6827 14.1211C20.7954 14.1211 19.9709 14.5244 19.357 15.2638C18.7878 15.9539 17.8602 15.9539 17.2911 15.2638C16.6772 14.5244 15.8571 14.1211 14.9654 14.1211C14.0781 14.1211 13.2536 14.5244 12.6396 15.2638C12.3529 15.6044 11.972 15.7747 11.6045 15.7747V17.482C12.4918 17.482 13.3163 17.0697 13.9302 16.3303C14.4993 15.6402 15.427 15.6402 15.9961 16.3303C16.61 17.0697 17.43 17.482 18.3218 17.482C19.2091 17.482 20.0336 17.0697 20.6475 16.3303C21.2167 15.6402 22.1443 15.6402 22.7134 16.3303C23.3273 17.0697 24.1518 17.482 25.0391 17.482C25.9264 17.482 26.7509 17.0697 27.3649 16.3303C27.6517 15.9853 28.0281 15.8105 28.4 15.8105V14.1211C27.5083 14.1211 26.6882 14.5244 26.0743 15.2638Z" fill="white"/>
<path d="M26.0743 23.6603C25.5052 24.3504 24.582 24.3504 24.0084 23.6603C23.3945 22.9209 22.5745 22.5176 21.6827 22.5176C20.7954 22.5176 19.9709 22.9209 19.357 23.6603C18.7878 24.3504 17.8602 24.3504 17.2911 23.6603C16.6772 22.9209 15.8571 22.5176 14.9654 22.5176C14.0781 22.5176 13.2536 22.9209 12.6396 23.6603C12.3529 24.0009 11.972 24.1711 11.6045 24.1711V25.8785C12.4918 25.8785 13.3163 25.4662 13.9302 24.7268C14.4993 24.0367 15.427 24.0367 15.9961 24.7268C16.61 25.4662 17.43 25.8785 18.3218 25.8785C19.2091 25.8785 20.0336 25.4662 20.6475 24.7268C21.2167 24.0367 22.1443 24.0367 22.7134 24.7268C23.3273 25.4662 24.1518 25.8785 25.0391 25.8785C25.9264 25.8785 26.7509 25.4662 27.3649 24.7268C27.6517 24.3818 28.0281 24.207 28.4 24.207V22.5176C27.5083 22.5176 26.6882 22.9209 26.0743 23.6603Z" fill="white"/>
<path d="M28.2338 18.3145C27.3465 18.3145 26.522 18.7178 25.9081 19.4572C25.339 20.1473 24.4158 20.1473 23.8422 19.4572C23.2283 18.7178 22.4083 18.3145 21.5165 18.3145C20.6292 18.3145 19.8047 18.7178 19.1908 19.4572C18.6216 20.1473 17.694 20.1473 17.1249 19.4572C16.511 18.7178 15.6865 18.3145 14.7992 18.3145C13.9119 18.3145 13.0874 18.7178 12.4734 19.4572C12.2718 19.7036 11.7789 19.9815 11.5996 19.9546V21.6709C11.6579 21.6709 11.7116 21.6709 11.7609 21.6619C12.5317 21.5723 13.2308 21.1735 13.7685 20.5282C14.3376 19.8381 15.2652 19.8381 15.8343 20.5282C16.4483 21.2676 17.2728 21.6798 18.1601 21.6798C19.0474 21.6798 19.8719 21.2676 20.4858 20.5282C21.0549 19.8381 21.9825 19.8381 22.5516 20.5282C23.1656 21.2676 23.9901 21.6798 24.8774 21.6798C25.7647 21.6798 26.5892 21.2676 27.2031 20.5282C27.4899 20.1831 27.8663 20.0083 28.2383 20.0083C28.2965 20.0083 28.3503 20.0083 28.3996 20.0263V18.3279C28.3458 18.3234 28.2965 18.3234 28.2338 18.3145Z" fill="white"/>
</g>
<defs>
<clipPath id="clip0_9639_21317">
<rect width="16.8" height="16.8" fill="white" transform="translate(11.5996 11.5996)"/>
</clipPath>
</defs>
</svg>
