<svg width="40" height="40" viewBox="0 0 40 40" fill="none" xmlns="http://www.w3.org/2000/svg">
<rect width="40" height="40" rx="20" fill="#EFF8FF"/>
<path d="M28.3845 15.7318L24.2681 11.6162C24.152 11.5001 24.0142 11.408 23.8625 11.3452C23.7108 11.2823 23.5483 11.25 23.3841 11.25C23.2199 11.25 23.0573 11.2823 22.9057 11.3452C22.754 11.408 22.6162 11.5001 22.5001 11.6162L11.6157 22.4998C11.4996 22.6159 11.4075 22.7537 11.3447 22.9054C11.2819 23.0571 11.2495 23.2196 11.2495 23.3838C11.2495 23.548 11.2819 23.7105 11.3447 23.8622C11.4075 24.0139 11.4996 24.1517 11.6157 24.2678L15.7321 28.3834C15.8482 28.4995 15.986 28.5916 16.1377 28.6544C16.2894 28.7173 16.4519 28.7496 16.6161 28.7496C16.7803 28.7496 16.9429 28.7173 17.0945 28.6544C17.2462 28.5916 17.384 28.4995 17.5001 28.3834L28.3845 17.4998C28.5006 17.3837 28.5927 17.2459 28.6555 17.0942C28.7184 16.9426 28.7507 16.78 28.7507 16.6158C28.7507 16.4516 28.7184 16.2891 28.6555 16.1374C28.5927 15.9857 28.5006 15.8479 28.3845 15.7318ZM16.6157 27.4998L12.5001 23.3834L15.0001 20.8834L17.0579 22.942C17.116 23.0001 17.1849 23.0461 17.2608 23.0776C17.3367 23.109 17.418 23.1252 17.5001 23.1252C17.5822 23.1252 17.6635 23.109 17.7394 23.0776C17.8153 23.0461 17.8842 23.0001 17.9423 22.942C18.0004 22.8839 18.0464 22.815 18.0779 22.7391C18.1093 22.6632 18.1255 22.5819 18.1255 22.4998C18.1255 22.4177 18.1093 22.3364 18.0779 22.2605C18.0464 22.1846 18.0004 22.1157 17.9423 22.0576L15.8837 19.9998L17.5001 18.3834L19.5579 20.442C19.6752 20.5593 19.8343 20.6252 20.0001 20.6252C20.166 20.6252 20.325 20.5593 20.4423 20.442C20.5596 20.3247 20.6255 20.1657 20.6255 19.9998C20.6255 19.834 20.5596 19.6749 20.4423 19.5576L18.3837 17.4998L20.0001 15.8834L22.0579 17.942C22.116 18.0001 22.1849 18.0461 22.2608 18.0776C22.3367 18.109 22.418 18.1252 22.5001 18.1252C22.5822 18.1252 22.6635 18.109 22.7394 18.0776C22.8153 18.0461 22.8842 18.0001 22.9423 17.942C23.0004 17.8839 23.0464 17.815 23.0778 17.7391C23.1093 17.6632 23.1255 17.5819 23.1255 17.4998C23.1255 17.4177 23.1093 17.3364 23.0778 17.2605C23.0464 17.1846 23.0004 17.1157 22.9423 17.0576L20.8837 14.9998L23.3837 12.4998L27.5001 16.6162L16.6157 27.4998Z" fill="#2E90FA"/>
</svg>
