<svg width="40" height="40" viewBox="0 0 40 40" fill="none" xmlns="http://www.w3.org/2000/svg">
<rect width="40" height="40" rx="20" fill="#FFF2E8"/>
<g clip-path="url(#clip0_9639_50834)">
<mask id="mask0_9639_50834" style="mask-type:luminance" maskUnits="userSpaceOnUse" x="8" y="8" width="24" height="24">
<path d="M32 8H8V32H32V8Z" fill="white"/>
</mask>
<g mask="url(#mask0_9639_50834)">
<path d="M23.6835 23.6835C27.1107 20.2564 27.1107 14.6998 23.6835 11.2726C20.2564 7.8455 14.6998 7.8455 11.2727 11.2726C7.8455 14.6998 7.8455 20.2564 11.2727 23.6835C14.6998 27.1107 20.2564 27.1107 23.6835 23.6835Z" stroke="#FA541C" stroke-width="1.5" stroke-miterlimit="10"/>
<path d="M18.2422 17.3753H19.1647C19.1647 17.3753 20.1822 16.8626 20.4069 15.8753C20.5319 15.3258 20.2597 14.4978 20.2597 14.4978C19.8084 14.3066 18.2547 14.3753 18.2547 14.3753C18.2547 14.3753 18.8449 14.9406 18.8199 15.8753C18.7944 16.8313 18.2422 17.3753 18.2422 17.3753Z" fill="#FA541C"/>
<path d="M22.0548 16.7021L22.3023 16.2096C21.9923 15.5696 21.4773 15.0471 20.8448 14.7246C20.8448 14.7246 21.1108 15.3284 20.8361 16.1959C20.5851 16.9891 19.9648 17.3746 19.9648 17.3746H20.8773C21.3598 17.3746 21.8098 17.1171 22.0548 16.7021Z" fill="#FA541C"/>
<path d="M21.6854 17.6884C21.2109 17.9304 20.7422 17.8744 20.7422 17.8744C20.8022 17.9769 20.8447 18.0919 20.8622 18.2144C20.8622 18.2144 21.5084 18.6769 22.0647 18.4644L22.6122 18.2069C22.6222 18.1019 22.6684 17.2926 22.5347 16.8594C22.5347 16.8594 22.2952 17.3774 21.6854 17.6884Z" fill="#FA541C"/>
<path d="M21.7297 19.0169C21.4977 19.0094 21.2677 18.9669 21.0505 18.8646L20.6095 19.9671C20.4892 20.2094 20.5032 20.4774 20.637 20.6876L20.9655 21.0611C21.7477 20.5211 22.295 19.7214 22.515 18.8066C22.515 18.8066 22.1915 19.0319 21.7297 19.0169Z" fill="#FA541C"/>
<path d="M20.1875 19.5925C19.8325 19.29 19.39 19.125 18.92 19.125H17.6275C17.49 19.125 17.368 19.2377 17.3775 19.375C17.4795 20.8398 18.84 20.8775 18.84 20.8775C18.2425 21.5975 18.2837 22.6437 18.95 23.3025C19.0957 23.4467 19.255 23.35 19.305 23.3025L20.025 22.5825C20.345 22.2625 20.545 21.8525 20.605 21.41C20.605 21.4097 20.605 21.4095 20.605 21.4093C20.605 21.4093 19.6385 20.7473 20.1875 19.5925Z" fill="#FA541C"/>
<path d="M13.0519 15.8754C13.0519 15.8754 14.7457 17.2459 15.9019 17.3379C15.5934 17.8164 15.6269 18.3754 15.6269 18.3754C15.6484 18.7584 16.1434 18.6949 16.1269 18.3754C16.1269 18.3754 16.1044 17.7609 16.4869 17.3754H16.6269C16.3422 17.8599 16.3769 18.3754 16.3769 18.3754C16.4017 18.7314 16.8809 18.6641 16.8769 18.3754C16.8769 18.3754 16.8057 17.8561 17.2369 17.3754H17.5919C17.5919 17.3754 18.3184 16.7734 18.3184 15.8754C18.3184 15.1041 17.6419 14.3754 17.6419 14.3754C17.6419 14.3754 16.7819 14.2221 15.6069 14.7304C14.6562 15.1416 13.0994 15.3754 13.0994 15.3754H12.7519C11.9214 15.3754 11.9094 14.1254 12.7519 14.1254H16.3769C16.6947 14.1254 16.7264 13.6254 16.3769 13.6254H12.7519C11.4314 13.5936 11.0777 15.6959 12.7519 15.8754H13.0519ZM15.3794 15.6254H15.3819C15.5199 15.6254 15.6319 15.7374 15.6319 15.8754C15.6319 16.0134 15.5199 16.1254 15.3819 16.1254C15.2439 16.1254 15.1307 16.0134 15.1307 15.8754C15.1307 15.7374 15.2414 15.6254 15.3794 15.6254Z" fill="#FA541C"/>
<path d="M24.5626 22.6598L30.709 28.1931C31.4659 28.8762 31.4961 30.0542 30.7751 30.7751C30.0541 31.4961 28.8762 31.4659 28.1931 30.709L22.6026 24.6044" fill="#FA541C"/>
</g>
</g>
<defs>
<clipPath id="clip0_9639_50834">
<rect width="24" height="24" fill="white" transform="matrix(-1 0 0 1 32 8)"/>
</clipPath>
</defs>
</svg>
