<svg width="40" height="40" viewBox="0 0 40 40" fill="none" xmlns="http://www.w3.org/2000/svg">
<rect width="40" height="40" rx="20" fill="#FFFAEB"/>
<path d="M29.3211 19.7469C29.2937 19.6852 28.632 18.2172 27.1609 16.7461C25.2008 14.7859 22.725 13.75 20 13.75C17.275 13.75 14.7992 14.7859 12.8391 16.7461C11.368 18.2172 10.7031 19.6875 10.6789 19.7469C10.6434 19.8268 10.625 19.9133 10.625 20.0008C10.625 20.0883 10.6434 20.1748 10.6789 20.2547C10.7062 20.3164 11.368 21.7836 12.8391 23.2547C14.7992 25.2141 17.275 26.25 20 26.25C22.725 26.25 25.2008 25.2141 27.1609 23.2547C28.632 21.7836 29.2937 20.3164 29.3211 20.2547C29.3566 20.1748 29.375 20.0883 29.375 20.0008C29.375 19.9133 29.3566 19.8268 29.3211 19.7469ZM20 25C17.5953 25 15.4945 24.1258 13.7555 22.4023C13.0419 21.6927 12.4348 20.8836 11.9531 20C12.4347 19.1164 13.0418 18.3072 13.7555 17.5977C15.4945 15.8742 17.5953 15 20 15C22.4047 15 24.5055 15.8742 26.2445 17.5977C26.9595 18.307 27.5679 19.1162 28.0508 20C27.4875 21.0516 25.0336 25 20 25ZM20 16.25C19.2583 16.25 18.5333 16.4699 17.9166 16.882C17.2999 17.294 16.8193 17.8797 16.5354 18.5649C16.2516 19.2502 16.1774 20.0042 16.322 20.7316C16.4667 21.459 16.8239 22.1272 17.3483 22.6517C17.8728 23.1761 18.541 23.5333 19.2684 23.6779C19.9958 23.8226 20.7498 23.7484 21.4351 23.4645C22.1203 23.1807 22.7059 22.7001 23.118 22.0834C23.5301 21.4667 23.75 20.7417 23.75 20C23.749 19.0058 23.3535 18.0525 22.6505 17.3495C21.9475 16.6465 20.9942 16.251 20 16.25ZM20 22.5C19.5055 22.5 19.0222 22.3534 18.6111 22.0787C18.1999 21.804 17.8795 21.4135 17.6903 20.9567C17.5011 20.4999 17.4516 19.9972 17.548 19.5123C17.6445 19.0273 17.8826 18.5819 18.2322 18.2322C18.5819 17.8826 19.0273 17.6445 19.5123 17.548C19.9972 17.4516 20.4999 17.5011 20.9567 17.6903C21.4135 17.8795 21.804 18.2 22.0787 18.6111C22.3534 19.0222 22.5 19.5055 22.5 20C22.5 20.663 22.2366 21.2989 21.7678 21.7678C21.2989 22.2366 20.663 22.5 20 22.5Z" fill="#F79009"/>
</svg>
