<svg width="40" height="40" viewBox="0 0 40 40" fill="none" xmlns="http://www.w3.org/2000/svg">
<rect width="40" height="40" rx="20" fill="#FEF2F2"/>
<path d="M26.6922 24.1925L24.1922 26.6925C24.0749 26.8098 23.9159 26.8757 23.75 26.8757C23.5842 26.8757 23.4251 26.8098 23.3078 26.6925C23.1905 26.5753 23.1247 26.4162 23.1247 26.2503C23.1247 26.0845 23.1905 25.9254 23.3078 25.8082L24.7414 24.3753H13.75C13.5842 24.3753 13.4253 24.3095 13.3081 24.1923C13.1909 24.0751 13.125 23.9161 13.125 23.7503C13.125 23.5846 13.1909 23.4256 13.3081 23.3084C13.4253 23.1912 13.5842 23.1253 13.75 23.1253H24.7414L23.3078 21.6925C23.1905 21.5753 23.1247 21.4162 23.1247 21.2503C23.1247 21.0845 23.1905 20.9254 23.3078 20.8082C23.4251 20.6909 23.5842 20.625 23.75 20.625C23.9159 20.625 24.0749 20.6909 24.1922 20.8082L26.6922 23.3082C26.7503 23.3662 26.7964 23.4351 26.8279 23.511C26.8593 23.5869 26.8755 23.6682 26.8755 23.7503C26.8755 23.8325 26.8593 23.9138 26.8279 23.9897C26.7964 24.0656 26.7503 24.1345 26.6922 24.1925ZM15.8078 19.1925C15.9251 19.3098 16.0842 19.3757 16.25 19.3757C16.4159 19.3757 16.5749 19.3098 16.6922 19.1925C16.8095 19.0753 16.8754 18.9162 16.8754 18.7503C16.8754 18.5845 16.8095 18.4254 16.6922 18.3082L15.2586 16.8753H26.25C26.4158 16.8753 26.5747 16.8095 26.6919 16.6923C26.8092 16.5751 26.875 16.4161 26.875 16.2503C26.875 16.0846 26.8092 15.9256 26.6919 15.8084C26.5747 15.6912 26.4158 15.6253 26.25 15.6253H15.2586L16.6922 14.1925C16.8095 14.0753 16.8754 13.9162 16.8754 13.7503C16.8754 13.5845 16.8095 13.4254 16.6922 13.3082C16.5749 13.1909 16.4159 13.125 16.25 13.125C16.0842 13.125 15.9251 13.1909 15.8078 13.3082L13.3078 15.8082C13.2497 15.8662 13.2036 15.9351 13.1722 16.011C13.1407 16.0869 13.1245 16.1682 13.1245 16.2503C13.1245 16.3325 13.1407 16.4138 13.1722 16.4897C13.2036 16.5656 13.2497 16.6345 13.3078 16.6925L15.8078 19.1925Z" fill="#EF4444"/>
</svg>
