<svg width="40" height="40" viewBox="0 0 40 40" fill="none" xmlns="http://www.w3.org/2000/svg">
<rect width="40" height="40" rx="20" fill="#FFF0F6"/>
<g clip-path="url(#clip0_9639_51027)">
<path d="M29.7909 17.3518L24.7908 12.3517C24.5118 12.0728 24.0596 12.0729 23.7806 12.3519C23.6468 12.4858 23.5715 12.6674 23.5715 12.8568V14.9996H18.5714C18.1769 14.9996 17.8571 15.3194 17.8571 15.714C17.8571 16.1085 18.1769 16.4283 18.5714 16.4283H24.2858C24.6803 16.4283 25.0001 16.1085 25.0001 15.714V14.581L28.2759 17.8568L25.0001 21.1326V19.9997C25.0001 19.6052 24.6803 19.2854 24.2858 19.2854H16.4285V17.1425C16.4284 16.748 16.1085 16.4283 15.7141 16.4284C15.5247 16.4284 15.3431 16.5036 15.2092 16.6375L10.2092 21.6376C9.93028 21.9165 9.93028 22.3687 10.2092 22.6476L15.2092 27.6477C15.3432 27.7817 15.5248 27.857 15.7142 27.857C15.8081 27.8573 15.9012 27.8388 15.9878 27.8027C16.2547 27.692 16.4286 27.4316 16.4285 27.1427V24.9998H21.4286C21.8231 24.9998 22.1429 24.68 22.1429 24.2855C22.1429 23.891 21.8231 23.5712 21.4286 23.5712H15.7142C15.3197 23.5712 14.9999 23.891 14.9999 24.2855V25.4184L11.7242 22.1426L14.9999 18.8668V19.9997C14.9999 20.3942 15.3197 20.714 15.7142 20.714H23.5715V22.8569C23.5716 23.2514 23.8915 23.5711 24.2859 23.571C24.4753 23.571 24.6569 23.4958 24.7908 23.3619L29.7909 18.3618C30.0697 18.0829 30.0697 17.6307 29.7909 17.3518Z" fill="#EB2F96"/>
</g>
<defs>
<clipPath id="clip0_9639_51027">
<rect width="20" height="20" fill="white" transform="translate(10 10)"/>
</clipPath>
</defs>
</svg>
