<svg width="40" height="40" viewBox="0 0 40 40" fill="none" xmlns="http://www.w3.org/2000/svg">
<rect width="40" height="40" rx="20" fill="#FFFAEB"/>
<path d="M28.4999 24.6946L21.6678 12.8297C21.4971 12.5391 21.2534 12.298 20.9608 12.1306C20.6682 11.9631 20.337 11.875 19.9999 11.875C19.6628 11.875 19.3315 11.9631 19.0389 12.1306C18.7463 12.298 18.5026 12.5391 18.3319 12.8297L11.4999 24.6946C11.3356 24.9757 11.249 25.2955 11.249 25.6211C11.249 25.9468 11.3356 26.2665 11.4999 26.5477C11.6684 26.8401 11.9117 27.0825 12.2048 27.2498C12.4979 27.4172 12.8303 27.5036 13.1678 27.5001H26.8319C27.1691 27.5033 27.5012 27.4168 27.794 27.2494C28.0868 27.0821 28.3299 26.8399 28.4983 26.5477C28.6628 26.2667 28.7496 25.947 28.7499 25.6214C28.7502 25.2957 28.6639 24.9759 28.4999 24.6946ZM27.4163 25.9219C27.3567 26.0235 27.2712 26.1075 27.1685 26.1651C27.0658 26.2228 26.9496 26.2521 26.8319 26.2501H13.1678C13.0501 26.2521 12.9339 26.2228 12.8312 26.1651C12.7285 26.1075 12.643 26.0235 12.5835 25.9219C12.5295 25.8306 12.501 25.7264 12.501 25.6204C12.501 25.5143 12.5295 25.4101 12.5835 25.3188L19.4155 13.454C19.4762 13.3528 19.5621 13.2692 19.6648 13.2111C19.7675 13.153 19.8835 13.1225 20.0014 13.1225C20.1194 13.1225 20.2354 13.153 20.338 13.2111C20.4407 13.2692 20.5266 13.3528 20.5874 13.454L27.4194 25.3188C27.4729 25.4104 27.5008 25.5147 27.5002 25.6208C27.4997 25.7269 27.4707 25.8309 27.4163 25.9219ZM19.3749 21.2501V18.1251C19.3749 17.9593 19.4407 17.8003 19.5579 17.6831C19.6751 17.5659 19.8341 17.5001 19.9999 17.5001C20.1656 17.5001 20.3246 17.5659 20.4418 17.6831C20.559 17.8003 20.6249 17.9593 20.6249 18.1251V21.2501C20.6249 21.4158 20.559 21.5748 20.4418 21.692C20.3246 21.8092 20.1656 21.8751 19.9999 21.8751C19.8341 21.8751 19.6751 21.8092 19.5579 21.692C19.4407 21.5748 19.3749 21.4158 19.3749 21.2501ZM20.9374 24.0626C20.9374 24.248 20.8824 24.4292 20.7794 24.5834C20.6763 24.7376 20.5299 24.8577 20.3586 24.9287C20.1873 24.9996 19.9988 25.0182 19.817 24.982C19.6351 24.9459 19.4681 24.8566 19.3369 24.7255C19.2058 24.5944 19.1165 24.4273 19.0804 24.2454C19.0442 24.0636 19.0628 23.8751 19.1337 23.7038C19.2047 23.5325 19.3248 23.3861 19.479 23.283C19.6332 23.18 19.8144 23.1251 19.9999 23.1251C20.2485 23.1251 20.487 23.2238 20.6628 23.3996C20.8386 23.5755 20.9374 23.8139 20.9374 24.0626Z" fill="#F79009"/>
</svg>
