<svg width="40" height="40" viewBox="0 0 40 40" fill="none" xmlns="http://www.w3.org/2000/svg">
<rect width="40" height="40" rx="20" fill="#EFF8FF"/>
<path d="M23.5938 13.7303C22.6287 12.6158 21.5426 11.6122 20.3555 10.7381C20.2504 10.6645 20.1252 10.625 19.9969 10.625C19.8686 10.625 19.7434 10.6645 19.6383 10.7381C18.4533 11.6126 17.3693 12.6161 16.4062 13.7303C14.2586 16.1967 13.125 18.7967 13.125 21.2498C13.125 23.0732 13.8493 24.8219 15.1386 26.1112C16.428 27.4005 18.1766 28.1248 20 28.1248C21.8234 28.1248 23.572 27.4005 24.8614 26.1112C26.1507 24.8219 26.875 23.0732 26.875 21.2498C26.875 18.7967 25.7414 16.1967 23.5938 13.7303ZM20 26.8748C18.5087 26.8732 17.0789 26.28 16.0244 25.2255C14.9698 24.1709 14.3767 22.7412 14.375 21.2498C14.375 16.7787 18.7086 13.0467 20 12.0311C21.2914 13.0467 25.625 16.7772 25.625 21.2498C25.6233 22.7412 25.0302 24.1709 23.9756 25.2255C22.9211 26.28 21.4913 26.8732 20 26.8748ZM24.3664 21.9795C24.2043 22.8848 23.7688 23.7186 23.1185 24.3688C22.4681 25.019 21.6342 25.4544 20.7289 25.6162C20.6945 25.6217 20.6598 25.6246 20.625 25.6248C20.4682 25.6248 20.3172 25.5658 20.2018 25.4596C20.0865 25.3535 20.0153 25.2078 20.0023 25.0516C19.9893 24.8953 20.0355 24.7399 20.1318 24.6162C20.228 24.4924 20.3673 24.4093 20.5219 24.3834C21.8164 24.1655 22.9148 23.067 23.1344 21.7701C23.1621 21.6067 23.2537 21.4609 23.3889 21.3649C23.5242 21.269 23.692 21.2307 23.8555 21.2584C24.019 21.2862 24.1647 21.3778 24.2607 21.513C24.3566 21.6482 24.395 21.816 24.3672 21.9795H24.3664Z" fill="#2E90FA"/>
</svg>
