<svg width="40" height="40" viewBox="0 0 40 40" fill="none" xmlns="http://www.w3.org/2000/svg">
<rect width="40" height="40" rx="20" fill="#F0FDF9"/>
<path d="M27.5 13.748V17.498C27.5 17.6638 27.4342 17.8228 27.3169 17.94C27.1997 18.0572 27.0408 18.123 26.875 18.123H23.125C22.9592 18.123 22.8003 18.0572 22.6831 17.94C22.5658 17.8228 22.5 17.6638 22.5 17.498C22.5 17.3323 22.5658 17.1733 22.6831 17.0561C22.8003 16.9389 22.9592 16.873 23.125 16.873H25.3664L24.2234 15.7301C23.0619 14.5632 21.4847 13.9049 19.8383 13.8996H19.8031C18.1704 13.8958 16.6019 14.5348 15.4367 15.6785C15.3174 15.7899 15.1591 15.8502 14.9959 15.8465C14.8327 15.8427 14.6774 15.7753 14.5632 15.6585C14.4491 15.5417 14.3852 15.3849 14.3852 15.2216C14.3852 15.0583 14.4491 14.9015 14.5633 14.7848C15.9754 13.4046 17.8749 12.637 19.8494 12.6486C21.8239 12.6601 23.7143 13.4499 25.1102 14.8465L26.25 15.9894V13.748C26.25 13.5823 26.3158 13.4233 26.4331 13.3061C26.5503 13.1889 26.7092 13.123 26.875 13.123C27.0408 13.123 27.1997 13.1889 27.3169 13.3061C27.4342 13.4233 27.5 13.5823 27.5 13.748ZM24.5633 24.3176C23.3866 25.467 21.8042 26.1062 20.1593 26.0965C18.5144 26.0869 16.9397 25.4291 15.7766 24.266L14.6336 23.123H16.875C17.0408 23.123 17.1997 23.0572 17.3169 22.94C17.4342 22.8228 17.5 22.6638 17.5 22.498C17.5 22.3323 17.4342 22.1733 17.3169 22.0561C17.1997 21.9389 17.0408 21.873 16.875 21.873H13.125C12.9592 21.873 12.8003 21.9389 12.6831 22.0561C12.5658 22.1733 12.5 22.3323 12.5 22.498V26.248C12.5 26.4138 12.5658 26.5728 12.6831 26.69C12.8003 26.8072 12.9592 26.873 13.125 26.873C13.2908 26.873 13.4497 26.8072 13.5669 26.69C13.6842 26.5728 13.75 26.4138 13.75 26.248V24.0066L14.893 25.1496C16.2869 26.5505 18.18 27.3407 20.1562 27.3465H20.1977C22.1571 27.3515 24.0396 26.5844 25.4375 25.2113C25.5516 25.0946 25.6155 24.9378 25.6156 24.7745C25.6156 24.6112 25.5517 24.4544 25.4375 24.3376C25.3234 24.2208 25.1681 24.1534 25.0049 24.1496C24.8416 24.1459 24.6834 24.2062 24.5641 24.3176H24.5633Z" fill="#0E9384"/>
</svg>
