<svg width="40" height="40" viewBox="0 0 40 40" fill="none" xmlns="http://www.w3.org/2000/svg">
<rect width="40" height="40" rx="20" fill="#E6FFFB"/>
<path d="M15.8333 23.5827C17.6667 23.5827 19.1667 22.0577 19.1667 20.2077C19.1667 19.241 18.6917 18.3243 17.7417 17.5493C16.7917 16.7743 16.075 15.6243 15.8333 14.416C15.5917 15.6243 14.8833 16.7827 13.925 17.5493C12.9667 18.316 12.5 19.2493 12.5 20.2077C12.5 22.0577 14 23.5827 15.8333 23.5827Z" fill="#13C2C2"/>
<path d="M20.4659 15.5009C21.039 14.5852 21.4453 13.5751 21.6659 12.5176C22.0826 14.6009 23.3326 16.6009 24.9992 17.9342C26.6659 19.2676 27.4992 20.8509 27.4992 22.5176C27.504 23.6695 27.1666 24.7969 26.5299 25.7568C25.8932 26.7168 24.9857 27.466 23.9227 27.9097C22.8596 28.3533 21.6887 28.4713 20.5585 28.2486C19.4283 28.026 18.3897 27.4729 17.5742 26.6592" stroke="#13C2C2" stroke-width="1.5" stroke-linecap="round" stroke-linejoin="round"/>
</svg>
