<svg width="40" height="40" viewBox="0 0 40 40" fill="none" xmlns="http://www.w3.org/2000/svg">
<rect width="40" height="40" rx="20" fill="#F0F5FF"/>
<g clip-path="url(#clip0_9639_32968)">
<path d="M20.4219 14.2043L26.1242 19.9067C26.9983 20.7808 28.4135 20.7808 29.3292 19.9067C30.2449 19.0326 30.2033 17.6174 29.3292 16.7017L23.6269 11.041L20.4219 14.2043Z" fill="#2F54EB"/>
<path d="M28.8296 17.2009L25.7079 14.0792L20.9629 13.8711L26.5403 19.4485C27.1647 20.0729 28.1636 20.0729 28.788 19.4485C29.454 18.8242 29.454 17.8253 28.8296 17.2009Z" fill="#ADC6FF"/>
<path d="M23.6687 10.2088C23.4189 9.95905 23.0027 9.95905 22.7114 10.2088L19.5896 13.3305C19.3399 13.5802 19.3399 13.9965 19.5896 14.2878C19.8394 14.5376 20.2556 14.5376 20.547 14.2878L23.7103 11.1245C23.96 10.8748 23.96 10.4585 23.6687 10.2088Z" fill="#2F54EB"/>
<path d="M23.127 29.9794H11.1812C10.8898 29.9794 10.6817 29.7296 10.6817 29.4799V20.5726L10.0574 19.4904C9.9325 19.2407 10.0157 18.9077 10.2655 18.7828C10.5152 18.6163 10.8066 18.7412 10.9315 18.9909L11.639 20.198C11.6807 20.2812 11.7223 20.3645 11.7223 20.4477V28.9388H22.6691V20.4477C22.6691 20.3645 22.7107 20.2812 22.7523 20.198L23.4183 18.9909C23.5432 18.7412 23.8761 18.658 24.1259 18.7828C24.3756 18.9077 24.4588 19.2407 24.334 19.4904L23.7096 20.5726V29.4383C23.668 29.7296 23.4183 29.9794 23.127 29.9794Z" fill="#2F54EB"/>
<path d="M23 25H11V29H23V25Z" fill="#2F54EB"/>
<path d="M20.9627 19.2404C20.9627 18.5328 19.6307 16.2852 19.6307 16.2852C19.6307 16.2852 18.2988 18.4912 18.2988 19.2404C18.2988 19.9896 18.8815 20.5723 19.6307 20.5723C20.38 20.5723 20.9627 19.9896 20.9627 19.2404Z" fill="#ADC6FF"/>
</g>
<defs>
<clipPath id="clip0_9639_32968">
<rect width="20" height="20" fill="white" transform="translate(10 10)"/>
</clipPath>
</defs>
</svg>
