<svg width="40" height="40" viewBox="0 0 40 40" fill="none" xmlns="http://www.w3.org/2000/svg">
<rect width="40" height="40" rx="20" fill="#E6F4FF"/>
<path d="M27.681 18.4505C27.2539 18.4505 26.9075 18.7933 26.9004 19.2188H19.2435V16.9271C19.2435 16.4956 18.8938 16.1458 18.4623 16.1458H17.7071V11.5618C18.1325 11.5548 18.4753 11.2083 18.4753 10.7812C18.4753 10.3498 18.1255 10 17.694 10H13.0846C12.6532 10 12.3034 10.3498 12.3034 10.7812C12.3034 11.2084 12.6462 11.5548 13.0716 11.5618V16.1458H12.3164C11.8849 16.1458 11.5352 16.4956 11.5352 16.9271V26.1458C11.5352 28.271 13.2641 30 15.3893 30C17.5145 30 19.2435 28.271 19.2435 26.1458V23.8542H26.9004C26.9075 24.2796 27.2539 24.6224 27.681 24.6224C28.1125 24.6224 28.4623 24.2726 28.4623 23.8411V19.2318C28.4623 18.8003 28.1125 18.4505 27.681 18.4505ZM17.681 17.7083V23.8281H13.0977V17.7083H17.681ZM14.6341 11.5625H16.1446V16.1458H14.6341V11.5625ZM15.3893 28.4375C14.1257 28.4375 13.0977 27.4095 13.0977 26.1458V25.3906H17.681V26.1458C17.681 27.4095 16.6529 28.4375 15.3893 28.4375ZM19.2435 20.7812H26.8998V22.2917H19.2435V20.7812Z" fill="#1677FF"/>
<rect x="14" y="11" width="3" height="6" fill="#0076F7"/>
</svg>
