<svg width="40" height="40" viewBox="0 0 40 40" fill="none" xmlns="http://www.w3.org/2000/svg">
<rect width="40" height="40" rx="20" fill="#EFF8FF"/>
<path d="M28.125 18.125H26.25V14.375H28.125C28.2908 14.375 28.4497 14.3092 28.5669 14.1919C28.6842 14.0747 28.75 13.9158 28.75 13.75C28.75 13.5842 28.6842 13.4253 28.5669 13.3081C28.4497 13.1908 28.2908 13.125 28.125 13.125H26.0805C25.9709 12.9353 25.8135 12.7777 25.6238 12.668C25.4342 12.5583 25.2191 12.5004 25 12.5H23.75C23.5309 12.5004 23.3158 12.5583 23.1262 12.668C22.9365 12.7777 22.7791 12.9353 22.6695 13.125H21.25C19.0958 13.1273 17.0305 13.984 15.5073 15.5073C13.984 17.0305 13.1273 19.0958 13.125 21.25V22.6688C12.9352 22.7784 12.7775 22.9359 12.6678 23.1257C12.5581 23.3155 12.5002 23.5308 12.5 23.75V25C12.5002 25.2192 12.5581 25.4345 12.6678 25.6243C12.7775 25.8141 12.9352 25.9716 13.125 26.0812V28.125C13.125 28.2908 13.1908 28.4497 13.3081 28.5669C13.4253 28.6842 13.5842 28.75 13.75 28.75C13.9158 28.75 14.0747 28.6842 14.1919 28.5669C14.3092 28.4497 14.375 28.2908 14.375 28.125V26.25H18.125V28.125C18.125 28.2908 18.1908 28.4497 18.3081 28.5669C18.4253 28.6842 18.5842 28.75 18.75 28.75C18.9158 28.75 19.0747 28.6842 19.1919 28.5669C19.3092 28.4497 19.375 28.2908 19.375 28.125V26.0812C19.5648 25.9716 19.7225 25.8141 19.8322 25.6243C19.9419 25.4345 19.9998 25.2192 20 25V23.75C19.9998 23.5308 19.9419 23.3155 19.8322 23.1257C19.7225 22.9359 19.5648 22.7784 19.375 22.6688V21.25C19.375 20.7527 19.5725 20.2758 19.9242 19.9242C20.2758 19.5725 20.7527 19.375 21.25 19.375H22.6695C22.7791 19.5647 22.9365 19.7223 23.1262 19.832C23.3158 19.9417 23.5309 19.9996 23.75 20H25C25.2191 19.9996 25.4342 19.9417 25.6238 19.832C25.8135 19.7223 25.9709 19.5647 26.0805 19.375H28.125C28.2908 19.375 28.4497 19.3092 28.5669 19.1919C28.6842 19.0747 28.75 18.9158 28.75 18.75C28.75 18.5842 28.6842 18.4253 28.5669 18.3081C28.4497 18.1908 28.2908 18.125 28.125 18.125ZM18.75 23.75V25H13.75V23.75H18.75ZM18.125 21.25V22.5H14.375V21.25C14.3771 19.4273 15.1021 17.6798 16.3909 16.3909C17.6798 15.1021 19.4273 14.3771 21.25 14.375H22.5V18.125H21.25C20.4212 18.125 19.6263 18.4542 19.0403 19.0403C18.4542 19.6263 18.125 20.4212 18.125 21.25ZM23.75 18.75V13.75H25V18.7344C25 18.7398 25 18.7445 25 18.75H23.75Z" fill="#2E90FA"/>
</svg>
