<svg width="64" height="64" viewBox="0 0 64 64" fill="none" xmlns="http://www.w3.org/2000/svg">
<path d="M58.8851 37.5523C57.27 42.8247 54.0331 47.4535 49.6351 50.7798C45.7738 53.686 41.1789 55.4584 36.3662 55.8982C31.5535 56.338 26.7134 55.4278 22.3893 53.2696C18.0652 51.1114 14.4282 47.7908 11.8865 43.6804C9.34475 39.57 7.99895 34.8326 8.00012 29.9998C7.98275 24.3589 9.81652 18.8682 13.2201 14.3698C16.5465 9.9718 21.1752 6.73492 26.4476 5.11981C26.7951 5.01281 27.1652 5.00257 27.5181 5.09018C27.871 5.17779 28.1933 5.35994 28.4504 5.61704C28.7075 5.87414 28.8896 6.19646 28.9773 6.54934C29.0649 6.90223 29.0546 7.27232 28.9476 7.61981C27.7947 11.4334 27.6981 15.4883 28.6679 19.3525C29.6378 23.2167 31.6379 26.7453 34.455 29.5624C37.2721 32.3796 40.8008 34.3796 44.665 35.3495C48.5291 36.3194 52.584 36.2227 56.3976 35.0698C56.7451 34.9628 57.1152 34.9526 57.4681 35.0402C57.821 35.1278 58.1433 35.3099 58.4004 35.567C58.6575 35.8241 58.8396 36.1465 58.9273 36.4993C59.0149 36.8522 59.0046 37.2223 58.8976 37.5698L58.8851 37.5523Z" fill="currentColor"/>
</svg>
