<svg width="28" height="28" viewBox="0 0 28 28" fill="none" xmlns="http://www.w3.org/2000/svg">
<path d="M18.8134 7.87479C18.3606 7.87454 17.9085 7.91112 17.4616 7.98417C17.3026 6.34175 16.6313 4.79088 15.5425 3.55097C14.4537 2.31106 13.0026 1.44487 11.3945 1.07495C11.2501 1.04177 11.0996 1.04581 10.9572 1.0867C10.8148 1.12758 10.6851 1.20397 10.5802 1.30869C10.4754 1.41342 10.3989 1.54305 10.3578 1.68544C10.3168 1.82783 10.3126 1.97831 10.3456 2.12276C10.5517 3.02058 10.5528 3.95331 10.3489 4.85162C10.1449 5.74993 9.74118 6.59073 9.1676 7.31154C8.59403 8.03234 7.86538 8.61463 7.03582 9.01511C6.20626 9.4156 5.29712 9.62399 4.37595 9.62479C3.91256 9.62486 3.45064 9.57276 2.99892 9.46948C2.85439 9.43623 2.70378 9.44026 2.56123 9.48119C2.41869 9.52213 2.28888 9.59862 2.18402 9.70349C2.07915 9.80836 2.00266 9.93816 1.96172 10.0807C1.92079 10.2232 1.91676 10.3739 1.95001 10.5184C2.18508 11.532 2.61809 12.4892 3.22417 13.335C3.83025 14.1807 4.59746 14.8984 5.48173 15.4468C4.85983 16.2941 4.48484 17.2971 4.3984 18.3445C4.31195 19.3919 4.51743 20.4428 4.99202 21.3806C5.46661 22.3183 6.19175 23.1062 7.08696 23.6568C7.98218 24.2074 9.01246 24.4992 10.0634 24.4998H18.8134C21.0181 24.4998 23.1324 23.624 24.6913 22.0651C26.2502 20.5062 27.1259 18.3919 27.1259 16.1873C27.1259 13.9827 26.2502 11.8684 24.6913 10.3095C23.1324 8.75057 21.0181 7.87479 18.8134 7.87479ZM4.08829 11.3748C4.18345 11.3748 4.2797 11.3748 4.37595 11.3748C6.46382 11.3725 8.46551 10.542 9.94186 9.0657C11.4182 7.58935 12.2486 5.58766 12.2509 3.49979C12.2509 3.40245 12.2509 3.30511 12.2509 3.20776C13.2593 3.6798 14.1188 4.4194 14.7359 5.34605C15.353 6.2727 15.7041 7.35088 15.7509 8.46323C14.6826 8.88832 13.7135 9.52931 12.9042 10.3461C12.095 11.1629 11.463 12.1379 11.0478 13.2101C10.7228 13.1534 10.3934 13.1248 10.0634 13.1248C8.88722 13.1246 7.74021 13.4912 6.7822 14.1737C5.60537 13.5563 4.66022 12.5744 4.08829 11.3748Z" fill="currentColor"/>
</svg>
