<svg width="24" height="24" viewBox="0 0 24 24" fill="none" xmlns="http://www.w3.org/2000/svg">
  <!-- Background cloud (smaller, behind) -->
  <path d="M10 10a3 3 0 0 1 5.5 1.5A2.5 2.5 0 0 1 17 15H9.5A3 3 0 0 1 10 10z" fill="#90A4AE" opacity="0.5"/>
  <!-- Main cloud body -->
  <path d="M6 19a4.5 4.5 0 0 1-.42-8.97A6 6 0 0 1 17.5 12 4 4 0 0 1 20 19.5H6z" fill="#B0BEC5"/>
  <!-- Cloud highlight -->
  <ellipse cx="11" cy="12.5" rx="3.5" ry="2" fill="#CFD8DC" opacity="0.6"/>
  <!-- Cloud shadow -->
  <path d="M6 19H20a4 4 0 0 0 0.5-2" fill="#90A4AE" opacity="0.25"/>
</svg>
