<svg width="64" height="64" viewBox="0 0 64 64" fill="none" xmlns="http://www.w3.org/2000/svg">
<path d="M39.6652 49.1096L31.6652 61.1096C31.5195 61.3282 31.3321 61.516 31.1137 61.6622C30.8954 61.8085 30.6504 61.9102 30.3927 61.9618C29.8723 62.0659 29.3318 61.9589 28.8902 61.6646C28.4486 61.3702 28.1421 60.9124 28.038 60.392C27.9339 59.8716 28.0408 59.3311 28.3352 58.8896L36.3352 46.8896C36.6296 46.448 37.0874 46.1414 37.6078 46.0373C38.1282 45.9332 38.6686 46.0402 39.1102 46.3346C39.5518 46.6289 39.8584 47.0867 39.9624 47.6071C40.0665 48.1275 39.9596 48.668 39.6652 49.1096ZM57.9677 21.8871C57.6839 17.0324 55.5494 12.4714 52.0039 9.14321C48.4583 5.81499 43.7716 3.97293 38.9087 3.99631C34.0459 4.0197 29.3771 5.90676 25.8637 9.26893C22.3503 12.6311 20.2599 17.2124 20.0227 22.0696C19.9936 22.5879 19.7683 23.0757 19.3928 23.4341C19.0172 23.7925 18.5193 23.9947 18.0002 23.9996H17.8502C17.3223 23.9524 16.8335 23.7011 16.488 23.2991C16.1425 22.8971 15.9675 22.3761 16.0002 21.8471C16.0697 20.4565 16.2647 19.075 16.5827 17.7196C16.6238 17.5494 16.6194 17.3714 16.5701 17.2034C16.5207 17.0354 16.4282 16.8833 16.3016 16.7623C16.1751 16.6414 16.019 16.5557 15.8489 16.514C15.6789 16.4723 15.5009 16.4759 15.3327 16.5246C12.6254 17.3244 10.2514 18.9823 8.56817 21.2486C6.88495 23.5148 5.98371 26.2666 6.00022 29.0896C6.05022 36.2671 12.0302 41.9996 19.2102 41.9996H28.2627L22.3352 50.8896C22.0408 51.3311 21.9339 51.8716 22.038 52.392C22.1421 52.9124 22.4486 53.3702 22.8902 53.6646C23.3318 53.9589 23.8723 54.0659 24.3927 53.9618C24.9131 53.8577 25.3708 53.5511 25.6652 53.1096L33.0702 41.9996H39.0002C41.5882 41.9967 44.1484 41.4657 46.524 40.4391C48.8997 39.4125 51.0408 37.9119 52.8164 36.0291C54.592 34.1463 55.9647 31.921 56.8504 29.4893C57.7362 27.0576 58.1164 24.4708 57.9677 21.8871Z" fill="currentColor"/>
</svg>
