<svg width="28" height="28" viewBox="0 0 28 28" fill="none" xmlns="http://www.w3.org/2000/svg">
<path d="M17.3535 21.4852L13.8535 26.7352C13.7898 26.8308 13.7078 26.913 13.6122 26.977C13.5167 27.041 13.4095 27.0855 13.2968 27.108C13.0691 27.1536 12.8327 27.1068 12.6395 26.978C12.4463 26.8492 12.3122 26.6489 12.2666 26.4213C12.2211 26.1936 12.2679 25.9571 12.3967 25.7639L15.8967 20.5139C16.0255 20.3207 16.2257 20.1866 16.4534 20.1411C16.6811 20.0956 16.9175 20.1423 17.1107 20.2711C17.3039 20.3999 17.438 20.6002 17.4836 20.8279C17.5291 21.0555 17.4823 21.292 17.3535 21.4852ZM25.3609 9.57534C25.2367 7.45144 24.3029 5.45601 22.7517 3.99991C21.2005 2.54381 19.1501 1.73791 17.0226 1.74814C14.8951 1.75838 12.8525 2.58397 11.3154 4.05491C9.77828 5.52586 8.86369 7.53019 8.75994 9.65519C8.74718 9.88195 8.64865 10.0954 8.48433 10.2522C8.32002 10.409 8.10221 10.4974 7.8751 10.4996H7.80947C7.57849 10.4789 7.36467 10.369 7.21351 10.1931C7.06236 10.0172 6.98579 9.78931 7.0001 9.55784C7.0305 8.94947 7.11579 8.34509 7.25494 7.75206C7.27289 7.6776 7.27098 7.59973 7.2494 7.52624C7.22782 7.45275 7.18732 7.38621 7.13195 7.33328C7.07659 7.28035 7.0083 7.24289 6.93391 7.22463C6.85952 7.20637 6.78165 7.20797 6.70807 7.22925C5.52363 7.57918 4.48499 8.30452 3.74857 9.296C3.01216 10.2875 2.61787 11.4914 2.6251 12.7264C2.64697 15.8666 5.26322 18.3746 8.40447 18.3746H12.3649L9.77166 22.2639C9.64286 22.4571 9.59609 22.6936 9.64163 22.9213C9.68716 23.1489 9.82128 23.3492 10.0145 23.478C10.2077 23.6068 10.4441 23.6536 10.6718 23.608C10.8995 23.5625 11.0997 23.4284 11.2285 23.2352L14.4682 18.3746H17.0626C18.1948 18.3733 19.3149 18.141 20.3543 17.6919C21.3936 17.2427 22.3304 16.5862 23.1072 15.7625C23.884 14.9388 24.4845 13.9652 24.8721 12.9013C25.2596 11.8375 25.4259 10.7057 25.3609 9.57534Z" fill="currentColor"/>
</svg>
