<svg width="24" height="24" viewBox="0 0 24 24" fill="none" xmlns="http://www.w3.org/2000/svg">
  <!-- Sun behind cloud (partially visible) -->
  <circle cx="8" cy="7" r="3.5" fill="#FFB300"/>
  <circle cx="7.5" cy="6" r="1.5" fill="#FFD54F" opacity="0.5"/>
  <!-- Sun rays (visible portions) -->
  <line x1="8" y1="1.5" x2="8" y2="3" stroke="#FFB300" stroke-width="1.5" stroke-linecap="round"/>
  <line x1="3" y1="7" x2="4.5" y2="7" stroke="#FFB300" stroke-width="1.5" stroke-linecap="round"/>
  <line x1="4.46" y1="3.46" x2="5.52" y2="4.52" stroke="#FFB300" stroke-width="1.5" stroke-linecap="round"/>
  <line x1="11.54" y1="3.46" x2="10.48" y2="4.52" stroke="#FFB300" stroke-width="1.5" stroke-linecap="round"/>
  <!-- Cloud body (front, larger) -->
  <path d="M7 20a4.5 4.5 0 0 1-.42-8.97A6 6 0 0 1 18.5 13.5 4 4 0 0 1 20 21H7z" fill="#B0BEC5"/>
  <!-- Cloud highlight -->
  <path d="M9 13.5a3.5 3.5 0 0 1 6.5 1.5" fill="#CFD8DC" opacity="0.7"/>
  <!-- Cloud shadow -->
  <path d="M7 20H20a4 4 0 0 0 0-6.5" fill="#90A4AE" opacity="0.3"/>
</svg>
