<svg width="24" height="24" viewBox="0 0 24 24" fill="none" xmlns="http://www.w3.org/2000/svg">
<path d="M15.3743 6.74922C14.7326 6.74883 14.0937 6.83492 13.475 7.00515C13.2307 6.60663 12.934 6.24274 12.5928 5.92328L13.4843 4.65109C13.5408 4.57039 13.5809 4.47935 13.6022 4.38316C13.6236 4.28698 13.6257 4.18754 13.6086 4.09052C13.5915 3.99349 13.5555 3.90079 13.5025 3.8177C13.4496 3.73461 13.3808 3.66276 13.3001 3.60625C13.2194 3.54974 13.1284 3.50968 13.0322 3.48835C12.936 3.46703 12.8366 3.46486 12.7395 3.48196C12.6425 3.49907 12.5498 3.53512 12.4667 3.58805C12.3836 3.64098 12.3118 3.70976 12.2553 3.79047L11.3637 5.06172C10.6306 4.69153 9.82065 4.49885 8.99934 4.49922C8.94402 4.49922 8.89059 4.49922 8.83621 4.49922L8.56527 2.97203C8.55105 2.87252 8.51698 2.77688 8.46506 2.6908C8.41315 2.60472 8.34447 2.52996 8.26309 2.47095C8.18171 2.41194 8.0893 2.36989 7.99135 2.34731C7.8934 2.32472 7.79191 2.32205 7.69291 2.33946C7.5939 2.35687 7.49941 2.39401 7.41505 2.44866C7.33068 2.50331 7.25816 2.57437 7.2018 2.6576C7.14544 2.74084 7.10638 2.83455 7.08696 2.93318C7.06753 3.0318 7.06813 3.13333 7.08871 3.23172L7.35871 4.76359C6.52692 5.03871 5.77703 5.51726 5.17715 6.15578L3.90027 5.26234C3.81964 5.20444 3.72831 5.16313 3.63158 5.14079C3.53486 5.11846 3.43466 5.11555 3.3368 5.13223C3.23894 5.14892 3.14537 5.18486 3.06151 5.23798C2.97765 5.2911 2.90516 5.36034 2.84827 5.44169C2.79137 5.52304 2.75118 5.61487 2.73004 5.71186C2.70891 5.80886 2.70723 5.90908 2.72512 6.00673C2.74301 6.10437 2.78011 6.19749 2.83426 6.28069C2.88841 6.36389 2.95854 6.43551 3.04059 6.4914L4.31184 7.3839C3.94034 8.11692 3.74759 8.92744 3.74934 9.74922C3.74934 9.80265 3.74934 9.85703 3.74934 9.91047L2.22215 10.1805C2.0373 10.2128 1.8713 10.3134 1.75694 10.4621C1.64257 10.6109 1.58813 10.7972 1.60438 10.9841C1.62063 11.1711 1.70637 11.3452 1.8447 11.472C1.98302 11.5988 2.16386 11.6692 2.35152 11.6692C2.3952 11.6692 2.43879 11.6654 2.48184 11.658L4.01184 11.388C4.14627 11.7973 4.33079 12.1883 4.56121 12.5523C3.84383 13.2187 3.34371 14.0856 3.12599 15.0402C2.90827 15.9948 2.98304 16.9928 3.34056 17.9043C3.69808 18.8158 4.32178 19.5985 5.13043 20.1506C5.93909 20.7026 6.89523 20.9983 7.87434 20.9992H15.3743C17.264 20.9992 19.0763 20.2485 20.4125 18.9124C21.7487 17.5762 22.4993 15.7639 22.4993 13.8742C22.4993 11.9845 21.7487 10.1723 20.4125 8.83608C19.0763 7.49988 17.264 6.74922 15.3743 6.74922ZM8.71059 11.3205C7.72466 11.1503 6.71025 11.2867 5.80434 11.7114C5.30305 10.8834 5.14132 9.89368 5.35298 8.9492C5.56465 8.00472 6.1333 7.17866 6.94001 6.6438C7.74671 6.10894 8.72898 5.90672 9.68135 6.07943C10.6337 6.25214 11.4824 6.7864 12.05 7.57047C10.52 8.37559 9.33369 9.70782 8.71059 11.3205Z" fill="currentColor"/>
</svg>
