<svg width="28" height="28" viewBox="0 0 28 28" fill="none" xmlns="http://www.w3.org/2000/svg">
<path d="M9.6251 21.4371C9.6251 21.6966 9.54812 21.9504 9.4039 22.1662C9.25968 22.3821 9.0547 22.5503 8.81487 22.6497C8.57504 22.749 8.31114 22.775 8.05654 22.7243C7.80194 22.6737 7.56808 22.5487 7.38452 22.3651C7.20096 22.1816 7.07596 21.9477 7.02532 21.6931C6.97467 21.4385 7.00067 21.1746 7.10001 20.9348C7.19935 20.695 7.36757 20.49 7.58341 20.3458C7.79925 20.2015 8.05301 20.1246 8.3126 20.1246C8.66069 20.1246 8.99453 20.2628 9.24068 20.509C9.48682 20.7551 9.6251 21.089 9.6251 21.4371ZM12.6876 21.8746C12.428 21.8746 12.1743 21.9515 11.9584 22.0958C11.7426 22.24 11.5743 22.445 11.475 22.6848C11.3757 22.9246 11.3497 23.1885 11.4003 23.4431C11.451 23.6977 11.576 23.9316 11.7595 24.1151C11.9431 24.2987 12.1769 24.4237 12.4315 24.4743C12.6861 24.525 12.95 24.499 13.1899 24.3997C13.4297 24.3003 13.6347 24.1321 13.7789 23.9162C13.9231 23.7004 14.0001 23.4466 14.0001 23.1871C14.0001 22.839 13.8618 22.5051 13.6157 22.259C13.3695 22.0128 13.0357 21.8746 12.6876 21.8746ZM17.9376 20.1246C17.678 20.1246 17.4243 20.2015 17.2084 20.3458C16.9926 20.49 16.8243 20.695 16.725 20.9348C16.6257 21.1746 16.5997 21.4385 16.6503 21.6931C16.701 21.9477 16.826 22.1816 17.0095 22.3651C17.1931 22.5487 17.4269 22.6737 17.6815 22.7243C17.9361 22.775 18.2 22.749 18.4399 22.6497C18.6797 22.5503 18.8847 22.3821 19.0289 22.1662C19.1731 21.9504 19.2501 21.6966 19.2501 21.4371C19.2501 21.089 19.1118 20.7551 18.8657 20.509C18.6195 20.2628 18.2857 20.1246 17.9376 20.1246ZM7.4376 24.4996C7.17801 24.4996 6.92425 24.5765 6.70841 24.7208C6.49257 24.865 6.32435 25.07 6.22501 25.3098C6.12567 25.5496 6.09967 25.8135 6.15032 26.0681C6.20096 26.3227 6.32596 26.5566 6.50952 26.7401C6.69308 26.9237 6.92694 27.0487 7.18154 27.0993C7.43614 27.15 7.70004 27.124 7.93987 27.0247C8.1797 26.9253 8.38468 26.7571 8.5289 26.5412C8.67312 26.3254 8.7501 26.0716 8.7501 25.8121C8.7501 25.464 8.61182 25.1301 8.36568 24.884C8.11953 24.6378 7.78569 24.4996 7.4376 24.4996ZM17.0626 24.4996C16.803 24.4996 16.5493 24.5765 16.3334 24.7208C16.1176 24.865 15.9493 25.07 15.85 25.3098C15.7507 25.5496 15.7247 25.8135 15.7753 26.0681C15.826 26.3227 15.951 26.5566 16.1345 26.7401C16.3181 26.9237 16.5519 27.0487 16.8065 27.0993C17.0611 27.15 17.325 27.124 17.5649 27.0247C17.8047 26.9253 18.0097 26.7571 18.1539 26.5412C18.2981 26.3254 18.3751 26.0716 18.3751 25.8121C18.3751 25.464 18.2368 25.1301 17.9907 24.884C17.7445 24.6378 17.4107 24.4996 17.0626 24.4996ZM25.3609 9.57534C25.2367 7.45144 24.3029 5.45601 22.7517 3.99991C21.2005 2.54381 19.1501 1.73791 17.0226 1.74814C14.8951 1.75838 12.8525 2.58397 11.3154 4.05491C9.77828 5.52586 8.86369 7.53019 8.75994 9.65519C8.74718 9.88195 8.64865 10.0954 8.48433 10.2522C8.32002 10.409 8.10221 10.4974 7.8751 10.4996H7.80947C7.57849 10.4789 7.36467 10.369 7.21351 10.1931C7.06236 10.0172 6.98579 9.78931 7.0001 9.55784C7.0305 8.94947 7.11579 8.34509 7.25494 7.75206C7.27289 7.6776 7.27098 7.59973 7.2494 7.52624C7.22782 7.45275 7.18732 7.38621 7.13195 7.33328C7.07659 7.28035 7.0083 7.24289 6.93391 7.22463C6.85952 7.20637 6.78165 7.20797 6.70807 7.22925C5.52363 7.57918 4.48499 8.30452 3.74857 9.296C3.01216 10.2875 2.61787 11.4914 2.6251 12.7264C2.64697 15.8666 5.26322 18.3746 8.40447 18.3746H17.0626C18.1948 18.3733 19.3149 18.141 20.3543 17.6919C21.3936 17.2427 22.3304 16.5862 23.1072 15.7625C23.884 14.9388 24.4845 13.9652 24.8721 12.9013C25.2596 11.8375 25.4259 10.7057 25.3609 9.57534Z" fill="currentColor"/>
</svg>
