<svg width="18" height="42" viewBox="0 0 18 42" fill="none" xmlns="http://www.w3.org/2000/svg">
<path d="M8.99021 26.3168C6.75341 26.3168 4.88621 25.5536 3.38861 24.0272C1.90061 22.5008 1.15661 20.648 1.15661 18.4688C1.15661 16.2896 1.90541 14.4368 3.40301 12.9104C4.90061 11.384 6.76301 10.6208 8.99021 10.6208C11.2174 10.6208 13.0846 11.3888 14.5918 12.9248C16.1086 14.4512 16.867 16.2992 16.867 18.4688C16.867 20.648 16.1134 22.5008 14.6062 24.0272C13.099 25.5536 11.227 26.3168 8.99021 26.3168ZM8.99021 23.5376C10.3438 23.5376 11.5054 23.0576 12.475 22.0976C13.4446 21.128 13.9294 19.9184 13.9294 18.4688C13.9294 17.0096 13.4446 15.8 12.475 14.84C11.5054 13.88 10.3438 13.4 8.99021 13.4C7.64621 13.4 6.48941 13.88 5.51981 14.84C4.55981 15.8 4.07981 17.0096 4.07981 18.4688C4.07981 19.9184 4.55981 21.128 5.51981 22.0976C6.47981 23.0576 7.63661 23.5376 8.99021 23.5376Z" fill="white"/>
</svg>
