<svg width="16" height="16" viewBox="0 0 16 16" fill="none" xmlns="http://www.w3.org/2000/svg">
<path opacity="0.2" d="M10 8.625V3C10 2.46957 9.78929 1.96086 9.41421 1.58579C9.03914 1.21071 8.53043 1 8 1C7.46957 1 6.96086 1.21071 6.58579 1.58579C6.21071 1.96086 6 2.46957 6 3V8.625C5.38851 9.05079 4.92886 9.66062 4.68796 10.3657C4.44706 11.0708 4.43748 11.8344 4.66061 12.5454C4.88375 13.2563 5.32795 13.8775 5.92857 14.3185C6.52919 14.7595 7.25487 14.9973 8 14.9973C8.74513 14.9973 9.47081 14.7595 10.0714 14.3185C10.672 13.8775 11.1163 13.2563 11.3394 12.5454C11.5625 11.8344 11.5529 11.0708 11.312 10.3657C11.0711 9.66062 10.6115 9.05079 10 8.625ZM8 13C7.70333 13 7.41332 12.912 7.16664 12.7472C6.91997 12.5824 6.72771 12.3481 6.61418 12.074C6.50065 11.7999 6.47094 11.4983 6.52882 11.2074C6.5867 10.9164 6.72956 10.6491 6.93934 10.4393C7.14912 10.2296 7.41639 10.0867 7.70736 10.0288C7.99834 9.97094 8.29994 10.0006 8.57403 10.1142C8.84811 10.2277 9.08238 10.42 9.2472 10.6666C9.41203 10.9133 9.5 11.2033 9.5 11.5C9.5 11.8978 9.34196 12.2794 9.06066 12.5607C8.77936 12.842 8.39782 13 8 13Z" fill="white"/>
<path d="M8.5 9.5625V5.5C8.5 5.36739 8.44732 5.24021 8.35355 5.14645C8.25979 5.05268 8.13261 5 8 5C7.86739 5 7.74022 5.05268 7.64645 5.14645C7.55268 5.24021 7.5 5.36739 7.5 5.5V9.5625C7.02867 9.6842 6.61791 9.97361 6.3447 10.3765C6.07149 10.7794 5.9546 11.2681 6.01594 11.751C6.07728 12.2339 6.31263 12.6779 6.67788 12.9997C7.04314 13.3215 7.51321 13.499 8 13.499C8.48679 13.499 8.95686 13.3215 9.32212 12.9997C9.68737 12.6779 9.92272 12.2339 9.98406 11.751C10.0454 11.2681 9.92851 10.7794 9.6553 10.3765C9.3821 9.97361 8.97133 9.6842 8.5 9.5625ZM8 12.5C7.80222 12.5 7.60888 12.4414 7.44443 12.3315C7.27998 12.2216 7.15181 12.0654 7.07612 11.8827C7.00043 11.7 6.98063 11.4989 7.01921 11.3049C7.0578 11.1109 7.15304 10.9327 7.29289 10.7929C7.43275 10.653 7.61093 10.5578 7.80491 10.5192C7.99889 10.4806 8.19996 10.5004 8.38268 10.5761C8.56541 10.6518 8.72159 10.78 8.83147 10.9444C8.94135 11.1089 9 11.3022 9 11.5C9 11.7652 8.89464 12.0196 8.70711 12.2071C8.51957 12.3946 8.26522 12.5 8 12.5ZM10.5 8.375V3C10.5 2.33696 10.2366 1.70107 9.76777 1.23223C9.29893 0.763392 8.66304 0.5 8 0.5C7.33696 0.5 6.70107 0.763392 6.23223 1.23223C5.76339 1.70107 5.5 2.33696 5.5 3V8.375C4.85307 8.89296 4.383 9.59906 4.15473 10.3957C3.92646 11.1924 3.95128 12.0403 4.22575 12.8223C4.50021 13.6042 5.01078 14.2816 5.68689 14.7609C6.363 15.2401 7.17127 15.4975 8 15.4975C8.82873 15.4975 9.637 15.2401 10.3131 14.7609C10.9892 14.2816 11.4998 13.6042 11.7743 12.8223C12.0487 12.0403 12.0735 11.1924 11.8453 10.3957C11.617 9.59906 11.1469 8.89296 10.5 8.375ZM8 14.5C7.36122 14.5001 6.73909 14.2962 6.2242 13.9181C5.70931 13.5401 5.32853 13.0075 5.13732 12.398C4.9461 11.7885 4.95442 11.1339 5.16107 10.5295C5.36772 9.92505 5.76191 9.40235 6.28625 9.0375C6.3526 8.99117 6.40671 8.92943 6.44395 8.85758C6.48118 8.78573 6.50041 8.70592 6.5 8.625V3C6.5 2.60218 6.65804 2.22064 6.93934 1.93934C7.22064 1.65804 7.60218 1.5 8 1.5C8.39783 1.5 8.77936 1.65804 9.06066 1.93934C9.34197 2.22064 9.5 2.60218 9.5 3V8.625C9.49999 8.7055 9.51942 8.78481 9.55664 8.85619C9.59385 8.92757 9.64775 8.98891 9.71375 9.035C10.2392 9.39948 10.6344 9.92231 10.8418 10.5272C11.0491 11.1321 11.0577 11.7875 10.8664 12.3977C10.6751 13.0078 10.2938 13.5409 9.77811 13.9191C9.26247 14.2973 8.63947 14.5008 8 14.5Z" fill="white"/>
</svg>
