<svg width="28" height="28" viewBox="0 0 28 28" fill="none" xmlns="http://www.w3.org/2000/svg">
<path d="M17.0626 18.375H14.4956L12.9206 21H15.7501C15.905 21 16.0571 21.041 16.191 21.119C16.3248 21.197 16.4355 21.3092 16.5119 21.444C16.5882 21.5788 16.6273 21.7315 16.6253 21.8864C16.6233 22.0413 16.5802 22.1928 16.5004 22.3256L13.8754 26.7006C13.8162 26.7992 13.7382 26.8851 13.6458 26.9535C13.5535 27.0218 13.4485 27.0714 13.337 27.0992C13.2255 27.127 13.1096 27.1326 12.9959 27.1156C12.8822 27.0987 12.773 27.0595 12.6745 27.0003C12.5759 26.9411 12.49 26.8631 12.4216 26.7708C12.3533 26.6784 12.3037 26.5734 12.2759 26.4619C12.2481 26.3504 12.2425 26.2345 12.2594 26.1208C12.2764 26.0071 12.3156 25.8979 12.3748 25.7994L14.2046 22.75H11.3751C11.2202 22.75 11.068 22.709 10.9342 22.631C10.8004 22.553 10.6896 22.4408 10.6133 22.306C10.537 22.1712 10.4979 22.0185 10.4999 21.8636C10.5019 21.7087 10.545 21.5572 10.6248 21.4244L12.4546 18.375H8.40775C5.26322 18.375 2.64697 15.867 2.62509 12.7269C2.61801 11.4916 3.01261 10.2874 3.74945 9.29592C4.48628 8.3044 5.52541 7.57923 6.71025 7.22969C6.78383 7.20841 6.86171 7.20682 6.93609 7.22507C7.01048 7.24333 7.07877 7.28079 7.13413 7.33372C7.1895 7.38665 7.23 7.45319 7.25158 7.52668C7.27317 7.60017 7.27508 7.67804 7.25712 7.7525C7.11724 8.34546 7.03121 8.94984 7.00009 9.55828C6.9858 9.78992 7.06252 10.018 7.2139 10.1939C7.36529 10.3698 7.57938 10.4796 7.81056 10.5H7.87619C8.10311 10.4976 8.32064 10.409 8.48473 10.2523C8.64881 10.0955 8.74719 9.88221 8.75994 9.65563C8.83956 8.03085 9.39417 6.46515 10.355 5.15253C11.3159 3.83991 12.6408 2.83807 14.1655 2.27114C15.6902 1.70422 17.3478 1.59713 18.9328 1.96315C20.5178 2.32918 21.9606 3.15222 23.0824 4.33029C24.2042 5.50836 24.9556 6.98969 25.2436 8.59071C25.5317 10.1917 25.3436 11.8421 24.7027 13.3372C24.0619 14.8324 22.9964 16.1067 21.6383 17.0022C20.2803 17.8977 18.6893 18.375 17.0626 18.375Z" fill="currentColor"/>
</svg>
