<svg width="24" height="24" viewBox="0 0 24 24" fill="none" xmlns="http://www.w3.org/2000/svg">
  <path d="M12 3v1m0 16v1m8.66-14l-.87.5M4.21 16.5l-.87.5m17.32 0l-.87-.5M4.21 7.5l-.87-.5" stroke="currentColor" stroke-width="1.5" stroke-linecap="round"/>
  <path d="M16 12a4 4 0 0 1-4 4M8 12a4 4 0 0 1 4-4" stroke="currentColor" stroke-width="1.5" stroke-linecap="round"/>
  <path d="M12 2C8 6 4 10 8 16c1 1.5 2.5 3 4 3s3-1.5 4-3c4-6 0-10-4-14z" stroke="currentColor" stroke-width="1.5" stroke-linejoin="round"/>
</svg>
